solid OpenSCAD_Model
  facet normal 0 -1 0
    outer loop
      vertex -2.5 -4.33013 0
      vertex 2.5 -4.33013 5
      vertex -2.5 -4.33013 5
    endloop
  endfacet
  facet normal 0 -1 -0
    outer loop
      vertex 2.5 -4.33013 5
      vertex -2.5 -4.33013 0
      vertex 2.5 -4.33013 0
    endloop
  endfacet
  facet normal 0.866026 -0.5 0
    outer loop
      vertex 2.5 -4.33013 5
      vertex 5 0 0
      vertex 5 0 5
    endloop
  endfacet
  facet normal 0.866026 -0.5 0
    outer loop
      vertex 5 0 0
      vertex 2.5 -4.33013 5
      vertex 2.5 -4.33013 0
    endloop
  endfacet
  facet normal 0 1 -0
    outer loop
      vertex 2.5 4.33013 0
      vertex -2.5 4.33013 5
      vertex 2.5 4.33013 5
    endloop
  endfacet
  facet normal 0 1 0
    outer loop
      vertex -2.5 4.33013 5
      vertex 2.5 4.33013 0
      vertex -2.5 4.33013 0
    endloop
  endfacet
  facet normal 0.866026 0.5 0
    outer loop
      vertex 5 0 5
      vertex 2.5 4.33013 0
      vertex 2.5 4.33013 5
    endloop
  endfacet
  facet normal 0.866026 0.5 0
    outer loop
      vertex 2.5 4.33013 0
      vertex 5 0 5
      vertex 5 0 0
    endloop
  endfacet
  facet normal -0.866026 0.5 0
    outer loop
      vertex -5 0 0
      vertex -2.5 4.33013 5
      vertex -2.5 4.33013 0
    endloop
  endfacet
  facet normal -0.866026 0.5 0
    outer loop
      vertex -2.5 4.33013 5
      vertex -5 0 0
      vertex -5 0 5
    endloop
  endfacet
  facet normal -0.866026 -0.5 0
    outer loop
      vertex -2.5 -4.33013 0
      vertex -5 0 5
      vertex -5 0 0
    endloop
  endfacet
  facet normal -0.866026 -0.5 0
    outer loop
      vertex -5 0 5
      vertex -2.5 -4.33013 0
      vertex -2.5 -4.33013 5
    endloop
  endfacet
  facet normal 0 0 1
    outer loop
      vertex -2.12131 -2.12131 5
      vertex -2.52451 -2.87259 5
      vertex -2.10126 -2.13948 5
    endloop
  endfacet
  facet normal 0 0 1
    outer loop
      vertex -2.31903 -1.90317 5
      vertex -2.52451 -2.87259 5
      vertex -2.12131 -2.12131 5
    endloop
  endfacet
  facet normal 0 0 1
    outer loop
      vertex -2.4944 -1.6667 5
      vertex -2.52451 -2.87259 5
      vertex -2.31903 -1.90317 5
    endloop
  endfacet
  facet normal 0 -0 1
    outer loop
      vertex -2.52451 -2.87259 5
      vertex -2.4944 -1.6667 5
      vertex -2.64575 -1.41418 5
    endloop
  endfacet
  facet normal -0 0 1
    outer loop
      vertex 2.4944 -1.6667 5
      vertex 2.52451 -2.87259 5
      vertex 2.64575 -1.41418 5
    endloop
  endfacet
  facet normal -0 0 1
    outer loop
      vertex 2.31903 -1.90317 5
      vertex 2.52451 -2.87259 5
      vertex 2.4944 -1.6667 5
    endloop
  endfacet
  facet normal -0 0 1
    outer loop
      vertex 2.12131 -2.12131 5
      vertex 2.52451 -2.87259 5
      vertex 2.31903 -1.90317 5
    endloop
  endfacet
  facet normal 0 0 1
    outer loop
      vertex 2.52451 -2.87259 5
      vertex 2.12131 -2.12131 5
      vertex 2.10126 -2.13948 5
    endloop
  endfacet
  facet normal 0 0 1
    outer loop
      vertex 3.75 0.75 5
      vertex 2.87082 0.87085 5
      vertex 2.90109 0.75 5
    endloop
  endfacet
  facet normal 0 0 1
    outer loop
      vertex 3.75 0.75 5
      vertex 2.77164 1.14804 5
      vertex 2.87082 0.87085 5
    endloop
  endfacet
  facet normal 0 0 1
    outer loop
      vertex 3.75 0.75 5
      vertex 2.64575 1.41418 5
      vertex 2.77164 1.14804 5
    endloop
  endfacet
  facet normal 0 0 1
    outer loop
      vertex 2.52451 2.87259 5
      vertex 3.75 0.75 5
      vertex 5 0 5
    endloop
  endfacet
  facet normal 0 0 1
    outer loop
      vertex 3.75 0.75 5
      vertex 2.52451 2.87259 5
      vertex 2.64575 1.41418 5
    endloop
  endfacet
  facet normal 0 0 1
    outer loop
      vertex 2.5 4.33013 5
      vertex 2.52451 2.87259 5
      vertex 5 0 5
    endloop
  endfacet
  facet normal 0 0 1
    outer loop
      vertex 2.5 4.33013 5
      vertex 1.22548 3.62259 5
      vertex 2.52451 2.87259 5
    endloop
  endfacet
  facet normal 0 0 1
    outer loop
      vertex 1.22548 3.62259 5
      vertex 0.585266 2.94235 5
      vertex 0.801483 2.8882 5
    endloop
  endfacet
  facet normal 0 0 1
    outer loop
      vertex 1.22548 3.62259 5
      vertex 0.294037 2.98555 5
      vertex 0.585266 2.94235 5
    endloop
  endfacet
  facet normal 0 0 1
    outer loop
      vertex 1.22548 3.62259 5
      vertex 0 3 5
      vertex 0.294037 2.98555 5
    endloop
  endfacet
  facet normal 0 0 1
    outer loop
      vertex -1.22548 3.62259 5
      vertex 1.22548 3.62259 5
      vertex 2.5 4.33013 5
    endloop
  endfacet
  facet normal 0 0 1
    outer loop
      vertex 1.22548 3.62259 5
      vertex -1.22548 3.62259 5
      vertex 0 3 5
    endloop
  endfacet
  facet normal 0 0 1
    outer loop
      vertex 0 3 5
      vertex -1.22548 3.62259 5
      vertex -0.294037 2.98555 5
    endloop
  endfacet
  facet normal 0 0 1
    outer loop
      vertex -0.294037 2.98555 5
      vertex -1.22548 3.62259 5
      vertex -0.585266 2.94235 5
    endloop
  endfacet
  facet normal 0 0 1
    outer loop
      vertex -0.585266 2.94235 5
      vertex -1.22548 3.62259 5
      vertex -0.801483 2.8882 5
    endloop
  endfacet
  facet normal -0 0 1
    outer loop
      vertex -2.5 4.33013 5
      vertex -1.22548 3.62259 5
      vertex 2.5 4.33013 5
    endloop
  endfacet
  facet normal 0 0 1
    outer loop
      vertex -2.5 4.33013 5
      vertex -2.52451 2.87259 5
      vertex -1.22548 3.62259 5
    endloop
  endfacet
  facet normal 0 0 1
    outer loop
      vertex -3.75 0.75 5
      vertex -2.52451 2.87259 5
      vertex -2.5 4.33013 5
    endloop
  endfacet
  facet normal 0 0 1
    outer loop
      vertex -2.52451 2.87259 5
      vertex -3.75 0.75 5
      vertex -2.64575 1.41418 5
    endloop
  endfacet
  facet normal 0 0 1
    outer loop
      vertex -2.64575 1.41418 5
      vertex -3.75 0.75 5
      vertex -2.77164 1.14804 5
    endloop
  endfacet
  facet normal 0 0 1
    outer loop
      vertex -2.77164 1.14804 5
      vertex -3.75 0.75 5
      vertex -2.87082 0.87085 5
    endloop
  endfacet
  facet normal 0 0 1
    outer loop
      vertex -2.87082 0.87085 5
      vertex -3.75 0.75 5
      vertex -2.90109 0.75 5
    endloop
  endfacet
  facet normal 0 0 1
    outer loop
      vertex -3.75 0.75 5
      vertex -5 0 5
      vertex -3.75 -0.75 5
    endloop
  endfacet
  facet normal 0 0 1
    outer loop
      vertex -5 0 5
      vertex -3.75 0.75 5
      vertex -2.5 4.33013 5
    endloop
  endfacet
  facet normal 0 0 1
    outer loop
      vertex 3.75 -0.75 5
      vertex 5 0 5
      vertex 3.75 0.75 5
    endloop
  endfacet
  facet normal 0 0 1
    outer loop
      vertex 2.87082 -0.87085 5
      vertex 3.75 -0.75 5
      vertex 2.90109 -0.75 5
    endloop
  endfacet
  facet normal 0 0 1
    outer loop
      vertex 2.77164 -1.14804 5
      vertex 3.75 -0.75 5
      vertex 2.87082 -0.87085 5
    endloop
  endfacet
  facet normal 0 0 1
    outer loop
      vertex 2.64575 -1.41418 5
      vertex 3.75 -0.75 5
      vertex 2.77164 -1.14804 5
    endloop
  endfacet
  facet normal 0 0 1
    outer loop
      vertex 2.52451 -2.87259 5
      vertex 3.75 -0.75 5
      vertex 2.64575 -1.41418 5
    endloop
  endfacet
  facet normal -0 0 1
    outer loop
      vertex 3.75 -0.75 5
      vertex 2.52451 -2.87259 5
      vertex 5 0 5
    endloop
  endfacet
  facet normal -0 0 1
    outer loop
      vertex 2.52451 -2.87259 5
      vertex 2.5 -4.33013 5
      vertex 5 0 5
    endloop
  endfacet
  facet normal -0 0 1
    outer loop
      vertex 1.22548 -3.62259 5
      vertex 2.5 -4.33013 5
      vertex 2.52451 -2.87259 5
    endloop
  endfacet
  facet normal -0 0 1
    outer loop
      vertex 0.585266 -2.94235 5
      vertex 1.22548 -3.62259 5
      vertex 0.801483 -2.8882 5
    endloop
  endfacet
  facet normal -0 0 1
    outer loop
      vertex 0.294037 -2.98555 5
      vertex 1.22548 -3.62259 5
      vertex 0.585266 -2.94235 5
    endloop
  endfacet
  facet normal -0 0 1
    outer loop
      vertex 0 -3 5
      vertex 1.22548 -3.62259 5
      vertex 0.294037 -2.98555 5
    endloop
  endfacet
  facet normal 0 0 1
    outer loop
      vertex -1.22548 -3.62259 5
      vertex 1.22548 -3.62259 5
      vertex 0 -3 5
    endloop
  endfacet
  facet normal 0 0 1
    outer loop
      vertex -1.22548 -3.62259 5
      vertex 0 -3 5
      vertex -0.294037 -2.98555 5
    endloop
  endfacet
  facet normal 0 0 1
    outer loop
      vertex -1.22548 -3.62259 5
      vertex -0.294037 -2.98555 5
      vertex -0.585266 -2.94235 5
    endloop
  endfacet
  facet normal 0 0 1
    outer loop
      vertex -1.22548 -3.62259 5
      vertex -0.585266 -2.94235 5
      vertex -0.801483 -2.8882 5
    endloop
  endfacet
  facet normal 0 0 1
    outer loop
      vertex 1.22548 -3.62259 5
      vertex -1.22548 -3.62259 5
      vertex 2.5 -4.33013 5
    endloop
  endfacet
  facet normal 0 0 1
    outer loop
      vertex -1.22548 -3.62259 5
      vertex -2.5 -4.33013 5
      vertex 2.5 -4.33013 5
    endloop
  endfacet
  facet normal 0 0 1
    outer loop
      vertex -2.52451 -2.87259 5
      vertex -2.5 -4.33013 5
      vertex -1.22548 -3.62259 5
    endloop
  endfacet
  facet normal 0 0 1
    outer loop
      vertex -3.75 -0.75 5
      vertex -2.52451 -2.87259 5
      vertex -2.64575 -1.41418 5
    endloop
  endfacet
  facet normal 0 0 1
    outer loop
      vertex -3.75 -0.75 5
      vertex -2.64575 -1.41418 5
      vertex -2.77164 -1.14804 5
    endloop
  endfacet
  facet normal 0 0 1
    outer loop
      vertex -3.75 -0.75 5
      vertex -2.77164 -1.14804 5
      vertex -2.87082 -0.87085 5
    endloop
  endfacet
  facet normal -0 0 1
    outer loop
      vertex -3.75 -0.75 5
      vertex -2.87082 -0.87085 5
      vertex -2.90109 -0.75 5
    endloop
  endfacet
  facet normal 0 0 1
    outer loop
      vertex -2.52451 -2.87259 5
      vertex -3.75 -0.75 5
      vertex -2.5 -4.33013 5
    endloop
  endfacet
  facet normal 0 0 1
    outer loop
      vertex -2.5 -4.33013 5
      vertex -3.75 -0.75 5
      vertex -5 0 5
    endloop
  endfacet
  facet normal 0 0 1
    outer loop
      vertex 2.52451 2.87259 5
      vertex 2.4944 1.6667 5
      vertex 2.64575 1.41418 5
    endloop
  endfacet
  facet normal 0 0 1
    outer loop
      vertex 2.52451 2.87259 5
      vertex 2.31903 1.90317 5
      vertex 2.4944 1.6667 5
    endloop
  endfacet
  facet normal 0 0 1
    outer loop
      vertex 2.52451 2.87259 5
      vertex 2.12131 2.12131 5
      vertex 2.31903 1.90317 5
    endloop
  endfacet
  facet normal 0 -0 1
    outer loop
      vertex 2.12131 2.12131 5
      vertex 2.52451 2.87259 5
      vertex 2.10126 2.13948 5
    endloop
  endfacet
  facet normal 0 0 1
    outer loop
      vertex -2.52451 2.87259 5
      vertex -2.12131 2.12131 5
      vertex -2.10126 2.13948 5
    endloop
  endfacet
  facet normal 0 0 1
    outer loop
      vertex -2.52451 2.87259 5
      vertex -2.31903 1.90317 5
      vertex -2.12131 2.12131 5
    endloop
  endfacet
  facet normal 0 0 1
    outer loop
      vertex -2.52451 2.87259 5
      vertex -2.4944 1.6667 5
      vertex -2.31903 1.90317 5
    endloop
  endfacet
  facet normal 0 0 1
    outer loop
      vertex -2.4944 1.6667 5
      vertex -2.52451 2.87259 5
      vertex -2.64575 1.41418 5
    endloop
  endfacet
  facet normal 0 0 -1
    outer loop
      vertex 2.5 -4.33013 0
      vertex 2.5 4.33013 0
      vertex 5 0 0
    endloop
  endfacet
  facet normal 0 0 -1
    outer loop
      vertex -2.5 -4.33013 0
      vertex 2.5 4.33013 0
      vertex 2.5 -4.33013 0
    endloop
  endfacet
  facet normal 0 0 -1
    outer loop
      vertex -2.5 -4.33013 0
      vertex -2.5 4.33013 0
      vertex 2.5 4.33013 0
    endloop
  endfacet
  facet normal 0 -0 -1
    outer loop
      vertex -2.5 4.33013 0
      vertex -2.5 -4.33013 0
      vertex -5 0 0
    endloop
  endfacet
  facet normal -0 0 1
    outer loop
      vertex 0.801483 2.8882 30
      vertex 2.10126 2.13948 30
      vertex 1.22548 3.62259 30
    endloop
  endfacet
  facet normal 0 0 1
    outer loop
      vertex 1.22548 3.62259 30
      vertex 2.10126 2.13948 30
      vertex 2.52451 2.87259 30
    endloop
  endfacet
  facet normal -0 0 1
    outer loop
      vertex 2.90109 0.75 30
      vertex 3.75 -0.75 30
      vertex 3.75 0.75 30
    endloop
  endfacet
  facet normal 0 0 1
    outer loop
      vertex 2.90109 0.75 30
      vertex 2.90109 -0.75 30
      vertex 3.75 -0.75 30
    endloop
  endfacet
  facet normal 0 0 1
    outer loop
      vertex 2.77164 1.14804 30
      vertex 2.90109 0.75 30
      vertex 2.87082 0.87085 30
    endloop
  endfacet
  facet normal 0 0 1
    outer loop
      vertex 2.90109 0.75 30
      vertex 2.77164 1.14804 30
      vertex 2.90109 -0.75 30
    endloop
  endfacet
  facet normal 0 0 1
    outer loop
      vertex 2.64575 1.41418 30
      vertex 2.90109 -0.75 30
      vertex 2.77164 1.14804 30
    endloop
  endfacet
  facet normal 0 0 1
    outer loop
      vertex 2.90109 -0.75 30
      vertex 2.77164 -1.14804 30
      vertex 2.87082 -0.87085 30
    endloop
  endfacet
  facet normal 0 0 1
    outer loop
      vertex 2.90109 -0.75 30
      vertex 2.64575 1.41418 30
      vertex 2.77164 -1.14804 30
    endloop
  endfacet
  facet normal 0 0 1
    outer loop
      vertex 2.64575 1.41418 30
      vertex 2.64575 -1.41418 30
      vertex 2.77164 -1.14804 30
    endloop
  endfacet
  facet normal 0 0 1
    outer loop
      vertex 2.4944 1.6667 30
      vertex 2.64575 -1.41418 30
      vertex 2.64575 1.41418 30
    endloop
  endfacet
  facet normal 0 0 1
    outer loop
      vertex 2.4944 1.6667 30
      vertex 2.4944 -1.6667 30
      vertex 2.64575 -1.41418 30
    endloop
  endfacet
  facet normal 0 0 1
    outer loop
      vertex 2.31903 1.90317 30
      vertex 2.4944 -1.6667 30
      vertex 2.4944 1.6667 30
    endloop
  endfacet
  facet normal 0 0 1
    outer loop
      vertex 2.31903 1.90317 30
      vertex 2.31903 -1.90317 30
      vertex 2.4944 -1.6667 30
    endloop
  endfacet
  facet normal 0 0 1
    outer loop
      vertex 2.10126 2.13948 30
      vertex 2.31903 1.90317 30
      vertex 2.12131 2.12131 30
    endloop
  endfacet
  facet normal 0 0 1
    outer loop
      vertex 2.31903 1.90317 30
      vertex 2.10126 2.13948 30
      vertex 2.31903 -1.90317 30
    endloop
  endfacet
  facet normal 0 0 1
    outer loop
      vertex 2.10126 -2.13948 30
      vertex 2.31903 -1.90317 30
      vertex 2.10126 2.13948 30
    endloop
  endfacet
  facet normal 0 0 1
    outer loop
      vertex 2.31903 -1.90317 30
      vertex 2.10126 -2.13948 30
      vertex 2.12131 -2.12131 30
    endloop
  endfacet
  facet normal 0 0 1
    outer loop
      vertex 2.10126 -2.13948 30
      vertex 1.22548 -3.62259 30
      vertex 2.52451 -2.87259 30
    endloop
  endfacet
  facet normal 0 0 1
    outer loop
      vertex 2.10126 2.13948 30
      vertex 0.801483 2.8882 30
      vertex 2.10126 -2.13948 30
    endloop
  endfacet
  facet normal 0 0 1
    outer loop
      vertex 0.801483 -2.8882 30
      vertex 2.10126 -2.13948 30
      vertex 0.801483 2.8882 30
    endloop
  endfacet
  facet normal 0 0 1
    outer loop
      vertex 2.10126 -2.13948 30
      vertex 0.801483 -2.8882 30
      vertex 1.22548 -3.62259 30
    endloop
  endfacet
  facet normal 0 0 1
    outer loop
      vertex 0.294037 2.98555 30
      vertex 0.801483 2.8882 30
      vertex 0.585266 2.94235 30
    endloop
  endfacet
  facet normal 0 0 1
    outer loop
      vertex 0.801483 2.8882 30
      vertex 0.294037 2.98555 30
      vertex 0.801483 -2.8882 30
    endloop
  endfacet
  facet normal 0 0 1
    outer loop
      vertex 0.294037 -2.98555 30
      vertex 0.801483 -2.8882 30
      vertex 0.294037 2.98555 30
    endloop
  endfacet
  facet normal 0 0 1
    outer loop
      vertex 0.801483 -2.8882 30
      vertex 0.294037 -2.98555 30
      vertex 0.585266 -2.94235 30
    endloop
  endfacet
  facet normal 0 0 1
    outer loop
      vertex 0 3 30
      vertex 0.294037 -2.98555 30
      vertex 0.294037 2.98555 30
    endloop
  endfacet
  facet normal 0 0 1
    outer loop
      vertex 0 3 30
      vertex 0 -3 30
      vertex 0.294037 -2.98555 30
    endloop
  endfacet
  facet normal -0 0 1
    outer loop
      vertex -0.294037 2.98555 30
      vertex 0 -3 30
      vertex 0 3 30
    endloop
  endfacet
  facet normal 0 0 1
    outer loop
      vertex -0.294037 2.98555 30
      vertex -0.294037 -2.98555 30
      vertex 0 -3 30
    endloop
  endfacet
  facet normal 0 0 1
    outer loop
      vertex -0.801483 2.8882 30
      vertex -0.294037 2.98555 30
      vertex -0.585266 2.94235 30
    endloop
  endfacet
  facet normal 0 0 1
    outer loop
      vertex -0.294037 2.98555 30
      vertex -0.801483 2.8882 30
      vertex -0.294037 -2.98555 30
    endloop
  endfacet
  facet normal -0 0 1
    outer loop
      vertex -0.801483 -2.8882 30
      vertex -0.294037 -2.98555 30
      vertex -0.801483 2.8882 30
    endloop
  endfacet
  facet normal 0 0 1
    outer loop
      vertex -0.294037 -2.98555 30
      vertex -0.801483 -2.8882 30
      vertex -0.585266 -2.94235 30
    endloop
  endfacet
  facet normal 0 0 1
    outer loop
      vertex -2.10126 2.13948 30
      vertex -0.801483 2.8882 30
      vertex -1.22548 3.62259 30
    endloop
  endfacet
  facet normal 0 0 1
    outer loop
      vertex -0.801483 2.8882 30
      vertex -2.10126 2.13948 30
      vertex -0.801483 -2.8882 30
    endloop
  endfacet
  facet normal -0 0 1
    outer loop
      vertex -2.10126 -2.13948 30
      vertex -0.801483 -2.8882 30
      vertex -2.10126 2.13948 30
    endloop
  endfacet
  facet normal 0 -0 1
    outer loop
      vertex -2.10126 2.13948 30
      vertex -1.22548 3.62259 30
      vertex -2.52451 2.87259 30
    endloop
  endfacet
  facet normal 0 0 1
    outer loop
      vertex -2.31903 1.90317 30
      vertex -2.10126 2.13948 30
      vertex -2.12131 2.12131 30
    endloop
  endfacet
  facet normal 0 0 1
    outer loop
      vertex -2.10126 2.13948 30
      vertex -2.31903 1.90317 30
      vertex -2.10126 -2.13948 30
    endloop
  endfacet
  facet normal -0 0 1
    outer loop
      vertex -2.31903 -1.90317 30
      vertex -2.10126 -2.13948 30
      vertex -2.31903 1.90317 30
    endloop
  endfacet
  facet normal 0 0 1
    outer loop
      vertex -2.10126 -2.13948 30
      vertex -2.31903 -1.90317 30
      vertex -2.12131 -2.12131 30
    endloop
  endfacet
  facet normal -0 0 1
    outer loop
      vertex -2.4944 1.6667 30
      vertex -2.31903 -1.90317 30
      vertex -2.31903 1.90317 30
    endloop
  endfacet
  facet normal 0 0 1
    outer loop
      vertex -2.4944 1.6667 30
      vertex -2.4944 -1.6667 30
      vertex -2.31903 -1.90317 30
    endloop
  endfacet
  facet normal -0 0 1
    outer loop
      vertex -2.64575 1.41418 30
      vertex -2.4944 -1.6667 30
      vertex -2.4944 1.6667 30
    endloop
  endfacet
  facet normal 0 0 1
    outer loop
      vertex -2.64575 1.41418 30
      vertex -2.64575 -1.41418 30
      vertex -2.4944 -1.6667 30
    endloop
  endfacet
  facet normal -0 0 1
    outer loop
      vertex -2.77164 1.14804 30
      vertex -2.64575 -1.41418 30
      vertex -2.64575 1.41418 30
    endloop
  endfacet
  facet normal -0 0 1
    outer loop
      vertex -2.90109 0.75 30
      vertex -2.64575 -1.41418 30
      vertex -2.77164 1.14804 30
    endloop
  endfacet
  facet normal 0 0 1
    outer loop
      vertex -2.90109 0.75 30
      vertex -2.77164 1.14804 30
      vertex -2.87082 0.87085 30
    endloop
  endfacet
  facet normal 0 0 1
    outer loop
      vertex -2.64575 -1.41418 30
      vertex -2.90109 0.75 30
      vertex -2.77164 -1.14804 30
    endloop
  endfacet
  facet normal -0 0 1
    outer loop
      vertex -2.90109 -0.75 30
      vertex -2.77164 -1.14804 30
      vertex -2.90109 0.75 30
    endloop
  endfacet
  facet normal 0 0 1
    outer loop
      vertex -2.77164 -1.14804 30
      vertex -2.90109 -0.75 30
      vertex -2.87082 -0.87085 30
    endloop
  endfacet
  facet normal -0 0 1
    outer loop
      vertex -3.75 0.75 30
      vertex -2.90109 -0.75 30
      vertex -2.90109 0.75 30
    endloop
  endfacet
  facet normal 0 0 1
    outer loop
      vertex -2.90109 -0.75 30
      vertex -3.75 0.75 30
      vertex -3.75 -0.75 30
    endloop
  endfacet
  facet normal 0 0 1
    outer loop
      vertex -0.801483 -2.8882 30
      vertex -2.10126 -2.13948 30
      vertex -1.22548 -3.62259 30
    endloop
  endfacet
  facet normal 0 0 1
    outer loop
      vertex -1.22548 -3.62259 30
      vertex -2.10126 -2.13948 30
      vertex -2.52451 -2.87259 30
    endloop
  endfacet
  facet normal 0.866031 0.49999 0
    outer loop
      vertex 2.52451 -2.87259 30
      vertex 2.10126 -2.13948 5
      vertex 2.10126 -2.13948 30
    endloop
  endfacet
  facet normal 0.866031 0.49999 0
    outer loop
      vertex 2.10126 -2.13948 5
      vertex 2.52451 -2.87259 30
      vertex 2.52451 -2.87259 5
    endloop
  endfacet
  facet normal 0.671513 -0.740993 0
    outer loop
      vertex 2.10126 -2.13948 5
      vertex 2.12131 -2.12131 30
      vertex 2.10126 -2.13948 30
    endloop
  endfacet
  facet normal 0.671513 -0.740993 0
    outer loop
      vertex 2.12131 -2.12131 30
      vertex 2.10126 -2.13948 5
      vertex 2.12131 -2.12131 5
    endloop
  endfacet
  facet normal 0.740935 -0.671577 0
    outer loop
      vertex 2.12131 -2.12131 30
      vertex 2.31903 -1.90317 5
      vertex 2.31903 -1.90317 30
    endloop
  endfacet
  facet normal 0.740935 -0.671577 0
    outer loop
      vertex 2.31903 -1.90317 5
      vertex 2.12131 -2.12131 30
      vertex 2.12131 -2.12131 5
    endloop
  endfacet
  facet normal 0.803221 -0.595682 0
    outer loop
      vertex 2.31903 -1.90317 30
      vertex 2.4944 -1.6667 5
      vertex 2.4944 -1.6667 30
    endloop
  endfacet
  facet normal 0.803221 -0.595682 0
    outer loop
      vertex 2.4944 -1.6667 5
      vertex 2.31903 -1.90317 30
      vertex 2.31903 -1.90317 5
    endloop
  endfacet
  facet normal 0.857736 -0.514091 0
    outer loop
      vertex 2.4944 -1.6667 30
      vertex 2.64575 -1.41418 5
      vertex 2.64575 -1.41418 30
    endloop
  endfacet
  facet normal 0.857736 -0.514091 0
    outer loop
      vertex 2.64575 -1.41418 5
      vertex 2.4944 -1.6667 30
      vertex 2.4944 -1.6667 5
    endloop
  endfacet
  facet normal 0.903969 -0.427597 0
    outer loop
      vertex 2.64575 -1.41418 30
      vertex 2.77164 -1.14804 5
      vertex 2.77164 -1.14804 30
    endloop
  endfacet
  facet normal 0.903969 -0.427597 0
    outer loop
      vertex 2.77164 -1.14804 5
      vertex 2.64575 -1.41418 30
      vertex 2.64575 -1.41418 5
    endloop
  endfacet
  facet normal 0.941544 -0.336889 0
    outer loop
      vertex 2.77164 -1.14804 30
      vertex 2.87082 -0.87085 5
      vertex 2.87082 -0.87085 30
    endloop
  endfacet
  facet normal 0.941544 -0.336889 0
    outer loop
      vertex 2.87082 -0.87085 5
      vertex 2.77164 -1.14804 30
      vertex 2.77164 -1.14804 5
    endloop
  endfacet
  facet normal 0.970034 -0.24297 0
    outer loop
      vertex 2.87082 -0.87085 30
      vertex 2.90109 -0.75 5
      vertex 2.90109 -0.75 30
    endloop
  endfacet
  facet normal 0.970034 -0.24297 0
    outer loop
      vertex 2.90109 -0.75 5
      vertex 2.87082 -0.87085 30
      vertex 2.87082 -0.87085 5
    endloop
  endfacet
  facet normal 0 -1 0
    outer loop
      vertex 2.90109 -0.75 5
      vertex 3.75 -0.75 30
      vertex 2.90109 -0.75 30
    endloop
  endfacet
  facet normal 0 -1 -0
    outer loop
      vertex 3.75 -0.75 30
      vertex 2.90109 -0.75 5
      vertex 3.75 -0.75 5
    endloop
  endfacet
  facet normal 1 -0 0
    outer loop
      vertex 3.75 -0.75 30
      vertex 3.75 0.75 5
      vertex 3.75 0.75 30
    endloop
  endfacet
  facet normal 1 0 0
    outer loop
      vertex 3.75 0.75 5
      vertex 3.75 -0.75 30
      vertex 3.75 -0.75 5
    endloop
  endfacet
  facet normal 0 1 -0
    outer loop
      vertex 3.75 0.75 5
      vertex 2.90109 0.75 30
      vertex 3.75 0.75 30
    endloop
  endfacet
  facet normal 0 1 0
    outer loop
      vertex 2.90109 0.75 30
      vertex 3.75 0.75 5
      vertex 2.90109 0.75 5
    endloop
  endfacet
  facet normal 0.970034 0.24297 0
    outer loop
      vertex 2.90109 0.75 30
      vertex 2.87082 0.87085 5
      vertex 2.87082 0.87085 30
    endloop
  endfacet
  facet normal 0.970034 0.24297 0
    outer loop
      vertex 2.87082 0.87085 5
      vertex 2.90109 0.75 30
      vertex 2.90109 0.75 5
    endloop
  endfacet
  facet normal 0.941544 0.336889 0
    outer loop
      vertex 2.87082 0.87085 30
      vertex 2.77164 1.14804 5
      vertex 2.77164 1.14804 30
    endloop
  endfacet
  facet normal 0.941544 0.336889 0
    outer loop
      vertex 2.77164 1.14804 5
      vertex 2.87082 0.87085 30
      vertex 2.87082 0.87085 5
    endloop
  endfacet
  facet normal 0.903969 0.427597 0
    outer loop
      vertex 2.77164 1.14804 30
      vertex 2.64575 1.41418 5
      vertex 2.64575 1.41418 30
    endloop
  endfacet
  facet normal 0.903969 0.427597 0
    outer loop
      vertex 2.64575 1.41418 5
      vertex 2.77164 1.14804 30
      vertex 2.77164 1.14804 5
    endloop
  endfacet
  facet normal 0.857736 0.514091 0
    outer loop
      vertex 2.64575 1.41418 30
      vertex 2.4944 1.6667 5
      vertex 2.4944 1.6667 30
    endloop
  endfacet
  facet normal 0.857736 0.514091 0
    outer loop
      vertex 2.4944 1.6667 5
      vertex 2.64575 1.41418 30
      vertex 2.64575 1.41418 5
    endloop
  endfacet
  facet normal 0.803221 0.595682 0
    outer loop
      vertex 2.4944 1.6667 30
      vertex 2.31903 1.90317 5
      vertex 2.31903 1.90317 30
    endloop
  endfacet
  facet normal 0.803221 0.595682 0
    outer loop
      vertex 2.31903 1.90317 5
      vertex 2.4944 1.6667 30
      vertex 2.4944 1.6667 5
    endloop
  endfacet
  facet normal 0.740935 0.671577 0
    outer loop
      vertex 2.31903 1.90317 30
      vertex 2.12131 2.12131 5
      vertex 2.12131 2.12131 30
    endloop
  endfacet
  facet normal 0.740935 0.671577 0
    outer loop
      vertex 2.12131 2.12131 5
      vertex 2.31903 1.90317 30
      vertex 2.31903 1.90317 5
    endloop
  endfacet
  facet normal 0.671513 0.740993 -0
    outer loop
      vertex 2.12131 2.12131 5
      vertex 2.10126 2.13948 30
      vertex 2.12131 2.12131 30
    endloop
  endfacet
  facet normal 0.671513 0.740993 0
    outer loop
      vertex 2.10126 2.13948 30
      vertex 2.12131 2.12131 5
      vertex 2.10126 2.13948 5
    endloop
  endfacet
  facet normal 0.866031 -0.49999 0
    outer loop
      vertex 2.10126 2.13948 30
      vertex 2.52451 2.87259 5
      vertex 2.52451 2.87259 30
    endloop
  endfacet
  facet normal 0.866031 -0.49999 0
    outer loop
      vertex 2.52451 2.87259 5
      vertex 2.10126 2.13948 30
      vertex 2.10126 2.13948 5
    endloop
  endfacet
  facet normal 0.500002 0.866024 -0
    outer loop
      vertex 2.52451 2.87259 5
      vertex 1.22548 3.62259 30
      vertex 2.52451 2.87259 30
    endloop
  endfacet
  facet normal 0.500002 0.866024 0
    outer loop
      vertex 1.22548 3.62259 30
      vertex 2.52451 2.87259 5
      vertex 1.22548 3.62259 5
    endloop
  endfacet
  facet normal -0.866027 0.499997 0
    outer loop
      vertex 0.801483 2.8882 5
      vertex 1.22548 3.62259 30
      vertex 1.22548 3.62259 5
    endloop
  endfacet
  facet normal -0.866027 0.499997 0
    outer loop
      vertex 1.22548 3.62259 30
      vertex 0.801483 2.8882 5
      vertex 0.801483 2.8882 30
    endloop
  endfacet
  facet normal 0.24294 0.970041 -0
    outer loop
      vertex 0.801483 2.8882 5
      vertex 0.585266 2.94235 30
      vertex 0.801483 2.8882 30
    endloop
  endfacet
  facet normal 0.24294 0.970041 0
    outer loop
      vertex 0.585266 2.94235 30
      vertex 0.801483 2.8882 5
      vertex 0.585266 2.94235 5
    endloop
  endfacet
  facet normal 0.146731 0.989176 -0
    outer loop
      vertex 0.585266 2.94235 5
      vertex 0.294037 2.98555 30
      vertex 0.585266 2.94235 30
    endloop
  endfacet
  facet normal 0.146731 0.989176 0
    outer loop
      vertex 0.294037 2.98555 30
      vertex 0.585266 2.94235 5
      vertex 0.294037 2.98555 5
    endloop
  endfacet
  facet normal 0.0490842 0.998795 -0
    outer loop
      vertex 0.294037 2.98555 5
      vertex 0 3 30
      vertex 0.294037 2.98555 30
    endloop
  endfacet
  facet normal 0.0490842 0.998795 0
    outer loop
      vertex 0 3 30
      vertex 0.294037 2.98555 5
      vertex 0 3 5
    endloop
  endfacet
  facet normal -0.0490842 0.998795 0
    outer loop
      vertex 0 3 5
      vertex -0.294037 2.98555 30
      vertex 0 3 30
    endloop
  endfacet
  facet normal -0.0490842 0.998795 0
    outer loop
      vertex -0.294037 2.98555 30
      vertex 0 3 5
      vertex -0.294037 2.98555 5
    endloop
  endfacet
  facet normal -0.146731 0.989176 0
    outer loop
      vertex -0.294037 2.98555 5
      vertex -0.585266 2.94235 30
      vertex -0.294037 2.98555 30
    endloop
  endfacet
  facet normal -0.146731 0.989176 0
    outer loop
      vertex -0.585266 2.94235 30
      vertex -0.294037 2.98555 5
      vertex -0.585266 2.94235 5
    endloop
  endfacet
  facet normal -0.24294 0.970041 0
    outer loop
      vertex -0.585266 2.94235 5
      vertex -0.801483 2.8882 30
      vertex -0.585266 2.94235 30
    endloop
  endfacet
  facet normal -0.24294 0.970041 0
    outer loop
      vertex -0.801483 2.8882 30
      vertex -0.585266 2.94235 5
      vertex -0.801483 2.8882 5
    endloop
  endfacet
  facet normal 0.866027 0.499997 0
    outer loop
      vertex -0.801483 2.8882 30
      vertex -1.22548 3.62259 5
      vertex -1.22548 3.62259 30
    endloop
  endfacet
  facet normal 0.866027 0.499997 0
    outer loop
      vertex -1.22548 3.62259 5
      vertex -0.801483 2.8882 30
      vertex -0.801483 2.8882 5
    endloop
  endfacet
  facet normal -0.500002 0.866024 0
    outer loop
      vertex -1.22548 3.62259 5
      vertex -2.52451 2.87259 30
      vertex -1.22548 3.62259 30
    endloop
  endfacet
  facet normal -0.500002 0.866024 0
    outer loop
      vertex -2.52451 2.87259 30
      vertex -1.22548 3.62259 5
      vertex -2.52451 2.87259 5
    endloop
  endfacet
  facet normal -0.866031 -0.49999 0
    outer loop
      vertex -2.10126 2.13948 5
      vertex -2.52451 2.87259 30
      vertex -2.52451 2.87259 5
    endloop
  endfacet
  facet normal -0.866031 -0.49999 0
    outer loop
      vertex -2.52451 2.87259 30
      vertex -2.10126 2.13948 5
      vertex -2.10126 2.13948 30
    endloop
  endfacet
  facet normal -0.671513 0.740993 0
    outer loop
      vertex -2.10126 2.13948 5
      vertex -2.12131 2.12131 30
      vertex -2.10126 2.13948 30
    endloop
  endfacet
  facet normal -0.671513 0.740993 0
    outer loop
      vertex -2.12131 2.12131 30
      vertex -2.10126 2.13948 5
      vertex -2.12131 2.12131 5
    endloop
  endfacet
  facet normal -0.740935 0.671577 0
    outer loop
      vertex -2.31903 1.90317 5
      vertex -2.12131 2.12131 30
      vertex -2.12131 2.12131 5
    endloop
  endfacet
  facet normal -0.740935 0.671577 0
    outer loop
      vertex -2.12131 2.12131 30
      vertex -2.31903 1.90317 5
      vertex -2.31903 1.90317 30
    endloop
  endfacet
  facet normal -0.803221 0.595682 0
    outer loop
      vertex -2.4944 1.6667 5
      vertex -2.31903 1.90317 30
      vertex -2.31903 1.90317 5
    endloop
  endfacet
  facet normal -0.803221 0.595682 0
    outer loop
      vertex -2.31903 1.90317 30
      vertex -2.4944 1.6667 5
      vertex -2.4944 1.6667 30
    endloop
  endfacet
  facet normal -0.857736 0.514091 0
    outer loop
      vertex -2.64575 1.41418 5
      vertex -2.4944 1.6667 30
      vertex -2.4944 1.6667 5
    endloop
  endfacet
  facet normal -0.857736 0.514091 0
    outer loop
      vertex -2.4944 1.6667 30
      vertex -2.64575 1.41418 5
      vertex -2.64575 1.41418 30
    endloop
  endfacet
  facet normal -0.903969 0.427597 0
    outer loop
      vertex -2.77164 1.14804 5
      vertex -2.64575 1.41418 30
      vertex -2.64575 1.41418 5
    endloop
  endfacet
  facet normal -0.903969 0.427597 0
    outer loop
      vertex -2.64575 1.41418 30
      vertex -2.77164 1.14804 5
      vertex -2.77164 1.14804 30
    endloop
  endfacet
  facet normal -0.941544 0.336889 0
    outer loop
      vertex -2.87082 0.87085 5
      vertex -2.77164 1.14804 30
      vertex -2.77164 1.14804 5
    endloop
  endfacet
  facet normal -0.941544 0.336889 0
    outer loop
      vertex -2.77164 1.14804 30
      vertex -2.87082 0.87085 5
      vertex -2.87082 0.87085 30
    endloop
  endfacet
  facet normal -0.970034 0.24297 0
    outer loop
      vertex -2.90109 0.75 5
      vertex -2.87082 0.87085 30
      vertex -2.87082 0.87085 5
    endloop
  endfacet
  facet normal -0.970034 0.24297 0
    outer loop
      vertex -2.87082 0.87085 30
      vertex -2.90109 0.75 5
      vertex -2.90109 0.75 30
    endloop
  endfacet
  facet normal 0 1 -0
    outer loop
      vertex -2.90109 0.75 5
      vertex -3.75 0.75 30
      vertex -2.90109 0.75 30
    endloop
  endfacet
  facet normal 0 1 0
    outer loop
      vertex -3.75 0.75 30
      vertex -2.90109 0.75 5
      vertex -3.75 0.75 5
    endloop
  endfacet
  facet normal -1 0 0
    outer loop
      vertex -3.75 -0.75 5
      vertex -3.75 0.75 30
      vertex -3.75 0.75 5
    endloop
  endfacet
  facet normal -1 -0 0
    outer loop
      vertex -3.75 0.75 30
      vertex -3.75 -0.75 5
      vertex -3.75 -0.75 30
    endloop
  endfacet
  facet normal 0 -1 0
    outer loop
      vertex -3.75 -0.75 5
      vertex -2.90109 -0.75 30
      vertex -3.75 -0.75 30
    endloop
  endfacet
  facet normal 0 -1 -0
    outer loop
      vertex -2.90109 -0.75 30
      vertex -3.75 -0.75 5
      vertex -2.90109 -0.75 5
    endloop
  endfacet
  facet normal -0.970034 -0.24297 0
    outer loop
      vertex -2.87082 -0.87085 5
      vertex -2.90109 -0.75 30
      vertex -2.90109 -0.75 5
    endloop
  endfacet
  facet normal -0.970034 -0.24297 0
    outer loop
      vertex -2.90109 -0.75 30
      vertex -2.87082 -0.87085 5
      vertex -2.87082 -0.87085 30
    endloop
  endfacet
  facet normal -0.941544 -0.336889 0
    outer loop
      vertex -2.77164 -1.14804 5
      vertex -2.87082 -0.87085 30
      vertex -2.87082 -0.87085 5
    endloop
  endfacet
  facet normal -0.941544 -0.336889 0
    outer loop
      vertex -2.87082 -0.87085 30
      vertex -2.77164 -1.14804 5
      vertex -2.77164 -1.14804 30
    endloop
  endfacet
  facet normal -0.903969 -0.427597 0
    outer loop
      vertex -2.64575 -1.41418 5
      vertex -2.77164 -1.14804 30
      vertex -2.77164 -1.14804 5
    endloop
  endfacet
  facet normal -0.903969 -0.427597 0
    outer loop
      vertex -2.77164 -1.14804 30
      vertex -2.64575 -1.41418 5
      vertex -2.64575 -1.41418 30
    endloop
  endfacet
  facet normal -0.857736 -0.514091 0
    outer loop
      vertex -2.4944 -1.6667 5
      vertex -2.64575 -1.41418 30
      vertex -2.64575 -1.41418 5
    endloop
  endfacet
  facet normal -0.857736 -0.514091 0
    outer loop
      vertex -2.64575 -1.41418 30
      vertex -2.4944 -1.6667 5
      vertex -2.4944 -1.6667 30
    endloop
  endfacet
  facet normal -0.803221 -0.595682 0
    outer loop
      vertex -2.31903 -1.90317 5
      vertex -2.4944 -1.6667 30
      vertex -2.4944 -1.6667 5
    endloop
  endfacet
  facet normal -0.803221 -0.595682 0
    outer loop
      vertex -2.4944 -1.6667 30
      vertex -2.31903 -1.90317 5
      vertex -2.31903 -1.90317 30
    endloop
  endfacet
  facet normal -0.740935 -0.671577 0
    outer loop
      vertex -2.12131 -2.12131 5
      vertex -2.31903 -1.90317 30
      vertex -2.31903 -1.90317 5
    endloop
  endfacet
  facet normal -0.740935 -0.671577 0
    outer loop
      vertex -2.31903 -1.90317 30
      vertex -2.12131 -2.12131 5
      vertex -2.12131 -2.12131 30
    endloop
  endfacet
  facet normal -0.671513 -0.740993 0
    outer loop
      vertex -2.12131 -2.12131 5
      vertex -2.10126 -2.13948 30
      vertex -2.12131 -2.12131 30
    endloop
  endfacet
  facet normal -0.671513 -0.740993 -0
    outer loop
      vertex -2.10126 -2.13948 30
      vertex -2.12131 -2.12131 5
      vertex -2.10126 -2.13948 5
    endloop
  endfacet
  facet normal -0.866031 0.49999 0
    outer loop
      vertex -2.52451 -2.87259 5
      vertex -2.10126 -2.13948 30
      vertex -2.10126 -2.13948 5
    endloop
  endfacet
  facet normal -0.866031 0.49999 0
    outer loop
      vertex -2.10126 -2.13948 30
      vertex -2.52451 -2.87259 5
      vertex -2.52451 -2.87259 30
    endloop
  endfacet
  facet normal -0.500002 -0.866024 0
    outer loop
      vertex -2.52451 -2.87259 5
      vertex -1.22548 -3.62259 30
      vertex -2.52451 -2.87259 30
    endloop
  endfacet
  facet normal -0.500002 -0.866024 -0
    outer loop
      vertex -1.22548 -3.62259 30
      vertex -2.52451 -2.87259 5
      vertex -1.22548 -3.62259 5
    endloop
  endfacet
  facet normal 0.866027 -0.499997 0
    outer loop
      vertex -1.22548 -3.62259 30
      vertex -0.801483 -2.8882 5
      vertex -0.801483 -2.8882 30
    endloop
  endfacet
  facet normal 0.866027 -0.499997 0
    outer loop
      vertex -0.801483 -2.8882 5
      vertex -1.22548 -3.62259 30
      vertex -1.22548 -3.62259 5
    endloop
  endfacet
  facet normal -0.24294 -0.970041 0
    outer loop
      vertex -0.801483 -2.8882 5
      vertex -0.585266 -2.94235 30
      vertex -0.801483 -2.8882 30
    endloop
  endfacet
  facet normal -0.24294 -0.970041 -0
    outer loop
      vertex -0.585266 -2.94235 30
      vertex -0.801483 -2.8882 5
      vertex -0.585266 -2.94235 5
    endloop
  endfacet
  facet normal -0.146731 -0.989176 0
    outer loop
      vertex -0.585266 -2.94235 5
      vertex -0.294037 -2.98555 30
      vertex -0.585266 -2.94235 30
    endloop
  endfacet
  facet normal -0.146731 -0.989176 -0
    outer loop
      vertex -0.294037 -2.98555 30
      vertex -0.585266 -2.94235 5
      vertex -0.294037 -2.98555 5
    endloop
  endfacet
  facet normal -0.0490842 -0.998795 0
    outer loop
      vertex -0.294037 -2.98555 5
      vertex 0 -3 30
      vertex -0.294037 -2.98555 30
    endloop
  endfacet
  facet normal -0.0490842 -0.998795 -0
    outer loop
      vertex 0 -3 30
      vertex -0.294037 -2.98555 5
      vertex 0 -3 5
    endloop
  endfacet
  facet normal 0.0490842 -0.998795 0
    outer loop
      vertex 0 -3 5
      vertex 0.294037 -2.98555 30
      vertex 0 -3 30
    endloop
  endfacet
  facet normal 0.0490842 -0.998795 0
    outer loop
      vertex 0.294037 -2.98555 30
      vertex 0 -3 5
      vertex 0.294037 -2.98555 5
    endloop
  endfacet
  facet normal 0.146731 -0.989176 0
    outer loop
      vertex 0.294037 -2.98555 5
      vertex 0.585266 -2.94235 30
      vertex 0.294037 -2.98555 30
    endloop
  endfacet
  facet normal 0.146731 -0.989176 0
    outer loop
      vertex 0.585266 -2.94235 30
      vertex 0.294037 -2.98555 5
      vertex 0.585266 -2.94235 5
    endloop
  endfacet
  facet normal 0.24294 -0.970041 0
    outer loop
      vertex 0.585266 -2.94235 5
      vertex 0.801483 -2.8882 30
      vertex 0.585266 -2.94235 30
    endloop
  endfacet
  facet normal 0.24294 -0.970041 0
    outer loop
      vertex 0.801483 -2.8882 30
      vertex 0.585266 -2.94235 5
      vertex 0.801483 -2.8882 5
    endloop
  endfacet
  facet normal -0.866027 -0.499997 0
    outer loop
      vertex 1.22548 -3.62259 5
      vertex 0.801483 -2.8882 30
      vertex 0.801483 -2.8882 5
    endloop
  endfacet
  facet normal -0.866027 -0.499997 0
    outer loop
      vertex 0.801483 -2.8882 30
      vertex 1.22548 -3.62259 5
      vertex 1.22548 -3.62259 30
    endloop
  endfacet
  facet normal 0.500002 -0.866024 0
    outer loop
      vertex 1.22548 -3.62259 5
      vertex 2.52451 -2.87259 30
      vertex 1.22548 -3.62259 30
    endloop
  endfacet
  facet normal 0.500002 -0.866024 0
    outer loop
      vertex 2.52451 -2.87259 30
      vertex 1.22548 -3.62259 5
      vertex 2.52451 -2.87259 5
    endloop
  endfacet
  facet normal 0 1 -0
    outer loop
      vertex 1.25 -2.16506 2.5
      vertex -1.25 -2.16506 7.5
      vertex 1.25 -2.16506 7.5
    endloop
  endfacet
  facet normal 0 1 0
    outer loop
      vertex -1.25 -2.16506 7.5
      vertex 1.25 -2.16506 2.5
      vertex -1.25 -2.16506 2.5
    endloop
  endfacet
  facet normal -0.866025 0.500001 0
    outer loop
      vertex 1.25 -2.16506 2.5
      vertex 2.5 0 7.5
      vertex 2.5 0 2.5
    endloop
  endfacet
  facet normal -0.866025 0.500001 0
    outer loop
      vertex 2.5 0 7.5
      vertex 1.25 -2.16506 2.5
      vertex 1.25 -2.16506 7.5
    endloop
  endfacet
  facet normal 0 -1 0
    outer loop
      vertex -1.25 2.16506 2.5
      vertex 1.25 2.16506 7.5
      vertex -1.25 2.16506 7.5
    endloop
  endfacet
  facet normal 0 -1 -0
    outer loop
      vertex 1.25 2.16506 7.5
      vertex -1.25 2.16506 2.5
      vertex 1.25 2.16506 2.5
    endloop
  endfacet
  facet normal -0.866025 -0.500001 0
    outer loop
      vertex 2.5 0 2.5
      vertex 1.25 2.16506 7.5
      vertex 1.25 2.16506 2.5
    endloop
  endfacet
  facet normal -0.866025 -0.500001 0
    outer loop
      vertex 1.25 2.16506 7.5
      vertex 2.5 0 2.5
      vertex 2.5 0 7.5
    endloop
  endfacet
  facet normal 0.866025 -0.500001 0
    outer loop
      vertex -2.5 0 7.5
      vertex -1.25 2.16506 2.5
      vertex -1.25 2.16506 7.5
    endloop
  endfacet
  facet normal 0.866025 -0.500001 0
    outer loop
      vertex -1.25 2.16506 2.5
      vertex -2.5 0 7.5
      vertex -2.5 0 2.5
    endloop
  endfacet
  facet normal 0.866025 0.500001 0
    outer loop
      vertex -1.25 -2.16506 7.5
      vertex -2.5 0 2.5
      vertex -2.5 0 7.5
    endloop
  endfacet
  facet normal 0.866025 0.500001 0
    outer loop
      vertex -2.5 0 2.5
      vertex -1.25 -2.16506 7.5
      vertex -1.25 -2.16506 2.5
    endloop
  endfacet
  facet normal 0 0 -1
    outer loop
      vertex 1.25 -2.16506 7.5
      vertex 1.25 2.16506 7.5
      vertex 2.5 0 7.5
    endloop
  endfacet
  facet normal 0 0 -1
    outer loop
      vertex -1.25 -2.16506 7.5
      vertex 1.25 2.16506 7.5
      vertex 1.25 -2.16506 7.5
    endloop
  endfacet
  facet normal 0 0 -1
    outer loop
      vertex -1.25 -2.16506 7.5
      vertex -1.25 2.16506 7.5
      vertex 1.25 2.16506 7.5
    endloop
  endfacet
  facet normal 0 -0 -1
    outer loop
      vertex -1.25 2.16506 7.5
      vertex -1.25 -2.16506 7.5
      vertex -2.5 0 7.5
    endloop
  endfacet
  facet normal 0 0 1
    outer loop
      vertex 1.25 2.16506 2.5
      vertex 1.25 -2.16506 2.5
      vertex 2.5 0 2.5
    endloop
  endfacet
  facet normal -0 0 1
    outer loop
      vertex -1.25 2.16506 2.5
      vertex 1.25 -2.16506 2.5
      vertex 1.25 2.16506 2.5
    endloop
  endfacet
  facet normal 0 0 1
    outer loop
      vertex -1.25 2.16506 2.5
      vertex -1.25 -2.16506 2.5
      vertex 1.25 -2.16506 2.5
    endloop
  endfacet
  facet normal 0 -0 1
    outer loop
      vertex -1.25 -2.16506 2.5
      vertex -1.25 2.16506 2.5
      vertex -2.5 0 2.5
    endloop
  endfacet
endsolid OpenSCAD_Model
