solid OpenSCAD_Model
  facet normal 0.00526296 0.00526296 0.999972
    outer loop
      vertex 28.2843 11.7157 0.05
      vertex 21 0 0.149999
      vertex 40 0 0.05
    endloop
  endfacet
  facet normal 0.00526294 0.00526297 0.999972
    outer loop
      vertex 20 8.28427 0.111661
      vertex 21 0 0.149999
      vertex 28.2843 11.7157 0.05
    endloop
  endfacet
  facet normal 0.00526298 0.00526298 0.999972
    outer loop
      vertex 21 0 0.149999
      vertex 20 8.28427 0.111661
      vertex 20 1 0.149999
    endloop
  endfacet
  facet normal 0 0 -1
    outer loop
      vertex -28.2843 -11.7157 0.05
      vertex -40 0 0.05
      vertex -28.2843 11.7157 0.05
    endloop
  endfacet
  facet normal 0 0 -1
    outer loop
      vertex 11.7157 -28.2843 0.05
      vertex 28.2843 -11.7157 0.05
      vertex 28.2843 -28.2843 0.05
    endloop
  endfacet
  facet normal -0 0 -1
    outer loop
      vertex 28.2843 -11.7157 0.05
      vertex 11.7157 -28.2843 0.05
      vertex 28.2843 11.7157 0.05
    endloop
  endfacet
  facet normal 0 0 -1
    outer loop
      vertex 11.7157 28.2843 0.05
      vertex 28.2843 11.7157 0.05
      vertex 11.7157 -28.2843 0.05
    endloop
  endfacet
  facet normal 0 0 -1
    outer loop
      vertex 28.2843 11.7157 0.05
      vertex 11.7157 28.2843 0.05
      vertex 28.2843 28.2843 0.05
    endloop
  endfacet
  facet normal 0 0 -1
    outer loop
      vertex -11.7157 -28.2843 0.05
      vertex 11.7157 -28.2843 0.05
      vertex 0 -40 0.05
    endloop
  endfacet
  facet normal 0 0 -1
    outer loop
      vertex 11.7157 -28.2843 0.05
      vertex -11.7157 -28.2843 0.05
      vertex 11.7157 28.2843 0.05
    endloop
  endfacet
  facet normal 0 0 -1
    outer loop
      vertex -11.7157 28.2843 0.05
      vertex 11.7157 28.2843 0.05
      vertex -11.7157 -28.2843 0.05
    endloop
  endfacet
  facet normal 0 0 -1
    outer loop
      vertex 11.7157 28.2843 0.05
      vertex -11.7157 28.2843 0.05
      vertex 0 40 0.05
    endloop
  endfacet
  facet normal 0 0 -1
    outer loop
      vertex -28.2843 -11.7157 0.05
      vertex -11.7157 -28.2843 0.05
      vertex -28.2843 -28.2843 0.05
    endloop
  endfacet
  facet normal 0 0 -1
    outer loop
      vertex -11.7157 -28.2843 0.05
      vertex -28.2843 -11.7157 0.05
      vertex -11.7157 28.2843 0.05
    endloop
  endfacet
  facet normal 0 0 -1
    outer loop
      vertex -28.2843 11.7157 0.05
      vertex -11.7157 28.2843 0.05
      vertex -28.2843 -11.7157 0.05
    endloop
  endfacet
  facet normal -0 0 -1
    outer loop
      vertex -11.7157 28.2843 0.05
      vertex -28.2843 11.7157 0.05
      vertex -28.2843 28.2843 0.05
    endloop
  endfacet
  facet normal -0 0 -1
    outer loop
      vertex 40 0 0.05
      vertex 28.2843 -11.7157 0.05
      vertex 28.2843 11.7157 0.05
    endloop
  endfacet
  facet normal 0.00526296 -0.00526296 0.999972
    outer loop
      vertex 21 0 0.149999
      vertex 28.2843 -11.7157 0.05
      vertex 40 0 0.05
    endloop
  endfacet
  facet normal 0.00526298 -0.00526298 0.999972
    outer loop
      vertex 20 -8.28427 0.111661
      vertex 21 0 0.149999
      vertex 20 -1 0.149999
    endloop
  endfacet
  facet normal 0.00526294 -0.00526297 0.999972
    outer loop
      vertex 21 0 0.149999
      vertex 20 -8.28427 0.111661
      vertex 28.2843 -11.7157 0.05
    endloop
  endfacet
  facet normal -0.00526298 -0.00526298 0.999972
    outer loop
      vertex 19 0 0.149999
      vertex 20 -8.28427 0.111661
      vertex 20 -1 0.149999
    endloop
  endfacet
  facet normal -0.00526296 -0.00526287 0.999972
    outer loop
      vertex 0.923879 -0.382683 0.0528484
      vertex 19 0 0.149999
      vertex 1 0 0.0552631
    endloop
  endfacet
  facet normal -0.00526296 -0.00526297 0.999972
    outer loop
      vertex 19 0 0.149999
      vertex 0.923879 -0.382683 0.0528484
      vertex 20 -8.28427 0.111661
    endloop
  endfacet
  facet normal -0.00526304 -0.00526304 0.999972
    outer loop
      vertex 14.8492 -13.435 0.0574432
      vertex 13.435 -13.435 0.05
      vertex 14.8492 -14.8492 0.05
    endloop
  endfacet
  facet normal -0.00526298 0.00526298 0.999972
    outer loop
      vertex 20 8.28427 0.111661
      vertex 19 0 0.149999
      vertex 20 1 0.149999
    endloop
  endfacet
  facet normal -0.00526296 0.00526297 0.999972
    outer loop
      vertex 0.923879 0.382683 0.0528484
      vertex 19 0 0.149999
      vertex 20 8.28427 0.111661
    endloop
  endfacet
  facet normal -0.00526296 0.00526287 0.999972
    outer loop
      vertex 19 0 0.149999
      vertex 0.923879 0.382683 0.0528484
      vertex 1 0 0.0552631
    endloop
  endfacet
  facet normal -0.00526304 0.00526304 0.999972
    outer loop
      vertex 14.8492 14.8492 0.05
      vertex 13.435 13.435 0.05
      vertex 14.8492 13.435 0.0574432
    endloop
  endfacet
  facet normal 0.707107 -0.707107 0
    outer loop
      vertex 19 0 0.149999
      vertex 20 1 0.0574432
      vertex 20 1 0.149999
    endloop
  endfacet
  facet normal 0.707107 -0.707107 0
    outer loop
      vertex 20 1 0.0574432
      vertex 19 0 0.149999
      vertex 19 0 0.05
    endloop
  endfacet
  facet normal -0.707107 -0.707107 0
    outer loop
      vertex 21 0 0.05
      vertex 20 1 0.149999
      vertex 20 1 0.0574432
    endloop
  endfacet
  facet normal -0.707107 -0.707107 0
    outer loop
      vertex 20 1 0.149999
      vertex 21 0 0.05
      vertex 21 0 0.149999
    endloop
  endfacet
  facet normal -0.707107 0.707107 0
    outer loop
      vertex 20 -1 0.0574432
      vertex 21 0 0.149999
      vertex 21 0 0.05
    endloop
  endfacet
  facet normal -0.707107 0.707107 0
    outer loop
      vertex 21 0 0.149999
      vertex 20 -1 0.0574432
      vertex 20 -1 0.149999
    endloop
  endfacet
  facet normal 0.707107 0.707107 0
    outer loop
      vertex 20 -1 0.149999
      vertex 19 0 0.05
      vertex 19 0 0.149999
    endloop
  endfacet
  facet normal 0.707107 0.707107 0
    outer loop
      vertex 19 0 0.05
      vertex 20 -1 0.149999
      vertex 20 -1 0.0574432
    endloop
  endfacet
  facet normal -0 0.00744291 0.999972
    outer loop
      vertex 11.7157 28.2843 0.05
      vertex 14.8492 14.8492 0.149999
      vertex 28.2843 28.2843 0.05
    endloop
  endfacet
  facet normal -2.02602e-10 0.00744291 0.999972
    outer loop
      vertex 8.28427 20 0.111661
      vertex 14.8492 14.8492 0.149999
      vertex 11.7157 28.2843 0.05
    endloop
  endfacet
  facet normal 0 0.00744291 0.999972
    outer loop
      vertex 14.8492 14.8492 0.149999
      vertex 8.28427 20 0.111661
      vertex 13.435 14.8492 0.149999
    endloop
  endfacet
  facet normal 0.00744291 0 0.999972
    outer loop
      vertex 14.8492 14.8492 0.149999
      vertex 28.2843 11.7157 0.05
      vertex 28.2843 28.2843 0.05
    endloop
  endfacet
  facet normal 0.00744291 -2.02602e-10 0.999972
    outer loop
      vertex 28.2843 11.7157 0.05
      vertex 14.8492 14.8492 0.149999
      vertex 20 8.28427 0.111661
    endloop
  endfacet
  facet normal 0.00744291 0 0.999972
    outer loop
      vertex 20 8.28427 0.111661
      vertex 14.8492 14.8492 0.149999
      vertex 14.8492 13.435 0.149999
    endloop
  endfacet
  facet normal 0 -0.00744299 0.999972
    outer loop
      vertex 20 1 0.0574432
      vertex 19 0 0.05
      vertex 21 0 0.05
    endloop
  endfacet
  facet normal 0 -0.00744301 0.999972
    outer loop
      vertex 13.435 13.435 0.149999
      vertex 20 8.28427 0.111661
      vertex 14.8492 13.435 0.149999
    endloop
  endfacet
  facet normal 2.14422e-08 -0.00744298 0.999972
    outer loop
      vertex 13.435 13.435 0.149999
      vertex 0.923879 0.382683 0.0528484
      vertex 20 8.28427 0.111661
    endloop
  endfacet
  facet normal -8.07718e-08 -0.00744289 0.999972
    outer loop
      vertex 0.923879 0.382683 0.0528484
      vertex 13.435 13.435 0.149999
      vertex 0.707107 0.707107 0.0552631
    endloop
  endfacet
  facet normal -0.00744299 0 0.999972
    outer loop
      vertex 0 21 0.05
      vertex 0 19 0.05
      vertex 1 20 0.0574432
    endloop
  endfacet
  facet normal -0.00744301 0 0.999972
    outer loop
      vertex 8.28427 20 0.111661
      vertex 13.435 13.435 0.149999
      vertex 13.435 14.8492 0.149999
    endloop
  endfacet
  facet normal -0.00744298 2.14422e-08 0.999972
    outer loop
      vertex 0.382683 0.923879 0.0528484
      vertex 13.435 13.435 0.149999
      vertex 8.28427 20 0.111661
    endloop
  endfacet
  facet normal -0.00744289 -8.07718e-08 0.999972
    outer loop
      vertex 13.435 13.435 0.149999
      vertex 0.382683 0.923879 0.0528484
      vertex 0.707107 0.707107 0.0552631
    endloop
  endfacet
  facet normal 1 -0 0
    outer loop
      vertex 13.435 13.435 0.149999
      vertex 13.435 14.8492 0.0574432
      vertex 13.435 14.8492 0.149999
    endloop
  endfacet
  facet normal 1 0 0
    outer loop
      vertex 13.435 14.8492 0.0574432
      vertex 13.435 13.435 0.149999
      vertex 13.435 13.435 0.05
    endloop
  endfacet
  facet normal 0 -1 0
    outer loop
      vertex 13.435 14.8492 0.0574432
      vertex 14.8492 14.8492 0.149999
      vertex 13.435 14.8492 0.149999
    endloop
  endfacet
  facet normal 0 -1 -0
    outer loop
      vertex 14.8492 14.8492 0.149999
      vertex 13.435 14.8492 0.0574432
      vertex 14.8492 14.8492 0.05
    endloop
  endfacet
  facet normal -1 0 0
    outer loop
      vertex 14.8492 13.435 0.0574432
      vertex 14.8492 14.8492 0.149999
      vertex 14.8492 14.8492 0.05
    endloop
  endfacet
  facet normal -1 -0 0
    outer loop
      vertex 14.8492 14.8492 0.149999
      vertex 14.8492 13.435 0.0574432
      vertex 14.8492 13.435 0.149999
    endloop
  endfacet
  facet normal 0 1 -0
    outer loop
      vertex 14.8492 13.435 0.0574432
      vertex 13.435 13.435 0.149999
      vertex 14.8492 13.435 0.149999
    endloop
  endfacet
  facet normal 0 1 0
    outer loop
      vertex 13.435 13.435 0.149999
      vertex 14.8492 13.435 0.0574432
      vertex 13.435 13.435 0.05
    endloop
  endfacet
  facet normal -0.00526296 0.00526296 0.999972
    outer loop
      vertex -11.7157 28.2843 0.05
      vertex 0 21 0.149999
      vertex 0 40 0.05
    endloop
  endfacet
  facet normal -0.00526297 0.00526294 0.999972
    outer loop
      vertex -8.28427 20 0.111661
      vertex 0 21 0.149999
      vertex -11.7157 28.2843 0.05
    endloop
  endfacet
  facet normal -0.00526298 0.00526298 0.999972
    outer loop
      vertex 0 21 0.149999
      vertex -8.28427 20 0.111661
      vertex -1 20 0.149999
    endloop
  endfacet
  facet normal 0.00526297 0.00526294 0.999972
    outer loop
      vertex 0 21 0.149999
      vertex 8.28427 20 0.111661
      vertex 11.7157 28.2843 0.05
    endloop
  endfacet
  facet normal 0.00526296 0.00526296 0.999972
    outer loop
      vertex 0 21 0.149999
      vertex 11.7157 28.2843 0.05
      vertex 0 40 0.05
    endloop
  endfacet
  facet normal 0.00526298 0.00526298 0.999972
    outer loop
      vertex 8.28427 20 0.111661
      vertex 0 21 0.149999
      vertex 1 20 0.149999
    endloop
  endfacet
  facet normal 0.00526298 -0.00526298 0.999972
    outer loop
      vertex 0 19 0.149999
      vertex 8.28427 20 0.111661
      vertex 1 20 0.149999
    endloop
  endfacet
  facet normal 0.00526297 -0.00526296 0.999972
    outer loop
      vertex 0.382683 0.923879 0.0528484
      vertex 8.28427 20 0.111661
      vertex 0 19 0.149999
    endloop
  endfacet
  facet normal 0.00526287 -0.00526296 0.999972
    outer loop
      vertex 0.382683 0.923879 0.0528484
      vertex 0 19 0.149999
      vertex 0 1 0.0552631
    endloop
  endfacet
  facet normal 0.00526304 -0.00526304 0.999972
    outer loop
      vertex 13.435 14.8492 0.0574432
      vertex 13.435 13.435 0.05
      vertex 14.8492 14.8492 0.05
    endloop
  endfacet
  facet normal -0.00526287 -0.00526296 0.999972
    outer loop
      vertex 0 19 0.149999
      vertex -0.382683 0.923879 0.0528484
      vertex 0 1 0.0552631
    endloop
  endfacet
  facet normal -0.00526297 -0.00526296 0.999972
    outer loop
      vertex -8.28427 20 0.111661
      vertex -0.382683 0.923879 0.0528484
      vertex 0 19 0.149999
    endloop
  endfacet
  facet normal -0.00526298 -0.00526298 0.999972
    outer loop
      vertex -8.28427 20 0.111661
      vertex 0 19 0.149999
      vertex -1 20 0.149999
    endloop
  endfacet
  facet normal -0.00526304 -0.00526304 0.999972
    outer loop
      vertex -13.435 14.8492 0.0574432
      vertex -14.8492 14.8492 0.05
      vertex -13.435 13.435 0.05
    endloop
  endfacet
  facet normal 0.707107 0.707107 0
    outer loop
      vertex 0 19 0.149999
      vertex -1 20 0.0574432
      vertex -1 20 0.149999
    endloop
  endfacet
  facet normal 0.707107 0.707107 0
    outer loop
      vertex -1 20 0.0574432
      vertex 0 19 0.149999
      vertex 0 19 0.05
    endloop
  endfacet
  facet normal 0.707107 -0.707107 0
    outer loop
      vertex -1 20 0.149999
      vertex 0 21 0.05
      vertex 0 21 0.149999
    endloop
  endfacet
  facet normal 0.707107 -0.707107 0
    outer loop
      vertex 0 21 0.05
      vertex -1 20 0.149999
      vertex -1 20 0.0574432
    endloop
  endfacet
  facet normal -0.707107 -0.707107 0
    outer loop
      vertex 1 20 0.0574432
      vertex 0 21 0.149999
      vertex 0 21 0.05
    endloop
  endfacet
  facet normal -0.707107 -0.707107 0
    outer loop
      vertex 0 21 0.149999
      vertex 1 20 0.0574432
      vertex 1 20 0.149999
    endloop
  endfacet
  facet normal -0.707107 0.707107 0
    outer loop
      vertex 0 19 0.05
      vertex 1 20 0.149999
      vertex 1 20 0.0574432
    endloop
  endfacet
  facet normal -0.707107 0.707107 0
    outer loop
      vertex 1 20 0.149999
      vertex 0 19 0.05
      vertex 0 19 0.149999
    endloop
  endfacet
  facet normal -0.00744291 0 0.999972
    outer loop
      vertex -14.8492 14.8492 0.149999
      vertex -20 8.28427 0.111661
      vertex -14.8492 13.435 0.149999
    endloop
  endfacet
  facet normal -0.00744291 0 0.999972
    outer loop
      vertex -28.2843 11.7157 0.05
      vertex -14.8492 14.8492 0.149999
      vertex -28.2843 28.2843 0.05
    endloop
  endfacet
  facet normal -0.00744291 -2.02602e-10 0.999972
    outer loop
      vertex -14.8492 14.8492 0.149999
      vertex -28.2843 11.7157 0.05
      vertex -20 8.28427 0.111661
    endloop
  endfacet
  facet normal 2.02602e-10 0.00744291 0.999972
    outer loop
      vertex -14.8492 14.8492 0.149999
      vertex -8.28427 20 0.111661
      vertex -11.7157 28.2843 0.05
    endloop
  endfacet
  facet normal 0 0.00744291 0.999972
    outer loop
      vertex -8.28427 20 0.111661
      vertex -14.8492 14.8492 0.149999
      vertex -13.435 14.8492 0.149999
    endloop
  endfacet
  facet normal 0 0.00744291 0.999972
    outer loop
      vertex -14.8492 14.8492 0.149999
      vertex -11.7157 28.2843 0.05
      vertex -28.2843 28.2843 0.05
    endloop
  endfacet
  facet normal 0.00744299 0 0.999972
    outer loop
      vertex 0 21 0.05
      vertex -1 20 0.0574432
      vertex 0 19 0.05
    endloop
  endfacet
  facet normal 0.00744298 2.14422e-08 0.999972
    outer loop
      vertex -13.435 13.435 0.149999
      vertex -0.382683 0.923879 0.0528484
      vertex -8.28427 20 0.111661
    endloop
  endfacet
  facet normal 0.00744301 -0 0.999972
    outer loop
      vertex -13.435 13.435 0.149999
      vertex -8.28427 20 0.111661
      vertex -13.435 14.8492 0.149999
    endloop
  endfacet
  facet normal 0.00744289 -8.07718e-08 0.999972
    outer loop
      vertex -0.382683 0.923879 0.0528484
      vertex -13.435 13.435 0.149999
      vertex -0.707107 0.707107 0.0552631
    endloop
  endfacet
  facet normal 0 -0.00744299 0.999972
    outer loop
      vertex -20 1 0.0574432
      vertex -21 0 0.05
      vertex -19 0 0.05
    endloop
  endfacet
  facet normal 8.07718e-08 -0.00744289 0.999972
    outer loop
      vertex -13.435 13.435 0.149999
      vertex -0.923879 0.382683 0.0528484
      vertex -0.707107 0.707107 0.0552631
    endloop
  endfacet
  facet normal 0 -0.00744301 0.999972
    outer loop
      vertex -20 8.28427 0.111661
      vertex -13.435 13.435 0.149999
      vertex -14.8492 13.435 0.149999
    endloop
  endfacet
  facet normal -2.14422e-08 -0.00744298 0.999972
    outer loop
      vertex -13.435 13.435 0.149999
      vertex -20 8.28427 0.111661
      vertex -0.923879 0.382683 0.0528484
    endloop
  endfacet
  facet normal 0 1 0
    outer loop
      vertex -13.435 13.435 0.149999
      vertex -14.8492 13.435 0.0574432
      vertex -14.8492 13.435 0.149999
    endloop
  endfacet
  facet normal -0 1 0
    outer loop
      vertex -14.8492 13.435 0.0574432
      vertex -13.435 13.435 0.149999
      vertex -13.435 13.435 0.05
    endloop
  endfacet
  facet normal 1 -0 0
    outer loop
      vertex -14.8492 13.435 0.149999
      vertex -14.8492 14.8492 0.05
      vertex -14.8492 14.8492 0.149999
    endloop
  endfacet
  facet normal 1 0 0
    outer loop
      vertex -14.8492 14.8492 0.05
      vertex -14.8492 13.435 0.149999
      vertex -14.8492 13.435 0.0574432
    endloop
  endfacet
  facet normal 0 -1 0
    outer loop
      vertex -14.8492 14.8492 0.149999
      vertex -13.435 14.8492 0.0574432
      vertex -13.435 14.8492 0.149999
    endloop
  endfacet
  facet normal -0 -1 0
    outer loop
      vertex -13.435 14.8492 0.0574432
      vertex -14.8492 14.8492 0.149999
      vertex -14.8492 14.8492 0.05
    endloop
  endfacet
  facet normal -1 0 0
    outer loop
      vertex -13.435 13.435 0.05
      vertex -13.435 14.8492 0.149999
      vertex -13.435 14.8492 0.0574432
    endloop
  endfacet
  facet normal -1 -0 0
    outer loop
      vertex -13.435 14.8492 0.149999
      vertex -13.435 13.435 0.05
      vertex -13.435 13.435 0.149999
    endloop
  endfacet
  facet normal -0.00526298 -0.00526298 0.999972
    outer loop
      vertex -21 0 0.149999
      vertex -20 -8.28427 0.111661
      vertex -20 -1 0.149999
    endloop
  endfacet
  facet normal -0.00526294 -0.00526297 0.999972
    outer loop
      vertex -21 0 0.149999
      vertex -28.2843 -11.7157 0.05
      vertex -20 -8.28427 0.111661
    endloop
  endfacet
  facet normal -0.00526296 -0.00526296 0.999972
    outer loop
      vertex -28.2843 -11.7157 0.05
      vertex -21 0 0.149999
      vertex -40 0 0.05
    endloop
  endfacet
  facet normal -0.00526298 0.00526298 0.999972
    outer loop
      vertex -20 8.28427 0.111661
      vertex -21 0 0.149999
      vertex -20 1 0.149999
    endloop
  endfacet
  facet normal -0.00526294 0.00526297 0.999972
    outer loop
      vertex -28.2843 11.7157 0.05
      vertex -21 0 0.149999
      vertex -20 8.28427 0.111661
    endloop
  endfacet
  facet normal -0.00526296 0.00526296 0.999972
    outer loop
      vertex -21 0 0.149999
      vertex -28.2843 11.7157 0.05
      vertex -40 0 0.05
    endloop
  endfacet
  facet normal 0.00526296 0.00526287 0.999972
    outer loop
      vertex -0.923879 0.382683 0.0528484
      vertex -19 0 0.149999
      vertex -1 0 0.0552631
    endloop
  endfacet
  facet normal 0.00526296 0.00526297 0.999972
    outer loop
      vertex -0.923879 0.382683 0.0528484
      vertex -20 8.28427 0.111661
      vertex -19 0 0.149999
    endloop
  endfacet
  facet normal 0.00526298 0.00526298 0.999972
    outer loop
      vertex -19 0 0.149999
      vertex -20 8.28427 0.111661
      vertex -20 1 0.149999
    endloop
  endfacet
  facet normal 0.00526304 0.00526304 0.999972
    outer loop
      vertex -14.8492 14.8492 0.05
      vertex -14.8492 13.435 0.0574432
      vertex -13.435 13.435 0.05
    endloop
  endfacet
  facet normal 0.00526296 -0.00526287 0.999972
    outer loop
      vertex -19 0 0.149999
      vertex -0.923879 -0.382683 0.0528484
      vertex -1 0 0.0552631
    endloop
  endfacet
  facet normal 0.00526296 -0.00526297 0.999972
    outer loop
      vertex -20 -8.28427 0.111661
      vertex -0.923879 -0.382683 0.0528484
      vertex -19 0 0.149999
    endloop
  endfacet
  facet normal 0.00526298 -0.00526298 0.999972
    outer loop
      vertex -20 -8.28427 0.111661
      vertex -19 0 0.149999
      vertex -20 -1 0.149999
    endloop
  endfacet
  facet normal 0.00526304 -0.00526304 0.999972
    outer loop
      vertex -14.8492 -13.435 0.0574432
      vertex -14.8492 -14.8492 0.05
      vertex -13.435 -13.435 0.05
    endloop
  endfacet
  facet normal -0.707107 0.707107 0
    outer loop
      vertex -20 -1 0.0574432
      vertex -19 0 0.149999
      vertex -19 0 0.05
    endloop
  endfacet
  facet normal -0.707107 0.707107 0
    outer loop
      vertex -19 0 0.149999
      vertex -20 -1 0.0574432
      vertex -20 -1 0.149999
    endloop
  endfacet
  facet normal 0.707107 0.707107 0
    outer loop
      vertex -20 -1 0.149999
      vertex -21 0 0.05
      vertex -21 0 0.149999
    endloop
  endfacet
  facet normal 0.707107 0.707107 0
    outer loop
      vertex -21 0 0.05
      vertex -20 -1 0.149999
      vertex -20 -1 0.0574432
    endloop
  endfacet
  facet normal 0.707107 -0.707107 0
    outer loop
      vertex -21 0 0.149999
      vertex -20 1 0.0574432
      vertex -20 1 0.149999
    endloop
  endfacet
  facet normal 0.707107 -0.707107 0
    outer loop
      vertex -20 1 0.0574432
      vertex -21 0 0.149999
      vertex -21 0 0.05
    endloop
  endfacet
  facet normal -0.707107 -0.707107 0
    outer loop
      vertex -19 0 0.05
      vertex -20 1 0.149999
      vertex -20 1 0.0574432
    endloop
  endfacet
  facet normal -0.707107 -0.707107 0
    outer loop
      vertex -20 1 0.149999
      vertex -19 0 0.05
      vertex -19 0 0.149999
    endloop
  endfacet
  facet normal 0 -0.00744291 0.999972
    outer loop
      vertex -14.8492 -14.8492 0.149999
      vertex -8.28427 -20 0.111661
      vertex -13.435 -14.8492 0.149999
    endloop
  endfacet
  facet normal 2.02602e-10 -0.00744291 0.999972
    outer loop
      vertex -8.28427 -20 0.111661
      vertex -14.8492 -14.8492 0.149999
      vertex -11.7157 -28.2843 0.05
    endloop
  endfacet
  facet normal 0 -0.00744291 0.999972
    outer loop
      vertex -11.7157 -28.2843 0.05
      vertex -14.8492 -14.8492 0.149999
      vertex -28.2843 -28.2843 0.05
    endloop
  endfacet
  facet normal -0.00744291 0 0.999972
    outer loop
      vertex -20 -8.28427 0.111661
      vertex -14.8492 -14.8492 0.149999
      vertex -14.8492 -13.435 0.149999
    endloop
  endfacet
  facet normal -0.00744291 2.02602e-10 0.999972
    outer loop
      vertex -28.2843 -11.7157 0.05
      vertex -14.8492 -14.8492 0.149999
      vertex -20 -8.28427 0.111661
    endloop
  endfacet
  facet normal -0.00744291 0 0.999972
    outer loop
      vertex -14.8492 -14.8492 0.149999
      vertex -28.2843 -11.7157 0.05
      vertex -28.2843 -28.2843 0.05
    endloop
  endfacet
  facet normal 0 0.00744299 0.999972
    outer loop
      vertex -19 0 0.05
      vertex -21 0 0.05
      vertex -20 -1 0.0574432
    endloop
  endfacet
  facet normal 8.07718e-08 0.00744289 0.999972
    outer loop
      vertex -0.923879 -0.382683 0.0528484
      vertex -13.435 -13.435 0.149999
      vertex -0.707107 -0.707107 0.0552631
    endloop
  endfacet
  facet normal -2.14422e-08 0.00744298 0.999972
    outer loop
      vertex -20 -8.28427 0.111661
      vertex -13.435 -13.435 0.149999
      vertex -0.923879 -0.382683 0.0528484
    endloop
  endfacet
  facet normal 0 0.00744301 0.999972
    outer loop
      vertex -13.435 -13.435 0.149999
      vertex -20 -8.28427 0.111661
      vertex -14.8492 -13.435 0.149999
    endloop
  endfacet
  facet normal 0.00744299 0 0.999972
    outer loop
      vertex 0 -19 0.05
      vertex -1 -20 0.0574432
      vertex 0 -21 0.05
    endloop
  endfacet
  facet normal 0.00744289 8.07718e-08 0.999972
    outer loop
      vertex -13.435 -13.435 0.149999
      vertex -0.382683 -0.923879 0.0528484
      vertex -0.707107 -0.707107 0.0552631
    endloop
  endfacet
  facet normal 0.00744298 -2.14422e-08 0.999972
    outer loop
      vertex -0.382683 -0.923879 0.0528484
      vertex -13.435 -13.435 0.149999
      vertex -8.28427 -20 0.111661
    endloop
  endfacet
  facet normal 0.00744301 0 0.999972
    outer loop
      vertex -8.28427 -20 0.111661
      vertex -13.435 -13.435 0.149999
      vertex -13.435 -14.8492 0.149999
    endloop
  endfacet
  facet normal -1 0 0
    outer loop
      vertex -13.435 -14.8492 0.0574432
      vertex -13.435 -13.435 0.149999
      vertex -13.435 -13.435 0.05
    endloop
  endfacet
  facet normal -1 -0 0
    outer loop
      vertex -13.435 -13.435 0.149999
      vertex -13.435 -14.8492 0.0574432
      vertex -13.435 -14.8492 0.149999
    endloop
  endfacet
  facet normal 0 1 -0
    outer loop
      vertex -13.435 -14.8492 0.0574432
      vertex -14.8492 -14.8492 0.149999
      vertex -13.435 -14.8492 0.149999
    endloop
  endfacet
  facet normal 0 1 0
    outer loop
      vertex -14.8492 -14.8492 0.149999
      vertex -13.435 -14.8492 0.0574432
      vertex -14.8492 -14.8492 0.05
    endloop
  endfacet
  facet normal 1 -0 0
    outer loop
      vertex -14.8492 -14.8492 0.149999
      vertex -14.8492 -13.435 0.0574432
      vertex -14.8492 -13.435 0.149999
    endloop
  endfacet
  facet normal 1 0 0
    outer loop
      vertex -14.8492 -13.435 0.0574432
      vertex -14.8492 -14.8492 0.149999
      vertex -14.8492 -14.8492 0.05
    endloop
  endfacet
  facet normal 0 -1 0
    outer loop
      vertex -14.8492 -13.435 0.0574432
      vertex -13.435 -13.435 0.149999
      vertex -14.8492 -13.435 0.149999
    endloop
  endfacet
  facet normal 0 -1 -0
    outer loop
      vertex -13.435 -13.435 0.149999
      vertex -14.8492 -13.435 0.0574432
      vertex -13.435 -13.435 0.05
    endloop
  endfacet
  facet normal 0.00526298 -0.00526298 0.999972
    outer loop
      vertex 0 -21 0.149999
      vertex 8.28427 -20 0.111661
      vertex 1 -20 0.149999
    endloop
  endfacet
  facet normal 0.00526297 -0.00526294 0.999972
    outer loop
      vertex 8.28427 -20 0.111661
      vertex 0 -21 0.149999
      vertex 11.7157 -28.2843 0.05
    endloop
  endfacet
  facet normal 0.00526296 -0.00526296 0.999972
    outer loop
      vertex 11.7157 -28.2843 0.05
      vertex 0 -21 0.149999
      vertex 0 -40 0.05
    endloop
  endfacet
  facet normal -0.00526298 -0.00526298 0.999972
    outer loop
      vertex -8.28427 -20 0.111661
      vertex 0 -21 0.149999
      vertex -1 -20 0.149999
    endloop
  endfacet
  facet normal -0.00526297 -0.00526294 0.999972
    outer loop
      vertex 0 -21 0.149999
      vertex -8.28427 -20 0.111661
      vertex -11.7157 -28.2843 0.05
    endloop
  endfacet
  facet normal -0.00526296 -0.00526296 0.999972
    outer loop
      vertex 0 -21 0.149999
      vertex -11.7157 -28.2843 0.05
      vertex 0 -40 0.05
    endloop
  endfacet
  facet normal -0.00526287 0.00526296 0.999972
    outer loop
      vertex -0.382683 -0.923879 0.0528484
      vertex 0 -19 0.149999
      vertex 0 -1 0.0552631
    endloop
  endfacet
  facet normal -0.00526297 0.00526296 0.999972
    outer loop
      vertex -0.382683 -0.923879 0.0528484
      vertex -8.28427 -20 0.111661
      vertex 0 -19 0.149999
    endloop
  endfacet
  facet normal -0.00526298 0.00526298 0.999972
    outer loop
      vertex 0 -19 0.149999
      vertex -8.28427 -20 0.111661
      vertex -1 -20 0.149999
    endloop
  endfacet
  facet normal -0.00526304 0.00526304 0.999972
    outer loop
      vertex -13.435 -13.435 0.05
      vertex -14.8492 -14.8492 0.05
      vertex -13.435 -14.8492 0.0574432
    endloop
  endfacet
  facet normal 0.00526304 0.00526304 0.999972
    outer loop
      vertex 13.435 -13.435 0.05
      vertex 13.435 -14.8492 0.0574432
      vertex 14.8492 -14.8492 0.05
    endloop
  endfacet
  facet normal 0.00526297 0.00526296 0.999972
    outer loop
      vertex 8.28427 -20 0.111661
      vertex 0.382683 -0.923879 0.0528484
      vertex 0 -19 0.149999
    endloop
  endfacet
  facet normal 0.00526287 0.00526296 0.999972
    outer loop
      vertex 0 -19 0.149999
      vertex 0.382683 -0.923879 0.0528484
      vertex 0 -1 0.0552631
    endloop
  endfacet
  facet normal 0.00526298 0.00526298 0.999972
    outer loop
      vertex 8.28427 -20 0.111661
      vertex 0 -19 0.149999
      vertex 1 -20 0.149999
    endloop
  endfacet
  facet normal -0.707107 -0.707107 0
    outer loop
      vertex 1 -20 0.0574432
      vertex 0 -19 0.149999
      vertex 0 -19 0.05
    endloop
  endfacet
  facet normal -0.707107 -0.707107 0
    outer loop
      vertex 0 -19 0.149999
      vertex 1 -20 0.0574432
      vertex 1 -20 0.149999
    endloop
  endfacet
  facet normal -0.707107 0.707107 0
    outer loop
      vertex 0 -21 0.05
      vertex 1 -20 0.149999
      vertex 1 -20 0.0574432
    endloop
  endfacet
  facet normal -0.707107 0.707107 0
    outer loop
      vertex 1 -20 0.149999
      vertex 0 -21 0.05
      vertex 0 -21 0.149999
    endloop
  endfacet
  facet normal 0.707107 0.707107 0
    outer loop
      vertex 0 -21 0.149999
      vertex -1 -20 0.0574432
      vertex -1 -20 0.149999
    endloop
  endfacet
  facet normal 0.707107 0.707107 0
    outer loop
      vertex -1 -20 0.0574432
      vertex 0 -21 0.149999
      vertex 0 -21 0.05
    endloop
  endfacet
  facet normal 0.707107 -0.707107 0
    outer loop
      vertex -1 -20 0.149999
      vertex 0 -19 0.05
      vertex 0 -19 0.149999
    endloop
  endfacet
  facet normal 0.707107 -0.707107 0
    outer loop
      vertex 0 -19 0.05
      vertex -1 -20 0.149999
      vertex -1 -20 0.0574432
    endloop
  endfacet
  facet normal 0.00744291 2.02602e-10 0.999972
    outer loop
      vertex 14.8492 -14.8492 0.149999
      vertex 28.2843 -11.7157 0.05
      vertex 20 -8.28427 0.111661
    endloop
  endfacet
  facet normal 0.00744291 -0 0.999972
    outer loop
      vertex 14.8492 -14.8492 0.149999
      vertex 20 -8.28427 0.111661
      vertex 14.8492 -13.435 0.149999
    endloop
  endfacet
  facet normal 0.00744291 0 0.999972
    outer loop
      vertex 28.2843 -11.7157 0.05
      vertex 14.8492 -14.8492 0.149999
      vertex 28.2843 -28.2843 0.05
    endloop
  endfacet
  facet normal 0 -0.00744291 0.999972
    outer loop
      vertex 8.28427 -20 0.111661
      vertex 14.8492 -14.8492 0.149999
      vertex 13.435 -14.8492 0.149999
    endloop
  endfacet
  facet normal 0 -0.00744291 0.999972
    outer loop
      vertex 14.8492 -14.8492 0.149999
      vertex 11.7157 -28.2843 0.05
      vertex 28.2843 -28.2843 0.05
    endloop
  endfacet
  facet normal -2.02602e-10 -0.00744291 0.999972
    outer loop
      vertex 14.8492 -14.8492 0.149999
      vertex 8.28427 -20 0.111661
      vertex 11.7157 -28.2843 0.05
    endloop
  endfacet
  facet normal -0.00744301 0 0.999972
    outer loop
      vertex 13.435 -13.435 0.149999
      vertex 8.28427 -20 0.111661
      vertex 13.435 -14.8492 0.149999
    endloop
  endfacet
  facet normal -0.00744289 8.07718e-08 0.999972
    outer loop
      vertex 0.382683 -0.923879 0.0528484
      vertex 13.435 -13.435 0.149999
      vertex 0.707107 -0.707107 0.0552631
    endloop
  endfacet
  facet normal -0.00744298 -2.14422e-08 0.999972
    outer loop
      vertex 13.435 -13.435 0.149999
      vertex 0.382683 -0.923879 0.0528484
      vertex 8.28427 -20 0.111661
    endloop
  endfacet
  facet normal -0.00744299 0 0.999972
    outer loop
      vertex 0 -19 0.05
      vertex 0 -21 0.05
      vertex 1 -20 0.0574432
    endloop
  endfacet
  facet normal 0 0.00744299 0.999972
    outer loop
      vertex 21 0 0.05
      vertex 19 0 0.05
      vertex 20 -1 0.0574432
    endloop
  endfacet
  facet normal 0 0.00744301 0.999972
    outer loop
      vertex 20 -8.28427 0.111661
      vertex 13.435 -13.435 0.149999
      vertex 14.8492 -13.435 0.149999
    endloop
  endfacet
  facet normal 2.14422e-08 0.00744298 0.999972
    outer loop
      vertex 0.923879 -0.382683 0.0528484
      vertex 13.435 -13.435 0.149999
      vertex 20 -8.28427 0.111661
    endloop
  endfacet
  facet normal -8.07718e-08 0.00744289 0.999972
    outer loop
      vertex 13.435 -13.435 0.149999
      vertex 0.923879 -0.382683 0.0528484
      vertex 0.707107 -0.707107 0.0552631
    endloop
  endfacet
  facet normal 0 -1 0
    outer loop
      vertex 13.435 -13.435 0.149999
      vertex 14.8492 -13.435 0.0574432
      vertex 14.8492 -13.435 0.149999
    endloop
  endfacet
  facet normal -0 -1 0
    outer loop
      vertex 14.8492 -13.435 0.0574432
      vertex 13.435 -13.435 0.149999
      vertex 13.435 -13.435 0.05
    endloop
  endfacet
  facet normal -1 0 0
    outer loop
      vertex 14.8492 -14.8492 0.05
      vertex 14.8492 -13.435 0.149999
      vertex 14.8492 -13.435 0.0574432
    endloop
  endfacet
  facet normal -1 -0 0
    outer loop
      vertex 14.8492 -13.435 0.149999
      vertex 14.8492 -14.8492 0.05
      vertex 14.8492 -14.8492 0.149999
    endloop
  endfacet
  facet normal 0 1 0
    outer loop
      vertex 14.8492 -14.8492 0.149999
      vertex 13.435 -14.8492 0.0574432
      vertex 13.435 -14.8492 0.149999
    endloop
  endfacet
  facet normal -0 1 0
    outer loop
      vertex 13.435 -14.8492 0.0574432
      vertex 14.8492 -14.8492 0.149999
      vertex 14.8492 -14.8492 0.05
    endloop
  endfacet
  facet normal 1 -0 0
    outer loop
      vertex 13.435 -14.8492 0.149999
      vertex 13.435 -13.435 0.05
      vertex 13.435 -13.435 0.149999
    endloop
  endfacet
  facet normal 1 0 0
    outer loop
      vertex 13.435 -13.435 0.05
      vertex 13.435 -14.8492 0.149999
      vertex 13.435 -14.8492 0.0574432
    endloop
  endfacet
  facet normal -0.555568 0.831471 0
    outer loop
      vertex -0.382683 0.923879 0.149999
      vertex -0.707107 0.707107 0.0552631
      vertex -0.707107 0.707107 0.149999
    endloop
  endfacet
  facet normal -0.555568 0.831471 0
    outer loop
      vertex -0.382683 0.923879 0.149999
      vertex -0.382683 0.923879 0.0528484
      vertex -0.707107 0.707107 0.0552631
    endloop
  endfacet
  facet normal 0.831471 0.555568 0
    outer loop
      vertex 0.707107 0.707107 0.149999
      vertex 0.923879 0.382683 0.0528484
      vertex 0.707107 0.707107 0.0552631
    endloop
  endfacet
  facet normal 0.831471 0.555568 0
    outer loop
      vertex 0.923879 0.382683 0.149999
      vertex 0.923879 0.382683 0.0528484
      vertex 0.707107 0.707107 0.149999
    endloop
  endfacet
  facet normal 0.980785 0.195092 0
    outer loop
      vertex 1 0 0.149999
      vertex 0.923879 0.382683 0.0528484
      vertex 0.923879 0.382683 0.149999
    endloop
  endfacet
  facet normal 0.980785 0.195092 0
    outer loop
      vertex 0.923879 0.382683 0.0528484
      vertex 1 0 0.149999
      vertex 1 0 0.0552631
    endloop
  endfacet
  facet normal -0.831471 0.555568 0
    outer loop
      vertex -0.923879 0.382683 0.0528484
      vertex -0.707107 0.707107 0.149999
      vertex -0.707107 0.707107 0.0552631
    endloop
  endfacet
  facet normal -0.831471 0.555568 0
    outer loop
      vertex -0.923879 0.382683 0.0528484
      vertex -0.923879 0.382683 0.149999
      vertex -0.707107 0.707107 0.149999
    endloop
  endfacet
  facet normal -0.195092 -0.980785 0
    outer loop
      vertex -0.382683 -0.923879 0.149999
      vertex 0 -1 0.0552631
      vertex 0 -1 0.149999
    endloop
  endfacet
  facet normal -0.195092 -0.980785 0
    outer loop
      vertex 0 -1 0.0552631
      vertex -0.382683 -0.923879 0.149999
      vertex -0.382683 -0.923879 0.0528484
    endloop
  endfacet
  facet normal 0.195092 -0.980785 0
    outer loop
      vertex 0 -1 0.0552631
      vertex 0.382683 -0.923879 0.149999
      vertex 0 -1 0.149999
    endloop
  endfacet
  facet normal 0.195092 -0.980785 0
    outer loop
      vertex 0.382683 -0.923879 0.149999
      vertex 0 -1 0.0552631
      vertex 0.382683 -0.923879 0.0528484
    endloop
  endfacet
  facet normal 0.555568 -0.831471 0
    outer loop
      vertex 0.382683 -0.923879 0.149999
      vertex 0.707107 -0.707107 0.0552631
      vertex 0.707107 -0.707107 0.149999
    endloop
  endfacet
  facet normal 0.555568 -0.831471 0
    outer loop
      vertex 0.382683 -0.923879 0.149999
      vertex 0.382683 -0.923879 0.0528484
      vertex 0.707107 -0.707107 0.0552631
    endloop
  endfacet
  facet normal 0.831471 -0.555568 0
    outer loop
      vertex 0.707107 -0.707107 0.149999
      vertex 0.923879 -0.382683 0.0528484
      vertex 0.923879 -0.382683 0.149999
    endloop
  endfacet
  facet normal 0.831471 -0.555568 0
    outer loop
      vertex 0.923879 -0.382683 0.0528484
      vertex 0.707107 -0.707107 0.149999
      vertex 0.707107 -0.707107 0.0552631
    endloop
  endfacet
  facet normal -0.980785 0.195092 0
    outer loop
      vertex -1 0 0.0552631
      vertex -0.923879 0.382683 0.149999
      vertex -0.923879 0.382683 0.0528484
    endloop
  endfacet
  facet normal -0.980785 0.195092 0
    outer loop
      vertex -0.923879 0.382683 0.149999
      vertex -1 0 0.0552631
      vertex -1 0 0.149999
    endloop
  endfacet
  facet normal 0.980785 -0.195092 0
    outer loop
      vertex 0.923879 -0.382683 0.149999
      vertex 1 0 0.0552631
      vertex 1 0 0.149999
    endloop
  endfacet
  facet normal 0.980785 -0.195092 0
    outer loop
      vertex 1 0 0.0552631
      vertex 0.923879 -0.382683 0.149999
      vertex 0.923879 -0.382683 0.0528484
    endloop
  endfacet
  facet normal -0.195092 0.980785 0
    outer loop
      vertex 0 1 0.0552631
      vertex -0.382683 0.923879 0.149999
      vertex 0 1 0.149999
    endloop
  endfacet
  facet normal -0.195092 0.980785 0
    outer loop
      vertex -0.382683 0.923879 0.149999
      vertex 0 1 0.0552631
      vertex -0.382683 0.923879 0.0528484
    endloop
  endfacet
  facet normal 0.195092 0.980785 0
    outer loop
      vertex 0.382683 0.923879 0.149999
      vertex 0 1 0.0552631
      vertex 0 1 0.149999
    endloop
  endfacet
  facet normal 0.195092 0.980785 0
    outer loop
      vertex 0 1 0.0552631
      vertex 0.382683 0.923879 0.149999
      vertex 0.382683 0.923879 0.0528484
    endloop
  endfacet
  facet normal -0.831471 -0.555568 0
    outer loop
      vertex -0.707107 -0.707107 0.0552631
      vertex -0.923879 -0.382683 0.149999
      vertex -0.923879 -0.382683 0.0528484
    endloop
  endfacet
  facet normal -0.831471 -0.555568 0
    outer loop
      vertex -0.923879 -0.382683 0.149999
      vertex -0.707107 -0.707107 0.0552631
      vertex -0.707107 -0.707107 0.149999
    endloop
  endfacet
  facet normal 0 0 1
    outer loop
      vertex 0.923879 0.382683 0.149999
      vertex 0.923879 -0.382683 0.149999
      vertex 1 0 0.149999
    endloop
  endfacet
  facet normal 0 0 1
    outer loop
      vertex 0.707107 0.707107 0.149999
      vertex 0.923879 -0.382683 0.149999
      vertex 0.923879 0.382683 0.149999
    endloop
  endfacet
  facet normal 0 0 1
    outer loop
      vertex 0.707107 0.707107 0.149999
      vertex 0.707107 -0.707107 0.149999
      vertex 0.923879 -0.382683 0.149999
    endloop
  endfacet
  facet normal 0 0 1
    outer loop
      vertex 0.382683 0.923879 0.149999
      vertex 0.707107 -0.707107 0.149999
      vertex 0.707107 0.707107 0.149999
    endloop
  endfacet
  facet normal 0 0 1
    outer loop
      vertex 0.382683 0.923879 0.149999
      vertex 0.382683 -0.923879 0.149999
      vertex 0.707107 -0.707107 0.149999
    endloop
  endfacet
  facet normal 0 0 1
    outer loop
      vertex 0 1 0.149999
      vertex 0.382683 -0.923879 0.149999
      vertex 0.382683 0.923879 0.149999
    endloop
  endfacet
  facet normal 0 0 1
    outer loop
      vertex 0 1 0.149999
      vertex 0 -1 0.149999
      vertex 0.382683 -0.923879 0.149999
    endloop
  endfacet
  facet normal -0 0 1
    outer loop
      vertex -0.382683 0.923879 0.149999
      vertex 0 -1 0.149999
      vertex 0 1 0.149999
    endloop
  endfacet
  facet normal 0 0 1
    outer loop
      vertex -0.382683 0.923879 0.149999
      vertex -0.382683 -0.923879 0.149999
      vertex 0 -1 0.149999
    endloop
  endfacet
  facet normal -0 0 1
    outer loop
      vertex -0.707107 0.707107 0.149999
      vertex -0.382683 -0.923879 0.149999
      vertex -0.382683 0.923879 0.149999
    endloop
  endfacet
  facet normal 0 0 1
    outer loop
      vertex -0.707107 0.707107 0.149999
      vertex -0.707107 -0.707107 0.149999
      vertex -0.382683 -0.923879 0.149999
    endloop
  endfacet
  facet normal -0 0 1
    outer loop
      vertex -0.923879 0.382683 0.149999
      vertex -0.707107 -0.707107 0.149999
      vertex -0.707107 0.707107 0.149999
    endloop
  endfacet
  facet normal 0 0 1
    outer loop
      vertex -0.923879 0.382683 0.149999
      vertex -0.923879 -0.382683 0.149999
      vertex -0.707107 -0.707107 0.149999
    endloop
  endfacet
  facet normal 0 -0 1
    outer loop
      vertex -0.923879 -0.382683 0.149999
      vertex -0.923879 0.382683 0.149999
      vertex -1 0 0.149999
    endloop
  endfacet
  facet normal 0.555568 0.831471 -0
    outer loop
      vertex 0.707107 0.707107 0.0552631
      vertex 0.382683 0.923879 0.149999
      vertex 0.707107 0.707107 0.149999
    endloop
  endfacet
  facet normal 0.555568 0.831471 -0
    outer loop
      vertex 0.382683 0.923879 0.0528484
      vertex 0.382683 0.923879 0.149999
      vertex 0.707107 0.707107 0.0552631
    endloop
  endfacet
  facet normal -0.980785 -0.195092 0
    outer loop
      vertex -0.923879 -0.382683 0.0528484
      vertex -1 0 0.149999
      vertex -1 0 0.0552631
    endloop
  endfacet
  facet normal -0.980785 -0.195092 0
    outer loop
      vertex -1 0 0.149999
      vertex -0.923879 -0.382683 0.0528484
      vertex -0.923879 -0.382683 0.149999
    endloop
  endfacet
  facet normal -0.555568 -0.831471 0
    outer loop
      vertex -0.707107 -0.707107 0.0552631
      vertex -0.382683 -0.923879 0.149999
      vertex -0.707107 -0.707107 0.149999
    endloop
  endfacet
  facet normal -0.555568 -0.831471 0
    outer loop
      vertex -0.382683 -0.923879 0.0528484
      vertex -0.382683 -0.923879 0.149999
      vertex -0.707107 -0.707107 0.0552631
    endloop
  endfacet
endsolid OpenSCAD_Model
