solid OpenSCAD_Model
  facet normal 1 -0 0
    outer loop
      vertex 50 -10 15
      vertex 50 2.5 -15
      vertex 50 2.5 15
    endloop
  endfacet
  facet normal 1 0 0
    outer loop
      vertex 50 2.5 -15
      vertex 50 -10 15
      vertex 50 -10 -15
    endloop
  endfacet
  facet normal 0 0 1
    outer loop
      vertex -28.9809 0.981194 15
      vertex -50 2.5 15
      vertex -28.9809 0 15
    endloop
  endfacet
  facet normal -0 0 1
    outer loop
      vertex -50 2.5 15
      vertex -28.9809 0.981194 15
      vertex -28.1837 2.5 15
    endloop
  endfacet
  facet normal 0 0 1
    outer loop
      vertex 21.0191 0.981194 15
      vertex -20.9 0 15
      vertex 21.0191 0 15
    endloop
  endfacet
  facet normal -0 0 1
    outer loop
      vertex -21.3696 1.90536 15
      vertex 21.0191 0.981194 15
      vertex 21.8163 2.5 15
    endloop
  endfacet
  facet normal 0 0 1
    outer loop
      vertex 21.0191 0.981194 15
      vertex -21.3696 1.90536 15
      vertex -20.9 0 15
    endloop
  endfacet
  facet normal 0 -0 1
    outer loop
      vertex -21.3696 1.90536 15
      vertex 21.8163 2.5 15
      vertex -21.8964 2.5 15
    endloop
  endfacet
  facet normal 0 0 1
    outer loop
      vertex 50 2.5 15
      vertex 29.1 0 15
      vertex 50 -10 15
    endloop
  endfacet
  facet normal 0 0 1
    outer loop
      vertex 50 2.5 15
      vertex 28.6304 1.90536 15
      vertex 29.1 0 15
    endloop
  endfacet
  facet normal 0 -0 1
    outer loop
      vertex 28.6304 1.90536 15
      vertex 50 2.5 15
      vertex 28.1036 2.5 15
    endloop
  endfacet
  facet normal -0 0 1
    outer loop
      vertex 21.0191 0 15
      vertex 50 -10 15
      vertex 29.1 0 15
    endloop
  endfacet
  facet normal -0 0 1
    outer loop
      vertex -20.9 0 15
      vertex 50 -10 15
      vertex 21.0191 0 15
    endloop
  endfacet
  facet normal 0 0 1
    outer loop
      vertex -50 -10 15
      vertex -20.9 0 15
      vertex -28.9809 0 15
    endloop
  endfacet
  facet normal 0 0 1
    outer loop
      vertex -50 -10 15
      vertex -28.9809 0 15
      vertex -50 2.5 15
    endloop
  endfacet
  facet normal 0 0 1
    outer loop
      vertex -20.9 0 15
      vertex -50 -10 15
      vertex 50 -10 15
    endloop
  endfacet
  facet normal 0 0 -1
    outer loop
      vertex -50 -10 -15
      vertex 50 2.5 -15
      vertex 50 -10 -15
    endloop
  endfacet
  facet normal -0 0 -1
    outer loop
      vertex 50 2.5 -15
      vertex -50 -10 -15
      vertex -50 2.5 -15
    endloop
  endfacet
  facet normal -1 0 0
    outer loop
      vertex -50 -10 -15
      vertex -50 2.5 15
      vertex -50 2.5 -15
    endloop
  endfacet
  facet normal -1 -0 0
    outer loop
      vertex -50 2.5 15
      vertex -50 -10 -15
      vertex -50 -10 15
    endloop
  endfacet
  facet normal 0 1 0
    outer loop
      vertex 50 2.5 15
      vertex 28.1036 2.5 -0.0999994
      vertex 28.1036 2.5 15
    endloop
  endfacet
  facet normal 0 1 0
    outer loop
      vertex 50 2.5 -15
      vertex 21.8163 2.5 -0.0999994
      vertex 28.1036 2.5 -0.0999994
    endloop
  endfacet
  facet normal 0 1 0
    outer loop
      vertex 21.8163 2.5 -0.0999994
      vertex 50 2.5 -15
      vertex -21.8964 2.5 -0.0999994
    endloop
  endfacet
  facet normal 0 1 0
    outer loop
      vertex -50 2.5 -15
      vertex -21.8964 2.5 -0.0999994
      vertex 50 2.5 -15
    endloop
  endfacet
  facet normal 0 1 -0
    outer loop
      vertex 50 2.5 -15
      vertex 28.1036 2.5 -0.0999994
      vertex 50 2.5 15
    endloop
  endfacet
  facet normal 0 1 -0
    outer loop
      vertex 21.8163 2.5 -0.0999994
      vertex -21.8964 2.5 15
      vertex 21.8163 2.5 15
    endloop
  endfacet
  facet normal 0 1 0
    outer loop
      vertex -21.8964 2.5 15
      vertex 21.8163 2.5 -0.0999994
      vertex -21.8964 2.5 -0.0999994
    endloop
  endfacet
  facet normal 0 1 -0
    outer loop
      vertex -28.1837 2.5 -0.0999994
      vertex -50 2.5 15
      vertex -28.1837 2.5 15
    endloop
  endfacet
  facet normal 0 1 0
    outer loop
      vertex -28.1837 2.5 -0.0999994
      vertex -50 2.5 -15
      vertex -50 2.5 15
    endloop
  endfacet
  facet normal 0 1 0
    outer loop
      vertex -21.8964 2.5 -0.0999994
      vertex -50 2.5 -15
      vertex -28.1837 2.5 -0.0999994
    endloop
  endfacet
  facet normal -0.748514 -0.663119 0
    outer loop
      vertex 28.6304 1.90536 -0.0999994
      vertex 28.1036 2.5 15
      vertex 28.1036 2.5 -0.0999994
    endloop
  endfacet
  facet normal -0.748514 -0.663119 0
    outer loop
      vertex 28.1036 2.5 15
      vertex 28.6304 1.90536 -0.0999994
      vertex 28.6304 1.90536 15
    endloop
  endfacet
  facet normal -0.970945 -0.239302 0
    outer loop
      vertex 29.1 0 -0.0999994
      vertex 28.6304 1.90536 15
      vertex 28.6304 1.90536 -0.0999994
    endloop
  endfacet
  facet normal -0.970945 -0.239302 0
    outer loop
      vertex 28.6304 1.90536 15
      vertex 29.1 0 -0.0999994
      vertex 29.1 0 15
    endloop
  endfacet
  facet normal 0 0 1
    outer loop
      vertex 28.1036 2.5 -0.0999994
      vertex 29.1 0 -0.0999994
      vertex 28.6304 1.90536 -0.0999994
    endloop
  endfacet
  facet normal 0 0 1
    outer loop
      vertex 21.0191 0 -0.0999994
      vertex 28.1036 2.5 -0.0999994
      vertex 21.8163 2.5 -0.0999994
    endloop
  endfacet
  facet normal 0 0 1
    outer loop
      vertex 21.0191 0 -0.0999994
      vertex 21.8163 2.5 -0.0999994
      vertex 21.0191 0.981194 -0.0999994
    endloop
  endfacet
  facet normal 0 0 1
    outer loop
      vertex 28.1036 2.5 -0.0999994
      vertex 21.0191 0 -0.0999994
      vertex 29.1 0 -0.0999994
    endloop
  endfacet
  facet normal 0.885439 -0.464755 0
    outer loop
      vertex 21.0191 0.981194 15
      vertex 21.8163 2.5 -0.0999994
      vertex 21.8163 2.5 15
    endloop
  endfacet
  facet normal 0.885439 -0.464755 0
    outer loop
      vertex 21.8163 2.5 -0.0999994
      vertex 21.0191 0.981194 15
      vertex 21.0191 0.981194 -0.0999994
    endloop
  endfacet
  facet normal 1 -0 0
    outer loop
      vertex 21.0191 0 15
      vertex 21.0191 0.981194 -0.0999994
      vertex 21.0191 0.981194 15
    endloop
  endfacet
  facet normal 1 0 0
    outer loop
      vertex 21.0191 0.981194 -0.0999994
      vertex 21.0191 0 15
      vertex 21.0191 0 -0.0999994
    endloop
  endfacet
  facet normal -0.748514 -0.663119 0
    outer loop
      vertex -21.3696 1.90536 -0.0999994
      vertex -21.8964 2.5 15
      vertex -21.8964 2.5 -0.0999994
    endloop
  endfacet
  facet normal -0.748514 -0.663119 0
    outer loop
      vertex -21.8964 2.5 15
      vertex -21.3696 1.90536 -0.0999994
      vertex -21.3696 1.90536 15
    endloop
  endfacet
  facet normal -0.970945 -0.239302 0
    outer loop
      vertex -20.9 0 -0.0999994
      vertex -21.3696 1.90536 15
      vertex -21.3696 1.90536 -0.0999994
    endloop
  endfacet
  facet normal -0.970945 -0.239302 0
    outer loop
      vertex -21.3696 1.90536 15
      vertex -20.9 0 -0.0999994
      vertex -20.9 0 15
    endloop
  endfacet
  facet normal 1 -0 0
    outer loop
      vertex -28.9809 0 15
      vertex -28.9809 0.981194 -0.0999994
      vertex -28.9809 0.981194 15
    endloop
  endfacet
  facet normal 1 0 0
    outer loop
      vertex -28.9809 0.981194 -0.0999994
      vertex -28.9809 0 15
      vertex -28.9809 0 -0.0999994
    endloop
  endfacet
  facet normal 0.885439 -0.464755 0
    outer loop
      vertex -28.9809 0.981194 15
      vertex -28.1837 2.5 -0.0999994
      vertex -28.1837 2.5 15
    endloop
  endfacet
  facet normal 0.885439 -0.464755 0
    outer loop
      vertex -28.1837 2.5 -0.0999994
      vertex -28.9809 0.981194 15
      vertex -28.9809 0.981194 -0.0999994
    endloop
  endfacet
  facet normal 0 0 1
    outer loop
      vertex -21.8964 2.5 -0.0999994
      vertex -20.9 0 -0.0999994
      vertex -21.3696 1.90536 -0.0999994
    endloop
  endfacet
  facet normal 0 0 1
    outer loop
      vertex -28.9809 0 -0.0999994
      vertex -21.8964 2.5 -0.0999994
      vertex -28.1837 2.5 -0.0999994
    endloop
  endfacet
  facet normal 0 0 1
    outer loop
      vertex -28.9809 0 -0.0999994
      vertex -28.1837 2.5 -0.0999994
      vertex -28.9809 0.981194 -0.0999994
    endloop
  endfacet
  facet normal 0 0 1
    outer loop
      vertex -21.8964 2.5 -0.0999994
      vertex -28.9809 0 -0.0999994
      vertex -20.9 0 -0.0999994
    endloop
  endfacet
  facet normal 0 1 -0
    outer loop
      vertex 29.1 0 -0.0999994
      vertex 21.0191 0 15
      vertex 29.1 0 15
    endloop
  endfacet
  facet normal 0 1 0
    outer loop
      vertex 21.0191 0 15
      vertex 29.1 0 -0.0999994
      vertex 21.0191 0 -0.0999994
    endloop
  endfacet
  facet normal 0 1 -0
    outer loop
      vertex -20.9 0 -0.0999994
      vertex -28.9809 0 15
      vertex -20.9 0 15
    endloop
  endfacet
  facet normal 0 1 0
    outer loop
      vertex -28.9809 0 15
      vertex -20.9 0 -0.0999994
      vertex -28.9809 0 -0.0999994
    endloop
  endfacet
  facet normal 0 -1 0
    outer loop
      vertex -50 -10 -15
      vertex 50 -10 15
      vertex -50 -10 15
    endloop
  endfacet
  facet normal 0 -1 -0
    outer loop
      vertex 50 -10 15
      vertex -50 -10 -15
      vertex 50 -10 -15
    endloop
  endfacet
endsolid OpenSCAD_Model
