solid OpenSCAD_Model
  facet normal 1 -0 0
    outer loop
      vertex 15 2.5 2.5
      vertex 15 7.5 -2.5
      vertex 15 7.5 2.5
    endloop
  endfacet
  facet normal 1 -0 0
    outer loop
      vertex 15 -2.5 2.5
      vertex 15 7.5 -2.5
      vertex 15 2.5 2.5
    endloop
  endfacet
  facet normal 1 0 0
    outer loop
      vertex 15 -7.5 -2.5
      vertex 15 -2.5 2.5
      vertex 15 -7.5 2.5
    endloop
  endfacet
  facet normal 1 0 0
    outer loop
      vertex 15 -2.5 2.5
      vertex 15 -7.5 -2.5
      vertex 15 7.5 -2.5
    endloop
  endfacet
  facet normal -0 0 1
    outer loop
      vertex -15 7.5 2.5
      vertex -11.9134 7.1194 2.5
      vertex -10 7.5 2.5
    endloop
  endfacet
  facet normal 0 0 1
    outer loop
      vertex -15 7.5 2.5
      vertex -13.5355 6.03553 2.5
      vertex -11.9134 7.1194 2.5
    endloop
  endfacet
  facet normal 0 0 1
    outer loop
      vertex -15 7.5 2.5
      vertex -14.6194 4.41342 2.5
      vertex -13.5355 6.03553 2.5
    endloop
  endfacet
  facet normal 0 0 1
    outer loop
      vertex -14.6194 4.41342 2.5
      vertex -15 7.5 2.5
      vertex -15 2.5 2.5
    endloop
  endfacet
  facet normal 0 0 1
    outer loop
      vertex 15 7.5 2.5
      vertex 14.6194 4.41342 2.5
      vertex 15 2.5 2.5
    endloop
  endfacet
  facet normal 0 0 1
    outer loop
      vertex 15 7.5 2.5
      vertex 13.5355 6.03553 2.5
      vertex 14.6194 4.41342 2.5
    endloop
  endfacet
  facet normal 0 0 1
    outer loop
      vertex 15 7.5 2.5
      vertex 11.9134 7.1194 2.5
      vertex 13.5355 6.03553 2.5
    endloop
  endfacet
  facet normal 0 -0 1
    outer loop
      vertex 11.9134 7.1194 2.5
      vertex 15 7.5 2.5
      vertex 10 7.5 2.5
    endloop
  endfacet
  facet normal 0 0 1
    outer loop
      vertex -11.9134 -7.1194 2.5
      vertex -15 -7.5 2.5
      vertex -10 -7.5 2.5
    endloop
  endfacet
  facet normal 0 0 1
    outer loop
      vertex -13.5355 -6.03553 2.5
      vertex -15 -7.5 2.5
      vertex -11.9134 -7.1194 2.5
    endloop
  endfacet
  facet normal 0 0 1
    outer loop
      vertex -14.6194 -4.41342 2.5
      vertex -15 -7.5 2.5
      vertex -13.5355 -6.03553 2.5
    endloop
  endfacet
  facet normal 0 0 1
    outer loop
      vertex -15 -7.5 2.5
      vertex -14.6194 -4.41342 2.5
      vertex -15 -2.5 2.5
    endloop
  endfacet
  facet normal -0 0 1
    outer loop
      vertex 14.6194 -4.41342 2.5
      vertex 15 -7.5 2.5
      vertex 15 -2.5 2.5
    endloop
  endfacet
  facet normal -0 0 1
    outer loop
      vertex 13.5355 -6.03553 2.5
      vertex 15 -7.5 2.5
      vertex 14.6194 -4.41342 2.5
    endloop
  endfacet
  facet normal -0 0 1
    outer loop
      vertex 11.9134 -7.1194 2.5
      vertex 15 -7.5 2.5
      vertex 13.5355 -6.03553 2.5
    endloop
  endfacet
  facet normal 0 0 1
    outer loop
      vertex 15 -7.5 2.5
      vertex 11.9134 -7.1194 2.5
      vertex 10 -7.5 2.5
    endloop
  endfacet
  facet normal 0 0 1
    outer loop
      vertex -9.3061 7.5 2.5
      vertex -10 7.5 2.5
      vertex -9.4115 7.38294 2.5
    endloop
  endfacet
  facet normal 0 0 1
    outer loop
      vertex 10 7.5 2.5
      vertex 9.3061 7.5 2.5
      vertex 9.4115 7.38294 2.5
    endloop
  endfacet
  facet normal 0 0 1
    outer loop
      vertex -9.4115 -7.38294 2.5
      vertex -10 -7.5 2.5
      vertex -9.3061 -7.5 2.5
    endloop
  endfacet
  facet normal 0 0 1
    outer loop
      vertex 9.4115 -7.38294 2.5
      vertex 9.3061 -7.5 2.5
      vertex 10 -7.5 2.5
    endloop
  endfacet
  facet normal 0 0 1
    outer loop
      vertex -14.6194 0.586582 2.5
      vertex -14.6194 -0.586582 2.5
      vertex -14.2275 0 2.5
    endloop
  endfacet
  facet normal 0 0 1
    outer loop
      vertex -15 2.5 2.5
      vertex -14.6194 -0.586582 2.5
      vertex -14.6194 0.586582 2.5
    endloop
  endfacet
  facet normal 0 0 1
    outer loop
      vertex -14.6194 -0.586582 2.5
      vertex -15 2.5 2.5
      vertex -15 -2.5 2.5
    endloop
  endfacet
  facet normal -0 0 1
    outer loop
      vertex 14.6194 0.586582 2.5
      vertex 15 -2.5 2.5
      vertex 15 2.5 2.5
    endloop
  endfacet
  facet normal 0 0 1
    outer loop
      vertex 14.6194 0.586582 2.5
      vertex 14.6194 -0.586582 2.5
      vertex 15 -2.5 2.5
    endloop
  endfacet
  facet normal 0 -0 1
    outer loop
      vertex 14.6194 -0.586582 2.5
      vertex 14.6194 0.586582 2.5
      vertex 14.2275 0 2.5
    endloop
  endfacet
  facet normal 0 0 -1
    outer loop
      vertex 15 -7.5 -2.5
      vertex 14 0 -2.5
      vertex 15 7.5 -2.5
    endloop
  endfacet
  facet normal 0 0 -1
    outer loop
      vertex 15 -7.5 -2.5
      vertex 13.247 -1.56366 -2.5
      vertex 14 0 -2.5
    endloop
  endfacet
  facet normal 0 0 -1
    outer loop
      vertex 11.7378 -2.49494 -2.5
      vertex 13.247 -1.56366 -2.5
      vertex 15 -7.5 -2.5
    endloop
  endfacet
  facet normal 0 0 -1
    outer loop
      vertex 13.247 -1.56366 -2.5
      vertex 11.7378 -2.49494 -2.5
      vertex 11.801 -1.89371 -2.5
    endloop
  endfacet
  facet normal 0 0 -1
    outer loop
      vertex 15 -7.5 -2.5
      vertex 10.9625 -4.88084 -2.5
      vertex 11.7378 -2.49494 -2.5
    endloop
  endfacet
  facet normal 0 0 -1
    outer loop
      vertex 15 -7.5 -2.5
      vertex 9.7082 -7.05342 -2.5
      vertex 10.9625 -4.88084 -2.5
    endloop
  endfacet
  facet normal 0 -0 -1
    outer loop
      vertex 9.7082 -7.05342 -2.5
      vertex 15 -7.5 -2.5
      vertex 9.3061 -7.5 -2.5
    endloop
  endfacet
  facet normal 0 0 -1
    outer loop
      vertex 13.247 1.56366 -2.5
      vertex 15 7.5 -2.5
      vertex 14 0 -2.5
    endloop
  endfacet
  facet normal 0 0 -1
    outer loop
      vertex 11.7378 2.49494 -2.5
      vertex 13.247 1.56366 -2.5
      vertex 11.801 1.89371 -2.5
    endloop
  endfacet
  facet normal 0 0 -1
    outer loop
      vertex 13.247 1.56366 -2.5
      vertex 11.7378 2.49494 -2.5
      vertex 15 7.5 -2.5
    endloop
  endfacet
  facet normal 0 0 -1
    outer loop
      vertex 10.9625 4.88084 -2.5
      vertex 15 7.5 -2.5
      vertex 11.7378 2.49494 -2.5
    endloop
  endfacet
  facet normal 0 0 -1
    outer loop
      vertex 9.7082 7.05342 -2.5
      vertex 15 7.5 -2.5
      vertex 10.9625 4.88084 -2.5
    endloop
  endfacet
  facet normal -0 0 -1
    outer loop
      vertex 15 7.5 -2.5
      vertex 9.7082 7.05342 -2.5
      vertex 9.3061 7.5 -2.5
    endloop
  endfacet
  facet normal 0 0 -1
    outer loop
      vertex -11.7378 -2.49494 -2.5
      vertex -12.445 -1.94986 -2.5
      vertex -11.8103 -1.80498 -2.5
    endloop
  endfacet
  facet normal 0 0 -1
    outer loop
      vertex -10.9625 -4.88084 -2.5
      vertex -12.445 -1.94986 -2.5
      vertex -11.7378 -2.49494 -2.5
    endloop
  endfacet
  facet normal 0 0 -1
    outer loop
      vertex -15 -7.5 -2.5
      vertex -12.445 -1.94986 -2.5
      vertex -10.9625 -4.88084 -2.5
    endloop
  endfacet
  facet normal 0 0 -1
    outer loop
      vertex -15 -7.5 -2.5
      vertex -10.9625 -4.88084 -2.5
      vertex -9.7082 -7.05342 -2.5
    endloop
  endfacet
  facet normal -0 0 -1
    outer loop
      vertex -13.8019 -0.867767 -2.5
      vertex -15 -7.5 -2.5
      vertex -13.8019 0.867767 -2.5
    endloop
  endfacet
  facet normal -0 0 -1
    outer loop
      vertex -12.445 -1.94986 -2.5
      vertex -15 -7.5 -2.5
      vertex -13.8019 -0.867767 -2.5
    endloop
  endfacet
  facet normal 0 0 -1
    outer loop
      vertex -15 -7.5 -2.5
      vertex -9.7082 -7.05342 -2.5
      vertex -9.3061 -7.5 -2.5
    endloop
  endfacet
  facet normal 0 0 -1
    outer loop
      vertex -12.445 1.94986 -2.5
      vertex -11.7378 2.49494 -2.5
      vertex -11.8103 1.80498 -2.5
    endloop
  endfacet
  facet normal 0 0 -1
    outer loop
      vertex -12.445 1.94986 -2.5
      vertex -10.9625 4.88084 -2.5
      vertex -11.7378 2.49494 -2.5
    endloop
  endfacet
  facet normal 0 0 -1
    outer loop
      vertex -15 7.5 -2.5
      vertex -12.445 1.94986 -2.5
      vertex -13.8019 0.867767 -2.5
    endloop
  endfacet
  facet normal 0 0 -1
    outer loop
      vertex -12.445 1.94986 -2.5
      vertex -15 7.5 -2.5
      vertex -10.9625 4.88084 -2.5
    endloop
  endfacet
  facet normal 0 0 -1
    outer loop
      vertex -9.7082 7.05342 -2.5
      vertex -15 7.5 -2.5
      vertex -9.3061 7.5 -2.5
    endloop
  endfacet
  facet normal 0 0 -1
    outer loop
      vertex -10.9625 4.88084 -2.5
      vertex -15 7.5 -2.5
      vertex -9.7082 7.05342 -2.5
    endloop
  endfacet
  facet normal 0 0 -1
    outer loop
      vertex -15 7.5 -2.5
      vertex -13.8019 0.867767 -2.5
      vertex -15 -7.5 -2.5
    endloop
  endfacet
  facet normal -1 0 0
    outer loop
      vertex -15 7.5 -2.5
      vertex -15 2.5 2.5
      vertex -15 7.5 2.5
    endloop
  endfacet
  facet normal -1 0 0
    outer loop
      vertex -15 7.5 -2.5
      vertex -15 -2.5 2.5
      vertex -15 2.5 2.5
    endloop
  endfacet
  facet normal -1 0 0
    outer loop
      vertex -15 -7.5 -2.5
      vertex -15 -2.5 2.5
      vertex -15 7.5 -2.5
    endloop
  endfacet
  facet normal -1 -0 0
    outer loop
      vertex -15 -2.5 2.5
      vertex -15 -7.5 -2.5
      vertex -15 -7.5 2.5
    endloop
  endfacet
  facet normal 0 1 -0
    outer loop
      vertex -9.3061 7.5 -2.5
      vertex -10 7.5 2.5
      vertex -9.3061 7.5 2.5
    endloop
  endfacet
  facet normal 0 1 0
    outer loop
      vertex -15 7.5 -2.5
      vertex -10 7.5 2.5
      vertex -9.3061 7.5 -2.5
    endloop
  endfacet
  facet normal 0 1 0
    outer loop
      vertex -10 7.5 2.5
      vertex -15 7.5 -2.5
      vertex -15 7.5 2.5
    endloop
  endfacet
  facet normal 0 1 -0
    outer loop
      vertex 15 7.5 -2.5
      vertex 10 7.5 2.5
      vertex 15 7.5 2.5
    endloop
  endfacet
  facet normal 0 1 0
    outer loop
      vertex 9.3061 7.5 -2.5
      vertex 10 7.5 2.5
      vertex 15 7.5 -2.5
    endloop
  endfacet
  facet normal 0 1 0
    outer loop
      vertex 10 7.5 2.5
      vertex 9.3061 7.5 -2.5
      vertex 9.3061 7.5 2.5
    endloop
  endfacet
  facet normal 0 -1 0
    outer loop
      vertex -15 -7.5 -2.5
      vertex -10 -7.5 2.5
      vertex -15 -7.5 2.5
    endloop
  endfacet
  facet normal 0 -1 0
    outer loop
      vertex -9.3061 -7.5 -2.5
      vertex -10 -7.5 2.5
      vertex -15 -7.5 -2.5
    endloop
  endfacet
  facet normal 0 -1 0
    outer loop
      vertex -10 -7.5 2.5
      vertex -9.3061 -7.5 -2.5
      vertex -9.3061 -7.5 2.5
    endloop
  endfacet
  facet normal 0 -1 0
    outer loop
      vertex 9.3061 -7.5 -2.5
      vertex 10 -7.5 2.5
      vertex 9.3061 -7.5 2.5
    endloop
  endfacet
  facet normal 0 -1 0
    outer loop
      vertex 15 -7.5 -2.5
      vertex 10 -7.5 2.5
      vertex 9.3061 -7.5 -2.5
    endloop
  endfacet
  facet normal 0 -1 0
    outer loop
      vertex 10 -7.5 2.5
      vertex 15 -7.5 -2.5
      vertex 15 -7.5 2.5
    endloop
  endfacet
  facet normal 0.406745 0.913542 -0
    outer loop
      vertex 6 10.3923 -5
      vertex 3.7082 11.4127 10
      vertex 6 10.3923 10
    endloop
  endfacet
  facet normal 0.406745 0.913542 0
    outer loop
      vertex 3.7082 11.4127 10
      vertex 6 10.3923 -5
      vertex 3.7082 11.4127 -5
    endloop
  endfacet
  facet normal 0.951048 0.309044 0
    outer loop
      vertex 11.7378 2.49494 -2.5
      vertex 10.9625 4.88084 -5
      vertex 10.9625 4.88084 -2.5
    endloop
  endfacet
  facet normal 0.951048 0.309044 0
    outer loop
      vertex 10.9625 4.88084 -5
      vertex 11.7378 2.49494 -2.5
      vertex 11.7378 2.49494 -5
    endloop
  endfacet
  facet normal 0.951048 0.309044 0
    outer loop
      vertex 11.7378 2.49494 10
      vertex 10.9625 4.88084 5
      vertex 10.9625 4.88084 10
    endloop
  endfacet
  facet normal 0.951048 0.309044 0
    outer loop
      vertex 10.9625 4.88084 5
      vertex 11.7378 2.49494 10
      vertex 11.7378 2.49494 5
    endloop
  endfacet
  facet normal 0.99452 0.104542 0
    outer loop
      vertex 11.801 1.89371 -2.5
      vertex 11.7378 2.49494 -5
      vertex 11.7378 2.49494 -2.5
    endloop
  endfacet
  facet normal 0.99452 0.104542 0
    outer loop
      vertex 11.7378 2.49494 -5
      vertex 11.801 1.89371 -2.5
      vertex 11.801 1.89371 -5
    endloop
  endfacet
  facet normal 0.99452 0.104542 0
    outer loop
      vertex 11.801 1.89371 10
      vertex 11.7378 2.49494 5
      vertex 11.7378 2.49494 10
    endloop
  endfacet
  facet normal 0.99452 0.104542 0
    outer loop
      vertex 11.7378 2.49494 5
      vertex 11.801 1.89371 10
      vertex 11.801 1.89371 5
    endloop
  endfacet
  facet normal 0.866032 0.499988 0
    outer loop
      vertex 10.9625 4.88084 -2.5
      vertex 9.7082 7.05342 -5
      vertex 9.7082 7.05342 -2.5
    endloop
  endfacet
  facet normal 0.866032 0.499988 0
    outer loop
      vertex 9.7082 7.05342 -5
      vertex 10.9625 4.88084 -2.5
      vertex 10.9625 4.88084 -5
    endloop
  endfacet
  facet normal 0.866032 0.499988 0
    outer loop
      vertex 10.9625 4.88084 10
      vertex 9.7082 7.05342 5
      vertex 9.7082 7.05342 10
    endloop
  endfacet
  facet normal 0.866032 0.499988 0
    outer loop
      vertex 9.7082 7.05342 5
      vertex 10.9625 4.88084 10
      vertex 10.9625 4.88084 5
    endloop
  endfacet
  facet normal 0.951048 -0.309044 0
    outer loop
      vertex 10.9625 -4.88084 -2.5
      vertex 11.7378 -2.49494 -5
      vertex 11.7378 -2.49494 -2.5
    endloop
  endfacet
  facet normal 0.951048 -0.309044 0
    outer loop
      vertex 11.7378 -2.49494 -5
      vertex 10.9625 -4.88084 -2.5
      vertex 10.9625 -4.88084 -5
    endloop
  endfacet
  facet normal 0.951048 -0.309044 0
    outer loop
      vertex 10.9625 -4.88084 10
      vertex 11.7378 -2.49494 5
      vertex 11.7378 -2.49494 10
    endloop
  endfacet
  facet normal 0.951048 -0.309044 0
    outer loop
      vertex 11.7378 -2.49494 5
      vertex 10.9625 -4.88084 10
      vertex 10.9625 -4.88084 5
    endloop
  endfacet
  facet normal 0 0 -1
    outer loop
      vertex 11.801 -1.89371 -5
      vertex 14 0 -5
      vertex 13.247 -1.56366 -5
    endloop
  endfacet
  facet normal 0 0 -1
    outer loop
      vertex 11.801 1.89371 -5
      vertex 14 0 -5
      vertex 11.801 -1.89371 -5
    endloop
  endfacet
  facet normal 0 0 -1
    outer loop
      vertex 14 0 -5
      vertex 11.801 1.89371 -5
      vertex 13.247 1.56366 -5
    endloop
  endfacet
  facet normal 0 0 -1
    outer loop
      vertex 10.9625 -4.88084 -5
      vertex 11.801 -1.89371 -5
      vertex 11.7378 -2.49494 -5
    endloop
  endfacet
  facet normal 0 0 -1
    outer loop
      vertex 9.7082 -7.05342 -5
      vertex 11.801 -1.89371 -5
      vertex 10.9625 -4.88084 -5
    endloop
  endfacet
  facet normal 0 0 -1
    outer loop
      vertex 8.02957 -8.91774 -5
      vertex 11.801 -1.89371 -5
      vertex 9.7082 -7.05342 -5
    endloop
  endfacet
  facet normal 0 0 -1
    outer loop
      vertex 11.801 1.89371 -5
      vertex 10.9625 4.88084 -5
      vertex 11.7378 2.49494 -5
    endloop
  endfacet
  facet normal -0 0 -1
    outer loop
      vertex 11.801 -1.89371 -5
      vertex 8.02957 -8.91774 -5
      vertex 11.801 1.89371 -5
    endloop
  endfacet
  facet normal 0 0 -1
    outer loop
      vertex 11.801 1.89371 -5
      vertex 9.7082 7.05342 -5
      vertex 10.9625 4.88084 -5
    endloop
  endfacet
  facet normal 0 0 -1
    outer loop
      vertex 8.02957 8.91774 -5
      vertex 11.801 1.89371 -5
      vertex 8.02957 -8.91774 -5
    endloop
  endfacet
  facet normal 0 0 -1
    outer loop
      vertex 11.801 1.89371 -5
      vertex 8.02957 8.91774 -5
      vertex 9.7082 7.05342 -5
    endloop
  endfacet
  facet normal 0 0 -1
    outer loop
      vertex 6 -10.3923 -5
      vertex 8.02957 8.91774 -5
      vertex 8.02957 -8.91774 -5
    endloop
  endfacet
  facet normal 0 0 -1
    outer loop
      vertex 6 -10.3923 -5
      vertex 6 10.3923 -5
      vertex 8.02957 8.91774 -5
    endloop
  endfacet
  facet normal 0 0 -1
    outer loop
      vertex 3.7082 -11.4127 -5
      vertex 6 10.3923 -5
      vertex 6 -10.3923 -5
    endloop
  endfacet
  facet normal 0 0 -1
    outer loop
      vertex 3.7082 -11.4127 -5
      vertex 3.7082 11.4127 -5
      vertex 6 10.3923 -5
    endloop
  endfacet
  facet normal 0 0 -1
    outer loop
      vertex 1.25434 -11.9343 -5
      vertex 3.7082 11.4127 -5
      vertex 3.7082 -11.4127 -5
    endloop
  endfacet
  facet normal 0 0 -1
    outer loop
      vertex 1.25434 -11.9343 -5
      vertex 1.25434 11.9343 -5
      vertex 3.7082 11.4127 -5
    endloop
  endfacet
  facet normal 0 0 -1
    outer loop
      vertex -1.25434 -11.9343 -5
      vertex 1.25434 11.9343 -5
      vertex 1.25434 -11.9343 -5
    endloop
  endfacet
  facet normal 0 0 -1
    outer loop
      vertex -1.25434 -11.9343 -5
      vertex -1.25434 11.9343 -5
      vertex 1.25434 11.9343 -5
    endloop
  endfacet
  facet normal 0 0 -1
    outer loop
      vertex -3.7082 -11.4127 -5
      vertex -1.25434 11.9343 -5
      vertex -1.25434 -11.9343 -5
    endloop
  endfacet
  facet normal 0 0 -1
    outer loop
      vertex -3.7082 -11.4127 -5
      vertex -3.7082 11.4127 -5
      vertex -1.25434 11.9343 -5
    endloop
  endfacet
  facet normal 0 0 -1
    outer loop
      vertex -6 -10.3923 -5
      vertex -3.7082 11.4127 -5
      vertex -3.7082 -11.4127 -5
    endloop
  endfacet
  facet normal 0 0 -1
    outer loop
      vertex -6 -10.3923 -5
      vertex -6 10.3923 -5
      vertex -3.7082 11.4127 -5
    endloop
  endfacet
  facet normal 0 0 -1
    outer loop
      vertex -8.02957 -8.91774 -5
      vertex -6 10.3923 -5
      vertex -6 -10.3923 -5
    endloop
  endfacet
  facet normal 0 0 -1
    outer loop
      vertex -11.8103 -1.80498 -5
      vertex -6 10.3923 -5
      vertex -8.02957 -8.91774 -5
    endloop
  endfacet
  facet normal 0 0 -1
    outer loop
      vertex -11.8103 -1.80498 -5
      vertex -8.02957 -8.91774 -5
      vertex -9.7082 -7.05342 -5
    endloop
  endfacet
  facet normal 0 0 -1
    outer loop
      vertex -6 10.3923 -5
      vertex -11.8103 -1.80498 -5
      vertex -8.02957 8.91774 -5
    endloop
  endfacet
  facet normal 0 0 -1
    outer loop
      vertex -11.8103 -1.80498 -5
      vertex -9.7082 -7.05342 -5
      vertex -10.9625 -4.88084 -5
    endloop
  endfacet
  facet normal 0 0 -1
    outer loop
      vertex -11.8103 1.80498 -5
      vertex -8.02957 8.91774 -5
      vertex -11.8103 -1.80498 -5
    endloop
  endfacet
  facet normal 0 0 -1
    outer loop
      vertex -11.8103 -1.80498 -5
      vertex -10.9625 -4.88084 -5
      vertex -11.7378 -2.49494 -5
    endloop
  endfacet
  facet normal 0 0 -1
    outer loop
      vertex -8.02957 8.91774 -5
      vertex -11.8103 1.80498 -5
      vertex -9.7082 7.05342 -5
    endloop
  endfacet
  facet normal 0 0 -1
    outer loop
      vertex -9.7082 7.05342 -5
      vertex -11.8103 1.80498 -5
      vertex -10.9625 4.88084 -5
    endloop
  endfacet
  facet normal 0 0 -1
    outer loop
      vertex -10.9625 4.88084 -5
      vertex -11.8103 1.80498 -5
      vertex -11.7378 2.49494 -5
    endloop
  endfacet
  facet normal 0 0 -1
    outer loop
      vertex -13.8019 -0.867767 -5
      vertex -11.8103 -1.80498 -5
      vertex -12.445 -1.94986 -5
    endloop
  endfacet
  facet normal 0 0 -1
    outer loop
      vertex -11.8103 -1.80498 -5
      vertex -13.8019 -0.867767 -5
      vertex -11.8103 1.80498 -5
    endloop
  endfacet
  facet normal 0 0 -1
    outer loop
      vertex -13.8019 0.867767 -5
      vertex -11.8103 1.80498 -5
      vertex -13.8019 -0.867767 -5
    endloop
  endfacet
  facet normal -0 0 -1
    outer loop
      vertex -11.8103 1.80498 -5
      vertex -13.8019 0.867767 -5
      vertex -12.445 1.94986 -5
    endloop
  endfacet
  facet normal 0.207918 -0.978146 0
    outer loop
      vertex 1.25434 -11.9343 -5
      vertex 3.7082 -11.4127 10
      vertex 1.25434 -11.9343 10
    endloop
  endfacet
  facet normal 0.207918 -0.978146 0
    outer loop
      vertex 3.7082 -11.4127 10
      vertex 1.25434 -11.9343 -5
      vertex 3.7082 -11.4127 -5
    endloop
  endfacet
  facet normal 0.743147 0.669128 0
    outer loop
      vertex 8.02957 8.91774 10
      vertex 9.3061 7.5 2.5
      vertex 8.02957 8.91774 -5
    endloop
  endfacet
  facet normal 0.743147 0.669128 1.35411e-07
    outer loop
      vertex 8.02957 8.91774 10
      vertex 9.4115 7.38294 5
      vertex 9.3061 7.5 2.5
    endloop
  endfacet
  facet normal 0.743147 0.669128 -1.26473e-07
    outer loop
      vertex 9.7082 7.05342 10
      vertex 9.4115 7.38294 5
      vertex 8.02957 8.91774 10
    endloop
  endfacet
  facet normal 0.743146 0.669129 0
    outer loop
      vertex 9.4115 7.38294 5
      vertex 9.7082 7.05342 10
      vertex 9.7082 7.05342 5
    endloop
  endfacet
  facet normal 0.743147 0.669128 -0
    outer loop
      vertex 9.3061 7.5 -2.5
      vertex 8.02957 8.91774 -5
      vertex 9.3061 7.5 2.5
    endloop
  endfacet
  facet normal 0.743147 0.669128 -0
    outer loop
      vertex 9.7082 7.05342 -5
      vertex 9.3061 7.5 -2.5
      vertex 9.7082 7.05342 -2.5
    endloop
  endfacet
  facet normal 0.743147 0.669128 7.75865e-08
    outer loop
      vertex 9.3061 7.5 -2.5
      vertex 9.7082 7.05342 -5
      vertex 8.02957 8.91774 -5
    endloop
  endfacet
  facet normal 0.743149 0.669126 0
    outer loop
      vertex 9.3061 7.5 2.5
      vertex 9.4115 7.38294 5
      vertex 9.4115 7.38294 2.5
    endloop
  endfacet
  facet normal 0.743146 -0.669129 0
    outer loop
      vertex 9.7082 -7.05342 10
      vertex 9.4115 -7.38294 5
      vertex 9.7082 -7.05342 5
    endloop
  endfacet
  facet normal 0.743149 -0.669126 0
    outer loop
      vertex 9.4115 -7.38294 5
      vertex 9.3061 -7.5 2.5
      vertex 9.4115 -7.38294 2.5
    endloop
  endfacet
  facet normal 0.743147 -0.669128 0
    outer loop
      vertex 8.02957 -8.91774 -5
      vertex 9.3061 -7.5 2.5
      vertex 8.02957 -8.91774 10
    endloop
  endfacet
  facet normal 0.743147 -0.669128 1.35411e-07
    outer loop
      vertex 9.4115 -7.38294 5
      vertex 8.02957 -8.91774 10
      vertex 9.3061 -7.5 2.5
    endloop
  endfacet
  facet normal 0.743147 -0.669128 -1.26473e-07
    outer loop
      vertex 8.02957 -8.91774 10
      vertex 9.4115 -7.38294 5
      vertex 9.7082 -7.05342 10
    endloop
  endfacet
  facet normal 0.743147 -0.669128 0
    outer loop
      vertex 9.3061 -7.5 -2.5
      vertex 9.7082 -7.05342 -5
      vertex 9.7082 -7.05342 -2.5
    endloop
  endfacet
  facet normal 0.743147 -0.669128 7.75865e-08
    outer loop
      vertex 9.3061 -7.5 -2.5
      vertex 8.02957 -8.91774 -5
      vertex 9.7082 -7.05342 -5
    endloop
  endfacet
  facet normal 0.743147 -0.669128 0
    outer loop
      vertex 9.3061 -7.5 2.5
      vertex 8.02957 -8.91774 -5
      vertex 9.3061 -7.5 -2.5
    endloop
  endfacet
  facet normal -0.951048 -0.309044 0
    outer loop
      vertex -10.9625 -4.88084 -5
      vertex -11.7378 -2.49494 -2.5
      vertex -11.7378 -2.49494 -5
    endloop
  endfacet
  facet normal -0.951048 -0.309044 0
    outer loop
      vertex -11.7378 -2.49494 -2.5
      vertex -10.9625 -4.88084 -5
      vertex -10.9625 -4.88084 -2.5
    endloop
  endfacet
  facet normal -0.951048 -0.309044 0
    outer loop
      vertex -10.9625 -4.88084 5
      vertex -11.7378 -2.49494 10
      vertex -11.7378 -2.49494 5
    endloop
  endfacet
  facet normal -0.951048 -0.309044 0
    outer loop
      vertex -11.7378 -2.49494 10
      vertex -10.9625 -4.88084 5
      vertex -10.9625 -4.88084 10
    endloop
  endfacet
  facet normal 0.866032 -0.499988 0
    outer loop
      vertex 9.7082 -7.05342 -2.5
      vertex 10.9625 -4.88084 -5
      vertex 10.9625 -4.88084 -2.5
    endloop
  endfacet
  facet normal 0.866032 -0.499988 0
    outer loop
      vertex 10.9625 -4.88084 -5
      vertex 9.7082 -7.05342 -2.5
      vertex 9.7082 -7.05342 -5
    endloop
  endfacet
  facet normal 0.866032 -0.499988 0
    outer loop
      vertex 9.7082 -7.05342 10
      vertex 10.9625 -4.88084 5
      vertex 10.9625 -4.88084 10
    endloop
  endfacet
  facet normal 0.866032 -0.499988 0
    outer loop
      vertex 10.9625 -4.88084 5
      vertex 9.7082 -7.05342 10
      vertex 9.7082 -7.05342 5
    endloop
  endfacet
  facet normal -0.406745 0.913542 0
    outer loop
      vertex -3.7082 11.4127 -5
      vertex -6 10.3923 10
      vertex -3.7082 11.4127 10
    endloop
  endfacet
  facet normal -0.406745 0.913542 0
    outer loop
      vertex -6 10.3923 10
      vertex -3.7082 11.4127 -5
      vertex -6 10.3923 -5
    endloop
  endfacet
  facet normal -0.587783 0.809019 0
    outer loop
      vertex -6 10.3923 -5
      vertex -8.02957 8.91774 10
      vertex -6 10.3923 10
    endloop
  endfacet
  facet normal -0.587783 0.809019 0
    outer loop
      vertex -8.02957 8.91774 10
      vertex -6 10.3923 -5
      vertex -8.02957 8.91774 -5
    endloop
  endfacet
  facet normal -0.743147 0.669128 0
    outer loop
      vertex -9.3061 7.5 2.5
      vertex -8.02957 8.91774 -5
      vertex -9.3061 7.5 -2.5
    endloop
  endfacet
  facet normal -0.743147 0.669128 7.75865e-08
    outer loop
      vertex -9.7082 7.05342 -5
      vertex -9.3061 7.5 -2.5
      vertex -8.02957 8.91774 -5
    endloop
  endfacet
  facet normal -0.743147 0.669128 0
    outer loop
      vertex -9.3061 7.5 -2.5
      vertex -9.7082 7.05342 -5
      vertex -9.7082 7.05342 -2.5
    endloop
  endfacet
  facet normal -0.743147 0.669128 0
    outer loop
      vertex -8.02957 8.91774 -5
      vertex -9.3061 7.5 2.5
      vertex -8.02957 8.91774 10
    endloop
  endfacet
  facet normal -0.743149 0.669126 0
    outer loop
      vertex -9.4115 7.38294 5
      vertex -9.3061 7.5 2.5
      vertex -9.4115 7.38294 2.5
    endloop
  endfacet
  facet normal -0.743147 0.669128 1.35411e-07
    outer loop
      vertex -9.3061 7.5 2.5
      vertex -9.4115 7.38294 5
      vertex -8.02957 8.91774 10
    endloop
  endfacet
  facet normal -0.743146 0.669129 0
    outer loop
      vertex -9.7082 7.05342 10
      vertex -9.4115 7.38294 5
      vertex -9.7082 7.05342 5
    endloop
  endfacet
  facet normal -0.743147 0.669128 -1.26473e-07
    outer loop
      vertex -9.4115 7.38294 5
      vertex -9.7082 7.05342 10
      vertex -8.02957 8.91774 10
    endloop
  endfacet
  facet normal -0.866032 0.499988 0
    outer loop
      vertex -10.9625 4.88084 -5
      vertex -9.7082 7.05342 -2.5
      vertex -9.7082 7.05342 -5
    endloop
  endfacet
  facet normal -0.866032 0.499988 0
    outer loop
      vertex -9.7082 7.05342 -2.5
      vertex -10.9625 4.88084 -5
      vertex -10.9625 4.88084 -2.5
    endloop
  endfacet
  facet normal -0.866032 0.499988 0
    outer loop
      vertex -10.9625 4.88084 5
      vertex -9.7082 7.05342 10
      vertex -9.7082 7.05342 5
    endloop
  endfacet
  facet normal -0.866032 0.499988 0
    outer loop
      vertex -9.7082 7.05342 10
      vertex -10.9625 4.88084 5
      vertex -10.9625 4.88084 10
    endloop
  endfacet
  facet normal 0.587783 -0.809019 0
    outer loop
      vertex 6 -10.3923 -5
      vertex 8.02957 -8.91774 10
      vertex 6 -10.3923 10
    endloop
  endfacet
  facet normal 0.587783 -0.809019 0
    outer loop
      vertex 8.02957 -8.91774 10
      vertex 6 -10.3923 -5
      vertex 8.02957 -8.91774 -5
    endloop
  endfacet
  facet normal 0.207918 0.978146 -0
    outer loop
      vertex 3.7082 11.4127 -5
      vertex 1.25434 11.9343 10
      vertex 3.7082 11.4127 10
    endloop
  endfacet
  facet normal 0.207918 0.978146 0
    outer loop
      vertex 1.25434 11.9343 10
      vertex 3.7082 11.4127 -5
      vertex 1.25434 11.9343 -5
    endloop
  endfacet
  facet normal -0.994525 -0.104503 0
    outer loop
      vertex -11.7378 -2.49494 -5
      vertex -11.8103 -1.80498 -2.5
      vertex -11.8103 -1.80498 -5
    endloop
  endfacet
  facet normal -0.994525 -0.104503 0
    outer loop
      vertex -11.8103 -1.80498 -2.5
      vertex -11.7378 -2.49494 -5
      vertex -11.7378 -2.49494 -2.5
    endloop
  endfacet
  facet normal -0.994525 -0.104503 0
    outer loop
      vertex -11.7378 -2.49494 5
      vertex -11.8103 -1.80498 10
      vertex -11.8103 -1.80498 5
    endloop
  endfacet
  facet normal -0.994525 -0.104503 0
    outer loop
      vertex -11.8103 -1.80498 10
      vertex -11.7378 -2.49494 5
      vertex -11.7378 -2.49494 10
    endloop
  endfacet
  facet normal 0.99452 -0.104542 0
    outer loop
      vertex 11.7378 -2.49494 -2.5
      vertex 11.801 -1.89371 -5
      vertex 11.801 -1.89371 -2.5
    endloop
  endfacet
  facet normal 0.99452 -0.104542 0
    outer loop
      vertex 11.801 -1.89371 -5
      vertex 11.7378 -2.49494 -2.5
      vertex 11.7378 -2.49494 -5
    endloop
  endfacet
  facet normal 0.99452 -0.104542 0
    outer loop
      vertex 11.7378 -2.49494 10
      vertex 11.801 -1.89371 5
      vertex 11.801 -1.89371 10
    endloop
  endfacet
  facet normal 0.99452 -0.104542 0
    outer loop
      vertex 11.801 -1.89371 5
      vertex 11.7378 -2.49494 10
      vertex 11.7378 -2.49494 5
    endloop
  endfacet
  facet normal -0.866032 -0.499988 0
    outer loop
      vertex -9.7082 -7.05342 -5
      vertex -10.9625 -4.88084 -2.5
      vertex -10.9625 -4.88084 -5
    endloop
  endfacet
  facet normal -0.866032 -0.499988 0
    outer loop
      vertex -10.9625 -4.88084 -2.5
      vertex -9.7082 -7.05342 -5
      vertex -9.7082 -7.05342 -2.5
    endloop
  endfacet
  facet normal -0.866032 -0.499988 0
    outer loop
      vertex -9.7082 -7.05342 5
      vertex -10.9625 -4.88084 10
      vertex -10.9625 -4.88084 5
    endloop
  endfacet
  facet normal -0.866032 -0.499988 0
    outer loop
      vertex -10.9625 -4.88084 10
      vertex -9.7082 -7.05342 5
      vertex -9.7082 -7.05342 10
    endloop
  endfacet
  facet normal 0 0 1
    outer loop
      vertex 11.801 1.89371 10
      vertex 14 0 10
      vertex 13.247 1.56366 10
    endloop
  endfacet
  facet normal 0 0 1
    outer loop
      vertex 11.801 -1.89371 10
      vertex 14 0 10
      vertex 11.801 1.89371 10
    endloop
  endfacet
  facet normal 0 0 1
    outer loop
      vertex 14 0 10
      vertex 11.801 -1.89371 10
      vertex 13.247 -1.56366 10
    endloop
  endfacet
  facet normal 0 0 1
    outer loop
      vertex 10.9625 4.88084 10
      vertex 11.801 1.89371 10
      vertex 11.7378 2.49494 10
    endloop
  endfacet
  facet normal 0 0 1
    outer loop
      vertex 9.7082 7.05342 10
      vertex 11.801 1.89371 10
      vertex 10.9625 4.88084 10
    endloop
  endfacet
  facet normal 0 0 1
    outer loop
      vertex 8.02957 8.91774 10
      vertex 11.801 1.89371 10
      vertex 9.7082 7.05342 10
    endloop
  endfacet
  facet normal 0 0 1
    outer loop
      vertex 11.801 -1.89371 10
      vertex 10.9625 -4.88084 10
      vertex 11.7378 -2.49494 10
    endloop
  endfacet
  facet normal 0 0 1
    outer loop
      vertex 11.801 1.89371 10
      vertex 8.02957 8.91774 10
      vertex 11.801 -1.89371 10
    endloop
  endfacet
  facet normal 0 0 1
    outer loop
      vertex 11.801 -1.89371 10
      vertex 9.7082 -7.05342 10
      vertex 10.9625 -4.88084 10
    endloop
  endfacet
  facet normal 0 0 1
    outer loop
      vertex 8.02957 -8.91774 10
      vertex 11.801 -1.89371 10
      vertex 8.02957 8.91774 10
    endloop
  endfacet
  facet normal 0 0 1
    outer loop
      vertex 11.801 -1.89371 10
      vertex 8.02957 -8.91774 10
      vertex 9.7082 -7.05342 10
    endloop
  endfacet
  facet normal 0 0 1
    outer loop
      vertex 6 10.3923 10
      vertex 8.02957 -8.91774 10
      vertex 8.02957 8.91774 10
    endloop
  endfacet
  facet normal 0 0 1
    outer loop
      vertex 6 10.3923 10
      vertex 6 -10.3923 10
      vertex 8.02957 -8.91774 10
    endloop
  endfacet
  facet normal 0 0 1
    outer loop
      vertex 3.7082 11.4127 10
      vertex 6 -10.3923 10
      vertex 6 10.3923 10
    endloop
  endfacet
  facet normal 0 0 1
    outer loop
      vertex 3.7082 11.4127 10
      vertex 3.7082 -11.4127 10
      vertex 6 -10.3923 10
    endloop
  endfacet
  facet normal 0 0 1
    outer loop
      vertex 1.25434 11.9343 10
      vertex 3.7082 -11.4127 10
      vertex 3.7082 11.4127 10
    endloop
  endfacet
  facet normal 0 0 1
    outer loop
      vertex 1.25434 11.9343 10
      vertex 1.25434 -11.9343 10
      vertex 3.7082 -11.4127 10
    endloop
  endfacet
  facet normal -0 0 1
    outer loop
      vertex -1.25434 11.9343 10
      vertex 1.25434 -11.9343 10
      vertex 1.25434 11.9343 10
    endloop
  endfacet
  facet normal 0 0 1
    outer loop
      vertex -1.25434 11.9343 10
      vertex -1.25434 -11.9343 10
      vertex 1.25434 -11.9343 10
    endloop
  endfacet
  facet normal -0 0 1
    outer loop
      vertex -3.7082 11.4127 10
      vertex -1.25434 -11.9343 10
      vertex -1.25434 11.9343 10
    endloop
  endfacet
  facet normal 0 0 1
    outer loop
      vertex -3.7082 11.4127 10
      vertex -3.7082 -11.4127 10
      vertex -1.25434 -11.9343 10
    endloop
  endfacet
  facet normal -0 0 1
    outer loop
      vertex -6 10.3923 10
      vertex -3.7082 -11.4127 10
      vertex -3.7082 11.4127 10
    endloop
  endfacet
  facet normal 0 0 1
    outer loop
      vertex -6 10.3923 10
      vertex -6 -10.3923 10
      vertex -3.7082 -11.4127 10
    endloop
  endfacet
  facet normal -0 0 1
    outer loop
      vertex -8.02957 8.91774 10
      vertex -6 -10.3923 10
      vertex -6 10.3923 10
    endloop
  endfacet
  facet normal -0 0 1
    outer loop
      vertex -11.8103 1.80498 10
      vertex -6 -10.3923 10
      vertex -8.02957 8.91774 10
    endloop
  endfacet
  facet normal 0 0 1
    outer loop
      vertex -11.8103 1.80498 10
      vertex -8.02957 8.91774 10
      vertex -9.7082 7.05342 10
    endloop
  endfacet
  facet normal 0 0 1
    outer loop
      vertex -6 -10.3923 10
      vertex -11.8103 1.80498 10
      vertex -8.02957 -8.91774 10
    endloop
  endfacet
  facet normal 0 0 1
    outer loop
      vertex -11.8103 1.80498 10
      vertex -9.7082 7.05342 10
      vertex -10.9625 4.88084 10
    endloop
  endfacet
  facet normal -0 0 1
    outer loop
      vertex -11.8103 -1.80498 10
      vertex -8.02957 -8.91774 10
      vertex -11.8103 1.80498 10
    endloop
  endfacet
  facet normal 0 0 1
    outer loop
      vertex -11.8103 1.80498 10
      vertex -10.9625 4.88084 10
      vertex -11.7378 2.49494 10
    endloop
  endfacet
  facet normal 0 0 1
    outer loop
      vertex -8.02957 -8.91774 10
      vertex -11.8103 -1.80498 10
      vertex -9.7082 -7.05342 10
    endloop
  endfacet
  facet normal 0 0 1
    outer loop
      vertex -9.7082 -7.05342 10
      vertex -11.8103 -1.80498 10
      vertex -10.9625 -4.88084 10
    endloop
  endfacet
  facet normal 0 0 1
    outer loop
      vertex -10.9625 -4.88084 10
      vertex -11.8103 -1.80498 10
      vertex -11.7378 -2.49494 10
    endloop
  endfacet
  facet normal 0 0 1
    outer loop
      vertex -13.8019 0.867767 10
      vertex -11.8103 1.80498 10
      vertex -12.445 1.94986 10
    endloop
  endfacet
  facet normal 0 0 1
    outer loop
      vertex -11.8103 1.80498 10
      vertex -13.8019 0.867767 10
      vertex -11.8103 -1.80498 10
    endloop
  endfacet
  facet normal -0 0 1
    outer loop
      vertex -13.8019 -0.867767 10
      vertex -11.8103 -1.80498 10
      vertex -13.8019 0.867767 10
    endloop
  endfacet
  facet normal 0 0 1
    outer loop
      vertex -11.8103 -1.80498 10
      vertex -13.8019 -0.867767 10
      vertex -12.445 -1.94986 10
    endloop
  endfacet
  facet normal -0.587783 -0.809019 0
    outer loop
      vertex -8.02957 -8.91774 -5
      vertex -6 -10.3923 10
      vertex -8.02957 -8.91774 10
    endloop
  endfacet
  facet normal -0.587783 -0.809019 -0
    outer loop
      vertex -6 -10.3923 10
      vertex -8.02957 -8.91774 -5
      vertex -6 -10.3923 -5
    endloop
  endfacet
  facet normal 0 1 -0
    outer loop
      vertex 1.25434 11.9343 -5
      vertex -1.25434 11.9343 10
      vertex 1.25434 11.9343 10
    endloop
  endfacet
  facet normal 0 1 0
    outer loop
      vertex -1.25434 11.9343 10
      vertex 1.25434 11.9343 -5
      vertex -1.25434 11.9343 -5
    endloop
  endfacet
  facet normal -0.951048 0.309044 0
    outer loop
      vertex -11.7378 2.49494 -5
      vertex -10.9625 4.88084 -2.5
      vertex -10.9625 4.88084 -5
    endloop
  endfacet
  facet normal -0.951048 0.309044 0
    outer loop
      vertex -10.9625 4.88084 -2.5
      vertex -11.7378 2.49494 -5
      vertex -11.7378 2.49494 -2.5
    endloop
  endfacet
  facet normal -0.951048 0.309044 0
    outer loop
      vertex -11.7378 2.49494 5
      vertex -10.9625 4.88084 10
      vertex -10.9625 4.88084 5
    endloop
  endfacet
  facet normal -0.951048 0.309044 0
    outer loop
      vertex -10.9625 4.88084 10
      vertex -11.7378 2.49494 5
      vertex -11.7378 2.49494 10
    endloop
  endfacet
  facet normal 0.406745 -0.913542 0
    outer loop
      vertex 3.7082 -11.4127 -5
      vertex 6 -10.3923 10
      vertex 3.7082 -11.4127 10
    endloop
  endfacet
  facet normal 0.406745 -0.913542 0
    outer loop
      vertex 6 -10.3923 10
      vertex 3.7082 -11.4127 -5
      vertex 6 -10.3923 -5
    endloop
  endfacet
  facet normal 0.587783 0.809019 -0
    outer loop
      vertex 8.02957 8.91774 -5
      vertex 6 10.3923 10
      vertex 8.02957 8.91774 10
    endloop
  endfacet
  facet normal 0.587783 0.809019 0
    outer loop
      vertex 6 10.3923 10
      vertex 8.02957 8.91774 -5
      vertex 6 10.3923 -5
    endloop
  endfacet
  facet normal -0.994525 0.104503 0
    outer loop
      vertex -11.8103 1.80498 5
      vertex -11.7378 2.49494 10
      vertex -11.7378 2.49494 5
    endloop
  endfacet
  facet normal -0.994525 0.104503 0
    outer loop
      vertex -11.7378 2.49494 10
      vertex -11.8103 1.80498 5
      vertex -11.8103 1.80498 10
    endloop
  endfacet
  facet normal -0.994525 0.104503 0
    outer loop
      vertex -11.8103 1.80498 -5
      vertex -11.7378 2.49494 -2.5
      vertex -11.7378 2.49494 -5
    endloop
  endfacet
  facet normal -0.994525 0.104503 0
    outer loop
      vertex -11.7378 2.49494 -2.5
      vertex -11.8103 1.80498 -5
      vertex -11.8103 1.80498 -2.5
    endloop
  endfacet
  facet normal -0.207918 0.978146 0
    outer loop
      vertex -1.25434 11.9343 -5
      vertex -3.7082 11.4127 10
      vertex -1.25434 11.9343 10
    endloop
  endfacet
  facet normal -0.207918 0.978146 0
    outer loop
      vertex -3.7082 11.4127 10
      vertex -1.25434 11.9343 -5
      vertex -3.7082 11.4127 -5
    endloop
  endfacet
  facet normal -0.743147 -0.669128 0
    outer loop
      vertex -9.7082 -7.05342 -5
      vertex -9.3061 -7.5 -2.5
      vertex -9.7082 -7.05342 -2.5
    endloop
  endfacet
  facet normal -0.743147 -0.669128 0
    outer loop
      vertex -9.3061 -7.5 -2.5
      vertex -8.02957 -8.91774 -5
      vertex -9.3061 -7.5 2.5
    endloop
  endfacet
  facet normal -0.743147 -0.669128 7.75865e-08
    outer loop
      vertex -8.02957 -8.91774 -5
      vertex -9.3061 -7.5 -2.5
      vertex -9.7082 -7.05342 -5
    endloop
  endfacet
  facet normal -0.743149 -0.669126 0
    outer loop
      vertex -9.4115 -7.38294 2.5
      vertex -9.3061 -7.5 2.5
      vertex -9.4115 -7.38294 5
    endloop
  endfacet
  facet normal -0.743146 -0.669129 0
    outer loop
      vertex -9.4115 -7.38294 5
      vertex -9.7082 -7.05342 10
      vertex -9.7082 -7.05342 5
    endloop
  endfacet
  facet normal -0.743147 -0.669128 -0
    outer loop
      vertex -8.02957 -8.91774 10
      vertex -9.3061 -7.5 2.5
      vertex -8.02957 -8.91774 -5
    endloop
  endfacet
  facet normal -0.743147 -0.669128 1.35411e-07
    outer loop
      vertex -9.3061 -7.5 2.5
      vertex -8.02957 -8.91774 10
      vertex -9.4115 -7.38294 5
    endloop
  endfacet
  facet normal -0.743147 -0.669128 -1.26473e-07
    outer loop
      vertex -9.4115 -7.38294 5
      vertex -8.02957 -8.91774 10
      vertex -9.7082 -7.05342 10
    endloop
  endfacet
  facet normal 0 -1 0
    outer loop
      vertex -1.25434 -11.9343 -5
      vertex 1.25434 -11.9343 10
      vertex -1.25434 -11.9343 10
    endloop
  endfacet
  facet normal 0 -1 -0
    outer loop
      vertex 1.25434 -11.9343 10
      vertex -1.25434 -11.9343 -5
      vertex 1.25434 -11.9343 -5
    endloop
  endfacet
  facet normal -0.207918 -0.978146 0
    outer loop
      vertex -3.7082 -11.4127 -5
      vertex -1.25434 -11.9343 10
      vertex -3.7082 -11.4127 10
    endloop
  endfacet
  facet normal -0.207918 -0.978146 -0
    outer loop
      vertex -1.25434 -11.9343 10
      vertex -3.7082 -11.4127 -5
      vertex -1.25434 -11.9343 -5
    endloop
  endfacet
  facet normal -0.406745 -0.913542 0
    outer loop
      vertex -6 -10.3923 -5
      vertex -3.7082 -11.4127 10
      vertex -6 -10.3923 10
    endloop
  endfacet
  facet normal -0.406745 -0.913542 -0
    outer loop
      vertex -3.7082 -11.4127 10
      vertex -6 -10.3923 -5
      vertex -3.7082 -11.4127 -5
    endloop
  endfacet
  facet normal -0.980786 0.195089 0
    outer loop
      vertex -15 -2.5 2.5
      vertex -14.6194 -0.586582 5
      vertex -14.6194 -0.586582 2.5
    endloop
  endfacet
  facet normal -0.980786 0.195089 0
    outer loop
      vertex -14.6194 -0.586582 5
      vertex -15 -2.5 2.5
      vertex -15 -2.5 5
    endloop
  endfacet
  facet normal -0.195091 -0.980785 0
    outer loop
      vertex -11.9134 -7.1194 2.5
      vertex -10 -7.5 5
      vertex -11.9134 -7.1194 5
    endloop
  endfacet
  facet normal -0.195091 -0.980785 -0
    outer loop
      vertex -10 -7.5 5
      vertex -11.9134 -7.1194 2.5
      vertex -10 -7.5 2.5
    endloop
  endfacet
  facet normal -0.831497 0.55553 0
    outer loop
      vertex -14.6194 -0.586582 2.5
      vertex -14.2275 0 5
      vertex -14.2275 0 2.5
    endloop
  endfacet
  facet normal -0.831497 0.55553 0
    outer loop
      vertex -14.2275 0 5
      vertex -14.6194 -0.586582 2.5
      vertex -14.6194 -0.586582 5
    endloop
  endfacet
  facet normal 0 0 1
    outer loop
      vertex -10 7.5 5
      vertex -9.7082 7.05342 5
      vertex -9.4115 7.38294 5
    endloop
  endfacet
  facet normal -0 0 1
    outer loop
      vertex -11.9134 7.1194 5
      vertex -9.7082 7.05342 5
      vertex -10 7.5 5
    endloop
  endfacet
  facet normal 0 0 1
    outer loop
      vertex -9.7082 7.05342 5
      vertex -11.9134 7.1194 5
      vertex -10.9625 4.88084 5
    endloop
  endfacet
  facet normal -0 0 1
    outer loop
      vertex -13.5355 6.03553 5
      vertex -10.9625 4.88084 5
      vertex -11.9134 7.1194 5
    endloop
  endfacet
  facet normal 0 0 1
    outer loop
      vertex -14.6194 4.41342 5
      vertex -10.9625 4.88084 5
      vertex -13.5355 6.03553 5
    endloop
  endfacet
  facet normal 0 0 1
    outer loop
      vertex -10.9625 4.88084 5
      vertex -14.6194 4.41342 5
      vertex -11.7378 2.49494 5
    endloop
  endfacet
  facet normal 0 0 1
    outer loop
      vertex -11.7378 2.49494 5
      vertex -12.445 1.94986 5
      vertex -11.8103 1.80498 5
    endloop
  endfacet
  facet normal 0 0 1
    outer loop
      vertex -11.7378 2.49494 5
      vertex -14.6194 4.41342 5
      vertex -12.445 1.94986 5
    endloop
  endfacet
  facet normal 0 0 1
    outer loop
      vertex -13.8019 0.867767 5
      vertex -14.2275 0 5
      vertex -13.8019 -0.867767 5
    endloop
  endfacet
  facet normal -0 0 1
    outer loop
      vertex -15 2.5 5
      vertex -12.445 1.94986 5
      vertex -14.6194 4.41342 5
    endloop
  endfacet
  facet normal 0 0 1
    outer loop
      vertex -12.445 1.94986 5
      vertex -15 2.5 5
      vertex -13.8019 0.867767 5
    endloop
  endfacet
  facet normal 0 -0 1
    outer loop
      vertex -14.6194 0.586582 5
      vertex -13.8019 0.867767 5
      vertex -15 2.5 5
    endloop
  endfacet
  facet normal 0 0 1
    outer loop
      vertex -13.8019 0.867767 5
      vertex -14.6194 0.586582 5
      vertex -14.2275 0 5
    endloop
  endfacet
  facet normal 0 0 1
    outer loop
      vertex -9.7082 -7.05342 5
      vertex -10 -7.5 5
      vertex -9.4115 -7.38294 5
    endloop
  endfacet
  facet normal 0 0 1
    outer loop
      vertex -11.9134 -7.1194 5
      vertex -9.7082 -7.05342 5
      vertex -10.9625 -4.88084 5
    endloop
  endfacet
  facet normal 0 0 1
    outer loop
      vertex -9.7082 -7.05342 5
      vertex -11.9134 -7.1194 5
      vertex -10 -7.5 5
    endloop
  endfacet
  facet normal -0 0 1
    outer loop
      vertex -14.6194 -4.41342 5
      vertex -10.9625 -4.88084 5
      vertex -11.7378 -2.49494 5
    endloop
  endfacet
  facet normal -0 0 1
    outer loop
      vertex -12.445 -1.94986 5
      vertex -11.7378 -2.49494 5
      vertex -11.8103 -1.80498 5
    endloop
  endfacet
  facet normal 0 0 1
    outer loop
      vertex -14.6194 -4.41342 5
      vertex -11.7378 -2.49494 5
      vertex -12.445 -1.94986 5
    endloop
  endfacet
  facet normal 0 0 1
    outer loop
      vertex -10.9625 -4.88084 5
      vertex -13.5355 -6.03553 5
      vertex -11.9134 -7.1194 5
    endloop
  endfacet
  facet normal 0 0 1
    outer loop
      vertex -15 -2.5 5
      vertex -12.445 -1.94986 5
      vertex -13.8019 -0.867767 5
    endloop
  endfacet
  facet normal -0 0 1
    outer loop
      vertex -14.6194 -0.586582 5
      vertex -13.8019 -0.867767 5
      vertex -14.2275 0 5
    endloop
  endfacet
  facet normal 0 0 1
    outer loop
      vertex -13.8019 -0.867767 5
      vertex -14.6194 -0.586582 5
      vertex -15 -2.5 5
    endloop
  endfacet
  facet normal 0 0 1
    outer loop
      vertex -10.9625 -4.88084 5
      vertex -14.6194 -4.41342 5
      vertex -13.5355 -6.03553 5
    endloop
  endfacet
  facet normal 0 0 1
    outer loop
      vertex -12.445 -1.94986 5
      vertex -15 -2.5 5
      vertex -14.6194 -4.41342 5
    endloop
  endfacet
  facet normal 0.19509 -0.980785 0
    outer loop
      vertex -10 -7.5 2.5
      vertex -9.4115 -7.38294 5
      vertex -10 -7.5 5
    endloop
  endfacet
  facet normal 0.19509 -0.980785 0
    outer loop
      vertex -9.4115 -7.38294 5
      vertex -10 -7.5 2.5
      vertex -9.4115 -7.38294 2.5
    endloop
  endfacet
  facet normal -0.83146 -0.555585 0
    outer loop
      vertex -13.5355 -6.03553 2.5
      vertex -14.6194 -4.41342 5
      vertex -14.6194 -4.41342 2.5
    endloop
  endfacet
  facet normal -0.83146 -0.555585 0
    outer loop
      vertex -14.6194 -4.41342 5
      vertex -13.5355 -6.03553 2.5
      vertex -13.5355 -6.03553 5
    endloop
  endfacet
  facet normal -0.980786 -0.195089 0
    outer loop
      vertex -14.6194 -4.41342 2.5
      vertex -15 -2.5 5
      vertex -15 -2.5 2.5
    endloop
  endfacet
  facet normal -0.980786 -0.195089 0
    outer loop
      vertex -15 -2.5 5
      vertex -14.6194 -4.41342 2.5
      vertex -14.6194 -4.41342 5
    endloop
  endfacet
  facet normal -0.555576 -0.831465 0
    outer loop
      vertex -13.5355 -6.03553 2.5
      vertex -11.9134 -7.1194 5
      vertex -13.5355 -6.03553 5
    endloop
  endfacet
  facet normal -0.555576 -0.831465 -0
    outer loop
      vertex -11.9134 -7.1194 5
      vertex -13.5355 -6.03553 2.5
      vertex -11.9134 -7.1194 2.5
    endloop
  endfacet
  facet normal -0.980786 0.195089 0
    outer loop
      vertex -15 2.5 2.5
      vertex -14.6194 4.41342 5
      vertex -14.6194 4.41342 2.5
    endloop
  endfacet
  facet normal -0.980786 0.195089 0
    outer loop
      vertex -14.6194 4.41342 5
      vertex -15 2.5 2.5
      vertex -15 2.5 5
    endloop
  endfacet
  facet normal 0.19509 0.980785 -0
    outer loop
      vertex -9.4115 7.38294 2.5
      vertex -10 7.5 5
      vertex -9.4115 7.38294 5
    endloop
  endfacet
  facet normal 0.19509 0.980785 0
    outer loop
      vertex -10 7.5 5
      vertex -9.4115 7.38294 2.5
      vertex -10 7.5 2.5
    endloop
  endfacet
  facet normal -0.83146 0.555585 0
    outer loop
      vertex -14.6194 4.41342 2.5
      vertex -13.5355 6.03553 5
      vertex -13.5355 6.03553 2.5
    endloop
  endfacet
  facet normal -0.83146 0.555585 0
    outer loop
      vertex -13.5355 6.03553 5
      vertex -14.6194 4.41342 2.5
      vertex -14.6194 4.41342 5
    endloop
  endfacet
  facet normal -0.555576 0.831465 0
    outer loop
      vertex -11.9134 7.1194 2.5
      vertex -13.5355 6.03553 5
      vertex -11.9134 7.1194 5
    endloop
  endfacet
  facet normal -0.555576 0.831465 0
    outer loop
      vertex -13.5355 6.03553 5
      vertex -11.9134 7.1194 2.5
      vertex -13.5355 6.03553 2.5
    endloop
  endfacet
  facet normal -0.195091 0.980785 0
    outer loop
      vertex -10 7.5 2.5
      vertex -11.9134 7.1194 5
      vertex -10 7.5 5
    endloop
  endfacet
  facet normal -0.195091 0.980785 0
    outer loop
      vertex -11.9134 7.1194 5
      vertex -10 7.5 2.5
      vertex -11.9134 7.1194 2.5
    endloop
  endfacet
  facet normal -0.831497 -0.55553 0
    outer loop
      vertex -14.2275 0 2.5
      vertex -14.6194 0.586582 5
      vertex -14.6194 0.586582 2.5
    endloop
  endfacet
  facet normal -0.831497 -0.55553 0
    outer loop
      vertex -14.6194 0.586582 5
      vertex -14.2275 0 2.5
      vertex -14.2275 0 5
    endloop
  endfacet
  facet normal -0.980786 -0.195089 0
    outer loop
      vertex -14.6194 0.586582 2.5
      vertex -15 2.5 5
      vertex -15 2.5 2.5
    endloop
  endfacet
  facet normal -0.980786 -0.195089 0
    outer loop
      vertex -15 2.5 5
      vertex -14.6194 0.586582 2.5
      vertex -14.6194 0.586582 5
    endloop
  endfacet
  facet normal -0.19509 -0.980785 0
    outer loop
      vertex 9.4115 -7.38294 2.5
      vertex 10 -7.5 5
      vertex 9.4115 -7.38294 5
    endloop
  endfacet
  facet normal -0.19509 -0.980785 -0
    outer loop
      vertex 10 -7.5 5
      vertex 9.4115 -7.38294 2.5
      vertex 10 -7.5 2.5
    endloop
  endfacet
  facet normal 0.83146 -0.555585 0
    outer loop
      vertex 13.5355 -6.03553 5
      vertex 14.6194 -4.41342 2.5
      vertex 14.6194 -4.41342 5
    endloop
  endfacet
  facet normal 0.83146 -0.555585 0
    outer loop
      vertex 14.6194 -4.41342 2.5
      vertex 13.5355 -6.03553 5
      vertex 13.5355 -6.03553 2.5
    endloop
  endfacet
  facet normal 0.831497 0.55553 0
    outer loop
      vertex 14.6194 -0.586582 5
      vertex 14.2275 0 2.5
      vertex 14.2275 0 5
    endloop
  endfacet
  facet normal 0.831497 0.55553 0
    outer loop
      vertex 14.2275 0 2.5
      vertex 14.6194 -0.586582 5
      vertex 14.6194 -0.586582 2.5
    endloop
  endfacet
  facet normal 0.980786 0.195089 0
    outer loop
      vertex 15 -2.5 5
      vertex 14.6194 -0.586582 2.5
      vertex 14.6194 -0.586582 5
    endloop
  endfacet
  facet normal 0.980786 0.195089 0
    outer loop
      vertex 14.6194 -0.586582 2.5
      vertex 15 -2.5 5
      vertex 15 -2.5 2.5
    endloop
  endfacet
  facet normal 0.555576 -0.831465 0
    outer loop
      vertex 11.9134 -7.1194 2.5
      vertex 13.5355 -6.03553 5
      vertex 11.9134 -7.1194 5
    endloop
  endfacet
  facet normal 0.555576 -0.831465 0
    outer loop
      vertex 13.5355 -6.03553 5
      vertex 11.9134 -7.1194 2.5
      vertex 13.5355 -6.03553 2.5
    endloop
  endfacet
  facet normal 0.980786 -0.195089 0
    outer loop
      vertex 14.6194 -4.41342 5
      vertex 15 -2.5 2.5
      vertex 15 -2.5 5
    endloop
  endfacet
  facet normal 0.980786 -0.195089 0
    outer loop
      vertex 15 -2.5 2.5
      vertex 14.6194 -4.41342 5
      vertex 14.6194 -4.41342 2.5
    endloop
  endfacet
  facet normal 0 0 1
    outer loop
      vertex 13.247 1.56366 5
      vertex 15 2.5 5
      vertex 14.6194 4.41342 5
    endloop
  endfacet
  facet normal 0 0 1
    outer loop
      vertex 15 2.5 5
      vertex 13.247 1.56366 5
      vertex 14.6194 0.586582 5
    endloop
  endfacet
  facet normal 0 -0 1
    outer loop
      vertex 14 0 5
      vertex 14.6194 0.586582 5
      vertex 13.247 1.56366 5
    endloop
  endfacet
  facet normal -0 0 1
    outer loop
      vertex 10.9625 4.88084 5
      vertex 14.6194 4.41342 5
      vertex 13.5355 6.03553 5
    endloop
  endfacet
  facet normal 0 0 1
    outer loop
      vertex 14.6194 0.586582 5
      vertex 14 0 5
      vertex 14.2275 0 5
    endloop
  endfacet
  facet normal 0 0 1
    outer loop
      vertex 10.9625 4.88084 5
      vertex 13.5355 6.03553 5
      vertex 11.9134 7.1194 5
    endloop
  endfacet
  facet normal 0 0 1
    outer loop
      vertex 14.6194 4.41342 5
      vertex 10.9625 4.88084 5
      vertex 11.7378 2.49494 5
    endloop
  endfacet
  facet normal 0 0 1
    outer loop
      vertex 13.247 1.56366 5
      vertex 11.7378 2.49494 5
      vertex 11.801 1.89371 5
    endloop
  endfacet
  facet normal 0 0 1
    outer loop
      vertex 14.6194 4.41342 5
      vertex 11.7378 2.49494 5
      vertex 13.247 1.56366 5
    endloop
  endfacet
  facet normal 0 0 1
    outer loop
      vertex 9.7082 7.05342 5
      vertex 11.9134 7.1194 5
      vertex 10 7.5 5
    endloop
  endfacet
  facet normal 0 0 1
    outer loop
      vertex 11.9134 7.1194 5
      vertex 9.7082 7.05342 5
      vertex 10.9625 4.88084 5
    endloop
  endfacet
  facet normal 0 -0 1
    outer loop
      vertex 9.7082 7.05342 5
      vertex 10 7.5 5
      vertex 9.4115 7.38294 5
    endloop
  endfacet
  facet normal -0 0 1
    outer loop
      vertex 13.247 -1.56366 5
      vertex 15 -2.5 5
      vertex 14.6194 -0.586582 5
    endloop
  endfacet
  facet normal -0 0 1
    outer loop
      vertex 14 0 5
      vertex 14.6194 -0.586582 5
      vertex 14.2275 0 5
    endloop
  endfacet
  facet normal 0 0 1
    outer loop
      vertex 14.6194 -0.586582 5
      vertex 14 0 5
      vertex 13.247 -1.56366 5
    endloop
  endfacet
  facet normal 0 0 1
    outer loop
      vertex 15 -2.5 5
      vertex 13.247 -1.56366 5
      vertex 14.6194 -4.41342 5
    endloop
  endfacet
  facet normal -0 0 1
    outer loop
      vertex 11.7378 -2.49494 5
      vertex 14.6194 -4.41342 5
      vertex 13.247 -1.56366 5
    endloop
  endfacet
  facet normal 0 0 1
    outer loop
      vertex 10.9625 -4.88084 5
      vertex 14.6194 -4.41342 5
      vertex 11.7378 -2.49494 5
    endloop
  endfacet
  facet normal 0 0 1
    outer loop
      vertex 11.7378 -2.49494 5
      vertex 13.247 -1.56366 5
      vertex 11.801 -1.89371 5
    endloop
  endfacet
  facet normal 0 0 1
    outer loop
      vertex 14.6194 -4.41342 5
      vertex 10.9625 -4.88084 5
      vertex 13.5355 -6.03553 5
    endloop
  endfacet
  facet normal 0 0 1
    outer loop
      vertex 13.5355 -6.03553 5
      vertex 10.9625 -4.88084 5
      vertex 11.9134 -7.1194 5
    endloop
  endfacet
  facet normal -0 0 1
    outer loop
      vertex 9.7082 -7.05342 5
      vertex 11.9134 -7.1194 5
      vertex 10.9625 -4.88084 5
    endloop
  endfacet
  facet normal 0 0 1
    outer loop
      vertex 11.9134 -7.1194 5
      vertex 9.7082 -7.05342 5
      vertex 10 -7.5 5
    endloop
  endfacet
  facet normal 0 0 1
    outer loop
      vertex 10 -7.5 5
      vertex 9.7082 -7.05342 5
      vertex 9.4115 -7.38294 5
    endloop
  endfacet
  facet normal 0.195091 -0.980785 0
    outer loop
      vertex 10 -7.5 2.5
      vertex 11.9134 -7.1194 5
      vertex 10 -7.5 5
    endloop
  endfacet
  facet normal 0.195091 -0.980785 0
    outer loop
      vertex 11.9134 -7.1194 5
      vertex 10 -7.5 2.5
      vertex 11.9134 -7.1194 2.5
    endloop
  endfacet
  facet normal 0.83146 0.555585 0
    outer loop
      vertex 14.6194 4.41342 5
      vertex 13.5355 6.03553 2.5
      vertex 13.5355 6.03553 5
    endloop
  endfacet
  facet normal 0.83146 0.555585 0
    outer loop
      vertex 13.5355 6.03553 2.5
      vertex 14.6194 4.41342 5
      vertex 14.6194 4.41342 2.5
    endloop
  endfacet
  facet normal 0.980786 0.195089 0
    outer loop
      vertex 15 2.5 5
      vertex 14.6194 4.41342 2.5
      vertex 14.6194 4.41342 5
    endloop
  endfacet
  facet normal 0.980786 0.195089 0
    outer loop
      vertex 14.6194 4.41342 2.5
      vertex 15 2.5 5
      vertex 15 2.5 2.5
    endloop
  endfacet
  facet normal 0.555576 0.831465 -0
    outer loop
      vertex 13.5355 6.03553 2.5
      vertex 11.9134 7.1194 5
      vertex 13.5355 6.03553 5
    endloop
  endfacet
  facet normal 0.555576 0.831465 0
    outer loop
      vertex 11.9134 7.1194 5
      vertex 13.5355 6.03553 2.5
      vertex 11.9134 7.1194 2.5
    endloop
  endfacet
  facet normal 0.195091 0.980785 -0
    outer loop
      vertex 11.9134 7.1194 2.5
      vertex 10 7.5 5
      vertex 11.9134 7.1194 5
    endloop
  endfacet
  facet normal 0.195091 0.980785 0
    outer loop
      vertex 10 7.5 5
      vertex 11.9134 7.1194 2.5
      vertex 10 7.5 2.5
    endloop
  endfacet
  facet normal 0.831497 -0.55553 0
    outer loop
      vertex 14.2275 0 5
      vertex 14.6194 0.586582 2.5
      vertex 14.6194 0.586582 5
    endloop
  endfacet
  facet normal 0.831497 -0.55553 0
    outer loop
      vertex 14.6194 0.586582 2.5
      vertex 14.2275 0 5
      vertex 14.2275 0 2.5
    endloop
  endfacet
  facet normal 0.980786 -0.195089 0
    outer loop
      vertex 14.6194 0.586582 5
      vertex 15 2.5 2.5
      vertex 15 2.5 5
    endloop
  endfacet
  facet normal 0.980786 -0.195089 0
    outer loop
      vertex 15 2.5 2.5
      vertex 14.6194 0.586582 5
      vertex 14.6194 0.586582 2.5
    endloop
  endfacet
  facet normal -0.19509 0.980785 0
    outer loop
      vertex 10 7.5 2.5
      vertex 9.4115 7.38294 5
      vertex 10 7.5 5
    endloop
  endfacet
  facet normal -0.19509 0.980785 0
    outer loop
      vertex 9.4115 7.38294 5
      vertex 10 7.5 2.5
      vertex 9.4115 7.38294 2.5
    endloop
  endfacet
  facet normal 0.222541 0.974923 -0
    outer loop
      vertex -11.8103 1.80498 5
      vertex -12.445 1.94986 10
      vertex -11.8103 1.80498 10
    endloop
  endfacet
  facet normal 0.222541 0.974923 0
    outer loop
      vertex -12.445 1.94986 10
      vertex -11.8103 1.80498 5
      vertex -12.445 1.94986 5
    endloop
  endfacet
  facet normal 0.222541 0.974923 -0
    outer loop
      vertex -11.8103 1.80498 -5
      vertex -12.445 1.94986 -2.5
      vertex -11.8103 1.80498 -2.5
    endloop
  endfacet
  facet normal 0.222541 0.974923 0
    outer loop
      vertex -12.445 1.94986 -2.5
      vertex -11.8103 1.80498 -5
      vertex -12.445 1.94986 -5
    endloop
  endfacet
  facet normal -0.62349 0.781831 0
    outer loop
      vertex -12.445 1.94986 -5
      vertex -13.8019 0.867767 -2.5
      vertex -12.445 1.94986 -2.5
    endloop
  endfacet
  facet normal -0.62349 0.781831 0
    outer loop
      vertex -13.8019 0.867767 -2.5
      vertex -12.445 1.94986 -5
      vertex -13.8019 0.867767 -5
    endloop
  endfacet
  facet normal -0.62349 0.781831 0
    outer loop
      vertex -12.445 1.94986 5
      vertex -13.8019 0.867767 10
      vertex -12.445 1.94986 10
    endloop
  endfacet
  facet normal -0.62349 0.781831 0
    outer loop
      vertex -13.8019 0.867767 10
      vertex -12.445 1.94986 5
      vertex -13.8019 0.867767 5
    endloop
  endfacet
  facet normal -0.62349 -0.781831 0
    outer loop
      vertex -13.8019 -0.867767 5
      vertex -12.445 -1.94986 10
      vertex -13.8019 -0.867767 10
    endloop
  endfacet
  facet normal -0.62349 -0.781831 -0
    outer loop
      vertex -12.445 -1.94986 10
      vertex -13.8019 -0.867767 5
      vertex -12.445 -1.94986 5
    endloop
  endfacet
  facet normal -0.62349 -0.781831 0
    outer loop
      vertex -13.8019 -0.867767 -5
      vertex -12.445 -1.94986 -2.5
      vertex -13.8019 -0.867767 -2.5
    endloop
  endfacet
  facet normal -0.62349 -0.781831 -0
    outer loop
      vertex -12.445 -1.94986 -2.5
      vertex -13.8019 -0.867767 -5
      vertex -12.445 -1.94986 -5
    endloop
  endfacet
  facet normal 0.222541 -0.974923 0
    outer loop
      vertex -12.445 -1.94986 5
      vertex -11.8103 -1.80498 10
      vertex -12.445 -1.94986 10
    endloop
  endfacet
  facet normal 0.222541 -0.974923 0
    outer loop
      vertex -11.8103 -1.80498 10
      vertex -12.445 -1.94986 5
      vertex -11.8103 -1.80498 5
    endloop
  endfacet
  facet normal 0.222541 -0.974923 0
    outer loop
      vertex -12.445 -1.94986 -5
      vertex -11.8103 -1.80498 -2.5
      vertex -12.445 -1.94986 -2.5
    endloop
  endfacet
  facet normal 0.222541 -0.974923 0
    outer loop
      vertex -11.8103 -1.80498 -2.5
      vertex -12.445 -1.94986 -5
      vertex -11.8103 -1.80498 -5
    endloop
  endfacet
  facet normal -1 0 0
    outer loop
      vertex -13.8019 -0.867767 -5
      vertex -13.8019 0.867767 -2.5
      vertex -13.8019 0.867767 -5
    endloop
  endfacet
  facet normal -1 -0 0
    outer loop
      vertex -13.8019 0.867767 -2.5
      vertex -13.8019 -0.867767 -5
      vertex -13.8019 -0.867767 -2.5
    endloop
  endfacet
  facet normal -1 0 0
    outer loop
      vertex -13.8019 -0.867767 5
      vertex -13.8019 0.867767 10
      vertex -13.8019 0.867767 5
    endloop
  endfacet
  facet normal -1 -0 0
    outer loop
      vertex -13.8019 0.867767 10
      vertex -13.8019 -0.867767 5
      vertex -13.8019 -0.867767 10
    endloop
  endfacet
  facet normal 0.222527 0.974926 -0
    outer loop
      vertex 13.247 1.56366 -5
      vertex 11.801 1.89371 -2.5
      vertex 13.247 1.56366 -2.5
    endloop
  endfacet
  facet normal 0.222527 0.974926 0
    outer loop
      vertex 11.801 1.89371 -2.5
      vertex 13.247 1.56366 -5
      vertex 11.801 1.89371 -5
    endloop
  endfacet
  facet normal 0.222527 0.974926 -0
    outer loop
      vertex 13.247 1.56366 5
      vertex 11.801 1.89371 10
      vertex 13.247 1.56366 10
    endloop
  endfacet
  facet normal 0.222527 0.974926 0
    outer loop
      vertex 11.801 1.89371 10
      vertex 13.247 1.56366 5
      vertex 11.801 1.89371 5
    endloop
  endfacet
  facet normal 0.900973 0.433875 0
    outer loop
      vertex 14 0 -2.5
      vertex 13.247 1.56366 -5
      vertex 13.247 1.56366 -2.5
    endloop
  endfacet
  facet normal 0.900973 0.433875 0
    outer loop
      vertex 13.247 1.56366 -5
      vertex 14 0 -2.5
      vertex 14 0 -5
    endloop
  endfacet
  facet normal 0.900973 0.433875 0
    outer loop
      vertex 14 0 10
      vertex 13.247 1.56366 5
      vertex 13.247 1.56366 10
    endloop
  endfacet
  facet normal 0.900973 0.433875 0
    outer loop
      vertex 13.247 1.56366 5
      vertex 14 0 10
      vertex 14 0 5
    endloop
  endfacet
  facet normal 0.900973 -0.433875 0
    outer loop
      vertex 13.247 -1.56366 -2.5
      vertex 14 0 -5
      vertex 14 0 -2.5
    endloop
  endfacet
  facet normal 0.900973 -0.433875 0
    outer loop
      vertex 14 0 -5
      vertex 13.247 -1.56366 -2.5
      vertex 13.247 -1.56366 -5
    endloop
  endfacet
  facet normal 0.900973 -0.433875 0
    outer loop
      vertex 13.247 -1.56366 10
      vertex 14 0 5
      vertex 14 0 10
    endloop
  endfacet
  facet normal 0.900973 -0.433875 0
    outer loop
      vertex 14 0 5
      vertex 13.247 -1.56366 10
      vertex 13.247 -1.56366 5
    endloop
  endfacet
  facet normal 0.222527 -0.974926 0
    outer loop
      vertex 11.801 -1.89371 5
      vertex 13.247 -1.56366 10
      vertex 11.801 -1.89371 10
    endloop
  endfacet
  facet normal 0.222527 -0.974926 0
    outer loop
      vertex 13.247 -1.56366 10
      vertex 11.801 -1.89371 5
      vertex 13.247 -1.56366 5
    endloop
  endfacet
  facet normal 0.222527 -0.974926 0
    outer loop
      vertex 11.801 -1.89371 -5
      vertex 13.247 -1.56366 -2.5
      vertex 11.801 -1.89371 -2.5
    endloop
  endfacet
  facet normal 0.222527 -0.974926 0
    outer loop
      vertex 13.247 -1.56366 -2.5
      vertex 11.801 -1.89371 -5
      vertex 13.247 -1.56366 -5
    endloop
  endfacet
endsolid OpenSCAD_Model
