solid OpenSCAD_Model
  facet normal 0 0 -1
    outer loop
      vertex 6.12213 -13.6038 -2.5
      vertex 8.7202 -12.1039 -2.5
      vertex 6.70096 -14.6064 -2.5
    endloop
  endfacet
  facet normal 0 0 -1
    outer loop
      vertex 6.70096 -14.6064 -2.5
      vertex 8.7202 -12.1039 -2.5
      vertex 9.29903 -13.1064 -2.5
    endloop
  endfacet
  facet normal 0 0 -1
    outer loop
      vertex 12.1692 -8.75795 -2.5
      vertex 13.6692 -6.15987 -2.5
      vertex 13.1064 -9.29903 -2.5
    endloop
  endfacet
  facet normal 0 0 -1
    outer loop
      vertex 13.1064 -9.29903 -2.5
      vertex 13.6692 -6.15987 -2.5
      vertex 14.6064 -6.70096 -2.5
    endloop
  endfacet
  facet normal 0 0 -1
    outer loop
      vertex 14.8423 -1.5 -2.5
      vertex 16 1.5 -2.5
      vertex 16 -1.5 -2.5
    endloop
  endfacet
  facet normal 0 0 -1
    outer loop
      vertex 14.8423 -1.5 -2.5
      vertex 14.8423 1.5 -2.5
      vertex 16 1.5 -2.5
    endloop
  endfacet
  facet normal 0 0 -1
    outer loop
      vertex 13.6692 -6.15987 -2.5
      vertex 14.8423 -1.5 -2.5
      vertex 14.6722 -3.11867 -2.5
    endloop
  endfacet
  facet normal -0 0 -1
    outer loop
      vertex 14.8423 -1.5 -2.5
      vertex 13.6692 -6.15987 -2.5
      vertex 14.8423 1.5 -2.5
    endloop
  endfacet
  facet normal 0 0 -1
    outer loop
      vertex 13.6692 -6.15987 -2.5
      vertex 14.6722 -3.11867 -2.5
      vertex 13.7032 -6.10104 -2.5
    endloop
  endfacet
  facet normal 0 0 -1
    outer loop
      vertex 13.6692 6.15987 -2.5
      vertex 14.8423 1.5 -2.5
      vertex 13.6692 -6.15987 -2.5
    endloop
  endfacet
  facet normal 0 0 -1
    outer loop
      vertex 14.8423 1.5 -2.5
      vertex 13.6692 6.15987 -2.5
      vertex 14.6722 3.11867 -2.5
    endloop
  endfacet
  facet normal 0 0 -1
    outer loop
      vertex 14.6722 3.11867 -2.5
      vertex 13.6692 6.15987 -2.5
      vertex 13.7032 6.10104 -2.5
    endloop
  endfacet
  facet normal 0 0 -1
    outer loop
      vertex 13.6692 6.15987 -2.5
      vertex 13.1064 9.29903 -2.5
      vertex 14.6064 6.70096 -2.5
    endloop
  endfacet
  facet normal 0 0 -1
    outer loop
      vertex 8.7202 -12.1039 -2.5
      vertex 13.6692 -6.15987 -2.5
      vertex 12.1692 -8.75795 -2.5
    endloop
  endfacet
  facet normal -0 0 -1
    outer loop
      vertex 13.6692 -6.15987 -2.5
      vertex 8.7202 -12.1039 -2.5
      vertex 13.6692 6.15987 -2.5
    endloop
  endfacet
  facet normal 0 0 -1
    outer loop
      vertex 13.6692 6.15987 -2.5
      vertex 12.1692 8.75795 -2.5
      vertex 13.1064 9.29903 -2.5
    endloop
  endfacet
  facet normal 0 0 -1
    outer loop
      vertex 10.037 -11.1472 -2.5
      vertex 12.1692 -8.75795 -2.5
      vertex 12.1353 -8.81677 -2.5
    endloop
  endfacet
  facet normal 0 0 -1
    outer loop
      vertex 8.7202 12.1039 -2.5
      vertex 13.6692 6.15987 -2.5
      vertex 8.7202 -12.1039 -2.5
    endloop
  endfacet
  facet normal 0 0 -1
    outer loop
      vertex 12.1692 -8.75795 -2.5
      vertex 10.037 -11.1472 -2.5
      vertex 8.7202 -12.1039 -2.5
    endloop
  endfacet
  facet normal 0 0 -1
    outer loop
      vertex 13.6692 6.15987 -2.5
      vertex 8.7202 12.1039 -2.5
      vertex 12.1692 8.75795 -2.5
    endloop
  endfacet
  facet normal -0 -0 -1
    outer loop
      vertex 10.037 11.1472 -2.5
      vertex 12.1692 8.75795 -2.5
      vertex 8.7202 12.1039 -2.5
    endloop
  endfacet
  facet normal 0 0 -1
    outer loop
      vertex 12.1692 8.75795 -2.5
      vertex 10.037 11.1472 -2.5
      vertex 12.1353 8.81677 -2.5
    endloop
  endfacet
  facet normal 0 0 -1
    outer loop
      vertex 8.7202 12.1039 -2.5
      vertex 6.70096 14.6064 -2.5
      vertex 9.29903 13.1064 -2.5
    endloop
  endfacet
  facet normal 0 0 -1
    outer loop
      vertex 1.17849 -2.2048 -2.5
      vertex 8.7202 -12.1039 -2.5
      vertex 6.12213 -13.6038 -2.5
    endloop
  endfacet
  facet normal 0 -0 -1
    outer loop
      vertex 2.5 0 -2.5
      vertex 8.7202 -12.1039 -2.5
      vertex 2.48796 -0.245043 -2.5
    endloop
  endfacet
  facet normal 0 0 -1
    outer loop
      vertex 8.7202 12.1039 -2.5
      vertex 6.12213 13.6038 -2.5
      vertex 6.70096 14.6064 -2.5
    endloop
  endfacet
  facet normal 0 0 -1
    outer loop
      vertex 0.725711 -2.39235 -2.5
      vertex 6.12213 -13.6038 -2.5
      vertex 4.63525 -14.2658 -2.5
    endloop
  endfacet
  facet normal 0 0 -1
    outer loop
      vertex 2.48796 0.245043 -2.5
      vertex 8.7202 12.1039 -2.5
      vertex 2.5 0 -2.5
    endloop
  endfacet
  facet normal 0 0 -1
    outer loop
      vertex 2.45196 0.487725 -2.5
      vertex 8.7202 12.1039 -2.5
      vertex 2.48796 0.245043 -2.5
    endloop
  endfacet
  facet normal 0 0 -1
    outer loop
      vertex 8.7202 -12.1039 -2.5
      vertex 2.5 0 -2.5
      vertex 8.7202 12.1039 -2.5
    endloop
  endfacet
  facet normal 0 0 -1
    outer loop
      vertex 8.7202 -12.1039 -2.5
      vertex 2.45196 -0.487725 -2.5
      vertex 2.48796 -0.245043 -2.5
    endloop
  endfacet
  facet normal 0 0 -1
    outer loop
      vertex 8.7202 -12.1039 -2.5
      vertex 2.39235 -0.725711 -2.5
      vertex 2.45196 -0.487725 -2.5
    endloop
  endfacet
  facet normal 0 0 -1
    outer loop
      vertex 8.7202 -12.1039 -2.5
      vertex 2.3097 -0.956708 -2.5
      vertex 2.39235 -0.725711 -2.5
    endloop
  endfacet
  facet normal 0 0 -1
    outer loop
      vertex 8.7202 -12.1039 -2.5
      vertex 2.2048 -1.17849 -2.5
      vertex 2.3097 -0.956708 -2.5
    endloop
  endfacet
  facet normal 0 0 -1
    outer loop
      vertex 8.7202 -12.1039 -2.5
      vertex 2.07867 -1.38893 -2.5
      vertex 2.2048 -1.17849 -2.5
    endloop
  endfacet
  facet normal 0 0 -1
    outer loop
      vertex 8.7202 -12.1039 -2.5
      vertex 1.93253 -1.58598 -2.5
      vertex 2.07867 -1.38893 -2.5
    endloop
  endfacet
  facet normal 0 0 -1
    outer loop
      vertex 8.7202 -12.1039 -2.5
      vertex 1.76777 -1.76777 -2.5
      vertex 1.93253 -1.58598 -2.5
    endloop
  endfacet
  facet normal 0 0 -1
    outer loop
      vertex 8.7202 -12.1039 -2.5
      vertex 1.58598 -1.93253 -2.5
      vertex 1.76777 -1.76777 -2.5
    endloop
  endfacet
  facet normal 0 0 -1
    outer loop
      vertex 0.487725 -2.45196 -2.5
      vertex 4.63525 -14.2658 -2.5
      vertex 1.56792 -14.9178 -2.5
    endloop
  endfacet
  facet normal 0 0 -1
    outer loop
      vertex 0.487725 -2.45196 -2.5
      vertex 1.56792 -14.9178 -2.5
      vertex 1.5 -14.9178 -2.5
    endloop
  endfacet
  facet normal 0 0 -1
    outer loop
      vertex 8.7202 -12.1039 -2.5
      vertex 1.38893 -2.07867 -2.5
      vertex 1.58598 -1.93253 -2.5
    endloop
  endfacet
  facet normal -0 0 -1
    outer loop
      vertex -2.45196 -0.487725 -2.5
      vertex -14.8423 -1.5 -2.5
      vertex -2.48796 -0.245043 -2.5
    endloop
  endfacet
  facet normal 0 0 -1
    outer loop
      vertex -14.8423 1.5 -2.5
      vertex -2.5 0 -2.5
      vertex -14.8423 -1.5 -2.5
    endloop
  endfacet
  facet normal -0 0 -1
    outer loop
      vertex -2.48796 -0.245043 -2.5
      vertex -14.8423 -1.5 -2.5
      vertex -2.5 0 -2.5
    endloop
  endfacet
  facet normal 0 -0 -1
    outer loop
      vertex -14.6722 3.11867 -2.5
      vertex -2.5 0 -2.5
      vertex -14.8423 1.5 -2.5
    endloop
  endfacet
  facet normal 0 -0 -1
    outer loop
      vertex -13.7032 6.10104 -2.5
      vertex -2.5 0 -2.5
      vertex -14.6722 3.11867 -2.5
    endloop
  endfacet
  facet normal 0 0 -1
    outer loop
      vertex -2.5 0 -2.5
      vertex -13.7032 6.10104 -2.5
      vertex -13.6692 6.15987 -2.5
    endloop
  endfacet
  facet normal 0 0 -1
    outer loop
      vertex -16 -1.5 -2.5
      vertex -14.8423 1.5 -2.5
      vertex -14.8423 -1.5 -2.5
    endloop
  endfacet
  facet normal -0 0 -1
    outer loop
      vertex -14.8423 1.5 -2.5
      vertex -16 -1.5 -2.5
      vertex -16 1.5 -2.5
    endloop
  endfacet
  facet normal 0 0 -1
    outer loop
      vertex -13.7032 -6.10104 -2.5
      vertex -2.39235 -0.725711 -2.5
      vertex -13.6692 -6.15987 -2.5
    endloop
  endfacet
  facet normal -0 0 -1
    outer loop
      vertex -2.39235 -0.725711 -2.5
      vertex -14.6722 -3.11867 -2.5
      vertex -2.45196 -0.487725 -2.5
    endloop
  endfacet
  facet normal 0 0 -1
    outer loop
      vertex -14.6722 -3.11867 -2.5
      vertex -2.39235 -0.725711 -2.5
      vertex -13.7032 -6.10104 -2.5
    endloop
  endfacet
  facet normal 0 0 -1
    outer loop
      vertex -14.8423 -1.5 -2.5
      vertex -2.45196 -0.487725 -2.5
      vertex -14.6722 -3.11867 -2.5
    endloop
  endfacet
  facet normal 0 0 -1
    outer loop
      vertex -2.5 0 -2.5
      vertex -10.037 11.1472 -2.5
      vertex -8.7202 12.1039 -2.5
    endloop
  endfacet
  facet normal 0 0 -1
    outer loop
      vertex -2.5 0 -2.5
      vertex -12.1353 8.81677 -2.5
      vertex -10.037 11.1472 -2.5
    endloop
  endfacet
  facet normal 0 0 -1
    outer loop
      vertex -13.6692 -6.15987 -2.5
      vertex -12.1692 -8.75795 -2.5
      vertex -13.1064 -9.29903 -2.5
    endloop
  endfacet
  facet normal 0 -0 -1
    outer loop
      vertex -12.1692 8.75795 -2.5
      vertex -2.5 0 -2.5
      vertex -13.6692 6.15987 -2.5
    endloop
  endfacet
  facet normal 0 -0 -1
    outer loop
      vertex -12.1353 8.81677 -2.5
      vertex -2.5 0 -2.5
      vertex -12.1692 8.75795 -2.5
    endloop
  endfacet
  facet normal 0 -0 -1
    outer loop
      vertex -13.6692 -6.15987 -2.5
      vertex -13.1064 -9.29903 -2.5
      vertex -14.6064 -6.70096 -2.5
    endloop
  endfacet
  facet normal -0 0 -1
    outer loop
      vertex -6.12213 13.6038 -2.5
      vertex -8.7202 12.1039 -2.5
      vertex -6.70096 14.6064 -2.5
    endloop
  endfacet
  facet normal 0 0 -1
    outer loop
      vertex -6.70096 14.6064 -2.5
      vertex -8.7202 12.1039 -2.5
      vertex -9.29903 13.1064 -2.5
    endloop
  endfacet
  facet normal -0 0 -1
    outer loop
      vertex -12.1692 8.75795 -2.5
      vertex -13.6692 6.15987 -2.5
      vertex -13.1064 9.29903 -2.5
    endloop
  endfacet
  facet normal 0 0 -1
    outer loop
      vertex -13.1064 9.29903 -2.5
      vertex -13.6692 6.15987 -2.5
      vertex -14.6064 6.70096 -2.5
    endloop
  endfacet
  facet normal 0 0 -1
    outer loop
      vertex -0.487725 2.45196 -2.5
      vertex -1.56792 14.9178 -2.5
      vertex -1.5 14.9178 -2.5
    endloop
  endfacet
  facet normal 0 0 -1
    outer loop
      vertex -8.7202 12.1039 -2.5
      vertex -1.38893 2.07867 -2.5
      vertex -1.58598 1.93253 -2.5
    endloop
  endfacet
  facet normal 0 0 -1
    outer loop
      vertex -8.7202 12.1039 -2.5
      vertex -1.58598 1.93253 -2.5
      vertex -1.76777 1.76777 -2.5
    endloop
  endfacet
  facet normal 0 0 -1
    outer loop
      vertex -8.7202 12.1039 -2.5
      vertex -1.76777 1.76777 -2.5
      vertex -1.93253 1.58598 -2.5
    endloop
  endfacet
  facet normal 0 0 -1
    outer loop
      vertex -8.7202 12.1039 -2.5
      vertex -1.93253 1.58598 -2.5
      vertex -2.07867 1.38893 -2.5
    endloop
  endfacet
  facet normal 0 0 -1
    outer loop
      vertex -8.7202 12.1039 -2.5
      vertex -2.07867 1.38893 -2.5
      vertex -2.2048 1.17849 -2.5
    endloop
  endfacet
  facet normal 0 0 -1
    outer loop
      vertex -8.7202 12.1039 -2.5
      vertex -2.2048 1.17849 -2.5
      vertex -2.3097 0.956708 -2.5
    endloop
  endfacet
  facet normal 0 0 -1
    outer loop
      vertex -8.7202 12.1039 -2.5
      vertex -2.3097 0.956708 -2.5
      vertex -2.39235 0.725711 -2.5
    endloop
  endfacet
  facet normal 0 0 -1
    outer loop
      vertex -8.7202 12.1039 -2.5
      vertex -2.39235 0.725711 -2.5
      vertex -2.45196 0.487725 -2.5
    endloop
  endfacet
  facet normal 0 0 -1
    outer loop
      vertex -8.7202 12.1039 -2.5
      vertex -2.45196 0.487725 -2.5
      vertex -2.48796 0.245043 -2.5
    endloop
  endfacet
  facet normal 0 0 -1
    outer loop
      vertex -13.6692 -6.15987 -2.5
      vertex -2.2048 -1.17849 -2.5
      vertex -12.1692 -8.75795 -2.5
    endloop
  endfacet
  facet normal -0 0 -1
    outer loop
      vertex -2.2048 -1.17849 -2.5
      vertex -13.6692 -6.15987 -2.5
      vertex -2.3097 -0.956708 -2.5
    endloop
  endfacet
  facet normal -0 0 -1
    outer loop
      vertex -2.3097 -0.956708 -2.5
      vertex -13.6692 -6.15987 -2.5
      vertex -2.39235 -0.725711 -2.5
    endloop
  endfacet
  facet normal 0 0 -1
    outer loop
      vertex -1.17849 2.2048 -2.5
      vertex -6.12213 13.6038 -2.5
      vertex -4.63525 14.2658 -2.5
    endloop
  endfacet
  facet normal 0 0 -1
    outer loop
      vertex -1.17849 2.2048 -2.5
      vertex -4.63525 14.2658 -2.5
      vertex -1.56792 14.9178 -2.5
    endloop
  endfacet
  facet normal 0 0 -1
    outer loop
      vertex -8.7202 -12.1039 -2.5
      vertex -6.12213 -13.6038 -2.5
      vertex -6.70096 -14.6064 -2.5
    endloop
  endfacet
  facet normal 0 0 -1
    outer loop
      vertex -2.5 0 -2.5
      vertex -8.7202 12.1039 -2.5
      vertex -2.48796 0.245043 -2.5
    endloop
  endfacet
  facet normal 0 0 -1
    outer loop
      vertex -1.17849 2.2048 -2.5
      vertex -8.7202 12.1039 -2.5
      vertex -6.12213 13.6038 -2.5
    endloop
  endfacet
  facet normal 0 -0 -1
    outer loop
      vertex -8.7202 -12.1039 -2.5
      vertex -6.70096 -14.6064 -2.5
      vertex -9.29903 -13.1064 -2.5
    endloop
  endfacet
  facet normal 0 0 -1
    outer loop
      vertex -1.5 -14.9178 -2.5
      vertex 1.5 -14.9178 -2.5
      vertex 1.5 -16 -2.5
    endloop
  endfacet
  facet normal 0 0 -1
    outer loop
      vertex 8.7202 -12.1039 -2.5
      vertex 1.17849 -2.2048 -2.5
      vertex 1.38893 -2.07867 -2.5
    endloop
  endfacet
  facet normal 0 0 -1
    outer loop
      vertex 6.12213 -13.6038 -2.5
      vertex 0.956708 -2.3097 -2.5
      vertex 1.17849 -2.2048 -2.5
    endloop
  endfacet
  facet normal 0 0 -1
    outer loop
      vertex 6.12213 -13.6038 -2.5
      vertex 0.725711 -2.39235 -2.5
      vertex 0.956708 -2.3097 -2.5
    endloop
  endfacet
  facet normal 0 0 -1
    outer loop
      vertex 4.63525 -14.2658 -2.5
      vertex 0.487725 -2.45196 -2.5
      vertex 0.725711 -2.39235 -2.5
    endloop
  endfacet
  facet normal 0 -0 -1
    outer loop
      vertex 0 -2.5 -2.5
      vertex 1.5 -14.9178 -2.5
      vertex -1.5 -14.9178 -2.5
    endloop
  endfacet
  facet normal 0 0 -1
    outer loop
      vertex 1.5 -14.9178 -2.5
      vertex 0.245043 -2.48796 -2.5
      vertex 0.487725 -2.45196 -2.5
    endloop
  endfacet
  facet normal 0 0 -1
    outer loop
      vertex 1.5 -14.9178 -2.5
      vertex 0 -2.5 -2.5
      vertex 0.245043 -2.48796 -2.5
    endloop
  endfacet
  facet normal -0 0 -1
    outer loop
      vertex 0 -2.5 -2.5
      vertex -1.5 -14.9178 -2.5
      vertex -0.245043 -2.48796 -2.5
    endloop
  endfacet
  facet normal -0 0 -1
    outer loop
      vertex -0.245043 -2.48796 -2.5
      vertex -1.5 -14.9178 -2.5
      vertex -0.487725 -2.45196 -2.5
    endloop
  endfacet
  facet normal 0 0 -1
    outer loop
      vertex -1.56792 -14.9178 -2.5
      vertex -0.487725 -2.45196 -2.5
      vertex -1.5 -14.9178 -2.5
    endloop
  endfacet
  facet normal 0 0 -1
    outer loop
      vertex -4.63525 -14.2658 -2.5
      vertex -0.487725 -2.45196 -2.5
      vertex -1.56792 -14.9178 -2.5
    endloop
  endfacet
  facet normal -0 0 -1
    outer loop
      vertex -0.487725 -2.45196 -2.5
      vertex -4.63525 -14.2658 -2.5
      vertex -0.725711 -2.39235 -2.5
    endloop
  endfacet
  facet normal 0 0 -1
    outer loop
      vertex -1.5 -14.9178 -2.5
      vertex 1.5 -16 -2.5
      vertex -1.5 -16 -2.5
    endloop
  endfacet
  facet normal 0 0 -1
    outer loop
      vertex -6.12213 -13.6038 -2.5
      vertex -0.725711 -2.39235 -2.5
      vertex -4.63525 -14.2658 -2.5
    endloop
  endfacet
  facet normal -0 0 -1
    outer loop
      vertex -0.725711 -2.39235 -2.5
      vertex -6.12213 -13.6038 -2.5
      vertex -0.956708 -2.3097 -2.5
    endloop
  endfacet
  facet normal -0 0 -1
    outer loop
      vertex -0.956708 -2.3097 -2.5
      vertex -6.12213 -13.6038 -2.5
      vertex -1.17849 -2.2048 -2.5
    endloop
  endfacet
  facet normal 0 0 -1
    outer loop
      vertex -8.7202 -12.1039 -2.5
      vertex -1.17849 -2.2048 -2.5
      vertex -6.12213 -13.6038 -2.5
    endloop
  endfacet
  facet normal -0 0 -1
    outer loop
      vertex -1.17849 -2.2048 -2.5
      vertex -8.7202 -12.1039 -2.5
      vertex -1.38893 -2.07867 -2.5
    endloop
  endfacet
  facet normal -0 0 -1
    outer loop
      vertex -1.38893 -2.07867 -2.5
      vertex -8.7202 -12.1039 -2.5
      vertex -1.58598 -1.93253 -2.5
    endloop
  endfacet
  facet normal 0 0 -1
    outer loop
      vertex -10.037 -11.1472 -2.5
      vertex -1.58598 -1.93253 -2.5
      vertex -8.7202 -12.1039 -2.5
    endloop
  endfacet
  facet normal -0 0 -1
    outer loop
      vertex -1.58598 -1.93253 -2.5
      vertex -10.037 -11.1472 -2.5
      vertex -1.76777 -1.76777 -2.5
    endloop
  endfacet
  facet normal -0 0 -1
    outer loop
      vertex -1.76777 -1.76777 -2.5
      vertex -10.037 -11.1472 -2.5
      vertex -1.93253 -1.58598 -2.5
    endloop
  endfacet
  facet normal 0 0 -1
    outer loop
      vertex -12.1353 -8.81677 -2.5
      vertex -1.93253 -1.58598 -2.5
      vertex -10.037 -11.1472 -2.5
    endloop
  endfacet
  facet normal 0 0 -1
    outer loop
      vertex -12.1692 -8.75795 -2.5
      vertex -1.93253 -1.58598 -2.5
      vertex -12.1353 -8.81677 -2.5
    endloop
  endfacet
  facet normal -0 0 -1
    outer loop
      vertex -2.07867 -1.38893 -2.5
      vertex -12.1692 -8.75795 -2.5
      vertex -2.2048 -1.17849 -2.5
    endloop
  endfacet
  facet normal -0 0 -1
    outer loop
      vertex -1.93253 -1.58598 -2.5
      vertex -12.1692 -8.75795 -2.5
      vertex -2.07867 -1.38893 -2.5
    endloop
  endfacet
  facet normal 0 0 -1
    outer loop
      vertex 2.39235 0.725711 -2.5
      vertex 8.7202 12.1039 -2.5
      vertex 2.45196 0.487725 -2.5
    endloop
  endfacet
  facet normal 0 0 -1
    outer loop
      vertex 2.3097 0.956708 -2.5
      vertex 8.7202 12.1039 -2.5
      vertex 2.39235 0.725711 -2.5
    endloop
  endfacet
  facet normal 0 0 -1
    outer loop
      vertex 2.2048 1.17849 -2.5
      vertex 8.7202 12.1039 -2.5
      vertex 2.3097 0.956708 -2.5
    endloop
  endfacet
  facet normal 0 0 -1
    outer loop
      vertex 2.07867 1.38893 -2.5
      vertex 8.7202 12.1039 -2.5
      vertex 2.2048 1.17849 -2.5
    endloop
  endfacet
  facet normal 0 0 -1
    outer loop
      vertex 1.93253 1.58598 -2.5
      vertex 8.7202 12.1039 -2.5
      vertex 2.07867 1.38893 -2.5
    endloop
  endfacet
  facet normal 0 0 -1
    outer loop
      vertex 1.76777 1.76777 -2.5
      vertex 8.7202 12.1039 -2.5
      vertex 1.93253 1.58598 -2.5
    endloop
  endfacet
  facet normal 0 0 -1
    outer loop
      vertex 1.58598 1.93253 -2.5
      vertex 8.7202 12.1039 -2.5
      vertex 1.76777 1.76777 -2.5
    endloop
  endfacet
  facet normal 0 0 -1
    outer loop
      vertex 1.38893 2.07867 -2.5
      vertex 8.7202 12.1039 -2.5
      vertex 1.58598 1.93253 -2.5
    endloop
  endfacet
  facet normal 0 0 -1
    outer loop
      vertex 1.17849 2.2048 -2.5
      vertex 8.7202 12.1039 -2.5
      vertex 1.38893 2.07867 -2.5
    endloop
  endfacet
  facet normal -0 0 -1
    outer loop
      vertex 8.7202 12.1039 -2.5
      vertex 1.17849 2.2048 -2.5
      vertex 6.12213 13.6038 -2.5
    endloop
  endfacet
  facet normal 0 0 -1
    outer loop
      vertex 0.956708 2.3097 -2.5
      vertex 6.12213 13.6038 -2.5
      vertex 1.17849 2.2048 -2.5
    endloop
  endfacet
  facet normal 0 0 -1
    outer loop
      vertex 0.725711 2.39235 -2.5
      vertex 6.12213 13.6038 -2.5
      vertex 0.956708 2.3097 -2.5
    endloop
  endfacet
  facet normal -0 0 -1
    outer loop
      vertex 6.12213 13.6038 -2.5
      vertex 0.725711 2.39235 -2.5
      vertex 4.63525 14.2658 -2.5
    endloop
  endfacet
  facet normal 0 0 -1
    outer loop
      vertex 0.487725 2.45196 -2.5
      vertex 4.63525 14.2658 -2.5
      vertex 0.725711 2.39235 -2.5
    endloop
  endfacet
  facet normal -0 0 -1
    outer loop
      vertex 4.63525 14.2658 -2.5
      vertex 0.487725 2.45196 -2.5
      vertex 1.56792 14.9178 -2.5
    endloop
  endfacet
  facet normal -0 0 -1
    outer loop
      vertex 1.56792 14.9178 -2.5
      vertex 0.487725 2.45196 -2.5
      vertex 1.5 14.9178 -2.5
    endloop
  endfacet
  facet normal 0 0 -1
    outer loop
      vertex 0.245043 2.48796 -2.5
      vertex 1.5 14.9178 -2.5
      vertex 0.487725 2.45196 -2.5
    endloop
  endfacet
  facet normal 0 0 -1
    outer loop
      vertex 0 2.5 -2.5
      vertex 1.5 14.9178 -2.5
      vertex 0.245043 2.48796 -2.5
    endloop
  endfacet
  facet normal -0 0 -1
    outer loop
      vertex 1.5 14.9178 -2.5
      vertex 0 2.5 -2.5
      vertex -1.5 14.9178 -2.5
    endloop
  endfacet
  facet normal 0 0 -1
    outer loop
      vertex -1.5 14.9178 -2.5
      vertex 0 2.5 -2.5
      vertex -0.245043 2.48796 -2.5
    endloop
  endfacet
  facet normal 0 0 -1
    outer loop
      vertex -1.5 14.9178 -2.5
      vertex -0.245043 2.48796 -2.5
      vertex -0.487725 2.45196 -2.5
    endloop
  endfacet
  facet normal 0 0 -1
    outer loop
      vertex -1.56792 14.9178 -2.5
      vertex -0.487725 2.45196 -2.5
      vertex -0.725711 2.39235 -2.5
    endloop
  endfacet
  facet normal 0 0 -1
    outer loop
      vertex -1.56792 14.9178 -2.5
      vertex -0.725711 2.39235 -2.5
      vertex -0.956708 2.3097 -2.5
    endloop
  endfacet
  facet normal 0 0 -1
    outer loop
      vertex -1.56792 14.9178 -2.5
      vertex -0.956708 2.3097 -2.5
      vertex -1.17849 2.2048 -2.5
    endloop
  endfacet
  facet normal 0 0 -1
    outer loop
      vertex -8.7202 12.1039 -2.5
      vertex -1.17849 2.2048 -2.5
      vertex -1.38893 2.07867 -2.5
    endloop
  endfacet
  facet normal 0 0 -1
    outer loop
      vertex 1.5 14.9178 -2.5
      vertex -1.5 14.9178 -2.5
      vertex 1.5 16 -2.5
    endloop
  endfacet
  facet normal -0 0 -1
    outer loop
      vertex 1.5 16 -2.5
      vertex -1.5 14.9178 -2.5
      vertex -1.5 16 -2.5
    endloop
  endfacet
  facet normal 0 -1 0
    outer loop
      vertex 1.5 -14.9178 -2.5
      vertex 1.56792 -14.9178 5
      vertex 1.5 -14.9178 5
    endloop
  endfacet
  facet normal 0 -1 -0
    outer loop
      vertex 1.56792 -14.9178 5
      vertex 1.5 -14.9178 -2.5
      vertex 1.56792 -14.9178 -2.5
    endloop
  endfacet
  facet normal 0.207917 -0.978146 0
    outer loop
      vertex 1.56792 -14.9178 -2.5
      vertex 4.63525 -14.2658 5
      vertex 1.56792 -14.9178 5
    endloop
  endfacet
  facet normal 0.207917 -0.978146 0
    outer loop
      vertex 4.63525 -14.2658 5
      vertex 1.56792 -14.9178 -2.5
      vertex 4.63525 -14.2658 -2.5
    endloop
  endfacet
  facet normal 0.406736 -0.913546 0
    outer loop
      vertex 4.63525 -14.2658 -2.5
      vertex 6.12213 -13.6038 5
      vertex 4.63525 -14.2658 5
    endloop
  endfacet
  facet normal 0.406736 -0.913546 0
    outer loop
      vertex 6.12213 -13.6038 5
      vertex 4.63525 -14.2658 -2.5
      vertex 6.12213 -13.6038 -2.5
    endloop
  endfacet
  facet normal -0.866033 -0.499986 0
    outer loop
      vertex 6.70096 -14.6064 -2.5
      vertex 6.12213 -13.6038 5
      vertex 6.12213 -13.6038 -2.5
    endloop
  endfacet
  facet normal -0.866033 -0.499986 0
    outer loop
      vertex 6.12213 -13.6038 5
      vertex 6.70096 -14.6064 -2.5
      vertex 6.70096 -14.6064 5
    endloop
  endfacet
  facet normal 0.500001 -0.866025 0
    outer loop
      vertex 6.70096 -14.6064 -2.5
      vertex 9.29903 -13.1064 5
      vertex 6.70096 -14.6064 5
    endloop
  endfacet
  facet normal 0.500001 -0.866025 0
    outer loop
      vertex 9.29903 -13.1064 5
      vertex 6.70096 -14.6064 -2.5
      vertex 9.29903 -13.1064 -2.5
    endloop
  endfacet
  facet normal 0.866012 0.500024 0
    outer loop
      vertex 9.29903 -13.1064 5
      vertex 8.7202 -12.1039 -2.5
      vertex 8.7202 -12.1039 5
    endloop
  endfacet
  facet normal 0.866012 0.500024 0
    outer loop
      vertex 8.7202 -12.1039 -2.5
      vertex 9.29903 -13.1064 5
      vertex 9.29903 -13.1064 -2.5
    endloop
  endfacet
  facet normal 0.587781 -0.80902 0
    outer loop
      vertex 8.7202 -12.1039 -2.5
      vertex 10.037 -11.1472 5
      vertex 8.7202 -12.1039 5
    endloop
  endfacet
  facet normal 0.587781 -0.80902 0
    outer loop
      vertex 10.037 -11.1472 5
      vertex 8.7202 -12.1039 -2.5
      vertex 10.037 -11.1472 -2.5
    endloop
  endfacet
  facet normal 0.743149 -0.669126 0
    outer loop
      vertex 10.037 -11.1472 5
      vertex 12.1353 -8.81677 -2.5
      vertex 12.1353 -8.81677 5
    endloop
  endfacet
  facet normal 0.743149 -0.669126 0
    outer loop
      vertex 12.1353 -8.81677 -2.5
      vertex 10.037 -11.1472 5
      vertex 10.037 -11.1472 -2.5
    endloop
  endfacet
  facet normal 0.866406 -0.49934 0
    outer loop
      vertex 12.1353 -8.81677 5
      vertex 12.1692 -8.75795 -2.5
      vertex 12.1692 -8.75795 5
    endloop
  endfacet
  facet normal 0.866406 -0.49934 0
    outer loop
      vertex 12.1692 -8.75795 -2.5
      vertex 12.1353 -8.81677 5
      vertex 12.1353 -8.81677 -2.5
    endloop
  endfacet
  facet normal -0.499991 -0.86603 0
    outer loop
      vertex 12.1692 -8.75795 -2.5
      vertex 13.1064 -9.29903 5
      vertex 12.1692 -8.75795 5
    endloop
  endfacet
  facet normal -0.499991 -0.86603 -0
    outer loop
      vertex 13.1064 -9.29903 5
      vertex 12.1692 -8.75795 -2.5
      vertex 13.1064 -9.29903 -2.5
    endloop
  endfacet
  facet normal 0.866025 -0.500001 0
    outer loop
      vertex 13.1064 -9.29903 5
      vertex 14.6064 -6.70096 -2.5
      vertex 14.6064 -6.70096 5
    endloop
  endfacet
  facet normal 0.866025 -0.500001 0
    outer loop
      vertex 14.6064 -6.70096 -2.5
      vertex 13.1064 -9.29903 5
      vertex 13.1064 -9.29903 -2.5
    endloop
  endfacet
  facet normal 0.499998 0.866026 -0
    outer loop
      vertex 14.6064 -6.70096 -2.5
      vertex 13.6692 -6.15987 5
      vertex 14.6064 -6.70096 5
    endloop
  endfacet
  facet normal 0.499998 0.866026 0
    outer loop
      vertex 13.6692 -6.15987 5
      vertex 14.6064 -6.70096 -2.5
      vertex 13.6692 -6.15987 -2.5
    endloop
  endfacet
  facet normal 0.865806 -0.500381 0
    outer loop
      vertex 13.6692 -6.15987 5
      vertex 13.7032 -6.10104 -2.5
      vertex 13.7032 -6.10104 5
    endloop
  endfacet
  facet normal 0.865806 -0.500381 0
    outer loop
      vertex 13.7032 -6.10104 -2.5
      vertex 13.6692 -6.15987 5
      vertex 13.6692 -6.15987 -2.5
    endloop
  endfacet
  facet normal 0.951059 -0.309008 0
    outer loop
      vertex 13.7032 -6.10104 5
      vertex 14.6722 -3.11867 -2.5
      vertex 14.6722 -3.11867 5
    endloop
  endfacet
  facet normal 0.951059 -0.309008 0
    outer loop
      vertex 14.6722 -3.11867 -2.5
      vertex 13.7032 -6.10104 5
      vertex 13.7032 -6.10104 -2.5
    endloop
  endfacet
  facet normal 0.994524 -0.104511 0
    outer loop
      vertex 14.6722 -3.11867 5
      vertex 14.8423 -1.5 -2.5
      vertex 14.8423 -1.5 5
    endloop
  endfacet
  facet normal 0.994524 -0.104511 0
    outer loop
      vertex 14.8423 -1.5 -2.5
      vertex 14.6722 -3.11867 5
      vertex 14.6722 -3.11867 -2.5
    endloop
  endfacet
  facet normal 0 -1 0
    outer loop
      vertex 14.8423 -1.5 -2.5
      vertex 16 -1.5 5
      vertex 14.8423 -1.5 5
    endloop
  endfacet
  facet normal 0 -1 -0
    outer loop
      vertex 16 -1.5 5
      vertex 14.8423 -1.5 -2.5
      vertex 16 -1.5 -2.5
    endloop
  endfacet
  facet normal 1 -0 0
    outer loop
      vertex 16 -1.5 5
      vertex 16 1.5 -2.5
      vertex 16 1.5 5
    endloop
  endfacet
  facet normal 1 0 0
    outer loop
      vertex 16 1.5 -2.5
      vertex 16 -1.5 5
      vertex 16 -1.5 -2.5
    endloop
  endfacet
  facet normal 0 1 -0
    outer loop
      vertex 16 1.5 -2.5
      vertex 14.8423 1.5 5
      vertex 16 1.5 5
    endloop
  endfacet
  facet normal 0 1 0
    outer loop
      vertex 14.8423 1.5 5
      vertex 16 1.5 -2.5
      vertex 14.8423 1.5 -2.5
    endloop
  endfacet
  facet normal 0.994524 0.104511 0
    outer loop
      vertex 14.8423 1.5 5
      vertex 14.6722 3.11867 -2.5
      vertex 14.6722 3.11867 5
    endloop
  endfacet
  facet normal 0.994524 0.104511 0
    outer loop
      vertex 14.6722 3.11867 -2.5
      vertex 14.8423 1.5 5
      vertex 14.8423 1.5 -2.5
    endloop
  endfacet
  facet normal 0.951059 0.309008 0
    outer loop
      vertex 14.6722 3.11867 5
      vertex 13.7032 6.10104 -2.5
      vertex 13.7032 6.10104 5
    endloop
  endfacet
  facet normal 0.951059 0.309008 0
    outer loop
      vertex 13.7032 6.10104 -2.5
      vertex 14.6722 3.11867 5
      vertex 14.6722 3.11867 -2.5
    endloop
  endfacet
  facet normal 0.865806 0.500381 0
    outer loop
      vertex 13.7032 6.10104 5
      vertex 13.6692 6.15987 -2.5
      vertex 13.6692 6.15987 5
    endloop
  endfacet
  facet normal 0.865806 0.500381 0
    outer loop
      vertex 13.6692 6.15987 -2.5
      vertex 13.7032 6.10104 5
      vertex 13.7032 6.10104 -2.5
    endloop
  endfacet
  facet normal 0.499998 -0.866026 0
    outer loop
      vertex 13.6692 6.15987 -2.5
      vertex 14.6064 6.70096 5
      vertex 13.6692 6.15987 5
    endloop
  endfacet
  facet normal 0.499998 -0.866026 0
    outer loop
      vertex 14.6064 6.70096 5
      vertex 13.6692 6.15987 -2.5
      vertex 14.6064 6.70096 -2.5
    endloop
  endfacet
  facet normal 0.866025 0.500001 0
    outer loop
      vertex 14.6064 6.70096 5
      vertex 13.1064 9.29903 -2.5
      vertex 13.1064 9.29903 5
    endloop
  endfacet
  facet normal 0.866025 0.500001 0
    outer loop
      vertex 13.1064 9.29903 -2.5
      vertex 14.6064 6.70096 5
      vertex 14.6064 6.70096 -2.5
    endloop
  endfacet
  facet normal -0.499991 0.86603 0
    outer loop
      vertex 13.1064 9.29903 -2.5
      vertex 12.1692 8.75795 5
      vertex 13.1064 9.29903 5
    endloop
  endfacet
  facet normal -0.499991 0.86603 0
    outer loop
      vertex 12.1692 8.75795 5
      vertex 13.1064 9.29903 -2.5
      vertex 12.1692 8.75795 -2.5
    endloop
  endfacet
  facet normal 0.866406 0.49934 0
    outer loop
      vertex 12.1692 8.75795 5
      vertex 12.1353 8.81677 -2.5
      vertex 12.1353 8.81677 5
    endloop
  endfacet
  facet normal 0.866406 0.49934 0
    outer loop
      vertex 12.1353 8.81677 -2.5
      vertex 12.1692 8.75795 5
      vertex 12.1692 8.75795 -2.5
    endloop
  endfacet
  facet normal 0.743149 0.669126 0
    outer loop
      vertex 12.1353 8.81677 5
      vertex 10.037 11.1472 -2.5
      vertex 10.037 11.1472 5
    endloop
  endfacet
  facet normal 0.743149 0.669126 0
    outer loop
      vertex 10.037 11.1472 -2.5
      vertex 12.1353 8.81677 5
      vertex 12.1353 8.81677 -2.5
    endloop
  endfacet
  facet normal 0.587781 0.80902 -0
    outer loop
      vertex 10.037 11.1472 -2.5
      vertex 8.7202 12.1039 5
      vertex 10.037 11.1472 5
    endloop
  endfacet
  facet normal 0.587781 0.80902 0
    outer loop
      vertex 8.7202 12.1039 5
      vertex 10.037 11.1472 -2.5
      vertex 8.7202 12.1039 -2.5
    endloop
  endfacet
  facet normal 0.866012 -0.500024 0
    outer loop
      vertex 8.7202 12.1039 5
      vertex 9.29903 13.1064 -2.5
      vertex 9.29903 13.1064 5
    endloop
  endfacet
  facet normal 0.866012 -0.500024 0
    outer loop
      vertex 9.29903 13.1064 -2.5
      vertex 8.7202 12.1039 5
      vertex 8.7202 12.1039 -2.5
    endloop
  endfacet
  facet normal 0.500001 0.866025 -0
    outer loop
      vertex 9.29903 13.1064 -2.5
      vertex 6.70096 14.6064 5
      vertex 9.29903 13.1064 5
    endloop
  endfacet
  facet normal 0.500001 0.866025 0
    outer loop
      vertex 6.70096 14.6064 5
      vertex 9.29903 13.1064 -2.5
      vertex 6.70096 14.6064 -2.5
    endloop
  endfacet
  facet normal -0.866033 0.499986 0
    outer loop
      vertex 6.12213 13.6038 -2.5
      vertex 6.70096 14.6064 5
      vertex 6.70096 14.6064 -2.5
    endloop
  endfacet
  facet normal -0.866033 0.499986 0
    outer loop
      vertex 6.70096 14.6064 5
      vertex 6.12213 13.6038 -2.5
      vertex 6.12213 13.6038 5
    endloop
  endfacet
  facet normal 0.406736 0.913546 -0
    outer loop
      vertex 6.12213 13.6038 -2.5
      vertex 4.63525 14.2658 5
      vertex 6.12213 13.6038 5
    endloop
  endfacet
  facet normal 0.406736 0.913546 0
    outer loop
      vertex 4.63525 14.2658 5
      vertex 6.12213 13.6038 -2.5
      vertex 4.63525 14.2658 -2.5
    endloop
  endfacet
  facet normal 0.207917 0.978146 -0
    outer loop
      vertex 4.63525 14.2658 -2.5
      vertex 1.56792 14.9178 5
      vertex 4.63525 14.2658 5
    endloop
  endfacet
  facet normal 0.207917 0.978146 0
    outer loop
      vertex 1.56792 14.9178 5
      vertex 4.63525 14.2658 -2.5
      vertex 1.56792 14.9178 -2.5
    endloop
  endfacet
  facet normal 0 1 -0
    outer loop
      vertex 1.56792 14.9178 -2.5
      vertex 1.5 14.9178 5
      vertex 1.56792 14.9178 5
    endloop
  endfacet
  facet normal 0 1 0
    outer loop
      vertex 1.5 14.9178 5
      vertex 1.56792 14.9178 -2.5
      vertex 1.5 14.9178 -2.5
    endloop
  endfacet
  facet normal 1 -0 0
    outer loop
      vertex 1.5 14.9178 5
      vertex 1.5 16 -2.5
      vertex 1.5 16 5
    endloop
  endfacet
  facet normal 1 0 0
    outer loop
      vertex 1.5 16 -2.5
      vertex 1.5 14.9178 5
      vertex 1.5 14.9178 -2.5
    endloop
  endfacet
  facet normal 0 1 -0
    outer loop
      vertex 1.5 16 -2.5
      vertex -1.5 16 5
      vertex 1.5 16 5
    endloop
  endfacet
  facet normal 0 1 0
    outer loop
      vertex -1.5 16 5
      vertex 1.5 16 -2.5
      vertex -1.5 16 -2.5
    endloop
  endfacet
  facet normal -1 0 0
    outer loop
      vertex -1.5 14.9178 -2.5
      vertex -1.5 16 5
      vertex -1.5 16 -2.5
    endloop
  endfacet
  facet normal -1 -0 0
    outer loop
      vertex -1.5 16 5
      vertex -1.5 14.9178 -2.5
      vertex -1.5 14.9178 5
    endloop
  endfacet
  facet normal 0 1 -0
    outer loop
      vertex -1.5 14.9178 -2.5
      vertex -1.56792 14.9178 5
      vertex -1.5 14.9178 5
    endloop
  endfacet
  facet normal 0 1 0
    outer loop
      vertex -1.56792 14.9178 5
      vertex -1.5 14.9178 -2.5
      vertex -1.56792 14.9178 -2.5
    endloop
  endfacet
  facet normal -0.207917 0.978146 0
    outer loop
      vertex -1.56792 14.9178 -2.5
      vertex -4.63525 14.2658 5
      vertex -1.56792 14.9178 5
    endloop
  endfacet
  facet normal -0.207917 0.978146 0
    outer loop
      vertex -4.63525 14.2658 5
      vertex -1.56792 14.9178 -2.5
      vertex -4.63525 14.2658 -2.5
    endloop
  endfacet
  facet normal -0.406736 0.913546 0
    outer loop
      vertex -4.63525 14.2658 -2.5
      vertex -6.12213 13.6038 5
      vertex -4.63525 14.2658 5
    endloop
  endfacet
  facet normal -0.406736 0.913546 0
    outer loop
      vertex -6.12213 13.6038 5
      vertex -4.63525 14.2658 -2.5
      vertex -6.12213 13.6038 -2.5
    endloop
  endfacet
  facet normal 0.866033 0.499986 0
    outer loop
      vertex -6.12213 13.6038 5
      vertex -6.70096 14.6064 -2.5
      vertex -6.70096 14.6064 5
    endloop
  endfacet
  facet normal 0.866033 0.499986 0
    outer loop
      vertex -6.70096 14.6064 -2.5
      vertex -6.12213 13.6038 5
      vertex -6.12213 13.6038 -2.5
    endloop
  endfacet
  facet normal -0.500001 0.866025 0
    outer loop
      vertex -6.70096 14.6064 -2.5
      vertex -9.29903 13.1064 5
      vertex -6.70096 14.6064 5
    endloop
  endfacet
  facet normal -0.500001 0.866025 0
    outer loop
      vertex -9.29903 13.1064 5
      vertex -6.70096 14.6064 -2.5
      vertex -9.29903 13.1064 -2.5
    endloop
  endfacet
  facet normal -0.866012 -0.500024 0
    outer loop
      vertex -8.7202 12.1039 -2.5
      vertex -9.29903 13.1064 5
      vertex -9.29903 13.1064 -2.5
    endloop
  endfacet
  facet normal -0.866012 -0.500024 0
    outer loop
      vertex -9.29903 13.1064 5
      vertex -8.7202 12.1039 -2.5
      vertex -8.7202 12.1039 5
    endloop
  endfacet
  facet normal -0.587781 0.80902 0
    outer loop
      vertex -8.7202 12.1039 -2.5
      vertex -10.037 11.1472 5
      vertex -8.7202 12.1039 5
    endloop
  endfacet
  facet normal -0.587781 0.80902 0
    outer loop
      vertex -10.037 11.1472 5
      vertex -8.7202 12.1039 -2.5
      vertex -10.037 11.1472 -2.5
    endloop
  endfacet
  facet normal -0.743149 0.669126 0
    outer loop
      vertex -12.1353 8.81677 -2.5
      vertex -10.037 11.1472 5
      vertex -10.037 11.1472 -2.5
    endloop
  endfacet
  facet normal -0.743149 0.669126 0
    outer loop
      vertex -10.037 11.1472 5
      vertex -12.1353 8.81677 -2.5
      vertex -12.1353 8.81677 5
    endloop
  endfacet
  facet normal -0.866406 0.49934 0
    outer loop
      vertex -12.1692 8.75795 -2.5
      vertex -12.1353 8.81677 5
      vertex -12.1353 8.81677 -2.5
    endloop
  endfacet
  facet normal -0.866406 0.49934 0
    outer loop
      vertex -12.1353 8.81677 5
      vertex -12.1692 8.75795 -2.5
      vertex -12.1692 8.75795 5
    endloop
  endfacet
  facet normal 0.499991 0.86603 -0
    outer loop
      vertex -12.1692 8.75795 -2.5
      vertex -13.1064 9.29903 5
      vertex -12.1692 8.75795 5
    endloop
  endfacet
  facet normal 0.499991 0.86603 0
    outer loop
      vertex -13.1064 9.29903 5
      vertex -12.1692 8.75795 -2.5
      vertex -13.1064 9.29903 -2.5
    endloop
  endfacet
  facet normal -0.866025 0.500001 0
    outer loop
      vertex -14.6064 6.70096 -2.5
      vertex -13.1064 9.29903 5
      vertex -13.1064 9.29903 -2.5
    endloop
  endfacet
  facet normal -0.866025 0.500001 0
    outer loop
      vertex -13.1064 9.29903 5
      vertex -14.6064 6.70096 -2.5
      vertex -14.6064 6.70096 5
    endloop
  endfacet
  facet normal -0.499998 -0.866026 0
    outer loop
      vertex -14.6064 6.70096 -2.5
      vertex -13.6692 6.15987 5
      vertex -14.6064 6.70096 5
    endloop
  endfacet
  facet normal -0.499998 -0.866026 -0
    outer loop
      vertex -13.6692 6.15987 5
      vertex -14.6064 6.70096 -2.5
      vertex -13.6692 6.15987 -2.5
    endloop
  endfacet
  facet normal -0.865806 0.500381 0
    outer loop
      vertex -13.7032 6.10104 -2.5
      vertex -13.6692 6.15987 5
      vertex -13.6692 6.15987 -2.5
    endloop
  endfacet
  facet normal -0.865806 0.500381 0
    outer loop
      vertex -13.6692 6.15987 5
      vertex -13.7032 6.10104 -2.5
      vertex -13.7032 6.10104 5
    endloop
  endfacet
  facet normal -0.951059 0.309008 0
    outer loop
      vertex -14.6722 3.11867 -2.5
      vertex -13.7032 6.10104 5
      vertex -13.7032 6.10104 -2.5
    endloop
  endfacet
  facet normal -0.951059 0.309008 0
    outer loop
      vertex -13.7032 6.10104 5
      vertex -14.6722 3.11867 -2.5
      vertex -14.6722 3.11867 5
    endloop
  endfacet
  facet normal -0.994524 0.104511 0
    outer loop
      vertex -14.8423 1.5 -2.5
      vertex -14.6722 3.11867 5
      vertex -14.6722 3.11867 -2.5
    endloop
  endfacet
  facet normal -0.994524 0.104511 0
    outer loop
      vertex -14.6722 3.11867 5
      vertex -14.8423 1.5 -2.5
      vertex -14.8423 1.5 5
    endloop
  endfacet
  facet normal 0 1 -0
    outer loop
      vertex -14.8423 1.5 -2.5
      vertex -16 1.5 5
      vertex -14.8423 1.5 5
    endloop
  endfacet
  facet normal 0 1 0
    outer loop
      vertex -16 1.5 5
      vertex -14.8423 1.5 -2.5
      vertex -16 1.5 -2.5
    endloop
  endfacet
  facet normal -1 0 0
    outer loop
      vertex -16 -1.5 -2.5
      vertex -16 1.5 5
      vertex -16 1.5 -2.5
    endloop
  endfacet
  facet normal -1 -0 0
    outer loop
      vertex -16 1.5 5
      vertex -16 -1.5 -2.5
      vertex -16 -1.5 5
    endloop
  endfacet
  facet normal 0 -1 0
    outer loop
      vertex -16 -1.5 -2.5
      vertex -14.8423 -1.5 5
      vertex -16 -1.5 5
    endloop
  endfacet
  facet normal 0 -1 -0
    outer loop
      vertex -14.8423 -1.5 5
      vertex -16 -1.5 -2.5
      vertex -14.8423 -1.5 -2.5
    endloop
  endfacet
  facet normal -0.994524 -0.104511 0
    outer loop
      vertex -14.6722 -3.11867 -2.5
      vertex -14.8423 -1.5 5
      vertex -14.8423 -1.5 -2.5
    endloop
  endfacet
  facet normal -0.994524 -0.104511 0
    outer loop
      vertex -14.8423 -1.5 5
      vertex -14.6722 -3.11867 -2.5
      vertex -14.6722 -3.11867 5
    endloop
  endfacet
  facet normal -0.951059 -0.309008 0
    outer loop
      vertex -13.7032 -6.10104 -2.5
      vertex -14.6722 -3.11867 5
      vertex -14.6722 -3.11867 -2.5
    endloop
  endfacet
  facet normal -0.951059 -0.309008 0
    outer loop
      vertex -14.6722 -3.11867 5
      vertex -13.7032 -6.10104 -2.5
      vertex -13.7032 -6.10104 5
    endloop
  endfacet
  facet normal -0.865806 -0.500381 0
    outer loop
      vertex -13.6692 -6.15987 -2.5
      vertex -13.7032 -6.10104 5
      vertex -13.7032 -6.10104 -2.5
    endloop
  endfacet
  facet normal -0.865806 -0.500381 0
    outer loop
      vertex -13.7032 -6.10104 5
      vertex -13.6692 -6.15987 -2.5
      vertex -13.6692 -6.15987 5
    endloop
  endfacet
  facet normal -0.499998 0.866026 0
    outer loop
      vertex -13.6692 -6.15987 -2.5
      vertex -14.6064 -6.70096 5
      vertex -13.6692 -6.15987 5
    endloop
  endfacet
  facet normal -0.499998 0.866026 0
    outer loop
      vertex -14.6064 -6.70096 5
      vertex -13.6692 -6.15987 -2.5
      vertex -14.6064 -6.70096 -2.5
    endloop
  endfacet
  facet normal -0.866025 -0.500001 0
    outer loop
      vertex -13.1064 -9.29903 -2.5
      vertex -14.6064 -6.70096 5
      vertex -14.6064 -6.70096 -2.5
    endloop
  endfacet
  facet normal -0.866025 -0.500001 0
    outer loop
      vertex -14.6064 -6.70096 5
      vertex -13.1064 -9.29903 -2.5
      vertex -13.1064 -9.29903 5
    endloop
  endfacet
  facet normal 0.499991 -0.86603 0
    outer loop
      vertex -13.1064 -9.29903 -2.5
      vertex -12.1692 -8.75795 5
      vertex -13.1064 -9.29903 5
    endloop
  endfacet
  facet normal 0.499991 -0.86603 0
    outer loop
      vertex -12.1692 -8.75795 5
      vertex -13.1064 -9.29903 -2.5
      vertex -12.1692 -8.75795 -2.5
    endloop
  endfacet
  facet normal -0.866406 -0.49934 0
    outer loop
      vertex -12.1353 -8.81677 -2.5
      vertex -12.1692 -8.75795 5
      vertex -12.1692 -8.75795 -2.5
    endloop
  endfacet
  facet normal -0.866406 -0.49934 0
    outer loop
      vertex -12.1692 -8.75795 5
      vertex -12.1353 -8.81677 -2.5
      vertex -12.1353 -8.81677 5
    endloop
  endfacet
  facet normal -0.743149 -0.669126 0
    outer loop
      vertex -10.037 -11.1472 -2.5
      vertex -12.1353 -8.81677 5
      vertex -12.1353 -8.81677 -2.5
    endloop
  endfacet
  facet normal -0.743149 -0.669126 0
    outer loop
      vertex -12.1353 -8.81677 5
      vertex -10.037 -11.1472 -2.5
      vertex -10.037 -11.1472 5
    endloop
  endfacet
  facet normal -0.587781 -0.80902 0
    outer loop
      vertex -10.037 -11.1472 -2.5
      vertex -8.7202 -12.1039 5
      vertex -10.037 -11.1472 5
    endloop
  endfacet
  facet normal -0.587781 -0.80902 -0
    outer loop
      vertex -8.7202 -12.1039 5
      vertex -10.037 -11.1472 -2.5
      vertex -8.7202 -12.1039 -2.5
    endloop
  endfacet
  facet normal -0.866012 0.500024 0
    outer loop
      vertex -9.29903 -13.1064 -2.5
      vertex -8.7202 -12.1039 5
      vertex -8.7202 -12.1039 -2.5
    endloop
  endfacet
  facet normal -0.866012 0.500024 0
    outer loop
      vertex -8.7202 -12.1039 5
      vertex -9.29903 -13.1064 -2.5
      vertex -9.29903 -13.1064 5
    endloop
  endfacet
  facet normal -0.500001 -0.866025 0
    outer loop
      vertex -9.29903 -13.1064 -2.5
      vertex -6.70096 -14.6064 5
      vertex -9.29903 -13.1064 5
    endloop
  endfacet
  facet normal -0.500001 -0.866025 -0
    outer loop
      vertex -6.70096 -14.6064 5
      vertex -9.29903 -13.1064 -2.5
      vertex -6.70096 -14.6064 -2.5
    endloop
  endfacet
  facet normal 0.866033 -0.499986 0
    outer loop
      vertex -6.70096 -14.6064 5
      vertex -6.12213 -13.6038 -2.5
      vertex -6.12213 -13.6038 5
    endloop
  endfacet
  facet normal 0.866033 -0.499986 0
    outer loop
      vertex -6.12213 -13.6038 -2.5
      vertex -6.70096 -14.6064 5
      vertex -6.70096 -14.6064 -2.5
    endloop
  endfacet
  facet normal -0.406736 -0.913546 0
    outer loop
      vertex -6.12213 -13.6038 -2.5
      vertex -4.63525 -14.2658 5
      vertex -6.12213 -13.6038 5
    endloop
  endfacet
  facet normal -0.406736 -0.913546 -0
    outer loop
      vertex -4.63525 -14.2658 5
      vertex -6.12213 -13.6038 -2.5
      vertex -4.63525 -14.2658 -2.5
    endloop
  endfacet
  facet normal -0.207917 -0.978146 0
    outer loop
      vertex -4.63525 -14.2658 -2.5
      vertex -1.56792 -14.9178 5
      vertex -4.63525 -14.2658 5
    endloop
  endfacet
  facet normal -0.207917 -0.978146 -0
    outer loop
      vertex -1.56792 -14.9178 5
      vertex -4.63525 -14.2658 -2.5
      vertex -1.56792 -14.9178 -2.5
    endloop
  endfacet
  facet normal 0 -1 0
    outer loop
      vertex -1.56792 -14.9178 -2.5
      vertex -1.5 -14.9178 5
      vertex -1.56792 -14.9178 5
    endloop
  endfacet
  facet normal 0 -1 -0
    outer loop
      vertex -1.5 -14.9178 5
      vertex -1.56792 -14.9178 -2.5
      vertex -1.5 -14.9178 -2.5
    endloop
  endfacet
  facet normal -1 0 0
    outer loop
      vertex -1.5 -16 -2.5
      vertex -1.5 -14.9178 5
      vertex -1.5 -14.9178 -2.5
    endloop
  endfacet
  facet normal -1 -0 0
    outer loop
      vertex -1.5 -14.9178 5
      vertex -1.5 -16 -2.5
      vertex -1.5 -16 5
    endloop
  endfacet
  facet normal 0 -1 0
    outer loop
      vertex -1.5 -16 -2.5
      vertex 1.5 -16 5
      vertex -1.5 -16 5
    endloop
  endfacet
  facet normal 0 -1 -0
    outer loop
      vertex 1.5 -16 5
      vertex -1.5 -16 -2.5
      vertex 1.5 -16 -2.5
    endloop
  endfacet
  facet normal 1 -0 0
    outer loop
      vertex 1.5 -16 5
      vertex 1.5 -14.9178 -2.5
      vertex 1.5 -14.9178 5
    endloop
  endfacet
  facet normal 1 0 0
    outer loop
      vertex 1.5 -14.9178 -2.5
      vertex 1.5 -16 5
      vertex 1.5 -16 -2.5
    endloop
  endfacet
  facet normal -0.857734 0.514094 0
    outer loop
      vertex 2.07867 -1.38893 -2.5
      vertex 2.2048 -1.17849 0
      vertex 2.2048 -1.17849 -2.5
    endloop
  endfacet
  facet normal -0.857734 0.514094 0
    outer loop
      vertex 2.2048 -1.17849 0
      vertex 2.07867 -1.38893 -2.5
      vertex 2.07867 -1.38893 0
    endloop
  endfacet
  facet normal -0.989176 -0.146737 0
    outer loop
      vertex 2.48796 0.245043 -2.5
      vertex 2.45196 0.487725 0
      vertex 2.45196 0.487725 -2.5
    endloop
  endfacet
  facet normal -0.989176 -0.146737 0
    outer loop
      vertex 2.45196 0.487725 0
      vertex 2.48796 0.245043 -2.5
      vertex 2.48796 0.245043 0
    endloop
  endfacet
  facet normal -0.998795 -0.049075 0
    outer loop
      vertex 2.5 0 -2.5
      vertex 2.48796 0.245043 0
      vertex 2.48796 0.245043 -2.5
    endloop
  endfacet
  facet normal -0.998795 -0.049075 0
    outer loop
      vertex 2.48796 0.245043 0
      vertex 2.5 0 -2.5
      vertex 2.5 0 0
    endloop
  endfacet
  facet normal -0.970034 -0.242971 0
    outer loop
      vertex 2.45196 0.487725 -2.5
      vertex 2.39235 0.725711 0
      vertex 2.39235 0.725711 -2.5
    endloop
  endfacet
  facet normal -0.970034 -0.242971 0
    outer loop
      vertex 2.39235 0.725711 0
      vertex 2.45196 0.487725 -2.5
      vertex 2.45196 0.487725 0
    endloop
  endfacet
  facet normal -0.857734 -0.514094 0
    outer loop
      vertex 2.2048 1.17849 -2.5
      vertex 2.07867 1.38893 0
      vertex 2.07867 1.38893 -2.5
    endloop
  endfacet
  facet normal -0.857734 -0.514094 0
    outer loop
      vertex 2.07867 1.38893 0
      vertex 2.2048 1.17849 -2.5
      vertex 2.2048 1.17849 0
    endloop
  endfacet
  facet normal 0.857734 0.514094 0
    outer loop
      vertex -2.07867 -1.38893 0
      vertex -2.2048 -1.17849 -2.5
      vertex -2.2048 -1.17849 0
    endloop
  endfacet
  facet normal 0.857734 0.514094 0
    outer loop
      vertex -2.2048 -1.17849 -2.5
      vertex -2.07867 -1.38893 0
      vertex -2.07867 -1.38893 -2.5
    endloop
  endfacet
  facet normal 0.998795 0.049075 0
    outer loop
      vertex -2.48796 -0.245043 0
      vertex -2.5 0 -2.5
      vertex -2.5 0 0
    endloop
  endfacet
  facet normal 0.998795 0.049075 0
    outer loop
      vertex -2.5 0 -2.5
      vertex -2.48796 -0.245043 0
      vertex -2.48796 -0.245043 -2.5
    endloop
  endfacet
  facet normal 0.740961 -0.671548 0
    outer loop
      vertex -1.93253 1.58598 0
      vertex -1.76777 1.76777 -2.5
      vertex -1.76777 1.76777 0
    endloop
  endfacet
  facet normal 0.740961 -0.671548 0
    outer loop
      vertex -1.76777 1.76777 -2.5
      vertex -1.93253 1.58598 0
      vertex -1.93253 1.58598 -2.5
    endloop
  endfacet
  facet normal 0.857734 -0.514094 0
    outer loop
      vertex -2.2048 1.17849 0
      vertex -2.07867 1.38893 -2.5
      vertex -2.07867 1.38893 0
    endloop
  endfacet
  facet normal 0.857734 -0.514094 0
    outer loop
      vertex -2.07867 1.38893 -2.5
      vertex -2.2048 1.17849 0
      vertex -2.2048 1.17849 -2.5
    endloop
  endfacet
  facet normal -0.989176 0.146737 0
    outer loop
      vertex 2.45196 -0.487725 -2.5
      vertex 2.48796 -0.245043 0
      vertex 2.48796 -0.245043 -2.5
    endloop
  endfacet
  facet normal -0.989176 0.146737 0
    outer loop
      vertex 2.48796 -0.245043 0
      vertex 2.45196 -0.487725 -2.5
      vertex 2.45196 -0.487725 0
    endloop
  endfacet
  facet normal 0.514094 -0.857734 0
    outer loop
      vertex -1.38893 2.07867 -2.5
      vertex -1.17849 2.2048 0
      vertex -1.38893 2.07867 0
    endloop
  endfacet
  facet normal 0.514094 -0.857734 0
    outer loop
      vertex -1.17849 2.2048 0
      vertex -1.38893 2.07867 -2.5
      vertex -1.17849 2.2048 -2.5
    endloop
  endfacet
  facet normal 0.803212 0.595693 0
    outer loop
      vertex -1.93253 -1.58598 0
      vertex -2.07867 -1.38893 -2.5
      vertex -2.07867 -1.38893 0
    endloop
  endfacet
  facet normal 0.803212 0.595693 0
    outer loop
      vertex -2.07867 -1.38893 -2.5
      vertex -1.93253 -1.58598 0
      vertex -1.93253 -1.58598 -2.5
    endloop
  endfacet
  facet normal -0.903982 0.427572 0
    outer loop
      vertex 2.2048 -1.17849 -2.5
      vertex 2.3097 -0.956708 0
      vertex 2.3097 -0.956708 -2.5
    endloop
  endfacet
  facet normal -0.903982 0.427572 0
    outer loop
      vertex 2.3097 -0.956708 0
      vertex 2.2048 -1.17849 -2.5
      vertex 2.2048 -1.17849 0
    endloop
  endfacet
  facet normal -0.671548 -0.740961 0
    outer loop
      vertex 1.58598 1.93253 -2.5
      vertex 1.76777 1.76777 0
      vertex 1.58598 1.93253 0
    endloop
  endfacet
  facet normal -0.671548 -0.740961 -0
    outer loop
      vertex 1.76777 1.76777 0
      vertex 1.58598 1.93253 -2.5
      vertex 1.76777 1.76777 -2.5
    endloop
  endfacet
  facet normal 0.671548 -0.740961 0
    outer loop
      vertex -1.76777 1.76777 -2.5
      vertex -1.58598 1.93253 0
      vertex -1.76777 1.76777 0
    endloop
  endfacet
  facet normal 0.671548 -0.740961 0
    outer loop
      vertex -1.58598 1.93253 0
      vertex -1.76777 1.76777 -2.5
      vertex -1.58598 1.93253 -2.5
    endloop
  endfacet
  facet normal -0.514094 -0.857734 0
    outer loop
      vertex 1.17849 2.2048 -2.5
      vertex 1.38893 2.07867 0
      vertex 1.17849 2.2048 0
    endloop
  endfacet
  facet normal -0.514094 -0.857734 -0
    outer loop
      vertex 1.38893 2.07867 0
      vertex 1.17849 2.2048 -2.5
      vertex 1.38893 2.07867 -2.5
    endloop
  endfacet
  facet normal -0.595693 -0.803212 0
    outer loop
      vertex 1.38893 2.07867 -2.5
      vertex 1.58598 1.93253 0
      vertex 1.38893 2.07867 0
    endloop
  endfacet
  facet normal -0.595693 -0.803212 -0
    outer loop
      vertex 1.58598 1.93253 0
      vertex 1.38893 2.07867 -2.5
      vertex 1.58598 1.93253 -2.5
    endloop
  endfacet
  facet normal -0.740961 0.671548 0
    outer loop
      vertex 1.76777 -1.76777 -2.5
      vertex 1.93253 -1.58598 0
      vertex 1.93253 -1.58598 -2.5
    endloop
  endfacet
  facet normal -0.740961 0.671548 0
    outer loop
      vertex 1.93253 -1.58598 0
      vertex 1.76777 -1.76777 -2.5
      vertex 1.76777 -1.76777 0
    endloop
  endfacet
  facet normal 0.427572 -0.903982 0
    outer loop
      vertex -1.17849 2.2048 -2.5
      vertex -0.956708 2.3097 0
      vertex -1.17849 2.2048 0
    endloop
  endfacet
  facet normal 0.427572 -0.903982 0
    outer loop
      vertex -0.956708 2.3097 0
      vertex -1.17849 2.2048 -2.5
      vertex -0.956708 2.3097 -2.5
    endloop
  endfacet
  facet normal -0.970034 0.242971 0
    outer loop
      vertex 2.39235 -0.725711 -2.5
      vertex 2.45196 -0.487725 0
      vertex 2.45196 -0.487725 -2.5
    endloop
  endfacet
  facet normal -0.970034 0.242971 0
    outer loop
      vertex 2.45196 -0.487725 0
      vertex 2.39235 -0.725711 -2.5
      vertex 2.39235 -0.725711 0
    endloop
  endfacet
  facet normal -0.998795 0.049075 0
    outer loop
      vertex 2.48796 -0.245043 -2.5
      vertex 2.5 0 0
      vertex 2.5 0 -2.5
    endloop
  endfacet
  facet normal -0.998795 0.049075 0
    outer loop
      vertex 2.5 0 0
      vertex 2.48796 -0.245043 -2.5
      vertex 2.48796 -0.245043 0
    endloop
  endfacet
  facet normal 0.740961 0.671548 0
    outer loop
      vertex -1.76777 -1.76777 0
      vertex -1.93253 -1.58598 -2.5
      vertex -1.93253 -1.58598 0
    endloop
  endfacet
  facet normal 0.740961 0.671548 0
    outer loop
      vertex -1.93253 -1.58598 -2.5
      vertex -1.76777 -1.76777 0
      vertex -1.76777 -1.76777 -2.5
    endloop
  endfacet
  facet normal -0.903982 -0.427572 0
    outer loop
      vertex 2.3097 0.956708 -2.5
      vertex 2.2048 1.17849 0
      vertex 2.2048 1.17849 -2.5
    endloop
  endfacet
  facet normal -0.903982 -0.427572 0
    outer loop
      vertex 2.2048 1.17849 0
      vertex 2.3097 0.956708 -2.5
      vertex 2.3097 0.956708 0
    endloop
  endfacet
  facet normal 0.242971 -0.970034 0
    outer loop
      vertex -0.725711 2.39235 -2.5
      vertex -0.487725 2.45196 0
      vertex -0.725711 2.39235 0
    endloop
  endfacet
  facet normal 0.242971 -0.970034 0
    outer loop
      vertex -0.487725 2.45196 0
      vertex -0.725711 2.39235 -2.5
      vertex -0.487725 2.45196 -2.5
    endloop
  endfacet
  facet normal 0.514094 0.857734 -0
    outer loop
      vertex -1.17849 -2.2048 -2.5
      vertex -1.38893 -2.07867 0
      vertex -1.17849 -2.2048 0
    endloop
  endfacet
  facet normal 0.514094 0.857734 0
    outer loop
      vertex -1.38893 -2.07867 0
      vertex -1.17849 -2.2048 -2.5
      vertex -1.38893 -2.07867 -2.5
    endloop
  endfacet
  facet normal 0.970034 0.242971 0
    outer loop
      vertex -2.39235 -0.725711 0
      vertex -2.45196 -0.487725 -2.5
      vertex -2.45196 -0.487725 0
    endloop
  endfacet
  facet normal 0.970034 0.242971 0
    outer loop
      vertex -2.45196 -0.487725 -2.5
      vertex -2.39235 -0.725711 0
      vertex -2.39235 -0.725711 -2.5
    endloop
  endfacet
  facet normal 0.595693 -0.803212 0
    outer loop
      vertex -1.58598 1.93253 -2.5
      vertex -1.38893 2.07867 0
      vertex -1.58598 1.93253 0
    endloop
  endfacet
  facet normal 0.595693 -0.803212 0
    outer loop
      vertex -1.38893 2.07867 0
      vertex -1.58598 1.93253 -2.5
      vertex -1.38893 2.07867 -2.5
    endloop
  endfacet
  facet normal -0.514094 0.857734 0
    outer loop
      vertex 1.38893 -2.07867 -2.5
      vertex 1.17849 -2.2048 0
      vertex 1.38893 -2.07867 0
    endloop
  endfacet
  facet normal -0.514094 0.857734 0
    outer loop
      vertex 1.17849 -2.2048 0
      vertex 1.38893 -2.07867 -2.5
      vertex 1.17849 -2.2048 -2.5
    endloop
  endfacet
  facet normal -0.146737 0.989176 0
    outer loop
      vertex 0.487725 -2.45196 -2.5
      vertex 0.245043 -2.48796 0
      vertex 0.487725 -2.45196 0
    endloop
  endfacet
  facet normal -0.146737 0.989176 0
    outer loop
      vertex 0.245043 -2.48796 0
      vertex 0.487725 -2.45196 -2.5
      vertex 0.245043 -2.48796 -2.5
    endloop
  endfacet
  facet normal -0.427572 0.903982 0
    outer loop
      vertex 1.17849 -2.2048 -2.5
      vertex 0.956708 -2.3097 0
      vertex 1.17849 -2.2048 0
    endloop
  endfacet
  facet normal -0.427572 0.903982 0
    outer loop
      vertex 0.956708 -2.3097 0
      vertex 1.17849 -2.2048 -2.5
      vertex 0.956708 -2.3097 -2.5
    endloop
  endfacet
  facet normal 0.336882 -0.941547 0
    outer loop
      vertex -0.956708 2.3097 -2.5
      vertex -0.725711 2.39235 0
      vertex -0.956708 2.3097 0
    endloop
  endfacet
  facet normal 0.336882 -0.941547 0
    outer loop
      vertex -0.725711 2.39235 0
      vertex -0.956708 2.3097 -2.5
      vertex -0.725711 2.39235 -2.5
    endloop
  endfacet
  facet normal -0.803212 -0.595693 0
    outer loop
      vertex 2.07867 1.38893 -2.5
      vertex 1.93253 1.58598 0
      vertex 1.93253 1.58598 -2.5
    endloop
  endfacet
  facet normal -0.803212 -0.595693 0
    outer loop
      vertex 1.93253 1.58598 0
      vertex 2.07867 1.38893 -2.5
      vertex 2.07867 1.38893 0
    endloop
  endfacet
  facet normal 0.427572 0.903982 -0
    outer loop
      vertex -0.956708 -2.3097 -2.5
      vertex -1.17849 -2.2048 0
      vertex -0.956708 -2.3097 0
    endloop
  endfacet
  facet normal 0.427572 0.903982 0
    outer loop
      vertex -1.17849 -2.2048 0
      vertex -0.956708 -2.3097 -2.5
      vertex -1.17849 -2.2048 -2.5
    endloop
  endfacet
  facet normal -0.595693 0.803212 0
    outer loop
      vertex 1.58598 -1.93253 -2.5
      vertex 1.38893 -2.07867 0
      vertex 1.58598 -1.93253 0
    endloop
  endfacet
  facet normal -0.595693 0.803212 0
    outer loop
      vertex 1.38893 -2.07867 0
      vertex 1.58598 -1.93253 -2.5
      vertex 1.38893 -2.07867 -2.5
    endloop
  endfacet
  facet normal 0.998795 -0.049075 0
    outer loop
      vertex -2.5 0 0
      vertex -2.48796 0.245043 -2.5
      vertex -2.48796 0.245043 0
    endloop
  endfacet
  facet normal 0.998795 -0.049075 0
    outer loop
      vertex -2.48796 0.245043 -2.5
      vertex -2.5 0 0
      vertex -2.5 0 -2.5
    endloop
  endfacet
  facet normal -0.049075 0.998795 0
    outer loop
      vertex 0.245043 -2.48796 -2.5
      vertex 0 -2.5 0
      vertex 0.245043 -2.48796 0
    endloop
  endfacet
  facet normal -0.049075 0.998795 0
    outer loop
      vertex 0 -2.5 0
      vertex 0.245043 -2.48796 -2.5
      vertex 0 -2.5 -2.5
    endloop
  endfacet
  facet normal -0.427572 -0.903982 0
    outer loop
      vertex 0.956708 2.3097 -2.5
      vertex 1.17849 2.2048 0
      vertex 0.956708 2.3097 0
    endloop
  endfacet
  facet normal -0.427572 -0.903982 -0
    outer loop
      vertex 1.17849 2.2048 0
      vertex 0.956708 2.3097 -2.5
      vertex 1.17849 2.2048 -2.5
    endloop
  endfacet
  facet normal 0.146737 0.989176 -0
    outer loop
      vertex -0.245043 -2.48796 -2.5
      vertex -0.487725 -2.45196 0
      vertex -0.245043 -2.48796 0
    endloop
  endfacet
  facet normal 0.146737 0.989176 0
    outer loop
      vertex -0.487725 -2.45196 0
      vertex -0.245043 -2.48796 -2.5
      vertex -0.487725 -2.45196 -2.5
    endloop
  endfacet
  facet normal 0.989176 -0.146737 0
    outer loop
      vertex -2.48796 0.245043 0
      vertex -2.45196 0.487725 -2.5
      vertex -2.45196 0.487725 0
    endloop
  endfacet
  facet normal 0.989176 -0.146737 0
    outer loop
      vertex -2.45196 0.487725 -2.5
      vertex -2.48796 0.245043 0
      vertex -2.48796 0.245043 -2.5
    endloop
  endfacet
  facet normal -0.146737 -0.989176 0
    outer loop
      vertex 0.245043 2.48796 -2.5
      vertex 0.487725 2.45196 0
      vertex 0.245043 2.48796 0
    endloop
  endfacet
  facet normal -0.146737 -0.989176 -0
    outer loop
      vertex 0.487725 2.45196 0
      vertex 0.245043 2.48796 -2.5
      vertex 0.487725 2.45196 -2.5
    endloop
  endfacet
  facet normal -0.941547 -0.336882 0
    outer loop
      vertex 2.39235 0.725711 -2.5
      vertex 2.3097 0.956708 0
      vertex 2.3097 0.956708 -2.5
    endloop
  endfacet
  facet normal -0.941547 -0.336882 0
    outer loop
      vertex 2.3097 0.956708 0
      vertex 2.39235 0.725711 -2.5
      vertex 2.39235 0.725711 0
    endloop
  endfacet
  facet normal -0.336882 0.941547 0
    outer loop
      vertex 0.956708 -2.3097 -2.5
      vertex 0.725711 -2.39235 0
      vertex 0.956708 -2.3097 0
    endloop
  endfacet
  facet normal -0.336882 0.941547 0
    outer loop
      vertex 0.725711 -2.39235 0
      vertex 0.956708 -2.3097 -2.5
      vertex 0.725711 -2.39235 -2.5
    endloop
  endfacet
  facet normal -0.242971 0.970034 0
    outer loop
      vertex 0.725711 -2.39235 -2.5
      vertex 0.487725 -2.45196 0
      vertex 0.725711 -2.39235 0
    endloop
  endfacet
  facet normal -0.242971 0.970034 0
    outer loop
      vertex 0.487725 -2.45196 0
      vertex 0.725711 -2.39235 -2.5
      vertex 0.487725 -2.45196 -2.5
    endloop
  endfacet
  facet normal -0.740961 -0.671548 0
    outer loop
      vertex 1.93253 1.58598 -2.5
      vertex 1.76777 1.76777 0
      vertex 1.76777 1.76777 -2.5
    endloop
  endfacet
  facet normal -0.740961 -0.671548 0
    outer loop
      vertex 1.76777 1.76777 0
      vertex 1.93253 1.58598 -2.5
      vertex 1.93253 1.58598 0
    endloop
  endfacet
  facet normal 0.049075 -0.998795 0
    outer loop
      vertex -0.245043 2.48796 -2.5
      vertex 0 2.5 0
      vertex -0.245043 2.48796 0
    endloop
  endfacet
  facet normal 0.049075 -0.998795 0
    outer loop
      vertex 0 2.5 0
      vertex -0.245043 2.48796 -2.5
      vertex 0 2.5 -2.5
    endloop
  endfacet
  facet normal 0.941547 0.336882 0
    outer loop
      vertex -2.3097 -0.956708 0
      vertex -2.39235 -0.725711 -2.5
      vertex -2.39235 -0.725711 0
    endloop
  endfacet
  facet normal 0.941547 0.336882 0
    outer loop
      vertex -2.39235 -0.725711 -2.5
      vertex -2.3097 -0.956708 0
      vertex -2.3097 -0.956708 -2.5
    endloop
  endfacet
  facet normal 0.595693 0.803212 -0
    outer loop
      vertex -1.38893 -2.07867 -2.5
      vertex -1.58598 -1.93253 0
      vertex -1.38893 -2.07867 0
    endloop
  endfacet
  facet normal 0.595693 0.803212 0
    outer loop
      vertex -1.58598 -1.93253 0
      vertex -1.38893 -2.07867 -2.5
      vertex -1.58598 -1.93253 -2.5
    endloop
  endfacet
  facet normal 0.146737 -0.989176 0
    outer loop
      vertex -0.487725 2.45196 -2.5
      vertex -0.245043 2.48796 0
      vertex -0.487725 2.45196 0
    endloop
  endfacet
  facet normal 0.146737 -0.989176 0
    outer loop
      vertex -0.245043 2.48796 0
      vertex -0.487725 2.45196 -2.5
      vertex -0.245043 2.48796 -2.5
    endloop
  endfacet
  facet normal -0.336882 -0.941547 0
    outer loop
      vertex 0.725711 2.39235 -2.5
      vertex 0.956708 2.3097 0
      vertex 0.725711 2.39235 0
    endloop
  endfacet
  facet normal -0.336882 -0.941547 -0
    outer loop
      vertex 0.956708 2.3097 0
      vertex 0.725711 2.39235 -2.5
      vertex 0.956708 2.3097 -2.5
    endloop
  endfacet
  facet normal 0.903982 0.427572 0
    outer loop
      vertex -2.2048 -1.17849 0
      vertex -2.3097 -0.956708 -2.5
      vertex -2.3097 -0.956708 0
    endloop
  endfacet
  facet normal 0.903982 0.427572 0
    outer loop
      vertex -2.3097 -0.956708 -2.5
      vertex -2.2048 -1.17849 0
      vertex -2.2048 -1.17849 -2.5
    endloop
  endfacet
  facet normal 0.989176 0.146737 0
    outer loop
      vertex -2.45196 -0.487725 0
      vertex -2.48796 -0.245043 -2.5
      vertex -2.48796 -0.245043 0
    endloop
  endfacet
  facet normal 0.989176 0.146737 0
    outer loop
      vertex -2.48796 -0.245043 -2.5
      vertex -2.45196 -0.487725 0
      vertex -2.45196 -0.487725 -2.5
    endloop
  endfacet
  facet normal 0.671548 0.740961 -0
    outer loop
      vertex -1.58598 -1.93253 -2.5
      vertex -1.76777 -1.76777 0
      vertex -1.58598 -1.93253 0
    endloop
  endfacet
  facet normal 0.671548 0.740961 0
    outer loop
      vertex -1.76777 -1.76777 0
      vertex -1.58598 -1.93253 -2.5
      vertex -1.76777 -1.76777 -2.5
    endloop
  endfacet
  facet normal 0.336882 0.941547 -0
    outer loop
      vertex -0.725711 -2.39235 -2.5
      vertex -0.956708 -2.3097 0
      vertex -0.725711 -2.39235 0
    endloop
  endfacet
  facet normal 0.336882 0.941547 0
    outer loop
      vertex -0.956708 -2.3097 0
      vertex -0.725711 -2.39235 -2.5
      vertex -0.956708 -2.3097 -2.5
    endloop
  endfacet
  facet normal -0.049075 -0.998795 0
    outer loop
      vertex 0 2.5 -2.5
      vertex 0.245043 2.48796 0
      vertex 0 2.5 0
    endloop
  endfacet
  facet normal -0.049075 -0.998795 -0
    outer loop
      vertex 0.245043 2.48796 0
      vertex 0 2.5 -2.5
      vertex 0.245043 2.48796 -2.5
    endloop
  endfacet
  facet normal 0.941547 -0.336882 0
    outer loop
      vertex -2.39235 0.725711 0
      vertex -2.3097 0.956708 -2.5
      vertex -2.3097 0.956708 0
    endloop
  endfacet
  facet normal 0.941547 -0.336882 0
    outer loop
      vertex -2.3097 0.956708 -2.5
      vertex -2.39235 0.725711 0
      vertex -2.39235 0.725711 -2.5
    endloop
  endfacet
  facet normal 0.970034 -0.242971 0
    outer loop
      vertex -2.45196 0.487725 0
      vertex -2.39235 0.725711 -2.5
      vertex -2.39235 0.725711 0
    endloop
  endfacet
  facet normal 0.970034 -0.242971 0
    outer loop
      vertex -2.39235 0.725711 -2.5
      vertex -2.45196 0.487725 0
      vertex -2.45196 0.487725 -2.5
    endloop
  endfacet
  facet normal 0.242971 0.970034 -0
    outer loop
      vertex -0.487725 -2.45196 -2.5
      vertex -0.725711 -2.39235 0
      vertex -0.487725 -2.45196 0
    endloop
  endfacet
  facet normal 0.242971 0.970034 0
    outer loop
      vertex -0.725711 -2.39235 0
      vertex -0.487725 -2.45196 -2.5
      vertex -0.725711 -2.39235 -2.5
    endloop
  endfacet
  facet normal -0.242971 -0.970034 0
    outer loop
      vertex 0.487725 2.45196 -2.5
      vertex 0.725711 2.39235 0
      vertex 0.487725 2.45196 0
    endloop
  endfacet
  facet normal -0.242971 -0.970034 -0
    outer loop
      vertex 0.725711 2.39235 0
      vertex 0.487725 2.45196 -2.5
      vertex 0.725711 2.39235 -2.5
    endloop
  endfacet
  facet normal -0.803212 0.595693 0
    outer loop
      vertex 1.93253 -1.58598 -2.5
      vertex 2.07867 -1.38893 0
      vertex 2.07867 -1.38893 -2.5
    endloop
  endfacet
  facet normal -0.803212 0.595693 0
    outer loop
      vertex 2.07867 -1.38893 0
      vertex 1.93253 -1.58598 -2.5
      vertex 1.93253 -1.58598 0
    endloop
  endfacet
  facet normal -0.941547 0.336882 0
    outer loop
      vertex 2.3097 -0.956708 -2.5
      vertex 2.39235 -0.725711 0
      vertex 2.39235 -0.725711 -2.5
    endloop
  endfacet
  facet normal -0.941547 0.336882 0
    outer loop
      vertex 2.39235 -0.725711 0
      vertex 2.3097 -0.956708 -2.5
      vertex 2.3097 -0.956708 0
    endloop
  endfacet
  facet normal 0.049075 0.998795 -0
    outer loop
      vertex 0 -2.5 -2.5
      vertex -0.245043 -2.48796 0
      vertex 0 -2.5 0
    endloop
  endfacet
  facet normal 0.049075 0.998795 0
    outer loop
      vertex -0.245043 -2.48796 0
      vertex 0 -2.5 -2.5
      vertex -0.245043 -2.48796 -2.5
    endloop
  endfacet
  facet normal 0.903982 -0.427572 0
    outer loop
      vertex -2.3097 0.956708 0
      vertex -2.2048 1.17849 -2.5
      vertex -2.2048 1.17849 0
    endloop
  endfacet
  facet normal 0.903982 -0.427572 0
    outer loop
      vertex -2.2048 1.17849 -2.5
      vertex -2.3097 0.956708 0
      vertex -2.3097 0.956708 -2.5
    endloop
  endfacet
  facet normal 0.803212 -0.595693 0
    outer loop
      vertex -2.07867 1.38893 0
      vertex -1.93253 1.58598 -2.5
      vertex -1.93253 1.58598 0
    endloop
  endfacet
  facet normal 0.803212 -0.595693 0
    outer loop
      vertex -1.93253 1.58598 -2.5
      vertex -2.07867 1.38893 0
      vertex -2.07867 1.38893 -2.5
    endloop
  endfacet
  facet normal -0.671548 0.740961 0
    outer loop
      vertex 1.76777 -1.76777 -2.5
      vertex 1.58598 -1.93253 0
      vertex 1.76777 -1.76777 0
    endloop
  endfacet
  facet normal -0.671548 0.740961 0
    outer loop
      vertex 1.58598 -1.93253 0
      vertex 1.76777 -1.76777 -2.5
      vertex 1.58598 -1.93253 -2.5
    endloop
  endfacet
  facet normal 0 0 -1
    outer loop
      vertex 2.48796 -0.245043 0
      vertex 2.48796 0.245043 0
      vertex 2.5 0 0
    endloop
  endfacet
  facet normal 0 0 -1
    outer loop
      vertex 2.45196 -0.487725 0
      vertex 2.48796 0.245043 0
      vertex 2.48796 -0.245043 0
    endloop
  endfacet
  facet normal 0 0 -1
    outer loop
      vertex 2.45196 -0.487725 0
      vertex 2.45196 0.487725 0
      vertex 2.48796 0.245043 0
    endloop
  endfacet
  facet normal 0 0 -1
    outer loop
      vertex 2.39235 -0.725711 0
      vertex 2.45196 0.487725 0
      vertex 2.45196 -0.487725 0
    endloop
  endfacet
  facet normal 0 0 -1
    outer loop
      vertex 2.39235 -0.725711 0
      vertex 2.39235 0.725711 0
      vertex 2.45196 0.487725 0
    endloop
  endfacet
  facet normal 0 0 -1
    outer loop
      vertex 2.3097 -0.956708 0
      vertex 2.39235 0.725711 0
      vertex 2.39235 -0.725711 0
    endloop
  endfacet
  facet normal 0 0 -1
    outer loop
      vertex 2.3097 -0.956708 0
      vertex 2.3097 0.956708 0
      vertex 2.39235 0.725711 0
    endloop
  endfacet
  facet normal 0 0 -1
    outer loop
      vertex 2.2048 -1.17849 0
      vertex 2.3097 0.956708 0
      vertex 2.3097 -0.956708 0
    endloop
  endfacet
  facet normal 0 0 -1
    outer loop
      vertex 2.2048 -1.17849 0
      vertex 2.2048 1.17849 0
      vertex 2.3097 0.956708 0
    endloop
  endfacet
  facet normal 0 0 -1
    outer loop
      vertex 2.07867 -1.38893 0
      vertex 2.2048 1.17849 0
      vertex 2.2048 -1.17849 0
    endloop
  endfacet
  facet normal 0 0 -1
    outer loop
      vertex 2.07867 -1.38893 0
      vertex 2.07867 1.38893 0
      vertex 2.2048 1.17849 0
    endloop
  endfacet
  facet normal 0 0 -1
    outer loop
      vertex 1.93253 -1.58598 0
      vertex 2.07867 1.38893 0
      vertex 2.07867 -1.38893 0
    endloop
  endfacet
  facet normal 0 0 -1
    outer loop
      vertex 1.93253 -1.58598 0
      vertex 1.93253 1.58598 0
      vertex 2.07867 1.38893 0
    endloop
  endfacet
  facet normal 0 0 -1
    outer loop
      vertex 1.76777 -1.76777 0
      vertex 1.93253 1.58598 0
      vertex 1.93253 -1.58598 0
    endloop
  endfacet
  facet normal 0 0 -1
    outer loop
      vertex 1.76777 -1.76777 0
      vertex 1.76777 1.76777 0
      vertex 1.93253 1.58598 0
    endloop
  endfacet
  facet normal 0 0 -1
    outer loop
      vertex 1.58598 -1.93253 0
      vertex 1.76777 1.76777 0
      vertex 1.76777 -1.76777 0
    endloop
  endfacet
  facet normal 0 0 -1
    outer loop
      vertex 1.58598 -1.93253 0
      vertex 1.58598 1.93253 0
      vertex 1.76777 1.76777 0
    endloop
  endfacet
  facet normal 0 0 -1
    outer loop
      vertex 1.38893 -2.07867 0
      vertex 1.58598 1.93253 0
      vertex 1.58598 -1.93253 0
    endloop
  endfacet
  facet normal 0 0 -1
    outer loop
      vertex 1.38893 -2.07867 0
      vertex 1.38893 2.07867 0
      vertex 1.58598 1.93253 0
    endloop
  endfacet
  facet normal 0 0 -1
    outer loop
      vertex 1.17849 -2.2048 0
      vertex 1.38893 2.07867 0
      vertex 1.38893 -2.07867 0
    endloop
  endfacet
  facet normal 0 0 -1
    outer loop
      vertex 1.17849 -2.2048 0
      vertex 1.17849 2.2048 0
      vertex 1.38893 2.07867 0
    endloop
  endfacet
  facet normal 0 0 -1
    outer loop
      vertex 0.956708 -2.3097 0
      vertex 1.17849 2.2048 0
      vertex 1.17849 -2.2048 0
    endloop
  endfacet
  facet normal 0 0 -1
    outer loop
      vertex 0.956708 -2.3097 0
      vertex 0.956708 2.3097 0
      vertex 1.17849 2.2048 0
    endloop
  endfacet
  facet normal 0 0 -1
    outer loop
      vertex 0.725711 -2.39235 0
      vertex 0.956708 2.3097 0
      vertex 0.956708 -2.3097 0
    endloop
  endfacet
  facet normal 0 0 -1
    outer loop
      vertex 0.725711 -2.39235 0
      vertex 0.725711 2.39235 0
      vertex 0.956708 2.3097 0
    endloop
  endfacet
  facet normal 0 0 -1
    outer loop
      vertex 0.487725 -2.45196 0
      vertex 0.725711 2.39235 0
      vertex 0.725711 -2.39235 0
    endloop
  endfacet
  facet normal 0 0 -1
    outer loop
      vertex 0.487725 -2.45196 0
      vertex 0.487725 2.45196 0
      vertex 0.725711 2.39235 0
    endloop
  endfacet
  facet normal 0 0 -1
    outer loop
      vertex 0.245043 -2.48796 0
      vertex 0.487725 2.45196 0
      vertex 0.487725 -2.45196 0
    endloop
  endfacet
  facet normal 0 0 -1
    outer loop
      vertex 0.245043 -2.48796 0
      vertex 0.245043 2.48796 0
      vertex 0.487725 2.45196 0
    endloop
  endfacet
  facet normal 0 0 -1
    outer loop
      vertex 0 -2.5 0
      vertex 0.245043 2.48796 0
      vertex 0.245043 -2.48796 0
    endloop
  endfacet
  facet normal 0 0 -1
    outer loop
      vertex 0 -2.5 0
      vertex 0 2.5 0
      vertex 0.245043 2.48796 0
    endloop
  endfacet
  facet normal 0 0 -1
    outer loop
      vertex -0.245043 -2.48796 0
      vertex 0 2.5 0
      vertex 0 -2.5 0
    endloop
  endfacet
  facet normal 0 0 -1
    outer loop
      vertex -0.245043 -2.48796 0
      vertex -0.245043 2.48796 0
      vertex 0 2.5 0
    endloop
  endfacet
  facet normal 0 0 -1
    outer loop
      vertex -0.487725 -2.45196 0
      vertex -0.245043 2.48796 0
      vertex -0.245043 -2.48796 0
    endloop
  endfacet
  facet normal 0 0 -1
    outer loop
      vertex -0.487725 -2.45196 0
      vertex -0.487725 2.45196 0
      vertex -0.245043 2.48796 0
    endloop
  endfacet
  facet normal 0 0 -1
    outer loop
      vertex -0.725711 -2.39235 0
      vertex -0.487725 2.45196 0
      vertex -0.487725 -2.45196 0
    endloop
  endfacet
  facet normal 0 0 -1
    outer loop
      vertex -0.725711 -2.39235 0
      vertex -0.725711 2.39235 0
      vertex -0.487725 2.45196 0
    endloop
  endfacet
  facet normal 0 0 -1
    outer loop
      vertex -0.956708 -2.3097 0
      vertex -0.725711 2.39235 0
      vertex -0.725711 -2.39235 0
    endloop
  endfacet
  facet normal 0 0 -1
    outer loop
      vertex -0.956708 -2.3097 0
      vertex -0.956708 2.3097 0
      vertex -0.725711 2.39235 0
    endloop
  endfacet
  facet normal 0 0 -1
    outer loop
      vertex -1.17849 -2.2048 0
      vertex -0.956708 2.3097 0
      vertex -0.956708 -2.3097 0
    endloop
  endfacet
  facet normal 0 0 -1
    outer loop
      vertex -1.17849 -2.2048 0
      vertex -1.17849 2.2048 0
      vertex -0.956708 2.3097 0
    endloop
  endfacet
  facet normal 0 0 -1
    outer loop
      vertex -1.38893 -2.07867 0
      vertex -1.17849 2.2048 0
      vertex -1.17849 -2.2048 0
    endloop
  endfacet
  facet normal 0 0 -1
    outer loop
      vertex -1.38893 -2.07867 0
      vertex -1.38893 2.07867 0
      vertex -1.17849 2.2048 0
    endloop
  endfacet
  facet normal 0 0 -1
    outer loop
      vertex -1.58598 -1.93253 0
      vertex -1.38893 2.07867 0
      vertex -1.38893 -2.07867 0
    endloop
  endfacet
  facet normal 0 0 -1
    outer loop
      vertex -1.58598 -1.93253 0
      vertex -1.58598 1.93253 0
      vertex -1.38893 2.07867 0
    endloop
  endfacet
  facet normal 0 0 -1
    outer loop
      vertex -1.76777 -1.76777 0
      vertex -1.58598 1.93253 0
      vertex -1.58598 -1.93253 0
    endloop
  endfacet
  facet normal 0 0 -1
    outer loop
      vertex -1.76777 -1.76777 0
      vertex -1.76777 1.76777 0
      vertex -1.58598 1.93253 0
    endloop
  endfacet
  facet normal 0 0 -1
    outer loop
      vertex -1.93253 -1.58598 0
      vertex -1.76777 1.76777 0
      vertex -1.76777 -1.76777 0
    endloop
  endfacet
  facet normal 0 0 -1
    outer loop
      vertex -1.93253 -1.58598 0
      vertex -1.93253 1.58598 0
      vertex -1.76777 1.76777 0
    endloop
  endfacet
  facet normal 0 0 -1
    outer loop
      vertex -2.07867 -1.38893 0
      vertex -1.93253 1.58598 0
      vertex -1.93253 -1.58598 0
    endloop
  endfacet
  facet normal 0 0 -1
    outer loop
      vertex -2.07867 -1.38893 0
      vertex -2.07867 1.38893 0
      vertex -1.93253 1.58598 0
    endloop
  endfacet
  facet normal 0 0 -1
    outer loop
      vertex -2.2048 -1.17849 0
      vertex -2.07867 1.38893 0
      vertex -2.07867 -1.38893 0
    endloop
  endfacet
  facet normal 0 0 -1
    outer loop
      vertex -2.2048 -1.17849 0
      vertex -2.2048 1.17849 0
      vertex -2.07867 1.38893 0
    endloop
  endfacet
  facet normal 0 0 -1
    outer loop
      vertex -2.3097 -0.956708 0
      vertex -2.2048 1.17849 0
      vertex -2.2048 -1.17849 0
    endloop
  endfacet
  facet normal 0 0 -1
    outer loop
      vertex -2.3097 -0.956708 0
      vertex -2.3097 0.956708 0
      vertex -2.2048 1.17849 0
    endloop
  endfacet
  facet normal 0 0 -1
    outer loop
      vertex -2.39235 -0.725711 0
      vertex -2.3097 0.956708 0
      vertex -2.3097 -0.956708 0
    endloop
  endfacet
  facet normal 0 0 -1
    outer loop
      vertex -2.39235 -0.725711 0
      vertex -2.39235 0.725711 0
      vertex -2.3097 0.956708 0
    endloop
  endfacet
  facet normal 0 0 -1
    outer loop
      vertex -2.45196 -0.487725 0
      vertex -2.39235 0.725711 0
      vertex -2.39235 -0.725711 0
    endloop
  endfacet
  facet normal 0 0 -1
    outer loop
      vertex -2.45196 -0.487725 0
      vertex -2.45196 0.487725 0
      vertex -2.39235 0.725711 0
    endloop
  endfacet
  facet normal 0 0 -1
    outer loop
      vertex -2.48796 -0.245043 0
      vertex -2.45196 0.487725 0
      vertex -2.45196 -0.487725 0
    endloop
  endfacet
  facet normal 0 0 -1
    outer loop
      vertex -2.48796 -0.245043 0
      vertex -2.48796 0.245043 0
      vertex -2.45196 0.487725 0
    endloop
  endfacet
  facet normal 0 -0 -1
    outer loop
      vertex -2.48796 0.245043 0
      vertex -2.48796 -0.245043 0
      vertex -2.5 0 0
    endloop
  endfacet
  facet normal -0 0 1
    outer loop
      vertex 6.12213 13.6038 5
      vertex 8.7202 12.1039 5
      vertex 6.70096 14.6064 5
    endloop
  endfacet
  facet normal 0 0 1
    outer loop
      vertex 6.70096 14.6064 5
      vertex 8.7202 12.1039 5
      vertex 9.29903 13.1064 5
    endloop
  endfacet
  facet normal -0 0 1
    outer loop
      vertex 12.1692 8.75795 5
      vertex 13.6692 6.15987 5
      vertex 13.1064 9.29903 5
    endloop
  endfacet
  facet normal 0 0 1
    outer loop
      vertex 13.1064 9.29903 5
      vertex 13.6692 6.15987 5
      vertex 14.6064 6.70096 5
    endloop
  endfacet
  facet normal -0 0 1
    outer loop
      vertex 14.8423 1.5 5
      vertex 16 -1.5 5
      vertex 16 1.5 5
    endloop
  endfacet
  facet normal 0 0 1
    outer loop
      vertex 14.8423 1.5 5
      vertex 14.8423 -1.5 5
      vertex 16 -1.5 5
    endloop
  endfacet
  facet normal 0 0 1
    outer loop
      vertex 13.6692 6.15987 5
      vertex 14.8423 1.5 5
      vertex 14.6722 3.11867 5
    endloop
  endfacet
  facet normal 0 0 1
    outer loop
      vertex 14.8423 1.5 5
      vertex 13.6692 6.15987 5
      vertex 14.8423 -1.5 5
    endloop
  endfacet
  facet normal 0 0 1
    outer loop
      vertex 13.6692 6.15987 5
      vertex 14.6722 3.11867 5
      vertex 13.7032 6.10104 5
    endloop
  endfacet
  facet normal 0 0 1
    outer loop
      vertex 13.6692 -6.15987 5
      vertex 14.8423 -1.5 5
      vertex 13.6692 6.15987 5
    endloop
  endfacet
  facet normal 0 0 1
    outer loop
      vertex 14.8423 -1.5 5
      vertex 13.6692 -6.15987 5
      vertex 14.6722 -3.11867 5
    endloop
  endfacet
  facet normal 0 0 1
    outer loop
      vertex 14.6722 -3.11867 5
      vertex 13.6692 -6.15987 5
      vertex 13.7032 -6.10104 5
    endloop
  endfacet
  facet normal 0 0 1
    outer loop
      vertex 13.6692 -6.15987 5
      vertex 13.1064 -9.29903 5
      vertex 14.6064 -6.70096 5
    endloop
  endfacet
  facet normal 0 0 1
    outer loop
      vertex 8.7202 12.1039 5
      vertex 13.6692 6.15987 5
      vertex 12.1692 8.75795 5
    endloop
  endfacet
  facet normal 0 0 1
    outer loop
      vertex 13.6692 6.15987 5
      vertex 8.7202 12.1039 5
      vertex 13.6692 -6.15987 5
    endloop
  endfacet
  facet normal 0 0 1
    outer loop
      vertex 13.6692 -6.15987 5
      vertex 12.1692 -8.75795 5
      vertex 13.1064 -9.29903 5
    endloop
  endfacet
  facet normal 0 0 1
    outer loop
      vertex 10.037 11.1472 5
      vertex 12.1692 8.75795 5
      vertex 12.1353 8.81677 5
    endloop
  endfacet
  facet normal 0 0 1
    outer loop
      vertex 8.7202 -12.1039 5
      vertex 13.6692 -6.15987 5
      vertex 8.7202 12.1039 5
    endloop
  endfacet
  facet normal 0 0 1
    outer loop
      vertex 12.1692 8.75795 5
      vertex 10.037 11.1472 5
      vertex 8.7202 12.1039 5
    endloop
  endfacet
  facet normal 0 0 1
    outer loop
      vertex 13.6692 -6.15987 5
      vertex 8.7202 -12.1039 5
      vertex 12.1692 -8.75795 5
    endloop
  endfacet
  facet normal 0 -0 1
    outer loop
      vertex 10.037 -11.1472 5
      vertex 12.1692 -8.75795 5
      vertex 8.7202 -12.1039 5
    endloop
  endfacet
  facet normal 0 0 1
    outer loop
      vertex 12.1692 -8.75795 5
      vertex 10.037 -11.1472 5
      vertex 12.1353 -8.81677 5
    endloop
  endfacet
  facet normal 0 0 1
    outer loop
      vertex 8.7202 -12.1039 5
      vertex 6.70096 -14.6064 5
      vertex 9.29903 -13.1064 5
    endloop
  endfacet
  facet normal 0 0 1
    outer loop
      vertex 8.7202 12.1039 5
      vertex 6.12213 13.6038 5
      vertex 8.7202 -12.1039 5
    endloop
  endfacet
  facet normal 0 0 1
    outer loop
      vertex 6.12213 -13.6038 5
      vertex 8.7202 -12.1039 5
      vertex 6.12213 13.6038 5
    endloop
  endfacet
  facet normal 0 0 1
    outer loop
      vertex 8.7202 -12.1039 5
      vertex 6.12213 -13.6038 5
      vertex 6.70096 -14.6064 5
    endloop
  endfacet
  facet normal 0 0 1
    outer loop
      vertex 1.5 14.9178 5
      vertex 6.12213 13.6038 5
      vertex 4.63525 14.2658 5
    endloop
  endfacet
  facet normal 0 0 1
    outer loop
      vertex -6.12213 13.6038 5
      vertex 6.12213 13.6038 5
      vertex 1.5 14.9178 5
    endloop
  endfacet
  facet normal -0 0 1
    outer loop
      vertex 1.5 14.9178 5
      vertex 4.63525 14.2658 5
      vertex 1.56792 14.9178 5
    endloop
  endfacet
  facet normal 0 0 1
    outer loop
      vertex -6.12213 13.6038 5
      vertex 1.5 14.9178 5
      vertex -1.5 14.9178 5
    endloop
  endfacet
  facet normal 0 0 1
    outer loop
      vertex 6.12213 -13.6038 5
      vertex 1.5 -14.9178 5
      vertex 4.63525 -14.2658 5
    endloop
  endfacet
  facet normal 0 0 1
    outer loop
      vertex 4.63525 -14.2658 5
      vertex 1.5 -14.9178 5
      vertex 1.56792 -14.9178 5
    endloop
  endfacet
  facet normal 0 0 1
    outer loop
      vertex -14.6722 3.11867 5
      vertex -13.6692 6.15987 5
      vertex -13.7032 6.10104 5
    endloop
  endfacet
  facet normal 0 0 1
    outer loop
      vertex -13.6692 6.15987 5
      vertex -14.8423 1.5 5
      vertex -13.6692 -6.15987 5
    endloop
  endfacet
  facet normal 0 0 1
    outer loop
      vertex -13.6692 6.15987 5
      vertex -14.6722 3.11867 5
      vertex -14.8423 1.5 5
    endloop
  endfacet
  facet normal -0 0 1
    outer loop
      vertex -14.8423 -1.5 5
      vertex -13.6692 -6.15987 5
      vertex -14.8423 1.5 5
    endloop
  endfacet
  facet normal -0 -0 1
    outer loop
      vertex -14.6722 -3.11867 5
      vertex -13.6692 -6.15987 5
      vertex -14.8423 -1.5 5
    endloop
  endfacet
  facet normal 0 0 1
    outer loop
      vertex -13.6692 -6.15987 5
      vertex -14.6722 -3.11867 5
      vertex -13.7032 -6.10104 5
    endloop
  endfacet
  facet normal -0 0 1
    outer loop
      vertex -16 1.5 5
      vertex -14.8423 -1.5 5
      vertex -14.8423 1.5 5
    endloop
  endfacet
  facet normal 0 0 1
    outer loop
      vertex -14.8423 -1.5 5
      vertex -16 1.5 5
      vertex -16 -1.5 5
    endloop
  endfacet
  facet normal 0 0 1
    outer loop
      vertex -12.1692 8.75795 5
      vertex -8.7202 12.1039 5
      vertex -10.037 11.1472 5
    endloop
  endfacet
  facet normal 0 0 1
    outer loop
      vertex -13.6692 6.15987 5
      vertex -8.7202 12.1039 5
      vertex -12.1692 8.75795 5
    endloop
  endfacet
  facet normal 0 0 1
    outer loop
      vertex -12.1692 8.75795 5
      vertex -10.037 11.1472 5
      vertex -12.1353 8.81677 5
    endloop
  endfacet
  facet normal 0 0 1
    outer loop
      vertex -8.7202 12.1039 5
      vertex -13.6692 6.15987 5
      vertex -8.7202 -12.1039 5
    endloop
  endfacet
  facet normal 0 0 1
    outer loop
      vertex -8.7202 -12.1039 5
      vertex -12.1692 -8.75795 5
      vertex -10.037 -11.1472 5
    endloop
  endfacet
  facet normal 0 0 1
    outer loop
      vertex -10.037 -11.1472 5
      vertex -12.1692 -8.75795 5
      vertex -12.1353 -8.81677 5
    endloop
  endfacet
  facet normal 0 0 1
    outer loop
      vertex -13.6692 6.15987 5
      vertex -12.1692 8.75795 5
      vertex -13.1064 9.29903 5
    endloop
  endfacet
  facet normal -0 0 1
    outer loop
      vertex -13.6692 -6.15987 5
      vertex -8.7202 -12.1039 5
      vertex -13.6692 6.15987 5
    endloop
  endfacet
  facet normal 0 0 1
    outer loop
      vertex -8.7202 -12.1039 5
      vertex -13.6692 -6.15987 5
      vertex -12.1692 -8.75795 5
    endloop
  endfacet
  facet normal 0 -0 1
    outer loop
      vertex -13.6692 6.15987 5
      vertex -13.1064 9.29903 5
      vertex -14.6064 6.70096 5
    endloop
  endfacet
  facet normal 0 0 1
    outer loop
      vertex -4.63525 14.2658 5
      vertex -1.5 14.9178 5
      vertex -1.56792 14.9178 5
    endloop
  endfacet
  facet normal 0 0 1
    outer loop
      vertex -6.12213 -13.6038 5
      vertex 6.12213 -13.6038 5
      vertex -6.12213 13.6038 5
    endloop
  endfacet
  facet normal 0 0 1
    outer loop
      vertex -1.5 14.9178 5
      vertex -4.63525 14.2658 5
      vertex -6.12213 13.6038 5
    endloop
  endfacet
  facet normal 0 0 1
    outer loop
      vertex 6.12213 -13.6038 5
      vertex -6.12213 -13.6038 5
      vertex -1.5 -14.9178 5
    endloop
  endfacet
  facet normal -0 -0 1
    outer loop
      vertex -4.63525 -14.2658 5
      vertex -1.5 -14.9178 5
      vertex -6.12213 -13.6038 5
    endloop
  endfacet
  facet normal 0 0 1
    outer loop
      vertex -1.5 -14.9178 5
      vertex -4.63525 -14.2658 5
      vertex -1.56792 -14.9178 5
    endloop
  endfacet
  facet normal 0 0 1
    outer loop
      vertex -8.7202 12.1039 5
      vertex -6.12213 13.6038 5
      vertex -6.70096 14.6064 5
    endloop
  endfacet
  facet normal 0 0 1
    outer loop
      vertex -6.12213 13.6038 5
      vertex -8.7202 12.1039 5
      vertex -6.12213 -13.6038 5
    endloop
  endfacet
  facet normal -0 0 1
    outer loop
      vertex -8.7202 -12.1039 5
      vertex -6.12213 -13.6038 5
      vertex -8.7202 12.1039 5
    endloop
  endfacet
  facet normal 0 -0 1
    outer loop
      vertex -8.7202 12.1039 5
      vertex -6.70096 14.6064 5
      vertex -9.29903 13.1064 5
    endloop
  endfacet
  facet normal 0 0 1
    outer loop
      vertex -1.5 14.9178 5
      vertex 1.5 14.9178 5
      vertex 1.5 16 5
    endloop
  endfacet
  facet normal 0 0 1
    outer loop
      vertex 6.12213 13.6038 5
      vertex -6.12213 13.6038 5
      vertex 6.12213 -13.6038 5
    endloop
  endfacet
  facet normal 0 0 1
    outer loop
      vertex -1.5 14.9178 5
      vertex 1.5 16 5
      vertex -1.5 16 5
    endloop
  endfacet
  facet normal 0 0 1
    outer loop
      vertex 6.12213 -13.6038 5
      vertex -1.5 -14.9178 5
      vertex 1.5 -14.9178 5
    endloop
  endfacet
  facet normal 0 0 1
    outer loop
      vertex 1.5 -14.9178 5
      vertex -1.5 -14.9178 5
      vertex 1.5 -16 5
    endloop
  endfacet
  facet normal 0 0 1
    outer loop
      vertex 1.5 -16 5
      vertex -1.5 -14.9178 5
      vertex -1.5 -16 5
    endloop
  endfacet
  facet normal 0 0 1
    outer loop
      vertex -6.12213 -13.6038 5
      vertex -8.7202 -12.1039 5
      vertex -6.70096 -14.6064 5
    endloop
  endfacet
  facet normal 0 0 1
    outer loop
      vertex -6.70096 -14.6064 5
      vertex -8.7202 -12.1039 5
      vertex -9.29903 -13.1064 5
    endloop
  endfacet
  facet normal 0 0 1
    outer loop
      vertex -12.1692 -8.75795 5
      vertex -13.6692 -6.15987 5
      vertex -13.1064 -9.29903 5
    endloop
  endfacet
  facet normal 0 0 1
    outer loop
      vertex -13.1064 -9.29903 5
      vertex -13.6692 -6.15987 5
      vertex -14.6064 -6.70096 5
    endloop
  endfacet
endsolid OpenSCAD_Model
