solid OpenSCAD_Model
  facet normal 0.999507 -0.031404 0
    outer loop
      vertex 4.04201 -0.254301 3
      vertex 4.05 0 0
      vertex 4.05 0 3
    endloop
  endfacet
  facet normal 0.999507 -0.031404 0
    outer loop
      vertex 4.05 0 0
      vertex 4.04201 -0.254301 3
      vertex 4.04201 -0.254301 0
    endloop
  endfacet
  facet normal 0.99556 0.0941328 0
    outer loop
      vertex 4.04201 0.254301 3
      vertex 4.01806 0.507599 0
      vertex 4.01806 0.507599 3
    endloop
  endfacet
  facet normal 0.99556 0.0941328 0
    outer loop
      vertex 4.01806 0.507599 0
      vertex 4.04201 0.254301 3
      vertex 4.04201 0.254301 0
    endloop
  endfacet
  facet normal 0.999507 0.031404 0
    outer loop
      vertex 4.05 0 3
      vertex 4.04201 0.254301 0
      vertex 4.04201 0.254301 3
    endloop
  endfacet
  facet normal 0.999507 0.031404 0
    outer loop
      vertex 4.04201 0.254301 0
      vertex 4.05 0 3
      vertex 4.05 0 0
    endloop
  endfacet
  facet normal -0.750105 0.661319 0
    outer loop
      vertex -3.12058 2.58157 0
      vertex -2.95232 2.77242 3
      vertex -2.95232 2.77242 0
    endloop
  endfacet
  facet normal -0.750105 0.661319 0
    outer loop
      vertex -2.95232 2.77242 3
      vertex -3.12058 2.58157 0
      vertex -3.12058 2.58157 3
    endloop
  endfacet
  facet normal 0.338765 0.940871 -0
    outer loop
      vertex 1.4909 3.76559 0
      vertex 1.25152 3.85178 3
      vertex 1.4909 3.76559 3
    endloop
  endfacet
  facet normal 0.338765 0.940871 0
    outer loop
      vertex 1.25152 3.85178 3
      vertex 1.4909 3.76559 0
      vertex 1.25152 3.85178 0
    endloop
  endfacet
  facet normal 0.707107 0.707107 0
    outer loop
      vertex 2.95232 2.77242 3
      vertex 2.77242 2.95232 0
      vertex 2.77242 2.95232 3
    endloop
  endfacet
  facet normal 0.707107 0.707107 0
    outer loop
      vertex 2.77242 2.95232 0
      vertex 2.95232 2.77242 3
      vertex 2.95232 2.77242 0
    endloop
  endfacet
  facet normal 0.218141 -0.975917 0
    outer loop
      vertex 0.758894 -3.97826 0
      vertex 1.00719 -3.92276 3
      vertex 0.758894 -3.97826 3
    endloop
  endfacet
  facet normal 0.218141 -0.975917 0
    outer loop
      vertex 1.00719 -3.92276 3
      vertex 0.758894 -3.97826 0
      vertex 1.00719 -3.92276 0
    endloop
  endfacet
  facet normal 0.031404 -0.999507 0
    outer loop
      vertex 0 -4.05 0
      vertex 0.254301 -4.04201 3
      vertex 0 -4.05 3
    endloop
  endfacet
  facet normal 0.031404 -0.999507 0
    outer loop
      vertex 0.254301 -4.04201 3
      vertex 0 -4.05 0
      vertex 0.254301 -4.04201 0
    endloop
  endfacet
  facet normal 0.454008 0.890997 -0
    outer loop
      vertex 1.9511 3.54904 0
      vertex 1.72441 3.66455 3
      vertex 1.9511 3.54904 3
    endloop
  endfacet
  facet normal 0.454008 0.890997 0
    outer loop
      vertex 1.72441 3.66455 3
      vertex 1.9511 3.54904 0
      vertex 1.72441 3.66455 0
    endloop
  endfacet
  facet normal 0.15643 -0.987689 0
    outer loop
      vertex 0.507599 -4.01806 0
      vertex 0.758894 -3.97826 3
      vertex 0.507599 -4.01806 3
    endloop
  endfacet
  facet normal 0.15643 -0.987689 0
    outer loop
      vertex 0.758894 -3.97826 3
      vertex 0.507599 -4.01806 0
      vertex 0.758894 -3.97826 0
    endloop
  endfacet
  facet normal -0.890997 -0.454008 0
    outer loop
      vertex -3.54904 -1.9511 0
      vertex -3.66455 -1.72441 3
      vertex -3.66455 -1.72441 0
    endloop
  endfacet
  facet normal -0.890997 -0.454008 0
    outer loop
      vertex -3.66455 -1.72441 3
      vertex -3.54904 -1.9511 0
      vertex -3.54904 -1.9511 3
    endloop
  endfacet
  facet normal -0.278975 -0.960298 0
    outer loop
      vertex -1.25152 -3.85178 0
      vertex -1.00719 -3.92276 3
      vertex -1.25152 -3.85178 3
    endloop
  endfacet
  facet normal -0.278975 -0.960298 -0
    outer loop
      vertex -1.00719 -3.92276 3
      vertex -1.25152 -3.85178 0
      vertex -1.00719 -3.92276 0
    endloop
  endfacet
  facet normal 0.612901 -0.79016 0
    outer loop
      vertex 2.38053 -3.27652 0
      vertex 2.58157 -3.12058 3
      vertex 2.38053 -3.27652 3
    endloop
  endfacet
  facet normal 0.612901 -0.79016 0
    outer loop
      vertex 2.58157 -3.12058 3
      vertex 2.38053 -3.27652 0
      vertex 2.58157 -3.12058 0
    endloop
  endfacet
  facet normal 0.860753 -0.509023 0
    outer loop
      vertex 3.41953 -2.1701 3
      vertex 3.54904 -1.9511 0
      vertex 3.54904 -1.9511 3
    endloop
  endfacet
  facet normal 0.860753 -0.509023 0
    outer loop
      vertex 3.54904 -1.9511 0
      vertex 3.41953 -2.1701 3
      vertex 3.41953 -2.1701 0
    endloop
  endfacet
  facet normal 0.15643 0.987689 -0
    outer loop
      vertex 0.758894 3.97826 0
      vertex 0.507599 4.01806 3
      vertex 0.758894 3.97826 3
    endloop
  endfacet
  facet normal 0.15643 0.987689 0
    outer loop
      vertex 0.507599 4.01806 3
      vertex 0.758894 3.97826 0
      vertex 0.507599 4.01806 0
    endloop
  endfacet
  facet normal -0.397119 0.917767 0
    outer loop
      vertex -1.4909 3.76559 0
      vertex -1.72441 3.66455 3
      vertex -1.4909 3.76559 3
    endloop
  endfacet
  facet normal -0.397119 0.917767 0
    outer loop
      vertex -1.72441 3.66455 3
      vertex -1.4909 3.76559 0
      vertex -1.72441 3.66455 0
    endloop
  endfacet
  facet normal 0.562089 0.827077 -0
    outer loop
      vertex 2.38053 3.27652 0
      vertex 2.1701 3.41953 3
      vertex 2.38053 3.27652 3
    endloop
  endfacet
  facet normal 0.562089 0.827077 0
    outer loop
      vertex 2.1701 3.41953 3
      vertex 2.38053 3.27652 0
      vertex 2.1701 3.41953 0
    endloop
  endfacet
  facet normal 0.661319 -0.750105 0
    outer loop
      vertex 2.58157 -3.12058 0
      vertex 2.77242 -2.95232 3
      vertex 2.58157 -3.12058 3
    endloop
  endfacet
  facet normal 0.661319 -0.750105 0
    outer loop
      vertex 2.77242 -2.95232 3
      vertex 2.58157 -3.12058 0
      vertex 2.77242 -2.95232 0
    endloop
  endfacet
  facet normal 0.661319 0.750105 -0
    outer loop
      vertex 2.77242 2.95232 0
      vertex 2.58157 3.12058 3
      vertex 2.77242 2.95232 3
    endloop
  endfacet
  facet normal 0.661319 0.750105 0
    outer loop
      vertex 2.58157 3.12058 3
      vertex 2.77242 2.95232 0
      vertex 2.58157 3.12058 0
    endloop
  endfacet
  facet normal 0.860753 0.509023 0
    outer loop
      vertex 3.54904 1.9511 3
      vertex 3.41953 2.1701 0
      vertex 3.41953 2.1701 3
    endloop
  endfacet
  facet normal 0.860753 0.509023 0
    outer loop
      vertex 3.41953 2.1701 0
      vertex 3.54904 1.9511 3
      vertex 3.54904 1.9511 0
    endloop
  endfacet
  facet normal -0.218141 -0.975917 0
    outer loop
      vertex -1.00719 -3.92276 0
      vertex -0.758894 -3.97826 3
      vertex -1.00719 -3.92276 3
    endloop
  endfacet
  facet normal -0.218141 -0.975917 -0
    outer loop
      vertex -0.758894 -3.97826 3
      vertex -1.00719 -3.92276 0
      vertex -0.758894 -3.97826 0
    endloop
  endfacet
  facet normal -0.15643 -0.987689 0
    outer loop
      vertex -0.758894 -3.97826 0
      vertex -0.507599 -4.01806 3
      vertex -0.758894 -3.97826 3
    endloop
  endfacet
  facet normal -0.15643 -0.987689 -0
    outer loop
      vertex -0.507599 -4.01806 3
      vertex -0.758894 -3.97826 0
      vertex -0.507599 -4.01806 0
    endloop
  endfacet
  facet normal 0.975917 -0.218141 0
    outer loop
      vertex 3.92276 -1.00719 3
      vertex 3.97826 -0.758894 0
      vertex 3.97826 -0.758894 3
    endloop
  endfacet
  facet normal 0.975917 -0.218141 0
    outer loop
      vertex 3.97826 -0.758894 0
      vertex 3.92276 -1.00719 3
      vertex 3.92276 -1.00719 0
    endloop
  endfacet
  facet normal 0 0 -1
    outer loop
      vertex 4.04201 -0.254301 0
      vertex 4.04201 0.254301 0
      vertex 4.05 0 0
    endloop
  endfacet
  facet normal 0 0 -1
    outer loop
      vertex 4.01806 -0.507599 0
      vertex 4.04201 0.254301 0
      vertex 4.04201 -0.254301 0
    endloop
  endfacet
  facet normal 0 0 -1
    outer loop
      vertex 4.01806 -0.507599 0
      vertex 4.01806 0.507599 0
      vertex 4.04201 0.254301 0
    endloop
  endfacet
  facet normal 0 0 -1
    outer loop
      vertex 3.97826 -0.758894 0
      vertex 4.01806 0.507599 0
      vertex 4.01806 -0.507599 0
    endloop
  endfacet
  facet normal 0 0 -1
    outer loop
      vertex 3.97826 -0.758894 0
      vertex 3.97826 0.758894 0
      vertex 4.01806 0.507599 0
    endloop
  endfacet
  facet normal 0 0 -1
    outer loop
      vertex 3.92276 -1.00719 0
      vertex 3.97826 0.758894 0
      vertex 3.97826 -0.758894 0
    endloop
  endfacet
  facet normal 0 0 -1
    outer loop
      vertex 3.92276 -1.00719 0
      vertex 3.92276 1.00719 0
      vertex 3.97826 0.758894 0
    endloop
  endfacet
  facet normal 0 0 -1
    outer loop
      vertex 3.85178 -1.25152 0
      vertex 3.92276 1.00719 0
      vertex 3.92276 -1.00719 0
    endloop
  endfacet
  facet normal 0 0 -1
    outer loop
      vertex 3.85178 -1.25152 0
      vertex 3.85178 1.25152 0
      vertex 3.92276 1.00719 0
    endloop
  endfacet
  facet normal 0 0 -1
    outer loop
      vertex 3.76559 -1.4909 0
      vertex 3.85178 1.25152 0
      vertex 3.85178 -1.25152 0
    endloop
  endfacet
  facet normal 0 0 -1
    outer loop
      vertex 3.76559 -1.4909 0
      vertex 3.76559 1.4909 0
      vertex 3.85178 1.25152 0
    endloop
  endfacet
  facet normal 0 0 -1
    outer loop
      vertex 3.66455 -1.72441 0
      vertex 3.76559 1.4909 0
      vertex 3.76559 -1.4909 0
    endloop
  endfacet
  facet normal 0 0 -1
    outer loop
      vertex 3.66455 -1.72441 0
      vertex 3.66455 1.72441 0
      vertex 3.76559 1.4909 0
    endloop
  endfacet
  facet normal 0 0 -1
    outer loop
      vertex 3.54904 -1.9511 0
      vertex 3.66455 1.72441 0
      vertex 3.66455 -1.72441 0
    endloop
  endfacet
  facet normal 0 0 -1
    outer loop
      vertex 3.54904 -1.9511 0
      vertex 3.54904 1.9511 0
      vertex 3.66455 1.72441 0
    endloop
  endfacet
  facet normal 0 0 -1
    outer loop
      vertex 3.41953 -2.1701 0
      vertex 3.54904 1.9511 0
      vertex 3.54904 -1.9511 0
    endloop
  endfacet
  facet normal 0 0 -1
    outer loop
      vertex 3.41953 -2.1701 0
      vertex 3.41953 2.1701 0
      vertex 3.54904 1.9511 0
    endloop
  endfacet
  facet normal 0 0 -1
    outer loop
      vertex 3.27652 -2.38053 0
      vertex 3.41953 2.1701 0
      vertex 3.41953 -2.1701 0
    endloop
  endfacet
  facet normal 0 0 -1
    outer loop
      vertex 3.27652 -2.38053 0
      vertex 3.27652 2.38053 0
      vertex 3.41953 2.1701 0
    endloop
  endfacet
  facet normal 0 0 -1
    outer loop
      vertex 3.12058 -2.58157 0
      vertex 3.27652 2.38053 0
      vertex 3.27652 -2.38053 0
    endloop
  endfacet
  facet normal 0 0 -1
    outer loop
      vertex 3.12058 -2.58157 0
      vertex 3.12058 2.58157 0
      vertex 3.27652 2.38053 0
    endloop
  endfacet
  facet normal 0 0 -1
    outer loop
      vertex 2.95232 -2.77242 0
      vertex 3.12058 2.58157 0
      vertex 3.12058 -2.58157 0
    endloop
  endfacet
  facet normal 0 0 -1
    outer loop
      vertex 2.95232 -2.77242 0
      vertex 2.95232 2.77242 0
      vertex 3.12058 2.58157 0
    endloop
  endfacet
  facet normal 0 0 -1
    outer loop
      vertex 2.77242 -2.95232 0
      vertex 2.95232 2.77242 0
      vertex 2.95232 -2.77242 0
    endloop
  endfacet
  facet normal 0 0 -1
    outer loop
      vertex 2.77242 -2.95232 0
      vertex 2.77242 2.95232 0
      vertex 2.95232 2.77242 0
    endloop
  endfacet
  facet normal 0 0 -1
    outer loop
      vertex 2.58157 -3.12058 0
      vertex 2.77242 2.95232 0
      vertex 2.77242 -2.95232 0
    endloop
  endfacet
  facet normal 0 0 -1
    outer loop
      vertex 2.58157 -3.12058 0
      vertex 2.58157 3.12058 0
      vertex 2.77242 2.95232 0
    endloop
  endfacet
  facet normal 0 0 -1
    outer loop
      vertex 2.38053 -3.27652 0
      vertex 2.58157 3.12058 0
      vertex 2.58157 -3.12058 0
    endloop
  endfacet
  facet normal 0 0 -1
    outer loop
      vertex 2.38053 -3.27652 0
      vertex 2.38053 3.27652 0
      vertex 2.58157 3.12058 0
    endloop
  endfacet
  facet normal 0 0 -1
    outer loop
      vertex 2.1701 -3.41953 0
      vertex 2.38053 3.27652 0
      vertex 2.38053 -3.27652 0
    endloop
  endfacet
  facet normal 0 0 -1
    outer loop
      vertex 2.1701 -3.41953 0
      vertex 2.1701 3.41953 0
      vertex 2.38053 3.27652 0
    endloop
  endfacet
  facet normal 0 0 -1
    outer loop
      vertex 1.9511 -3.54904 0
      vertex 2.1701 3.41953 0
      vertex 2.1701 -3.41953 0
    endloop
  endfacet
  facet normal 0 0 -1
    outer loop
      vertex 1.9511 -3.54904 0
      vertex 1.9511 3.54904 0
      vertex 2.1701 3.41953 0
    endloop
  endfacet
  facet normal 0 0 -1
    outer loop
      vertex 1.72441 -3.66455 0
      vertex 1.9511 3.54904 0
      vertex 1.9511 -3.54904 0
    endloop
  endfacet
  facet normal 0 0 -1
    outer loop
      vertex 1.72441 -3.66455 0
      vertex 1.72441 3.66455 0
      vertex 1.9511 3.54904 0
    endloop
  endfacet
  facet normal 0 0 -1
    outer loop
      vertex 1.4909 -3.76559 0
      vertex 1.72441 3.66455 0
      vertex 1.72441 -3.66455 0
    endloop
  endfacet
  facet normal 0 0 -1
    outer loop
      vertex 1.4909 -3.76559 0
      vertex 1.4909 3.76559 0
      vertex 1.72441 3.66455 0
    endloop
  endfacet
  facet normal 0 0 -1
    outer loop
      vertex 1.25152 -3.85178 0
      vertex 1.4909 3.76559 0
      vertex 1.4909 -3.76559 0
    endloop
  endfacet
  facet normal 0 0 -1
    outer loop
      vertex 1.25152 -3.85178 0
      vertex 1.25152 3.85178 0
      vertex 1.4909 3.76559 0
    endloop
  endfacet
  facet normal 0 0 -1
    outer loop
      vertex 1.00719 -3.92276 0
      vertex 1.25152 3.85178 0
      vertex 1.25152 -3.85178 0
    endloop
  endfacet
  facet normal 0 0 -1
    outer loop
      vertex 1.00719 -3.92276 0
      vertex 1.00719 3.92276 0
      vertex 1.25152 3.85178 0
    endloop
  endfacet
  facet normal 0 0 -1
    outer loop
      vertex 0.758894 -3.97826 0
      vertex 1.00719 3.92276 0
      vertex 1.00719 -3.92276 0
    endloop
  endfacet
  facet normal 0 0 -1
    outer loop
      vertex 0.758894 -3.97826 0
      vertex 0.758894 3.97826 0
      vertex 1.00719 3.92276 0
    endloop
  endfacet
  facet normal 0 0 -1
    outer loop
      vertex 0.507599 -4.01806 0
      vertex 0.758894 3.97826 0
      vertex 0.758894 -3.97826 0
    endloop
  endfacet
  facet normal 0 0 -1
    outer loop
      vertex 0.507599 -4.01806 0
      vertex 0.507599 4.01806 0
      vertex 0.758894 3.97826 0
    endloop
  endfacet
  facet normal 0 0 -1
    outer loop
      vertex 0.254301 -4.04201 0
      vertex 0.507599 4.01806 0
      vertex 0.507599 -4.01806 0
    endloop
  endfacet
  facet normal 0 0 -1
    outer loop
      vertex 0.254301 -4.04201 0
      vertex 0.254301 4.04201 0
      vertex 0.507599 4.01806 0
    endloop
  endfacet
  facet normal 0 0 -1
    outer loop
      vertex 0 -4.05 0
      vertex 0.254301 4.04201 0
      vertex 0.254301 -4.04201 0
    endloop
  endfacet
  facet normal 0 0 -1
    outer loop
      vertex 0 -4.05 0
      vertex 0 4.05 0
      vertex 0.254301 4.04201 0
    endloop
  endfacet
  facet normal 0 0 -1
    outer loop
      vertex -0.254301 -4.04201 0
      vertex 0 4.05 0
      vertex 0 -4.05 0
    endloop
  endfacet
  facet normal 0 0 -1
    outer loop
      vertex -0.254301 -4.04201 0
      vertex -0.254301 4.04201 0
      vertex 0 4.05 0
    endloop
  endfacet
  facet normal 0 0 -1
    outer loop
      vertex -0.507599 -4.01806 0
      vertex -0.254301 4.04201 0
      vertex -0.254301 -4.04201 0
    endloop
  endfacet
  facet normal 0 0 -1
    outer loop
      vertex -0.507599 -4.01806 0
      vertex -0.507599 4.01806 0
      vertex -0.254301 4.04201 0
    endloop
  endfacet
  facet normal 0 0 -1
    outer loop
      vertex -0.758894 -3.97826 0
      vertex -0.507599 4.01806 0
      vertex -0.507599 -4.01806 0
    endloop
  endfacet
  facet normal 0 0 -1
    outer loop
      vertex -0.758894 -3.97826 0
      vertex -0.758894 3.97826 0
      vertex -0.507599 4.01806 0
    endloop
  endfacet
  facet normal 0 0 -1
    outer loop
      vertex -1.00719 -3.92276 0
      vertex -0.758894 3.97826 0
      vertex -0.758894 -3.97826 0
    endloop
  endfacet
  facet normal 0 0 -1
    outer loop
      vertex -1.00719 -3.92276 0
      vertex -1.00719 3.92276 0
      vertex -0.758894 3.97826 0
    endloop
  endfacet
  facet normal 0 0 -1
    outer loop
      vertex -1.25152 -3.85178 0
      vertex -1.00719 3.92276 0
      vertex -1.00719 -3.92276 0
    endloop
  endfacet
  facet normal 0 0 -1
    outer loop
      vertex -1.25152 -3.85178 0
      vertex -1.25152 3.85178 0
      vertex -1.00719 3.92276 0
    endloop
  endfacet
  facet normal 0 0 -1
    outer loop
      vertex -1.4909 -3.76559 0
      vertex -1.25152 3.85178 0
      vertex -1.25152 -3.85178 0
    endloop
  endfacet
  facet normal 0 0 -1
    outer loop
      vertex -1.4909 -3.76559 0
      vertex -1.4909 3.76559 0
      vertex -1.25152 3.85178 0
    endloop
  endfacet
  facet normal 0 0 -1
    outer loop
      vertex -1.72441 -3.66455 0
      vertex -1.4909 3.76559 0
      vertex -1.4909 -3.76559 0
    endloop
  endfacet
  facet normal 0 0 -1
    outer loop
      vertex -1.72441 -3.66455 0
      vertex -1.72441 3.66455 0
      vertex -1.4909 3.76559 0
    endloop
  endfacet
  facet normal 0 0 -1
    outer loop
      vertex -1.9511 -3.54904 0
      vertex -1.72441 3.66455 0
      vertex -1.72441 -3.66455 0
    endloop
  endfacet
  facet normal 0 0 -1
    outer loop
      vertex -1.9511 -3.54904 0
      vertex -1.9511 3.54904 0
      vertex -1.72441 3.66455 0
    endloop
  endfacet
  facet normal 0 0 -1
    outer loop
      vertex -2.1701 -3.41953 0
      vertex -1.9511 3.54904 0
      vertex -1.9511 -3.54904 0
    endloop
  endfacet
  facet normal 0 0 -1
    outer loop
      vertex -2.1701 -3.41953 0
      vertex -2.1701 3.41953 0
      vertex -1.9511 3.54904 0
    endloop
  endfacet
  facet normal 0 0 -1
    outer loop
      vertex -2.38053 -3.27652 0
      vertex -2.1701 3.41953 0
      vertex -2.1701 -3.41953 0
    endloop
  endfacet
  facet normal 0 0 -1
    outer loop
      vertex -2.38053 -3.27652 0
      vertex -2.38053 3.27652 0
      vertex -2.1701 3.41953 0
    endloop
  endfacet
  facet normal 0 0 -1
    outer loop
      vertex -2.58157 -3.12058 0
      vertex -2.38053 3.27652 0
      vertex -2.38053 -3.27652 0
    endloop
  endfacet
  facet normal 0 0 -1
    outer loop
      vertex -2.58157 -3.12058 0
      vertex -2.58157 3.12058 0
      vertex -2.38053 3.27652 0
    endloop
  endfacet
  facet normal 0 0 -1
    outer loop
      vertex -2.77242 -2.95232 0
      vertex -2.58157 3.12058 0
      vertex -2.58157 -3.12058 0
    endloop
  endfacet
  facet normal 0 0 -1
    outer loop
      vertex -2.77242 -2.95232 0
      vertex -2.77242 2.95232 0
      vertex -2.58157 3.12058 0
    endloop
  endfacet
  facet normal 0 0 -1
    outer loop
      vertex -2.95232 -2.77242 0
      vertex -2.77242 2.95232 0
      vertex -2.77242 -2.95232 0
    endloop
  endfacet
  facet normal 0 0 -1
    outer loop
      vertex -2.95232 -2.77242 0
      vertex -2.95232 2.77242 0
      vertex -2.77242 2.95232 0
    endloop
  endfacet
  facet normal 0 0 -1
    outer loop
      vertex -3.12058 -2.58157 0
      vertex -2.95232 2.77242 0
      vertex -2.95232 -2.77242 0
    endloop
  endfacet
  facet normal 0 0 -1
    outer loop
      vertex -3.12058 -2.58157 0
      vertex -3.12058 2.58157 0
      vertex -2.95232 2.77242 0
    endloop
  endfacet
  facet normal 0 0 -1
    outer loop
      vertex -3.27652 -2.38053 0
      vertex -3.12058 2.58157 0
      vertex -3.12058 -2.58157 0
    endloop
  endfacet
  facet normal 0 0 -1
    outer loop
      vertex -3.27652 -2.38053 0
      vertex -3.27652 2.38053 0
      vertex -3.12058 2.58157 0
    endloop
  endfacet
  facet normal 0 0 -1
    outer loop
      vertex -3.41953 -2.1701 0
      vertex -3.27652 2.38053 0
      vertex -3.27652 -2.38053 0
    endloop
  endfacet
  facet normal 0 0 -1
    outer loop
      vertex -3.41953 -2.1701 0
      vertex -3.41953 2.1701 0
      vertex -3.27652 2.38053 0
    endloop
  endfacet
  facet normal 0 0 -1
    outer loop
      vertex -3.54904 -1.9511 0
      vertex -3.41953 2.1701 0
      vertex -3.41953 -2.1701 0
    endloop
  endfacet
  facet normal 0 0 -1
    outer loop
      vertex -3.54904 -1.9511 0
      vertex -3.54904 1.9511 0
      vertex -3.41953 2.1701 0
    endloop
  endfacet
  facet normal 0 0 -1
    outer loop
      vertex -3.66455 -1.72441 0
      vertex -3.54904 1.9511 0
      vertex -3.54904 -1.9511 0
    endloop
  endfacet
  facet normal 0 0 -1
    outer loop
      vertex -3.66455 -1.72441 0
      vertex -3.66455 1.72441 0
      vertex -3.54904 1.9511 0
    endloop
  endfacet
  facet normal 0 0 -1
    outer loop
      vertex -3.76559 -1.4909 0
      vertex -3.66455 1.72441 0
      vertex -3.66455 -1.72441 0
    endloop
  endfacet
  facet normal 0 0 -1
    outer loop
      vertex -3.76559 -1.4909 0
      vertex -3.76559 1.4909 0
      vertex -3.66455 1.72441 0
    endloop
  endfacet
  facet normal 0 0 -1
    outer loop
      vertex -3.85178 -1.25152 0
      vertex -3.76559 1.4909 0
      vertex -3.76559 -1.4909 0
    endloop
  endfacet
  facet normal 0 0 -1
    outer loop
      vertex -3.85178 -1.25152 0
      vertex -3.85178 1.25152 0
      vertex -3.76559 1.4909 0
    endloop
  endfacet
  facet normal 0 0 -1
    outer loop
      vertex -3.92276 -1.00719 0
      vertex -3.85178 1.25152 0
      vertex -3.85178 -1.25152 0
    endloop
  endfacet
  facet normal 0 0 -1
    outer loop
      vertex -3.92276 -1.00719 0
      vertex -3.92276 1.00719 0
      vertex -3.85178 1.25152 0
    endloop
  endfacet
  facet normal 0 0 -1
    outer loop
      vertex -3.97826 -0.758894 0
      vertex -3.92276 1.00719 0
      vertex -3.92276 -1.00719 0
    endloop
  endfacet
  facet normal 0 0 -1
    outer loop
      vertex -3.97826 -0.758894 0
      vertex -3.97826 0.758894 0
      vertex -3.92276 1.00719 0
    endloop
  endfacet
  facet normal 0 0 -1
    outer loop
      vertex -4.01806 -0.507599 0
      vertex -3.97826 0.758894 0
      vertex -3.97826 -0.758894 0
    endloop
  endfacet
  facet normal 0 0 -1
    outer loop
      vertex -4.01806 -0.507599 0
      vertex -4.01806 0.507599 0
      vertex -3.97826 0.758894 0
    endloop
  endfacet
  facet normal 0 0 -1
    outer loop
      vertex -4.04201 -0.254301 0
      vertex -4.01806 0.507599 0
      vertex -4.01806 -0.507599 0
    endloop
  endfacet
  facet normal 0 0 -1
    outer loop
      vertex -4.04201 -0.254301 0
      vertex -4.04201 0.254301 0
      vertex -4.01806 0.507599 0
    endloop
  endfacet
  facet normal 0 -0 -1
    outer loop
      vertex -4.04201 0.254301 0
      vertex -4.04201 -0.254301 0
      vertex -4.05 0 0
    endloop
  endfacet
  facet normal -0.940871 0.338765 0
    outer loop
      vertex -3.85178 1.25152 0
      vertex -3.76559 1.4909 3
      vertex -3.76559 1.4909 0
    endloop
  endfacet
  facet normal -0.940871 0.338765 0
    outer loop
      vertex -3.76559 1.4909 3
      vertex -3.85178 1.25152 0
      vertex -3.85178 1.25152 3
    endloop
  endfacet
  facet normal 0.509023 0.860753 -0
    outer loop
      vertex 2.1701 3.41953 0
      vertex 1.9511 3.54904 3
      vertex 2.1701 3.41953 3
    endloop
  endfacet
  facet normal 0.509023 0.860753 0
    outer loop
      vertex 1.9511 3.54904 3
      vertex 2.1701 3.41953 0
      vertex 1.9511 3.54904 0
    endloop
  endfacet
  facet normal 0.707107 -0.707107 0
    outer loop
      vertex 2.77242 -2.95232 3
      vertex 2.95232 -2.77242 0
      vertex 2.95232 -2.77242 3
    endloop
  endfacet
  facet normal 0.707107 -0.707107 0
    outer loop
      vertex 2.95232 -2.77242 0
      vertex 2.77242 -2.95232 3
      vertex 2.77242 -2.95232 0
    endloop
  endfacet
  facet normal -0.707107 -0.707107 0
    outer loop
      vertex -2.77242 -2.95232 0
      vertex -2.95232 -2.77242 3
      vertex -2.95232 -2.77242 0
    endloop
  endfacet
  facet normal -0.707107 -0.707107 0
    outer loop
      vertex -2.95232 -2.77242 3
      vertex -2.77242 -2.95232 0
      vertex -2.77242 -2.95232 3
    endloop
  endfacet
  facet normal -0.975917 0.218141 0
    outer loop
      vertex -3.97826 0.758894 0
      vertex -3.92276 1.00719 3
      vertex -3.92276 1.00719 0
    endloop
  endfacet
  facet normal -0.975917 0.218141 0
    outer loop
      vertex -3.92276 1.00719 3
      vertex -3.97826 0.758894 0
      vertex -3.97826 0.758894 3
    endloop
  endfacet
  facet normal 0.960298 0.278975 0
    outer loop
      vertex 3.92276 1.00719 3
      vertex 3.85178 1.25152 0
      vertex 3.85178 1.25152 3
    endloop
  endfacet
  facet normal 0.960298 0.278975 0
    outer loop
      vertex 3.85178 1.25152 0
      vertex 3.92276 1.00719 3
      vertex 3.92276 1.00719 0
    endloop
  endfacet
  facet normal 0.79016 0.612901 0
    outer loop
      vertex 3.27652 2.38053 3
      vertex 3.12058 2.58157 0
      vertex 3.12058 2.58157 3
    endloop
  endfacet
  facet normal 0.79016 0.612901 0
    outer loop
      vertex 3.12058 2.58157 0
      vertex 3.27652 2.38053 3
      vertex 3.27652 2.38053 0
    endloop
  endfacet
  facet normal 0.397119 0.917767 -0
    outer loop
      vertex 1.72441 3.66455 0
      vertex 1.4909 3.76559 3
      vertex 1.72441 3.66455 3
    endloop
  endfacet
  facet normal 0.397119 0.917767 0
    outer loop
      vertex 1.4909 3.76559 3
      vertex 1.72441 3.66455 0
      vertex 1.4909 3.76559 0
    endloop
  endfacet
  facet normal -0.15643 0.987689 0
    outer loop
      vertex -0.507599 4.01806 0
      vertex -0.758894 3.97826 3
      vertex -0.507599 4.01806 3
    endloop
  endfacet
  facet normal -0.15643 0.987689 0
    outer loop
      vertex -0.758894 3.97826 3
      vertex -0.507599 4.01806 0
      vertex -0.758894 3.97826 0
    endloop
  endfacet
  facet normal 0.750105 0.661319 0
    outer loop
      vertex 3.12058 2.58157 3
      vertex 2.95232 2.77242 0
      vertex 2.95232 2.77242 3
    endloop
  endfacet
  facet normal 0.750105 0.661319 0
    outer loop
      vertex 2.95232 2.77242 0
      vertex 3.12058 2.58157 3
      vertex 3.12058 2.58157 0
    endloop
  endfacet
  facet normal 0.79016 -0.612901 0
    outer loop
      vertex 3.12058 -2.58157 3
      vertex 3.27652 -2.38053 0
      vertex 3.27652 -2.38053 3
    endloop
  endfacet
  facet normal 0.79016 -0.612901 0
    outer loop
      vertex 3.27652 -2.38053 0
      vertex 3.12058 -2.58157 3
      vertex 3.12058 -2.58157 0
    endloop
  endfacet
  facet normal 0.218141 0.975917 -0
    outer loop
      vertex 1.00719 3.92276 0
      vertex 0.758894 3.97826 3
      vertex 1.00719 3.92276 3
    endloop
  endfacet
  facet normal 0.218141 0.975917 0
    outer loop
      vertex 0.758894 3.97826 3
      vertex 1.00719 3.92276 0
      vertex 0.758894 3.97826 0
    endloop
  endfacet
  facet normal 0.99556 -0.0941328 0
    outer loop
      vertex 4.01806 -0.507599 3
      vertex 4.04201 -0.254301 0
      vertex 4.04201 -0.254301 3
    endloop
  endfacet
  facet normal 0.99556 -0.0941328 0
    outer loop
      vertex 4.04201 -0.254301 0
      vertex 4.01806 -0.507599 3
      vertex 4.01806 -0.507599 0
    endloop
  endfacet
  facet normal -0.890997 0.454008 0
    outer loop
      vertex -3.66455 1.72441 0
      vertex -3.54904 1.9511 3
      vertex -3.54904 1.9511 0
    endloop
  endfacet
  facet normal -0.890997 0.454008 0
    outer loop
      vertex -3.54904 1.9511 3
      vertex -3.66455 1.72441 0
      vertex -3.66455 1.72441 3
    endloop
  endfacet
  facet normal 0.0941328 0.99556 -0
    outer loop
      vertex 0.507599 4.01806 0
      vertex 0.254301 4.04201 3
      vertex 0.507599 4.01806 3
    endloop
  endfacet
  facet normal 0.0941328 0.99556 0
    outer loop
      vertex 0.254301 4.04201 3
      vertex 0.507599 4.01806 0
      vertex 0.254301 4.04201 0
    endloop
  endfacet
  facet normal 0.827077 -0.562089 0
    outer loop
      vertex 3.27652 -2.38053 3
      vertex 3.41953 -2.1701 0
      vertex 3.41953 -2.1701 3
    endloop
  endfacet
  facet normal 0.827077 -0.562089 0
    outer loop
      vertex 3.41953 -2.1701 0
      vertex 3.27652 -2.38053 3
      vertex 3.27652 -2.38053 0
    endloop
  endfacet
  facet normal -0.940871 -0.338765 0
    outer loop
      vertex -3.76559 -1.4909 0
      vertex -3.85178 -1.25152 3
      vertex -3.85178 -1.25152 0
    endloop
  endfacet
  facet normal -0.940871 -0.338765 0
    outer loop
      vertex -3.85178 -1.25152 3
      vertex -3.76559 -1.4909 0
      vertex -3.76559 -1.4909 3
    endloop
  endfacet
  facet normal 0.612901 0.79016 -0
    outer loop
      vertex 2.58157 3.12058 0
      vertex 2.38053 3.27652 3
      vertex 2.58157 3.12058 3
    endloop
  endfacet
  facet normal 0.612901 0.79016 0
    outer loop
      vertex 2.38053 3.27652 3
      vertex 2.58157 3.12058 0
      vertex 2.38053 3.27652 0
    endloop
  endfacet
  facet normal 0.454008 -0.890997 0
    outer loop
      vertex 1.72441 -3.66455 0
      vertex 1.9511 -3.54904 3
      vertex 1.72441 -3.66455 3
    endloop
  endfacet
  facet normal 0.454008 -0.890997 0
    outer loop
      vertex 1.9511 -3.54904 3
      vertex 1.72441 -3.66455 0
      vertex 1.9511 -3.54904 0
    endloop
  endfacet
  facet normal -0.562089 0.827077 0
    outer loop
      vertex -2.1701 3.41953 0
      vertex -2.38053 3.27652 3
      vertex -2.1701 3.41953 3
    endloop
  endfacet
  facet normal -0.562089 0.827077 0
    outer loop
      vertex -2.38053 3.27652 3
      vertex -2.1701 3.41953 0
      vertex -2.38053 3.27652 0
    endloop
  endfacet
  facet normal 0.397119 -0.917767 0
    outer loop
      vertex 1.4909 -3.76559 0
      vertex 1.72441 -3.66455 3
      vertex 1.4909 -3.76559 3
    endloop
  endfacet
  facet normal 0.397119 -0.917767 0
    outer loop
      vertex 1.72441 -3.66455 3
      vertex 1.4909 -3.76559 0
      vertex 1.72441 -3.66455 0
    endloop
  endfacet
  facet normal 0.917767 0.397119 0
    outer loop
      vertex 3.76559 1.4909 3
      vertex 3.66455 1.72441 0
      vertex 3.66455 1.72441 3
    endloop
  endfacet
  facet normal 0.917767 0.397119 0
    outer loop
      vertex 3.66455 1.72441 0
      vertex 3.76559 1.4909 3
      vertex 3.76559 1.4909 0
    endloop
  endfacet
  facet normal 0.940871 -0.338765 0
    outer loop
      vertex 3.76559 -1.4909 3
      vertex 3.85178 -1.25152 0
      vertex 3.85178 -1.25152 3
    endloop
  endfacet
  facet normal 0.940871 -0.338765 0
    outer loop
      vertex 3.85178 -1.25152 0
      vertex 3.76559 -1.4909 3
      vertex 3.76559 -1.4909 0
    endloop
  endfacet
  facet normal 0.509023 -0.860753 0
    outer loop
      vertex 1.9511 -3.54904 0
      vertex 2.1701 -3.41953 3
      vertex 1.9511 -3.54904 3
    endloop
  endfacet
  facet normal 0.509023 -0.860753 0
    outer loop
      vertex 2.1701 -3.41953 3
      vertex 1.9511 -3.54904 0
      vertex 2.1701 -3.41953 0
    endloop
  endfacet
  facet normal -0.987689 -0.15643 0
    outer loop
      vertex -3.97826 -0.758894 0
      vertex -4.01806 -0.507599 3
      vertex -4.01806 -0.507599 0
    endloop
  endfacet
  facet normal -0.987689 -0.15643 0
    outer loop
      vertex -4.01806 -0.507599 3
      vertex -3.97826 -0.758894 0
      vertex -3.97826 -0.758894 3
    endloop
  endfacet
  facet normal 0.890997 0.454008 0
    outer loop
      vertex 3.66455 1.72441 3
      vertex 3.54904 1.9511 0
      vertex 3.54904 1.9511 3
    endloop
  endfacet
  facet normal 0.890997 0.454008 0
    outer loop
      vertex 3.54904 1.9511 0
      vertex 3.66455 1.72441 3
      vertex 3.66455 1.72441 0
    endloop
  endfacet
  facet normal -0.338765 0.940871 0
    outer loop
      vertex -1.25152 3.85178 0
      vertex -1.4909 3.76559 3
      vertex -1.25152 3.85178 3
    endloop
  endfacet
  facet normal -0.338765 0.940871 0
    outer loop
      vertex -1.4909 3.76559 3
      vertex -1.25152 3.85178 0
      vertex -1.4909 3.76559 0
    endloop
  endfacet
  facet normal -0.509023 0.860753 0
    outer loop
      vertex -1.9511 3.54904 0
      vertex -2.1701 3.41953 3
      vertex -1.9511 3.54904 3
    endloop
  endfacet
  facet normal -0.509023 0.860753 0
    outer loop
      vertex -2.1701 3.41953 3
      vertex -1.9511 3.54904 0
      vertex -2.1701 3.41953 0
    endloop
  endfacet
  facet normal -0.999507 -0.031404 0
    outer loop
      vertex -4.04201 -0.254301 0
      vertex -4.05 0 3
      vertex -4.05 0 0
    endloop
  endfacet
  facet normal -0.999507 -0.031404 0
    outer loop
      vertex -4.05 0 3
      vertex -4.04201 -0.254301 0
      vertex -4.04201 -0.254301 3
    endloop
  endfacet
  facet normal 0.987689 -0.15643 0
    outer loop
      vertex 3.97826 -0.758894 3
      vertex 4.01806 -0.507599 0
      vertex 4.01806 -0.507599 3
    endloop
  endfacet
  facet normal 0.987689 -0.15643 0
    outer loop
      vertex 4.01806 -0.507599 0
      vertex 3.97826 -0.758894 3
      vertex 3.97826 -0.758894 0
    endloop
  endfacet
  facet normal -0.827077 0.562089 0
    outer loop
      vertex -3.41953 2.1701 0
      vertex -3.27652 2.38053 3
      vertex -3.27652 2.38053 0
    endloop
  endfacet
  facet normal -0.827077 0.562089 0
    outer loop
      vertex -3.27652 2.38053 3
      vertex -3.41953 2.1701 0
      vertex -3.41953 2.1701 3
    endloop
  endfacet
  facet normal -0.454008 0.890997 0
    outer loop
      vertex -1.72441 3.66455 0
      vertex -1.9511 3.54904 3
      vertex -1.72441 3.66455 3
    endloop
  endfacet
  facet normal -0.454008 0.890997 0
    outer loop
      vertex -1.9511 3.54904 3
      vertex -1.72441 3.66455 0
      vertex -1.9511 3.54904 0
    endloop
  endfacet
  facet normal -0.999507 0.031404 0
    outer loop
      vertex -4.05 0 0
      vertex -4.04201 0.254301 3
      vertex -4.04201 0.254301 0
    endloop
  endfacet
  facet normal -0.999507 0.031404 0
    outer loop
      vertex -4.04201 0.254301 3
      vertex -4.05 0 0
      vertex -4.05 0 3
    endloop
  endfacet
  facet normal -0.960298 0.278975 0
    outer loop
      vertex -3.92276 1.00719 0
      vertex -3.85178 1.25152 3
      vertex -3.85178 1.25152 0
    endloop
  endfacet
  facet normal -0.960298 0.278975 0
    outer loop
      vertex -3.85178 1.25152 3
      vertex -3.92276 1.00719 0
      vertex -3.92276 1.00719 3
    endloop
  endfacet
  facet normal -0.031404 0.999507 0
    outer loop
      vertex 0 4.05 0
      vertex -0.254301 4.04201 3
      vertex 0 4.05 3
    endloop
  endfacet
  facet normal -0.031404 0.999507 0
    outer loop
      vertex -0.254301 4.04201 3
      vertex 0 4.05 0
      vertex -0.254301 4.04201 0
    endloop
  endfacet
  facet normal 0.0941328 -0.99556 0
    outer loop
      vertex 0.254301 -4.04201 0
      vertex 0.507599 -4.01806 3
      vertex 0.254301 -4.04201 3
    endloop
  endfacet
  facet normal 0.0941328 -0.99556 0
    outer loop
      vertex 0.507599 -4.01806 3
      vertex 0.254301 -4.04201 0
      vertex 0.507599 -4.01806 0
    endloop
  endfacet
  facet normal -0.218141 0.975917 0
    outer loop
      vertex -0.758894 3.97826 0
      vertex -1.00719 3.92276 3
      vertex -0.758894 3.97826 3
    endloop
  endfacet
  facet normal -0.218141 0.975917 0
    outer loop
      vertex -1.00719 3.92276 3
      vertex -0.758894 3.97826 0
      vertex -1.00719 3.92276 0
    endloop
  endfacet
  facet normal 0.278975 0.960298 -0
    outer loop
      vertex 1.25152 3.85178 0
      vertex 1.00719 3.92276 3
      vertex 1.25152 3.85178 3
    endloop
  endfacet
  facet normal 0.278975 0.960298 0
    outer loop
      vertex 1.00719 3.92276 3
      vertex 1.25152 3.85178 0
      vertex 1.00719 3.92276 0
    endloop
  endfacet
  facet normal -0.278975 0.960298 0
    outer loop
      vertex -1.00719 3.92276 0
      vertex -1.25152 3.85178 3
      vertex -1.00719 3.92276 3
    endloop
  endfacet
  facet normal -0.278975 0.960298 0
    outer loop
      vertex -1.25152 3.85178 3
      vertex -1.00719 3.92276 0
      vertex -1.25152 3.85178 0
    endloop
  endfacet
  facet normal -0.975917 -0.218141 0
    outer loop
      vertex -3.92276 -1.00719 0
      vertex -3.97826 -0.758894 3
      vertex -3.97826 -0.758894 0
    endloop
  endfacet
  facet normal -0.975917 -0.218141 0
    outer loop
      vertex -3.97826 -0.758894 3
      vertex -3.92276 -1.00719 0
      vertex -3.92276 -1.00719 3
    endloop
  endfacet
  facet normal -0.827077 -0.562089 0
    outer loop
      vertex -3.27652 -2.38053 0
      vertex -3.41953 -2.1701 3
      vertex -3.41953 -2.1701 0
    endloop
  endfacet
  facet normal -0.827077 -0.562089 0
    outer loop
      vertex -3.41953 -2.1701 3
      vertex -3.27652 -2.38053 0
      vertex -3.27652 -2.38053 3
    endloop
  endfacet
  facet normal 0.827077 0.562089 0
    outer loop
      vertex 3.41953 2.1701 3
      vertex 3.27652 2.38053 0
      vertex 3.27652 2.38053 3
    endloop
  endfacet
  facet normal 0.827077 0.562089 0
    outer loop
      vertex 3.27652 2.38053 0
      vertex 3.41953 2.1701 3
      vertex 3.41953 2.1701 0
    endloop
  endfacet
  facet normal -0.917767 -0.397119 0
    outer loop
      vertex -3.66455 -1.72441 0
      vertex -3.76559 -1.4909 3
      vertex -3.76559 -1.4909 0
    endloop
  endfacet
  facet normal -0.917767 -0.397119 0
    outer loop
      vertex -3.76559 -1.4909 3
      vertex -3.66455 -1.72441 0
      vertex -3.66455 -1.72441 3
    endloop
  endfacet
  facet normal 0.031404 0.999507 -0
    outer loop
      vertex 0.254301 4.04201 0
      vertex 0 4.05 3
      vertex 0.254301 4.04201 3
    endloop
  endfacet
  facet normal 0.031404 0.999507 0
    outer loop
      vertex 0 4.05 3
      vertex 0.254301 4.04201 0
      vertex 0 4.05 0
    endloop
  endfacet
  facet normal -0.661319 0.750105 0
    outer loop
      vertex -2.58157 3.12058 0
      vertex -2.77242 2.95232 3
      vertex -2.58157 3.12058 3
    endloop
  endfacet
  facet normal -0.661319 0.750105 0
    outer loop
      vertex -2.77242 2.95232 3
      vertex -2.58157 3.12058 0
      vertex -2.77242 2.95232 0
    endloop
  endfacet
  facet normal -0.750105 -0.661319 0
    outer loop
      vertex -2.95232 -2.77242 0
      vertex -3.12058 -2.58157 3
      vertex -3.12058 -2.58157 0
    endloop
  endfacet
  facet normal -0.750105 -0.661319 0
    outer loop
      vertex -3.12058 -2.58157 3
      vertex -2.95232 -2.77242 0
      vertex -2.95232 -2.77242 3
    endloop
  endfacet
  facet normal 0.960298 -0.278975 0
    outer loop
      vertex 3.85178 -1.25152 3
      vertex 3.92276 -1.00719 0
      vertex 3.92276 -1.00719 3
    endloop
  endfacet
  facet normal 0.960298 -0.278975 0
    outer loop
      vertex 3.92276 -1.00719 0
      vertex 3.85178 -1.25152 3
      vertex 3.85178 -1.25152 0
    endloop
  endfacet
  facet normal -0.612901 -0.79016 0
    outer loop
      vertex -2.58157 -3.12058 0
      vertex -2.38053 -3.27652 3
      vertex -2.58157 -3.12058 3
    endloop
  endfacet
  facet normal -0.612901 -0.79016 -0
    outer loop
      vertex -2.38053 -3.27652 3
      vertex -2.58157 -3.12058 0
      vertex -2.38053 -3.27652 0
    endloop
  endfacet
  facet normal 0.750105 -0.661319 0
    outer loop
      vertex 2.95232 -2.77242 3
      vertex 3.12058 -2.58157 0
      vertex 3.12058 -2.58157 3
    endloop
  endfacet
  facet normal 0.750105 -0.661319 0
    outer loop
      vertex 3.12058 -2.58157 0
      vertex 2.95232 -2.77242 3
      vertex 2.95232 -2.77242 0
    endloop
  endfacet
  facet normal -0.960298 -0.278975 0
    outer loop
      vertex -3.85178 -1.25152 0
      vertex -3.92276 -1.00719 3
      vertex -3.92276 -1.00719 0
    endloop
  endfacet
  facet normal -0.960298 -0.278975 0
    outer loop
      vertex -3.92276 -1.00719 3
      vertex -3.85178 -1.25152 0
      vertex -3.85178 -1.25152 3
    endloop
  endfacet
  facet normal -0.860753 0.509023 0
    outer loop
      vertex -3.54904 1.9511 0
      vertex -3.41953 2.1701 3
      vertex -3.41953 2.1701 0
    endloop
  endfacet
  facet normal -0.860753 0.509023 0
    outer loop
      vertex -3.41953 2.1701 3
      vertex -3.54904 1.9511 0
      vertex -3.54904 1.9511 3
    endloop
  endfacet
  facet normal -0.612901 0.79016 0
    outer loop
      vertex -2.38053 3.27652 0
      vertex -2.58157 3.12058 3
      vertex -2.38053 3.27652 3
    endloop
  endfacet
  facet normal -0.612901 0.79016 0
    outer loop
      vertex -2.58157 3.12058 3
      vertex -2.38053 3.27652 0
      vertex -2.58157 3.12058 0
    endloop
  endfacet
  facet normal 0.975917 0.218141 0
    outer loop
      vertex 3.97826 0.758894 3
      vertex 3.92276 1.00719 0
      vertex 3.92276 1.00719 3
    endloop
  endfacet
  facet normal 0.975917 0.218141 0
    outer loop
      vertex 3.92276 1.00719 0
      vertex 3.97826 0.758894 3
      vertex 3.97826 0.758894 0
    endloop
  endfacet
  facet normal 0.562089 -0.827077 0
    outer loop
      vertex 2.1701 -3.41953 0
      vertex 2.38053 -3.27652 3
      vertex 2.1701 -3.41953 3
    endloop
  endfacet
  facet normal 0.562089 -0.827077 0
    outer loop
      vertex 2.38053 -3.27652 3
      vertex 2.1701 -3.41953 0
      vertex 2.38053 -3.27652 0
    endloop
  endfacet
  facet normal 0.940871 0.338765 0
    outer loop
      vertex 3.85178 1.25152 3
      vertex 3.76559 1.4909 0
      vertex 3.76559 1.4909 3
    endloop
  endfacet
  facet normal 0.940871 0.338765 0
    outer loop
      vertex 3.76559 1.4909 0
      vertex 3.85178 1.25152 3
      vertex 3.85178 1.25152 0
    endloop
  endfacet
  facet normal 0.987689 0.15643 0
    outer loop
      vertex 4.01806 0.507599 3
      vertex 3.97826 0.758894 0
      vertex 3.97826 0.758894 3
    endloop
  endfacet
  facet normal 0.987689 0.15643 0
    outer loop
      vertex 3.97826 0.758894 0
      vertex 4.01806 0.507599 3
      vertex 4.01806 0.507599 0
    endloop
  endfacet
  facet normal -0.509023 -0.860753 0
    outer loop
      vertex -2.1701 -3.41953 0
      vertex -1.9511 -3.54904 3
      vertex -2.1701 -3.41953 3
    endloop
  endfacet
  facet normal -0.509023 -0.860753 -0
    outer loop
      vertex -1.9511 -3.54904 3
      vertex -2.1701 -3.41953 0
      vertex -1.9511 -3.54904 0
    endloop
  endfacet
  facet normal -0.338765 -0.940871 0
    outer loop
      vertex -1.4909 -3.76559 0
      vertex -1.25152 -3.85178 3
      vertex -1.4909 -3.76559 3
    endloop
  endfacet
  facet normal -0.338765 -0.940871 -0
    outer loop
      vertex -1.25152 -3.85178 3
      vertex -1.4909 -3.76559 0
      vertex -1.25152 -3.85178 0
    endloop
  endfacet
  facet normal -0.0941328 0.99556 0
    outer loop
      vertex -0.254301 4.04201 0
      vertex -0.507599 4.01806 3
      vertex -0.254301 4.04201 3
    endloop
  endfacet
  facet normal -0.0941328 0.99556 0
    outer loop
      vertex -0.507599 4.01806 3
      vertex -0.254301 4.04201 0
      vertex -0.507599 4.01806 0
    endloop
  endfacet
  facet normal 0.338765 -0.940871 0
    outer loop
      vertex 1.25152 -3.85178 0
      vertex 1.4909 -3.76559 3
      vertex 1.25152 -3.85178 3
    endloop
  endfacet
  facet normal 0.338765 -0.940871 0
    outer loop
      vertex 1.4909 -3.76559 3
      vertex 1.25152 -3.85178 0
      vertex 1.4909 -3.76559 0
    endloop
  endfacet
  facet normal -0.661319 -0.750105 0
    outer loop
      vertex -2.77242 -2.95232 0
      vertex -2.58157 -3.12058 3
      vertex -2.77242 -2.95232 3
    endloop
  endfacet
  facet normal -0.661319 -0.750105 -0
    outer loop
      vertex -2.58157 -3.12058 3
      vertex -2.77242 -2.95232 0
      vertex -2.58157 -3.12058 0
    endloop
  endfacet
  facet normal -0.860753 -0.509023 0
    outer loop
      vertex -3.41953 -2.1701 0
      vertex -3.54904 -1.9511 3
      vertex -3.54904 -1.9511 0
    endloop
  endfacet
  facet normal -0.860753 -0.509023 0
    outer loop
      vertex -3.54904 -1.9511 3
      vertex -3.41953 -2.1701 0
      vertex -3.41953 -2.1701 3
    endloop
  endfacet
  facet normal 0.890997 -0.454008 0
    outer loop
      vertex 3.54904 -1.9511 3
      vertex 3.66455 -1.72441 0
      vertex 3.66455 -1.72441 3
    endloop
  endfacet
  facet normal 0.890997 -0.454008 0
    outer loop
      vertex 3.66455 -1.72441 0
      vertex 3.54904 -1.9511 3
      vertex 3.54904 -1.9511 0
    endloop
  endfacet
  facet normal -0.79016 0.612901 0
    outer loop
      vertex -3.27652 2.38053 0
      vertex -3.12058 2.58157 3
      vertex -3.12058 2.58157 0
    endloop
  endfacet
  facet normal -0.79016 0.612901 0
    outer loop
      vertex -3.12058 2.58157 3
      vertex -3.27652 2.38053 0
      vertex -3.27652 2.38053 3
    endloop
  endfacet
  facet normal -0.99556 -0.0941328 0
    outer loop
      vertex -4.01806 -0.507599 0
      vertex -4.04201 -0.254301 3
      vertex -4.04201 -0.254301 0
    endloop
  endfacet
  facet normal -0.99556 -0.0941328 0
    outer loop
      vertex -4.04201 -0.254301 3
      vertex -4.01806 -0.507599 0
      vertex -4.01806 -0.507599 3
    endloop
  endfacet
  facet normal -0.987689 0.15643 0
    outer loop
      vertex -4.01806 0.507599 0
      vertex -3.97826 0.758894 3
      vertex -3.97826 0.758894 0
    endloop
  endfacet
  facet normal -0.987689 0.15643 0
    outer loop
      vertex -3.97826 0.758894 3
      vertex -4.01806 0.507599 0
      vertex -4.01806 0.507599 3
    endloop
  endfacet
  facet normal 0.278975 -0.960298 0
    outer loop
      vertex 1.00719 -3.92276 0
      vertex 1.25152 -3.85178 3
      vertex 1.00719 -3.92276 3
    endloop
  endfacet
  facet normal 0.278975 -0.960298 0
    outer loop
      vertex 1.25152 -3.85178 3
      vertex 1.00719 -3.92276 0
      vertex 1.25152 -3.85178 0
    endloop
  endfacet
  facet normal -0.79016 -0.612901 0
    outer loop
      vertex -3.12058 -2.58157 0
      vertex -3.27652 -2.38053 3
      vertex -3.27652 -2.38053 0
    endloop
  endfacet
  facet normal -0.79016 -0.612901 0
    outer loop
      vertex -3.27652 -2.38053 3
      vertex -3.12058 -2.58157 0
      vertex -3.12058 -2.58157 3
    endloop
  endfacet
  facet normal -0.397119 -0.917767 0
    outer loop
      vertex -1.72441 -3.66455 0
      vertex -1.4909 -3.76559 3
      vertex -1.72441 -3.66455 3
    endloop
  endfacet
  facet normal -0.397119 -0.917767 -0
    outer loop
      vertex -1.4909 -3.76559 3
      vertex -1.72441 -3.66455 0
      vertex -1.4909 -3.76559 0
    endloop
  endfacet
  facet normal 0.917767 -0.397119 0
    outer loop
      vertex 3.66455 -1.72441 3
      vertex 3.76559 -1.4909 0
      vertex 3.76559 -1.4909 3
    endloop
  endfacet
  facet normal 0.917767 -0.397119 0
    outer loop
      vertex 3.76559 -1.4909 0
      vertex 3.66455 -1.72441 3
      vertex 3.66455 -1.72441 0
    endloop
  endfacet
  facet normal -0.0941328 -0.99556 0
    outer loop
      vertex -0.507599 -4.01806 0
      vertex -0.254301 -4.04201 3
      vertex -0.507599 -4.01806 3
    endloop
  endfacet
  facet normal -0.0941328 -0.99556 -0
    outer loop
      vertex -0.254301 -4.04201 3
      vertex -0.507599 -4.01806 0
      vertex -0.254301 -4.04201 0
    endloop
  endfacet
  facet normal -0.031404 -0.999507 0
    outer loop
      vertex -0.254301 -4.04201 0
      vertex 0 -4.05 3
      vertex -0.254301 -4.04201 3
    endloop
  endfacet
  facet normal -0.031404 -0.999507 -0
    outer loop
      vertex 0 -4.05 3
      vertex -0.254301 -4.04201 0
      vertex 0 -4.05 0
    endloop
  endfacet
  facet normal -0.99556 0.0941328 0
    outer loop
      vertex -4.04201 0.254301 0
      vertex -4.01806 0.507599 3
      vertex -4.01806 0.507599 0
    endloop
  endfacet
  facet normal -0.99556 0.0941328 0
    outer loop
      vertex -4.01806 0.507599 3
      vertex -4.04201 0.254301 0
      vertex -4.04201 0.254301 3
    endloop
  endfacet
  facet normal 0 0 1
    outer loop
      vertex 4.04201 0.254301 3
      vertex 4.04201 -0.254301 3
      vertex 4.05 0 3
    endloop
  endfacet
  facet normal 0 0 1
    outer loop
      vertex 4.01806 0.507599 3
      vertex 4.04201 -0.254301 3
      vertex 4.04201 0.254301 3
    endloop
  endfacet
  facet normal 0 0 1
    outer loop
      vertex 4.01806 0.507599 3
      vertex 4.01806 -0.507599 3
      vertex 4.04201 -0.254301 3
    endloop
  endfacet
  facet normal 0 0 1
    outer loop
      vertex 3.97826 0.758894 3
      vertex 4.01806 -0.507599 3
      vertex 4.01806 0.507599 3
    endloop
  endfacet
  facet normal 0 0 1
    outer loop
      vertex 3.97826 0.758894 3
      vertex 3.97826 -0.758894 3
      vertex 4.01806 -0.507599 3
    endloop
  endfacet
  facet normal 0 0 1
    outer loop
      vertex 3.92276 1.00719 3
      vertex 3.97826 -0.758894 3
      vertex 3.97826 0.758894 3
    endloop
  endfacet
  facet normal 0 0 1
    outer loop
      vertex 3.92276 1.00719 3
      vertex 3.92276 -1.00719 3
      vertex 3.97826 -0.758894 3
    endloop
  endfacet
  facet normal 0 0 1
    outer loop
      vertex 3.85178 1.25152 3
      vertex 3.92276 -1.00719 3
      vertex 3.92276 1.00719 3
    endloop
  endfacet
  facet normal 0 0 1
    outer loop
      vertex 3.85178 1.25152 3
      vertex 3.85178 -1.25152 3
      vertex 3.92276 -1.00719 3
    endloop
  endfacet
  facet normal 0 0 1
    outer loop
      vertex 3.76559 1.4909 3
      vertex 3.85178 -1.25152 3
      vertex 3.85178 1.25152 3
    endloop
  endfacet
  facet normal 0 0 1
    outer loop
      vertex 3.76559 1.4909 3
      vertex 3.76559 -1.4909 3
      vertex 3.85178 -1.25152 3
    endloop
  endfacet
  facet normal 0 0 1
    outer loop
      vertex 3.66455 1.72441 3
      vertex 3.76559 -1.4909 3
      vertex 3.76559 1.4909 3
    endloop
  endfacet
  facet normal 0 0 1
    outer loop
      vertex 3.66455 1.72441 3
      vertex 3.66455 -1.72441 3
      vertex 3.76559 -1.4909 3
    endloop
  endfacet
  facet normal 0 0 1
    outer loop
      vertex 3.54904 1.9511 3
      vertex 3.66455 -1.72441 3
      vertex 3.66455 1.72441 3
    endloop
  endfacet
  facet normal 0 0 1
    outer loop
      vertex 3.54904 1.9511 3
      vertex 3.54904 -1.9511 3
      vertex 3.66455 -1.72441 3
    endloop
  endfacet
  facet normal 0 0 1
    outer loop
      vertex 3.41953 2.1701 3
      vertex 3.54904 -1.9511 3
      vertex 3.54904 1.9511 3
    endloop
  endfacet
  facet normal 0 0 1
    outer loop
      vertex 3.41953 2.1701 3
      vertex 3.41953 -2.1701 3
      vertex 3.54904 -1.9511 3
    endloop
  endfacet
  facet normal 0 0 1
    outer loop
      vertex 3.27652 2.38053 3
      vertex 3.41953 -2.1701 3
      vertex 3.41953 2.1701 3
    endloop
  endfacet
  facet normal 0 0 1
    outer loop
      vertex 3.27652 2.38053 3
      vertex 3.27652 -2.38053 3
      vertex 3.41953 -2.1701 3
    endloop
  endfacet
  facet normal 0 0 1
    outer loop
      vertex 3.12058 2.58157 3
      vertex 3.27652 -2.38053 3
      vertex 3.27652 2.38053 3
    endloop
  endfacet
  facet normal 0 0 1
    outer loop
      vertex 3.12058 2.58157 3
      vertex 3.12058 -2.58157 3
      vertex 3.27652 -2.38053 3
    endloop
  endfacet
  facet normal 0 0 1
    outer loop
      vertex 2.95232 2.77242 3
      vertex 3.12058 -2.58157 3
      vertex 3.12058 2.58157 3
    endloop
  endfacet
  facet normal 0 0 1
    outer loop
      vertex 2.95232 2.77242 3
      vertex 2.95232 -2.77242 3
      vertex 3.12058 -2.58157 3
    endloop
  endfacet
  facet normal 0 0 1
    outer loop
      vertex 2.77242 2.95232 3
      vertex 2.95232 -2.77242 3
      vertex 2.95232 2.77242 3
    endloop
  endfacet
  facet normal 0 0 1
    outer loop
      vertex 2.77242 2.95232 3
      vertex 2.77242 -2.95232 3
      vertex 2.95232 -2.77242 3
    endloop
  endfacet
  facet normal 0 0 1
    outer loop
      vertex 2.58157 3.12058 3
      vertex 2.77242 -2.95232 3
      vertex 2.77242 2.95232 3
    endloop
  endfacet
  facet normal 0 0 1
    outer loop
      vertex 2.58157 3.12058 3
      vertex 2.58157 -3.12058 3
      vertex 2.77242 -2.95232 3
    endloop
  endfacet
  facet normal 0 0 1
    outer loop
      vertex 2.38053 3.27652 3
      vertex 2.58157 -3.12058 3
      vertex 2.58157 3.12058 3
    endloop
  endfacet
  facet normal 0 0 1
    outer loop
      vertex 2.38053 3.27652 3
      vertex 2.38053 -3.27652 3
      vertex 2.58157 -3.12058 3
    endloop
  endfacet
  facet normal 0 0 1
    outer loop
      vertex 2.1701 3.41953 3
      vertex 2.38053 -3.27652 3
      vertex 2.38053 3.27652 3
    endloop
  endfacet
  facet normal 0 0 1
    outer loop
      vertex 2.1701 3.41953 3
      vertex 2.1701 -3.41953 3
      vertex 2.38053 -3.27652 3
    endloop
  endfacet
  facet normal 0 0 1
    outer loop
      vertex 1.9511 3.54904 3
      vertex 2.1701 -3.41953 3
      vertex 2.1701 3.41953 3
    endloop
  endfacet
  facet normal 0 0 1
    outer loop
      vertex 1.9511 3.54904 3
      vertex 1.9511 -3.54904 3
      vertex 2.1701 -3.41953 3
    endloop
  endfacet
  facet normal 0 0 1
    outer loop
      vertex 1.72441 3.66455 3
      vertex 1.9511 -3.54904 3
      vertex 1.9511 3.54904 3
    endloop
  endfacet
  facet normal 0 0 1
    outer loop
      vertex 1.72441 3.66455 3
      vertex 1.72441 -3.66455 3
      vertex 1.9511 -3.54904 3
    endloop
  endfacet
  facet normal 0 0 1
    outer loop
      vertex 1.4909 3.76559 3
      vertex 1.72441 -3.66455 3
      vertex 1.72441 3.66455 3
    endloop
  endfacet
  facet normal 0 0 1
    outer loop
      vertex 1.4909 3.76559 3
      vertex 1.4909 -3.76559 3
      vertex 1.72441 -3.66455 3
    endloop
  endfacet
  facet normal 0 0 1
    outer loop
      vertex 1.25152 3.85178 3
      vertex 1.4909 -3.76559 3
      vertex 1.4909 3.76559 3
    endloop
  endfacet
  facet normal 0 0 1
    outer loop
      vertex 1.25152 3.85178 3
      vertex 1.25152 -3.85178 3
      vertex 1.4909 -3.76559 3
    endloop
  endfacet
  facet normal 0 0 1
    outer loop
      vertex 1.00719 3.92276 3
      vertex 1.25152 -3.85178 3
      vertex 1.25152 3.85178 3
    endloop
  endfacet
  facet normal 0 0 1
    outer loop
      vertex 1.00719 3.92276 3
      vertex 1.00719 -3.92276 3
      vertex 1.25152 -3.85178 3
    endloop
  endfacet
  facet normal 0 0 1
    outer loop
      vertex 0.758894 3.97826 3
      vertex 1.00719 -3.92276 3
      vertex 1.00719 3.92276 3
    endloop
  endfacet
  facet normal 0 0 1
    outer loop
      vertex 0.758894 3.97826 3
      vertex 0.758894 -3.97826 3
      vertex 1.00719 -3.92276 3
    endloop
  endfacet
  facet normal 0 0 1
    outer loop
      vertex 0.507599 4.01806 3
      vertex 0.758894 -3.97826 3
      vertex 0.758894 3.97826 3
    endloop
  endfacet
  facet normal 0 0 1
    outer loop
      vertex 0.507599 4.01806 3
      vertex 0.507599 -4.01806 3
      vertex 0.758894 -3.97826 3
    endloop
  endfacet
  facet normal 0 0 1
    outer loop
      vertex 0.254301 4.04201 3
      vertex 0.507599 -4.01806 3
      vertex 0.507599 4.01806 3
    endloop
  endfacet
  facet normal 0 0 1
    outer loop
      vertex 0.254301 4.04201 3
      vertex 0.254301 -4.04201 3
      vertex 0.507599 -4.01806 3
    endloop
  endfacet
  facet normal 0 0 1
    outer loop
      vertex 0 4.05 3
      vertex 0.254301 -4.04201 3
      vertex 0.254301 4.04201 3
    endloop
  endfacet
  facet normal 0 0 1
    outer loop
      vertex 0 4.05 3
      vertex 0 -4.05 3
      vertex 0.254301 -4.04201 3
    endloop
  endfacet
  facet normal -0 0 1
    outer loop
      vertex -0.254301 4.04201 3
      vertex 0 -4.05 3
      vertex 0 4.05 3
    endloop
  endfacet
  facet normal 0 0 1
    outer loop
      vertex -0.254301 4.04201 3
      vertex -0.254301 -4.04201 3
      vertex 0 -4.05 3
    endloop
  endfacet
  facet normal -0 0 1
    outer loop
      vertex -0.507599 4.01806 3
      vertex -0.254301 -4.04201 3
      vertex -0.254301 4.04201 3
    endloop
  endfacet
  facet normal 0 0 1
    outer loop
      vertex -0.507599 4.01806 3
      vertex -0.507599 -4.01806 3
      vertex -0.254301 -4.04201 3
    endloop
  endfacet
  facet normal -0 0 1
    outer loop
      vertex -0.758894 3.97826 3
      vertex -0.507599 -4.01806 3
      vertex -0.507599 4.01806 3
    endloop
  endfacet
  facet normal 0 0 1
    outer loop
      vertex -0.758894 3.97826 3
      vertex -0.758894 -3.97826 3
      vertex -0.507599 -4.01806 3
    endloop
  endfacet
  facet normal -0 0 1
    outer loop
      vertex -1.00719 3.92276 3
      vertex -0.758894 -3.97826 3
      vertex -0.758894 3.97826 3
    endloop
  endfacet
  facet normal 0 0 1
    outer loop
      vertex -1.00719 3.92276 3
      vertex -1.00719 -3.92276 3
      vertex -0.758894 -3.97826 3
    endloop
  endfacet
  facet normal -0 0 1
    outer loop
      vertex -1.25152 3.85178 3
      vertex -1.00719 -3.92276 3
      vertex -1.00719 3.92276 3
    endloop
  endfacet
  facet normal 0 0 1
    outer loop
      vertex -1.25152 3.85178 3
      vertex -1.25152 -3.85178 3
      vertex -1.00719 -3.92276 3
    endloop
  endfacet
  facet normal -0 0 1
    outer loop
      vertex -1.4909 3.76559 3
      vertex -1.25152 -3.85178 3
      vertex -1.25152 3.85178 3
    endloop
  endfacet
  facet normal 0 0 1
    outer loop
      vertex -1.4909 3.76559 3
      vertex -1.4909 -3.76559 3
      vertex -1.25152 -3.85178 3
    endloop
  endfacet
  facet normal -0 0 1
    outer loop
      vertex -1.72441 3.66455 3
      vertex -1.4909 -3.76559 3
      vertex -1.4909 3.76559 3
    endloop
  endfacet
  facet normal 0 0 1
    outer loop
      vertex -1.72441 3.66455 3
      vertex -1.72441 -3.66455 3
      vertex -1.4909 -3.76559 3
    endloop
  endfacet
  facet normal -0 0 1
    outer loop
      vertex -1.9511 3.54904 3
      vertex -1.72441 -3.66455 3
      vertex -1.72441 3.66455 3
    endloop
  endfacet
  facet normal 0 0 1
    outer loop
      vertex -1.9511 3.54904 3
      vertex -1.9511 -3.54904 3
      vertex -1.72441 -3.66455 3
    endloop
  endfacet
  facet normal -0 0 1
    outer loop
      vertex -2.1701 3.41953 3
      vertex -1.9511 -3.54904 3
      vertex -1.9511 3.54904 3
    endloop
  endfacet
  facet normal 0 0 1
    outer loop
      vertex -2.1701 3.41953 3
      vertex -2.1701 -3.41953 3
      vertex -1.9511 -3.54904 3
    endloop
  endfacet
  facet normal -0 0 1
    outer loop
      vertex -2.38053 3.27652 3
      vertex -2.1701 -3.41953 3
      vertex -2.1701 3.41953 3
    endloop
  endfacet
  facet normal 0 0 1
    outer loop
      vertex -2.38053 3.27652 3
      vertex -2.38053 -3.27652 3
      vertex -2.1701 -3.41953 3
    endloop
  endfacet
  facet normal -0 0 1
    outer loop
      vertex -2.58157 3.12058 3
      vertex -2.38053 -3.27652 3
      vertex -2.38053 3.27652 3
    endloop
  endfacet
  facet normal 0 0 1
    outer loop
      vertex -2.58157 3.12058 3
      vertex -2.58157 -3.12058 3
      vertex -2.38053 -3.27652 3
    endloop
  endfacet
  facet normal -0 0 1
    outer loop
      vertex -2.77242 2.95232 3
      vertex -2.58157 -3.12058 3
      vertex -2.58157 3.12058 3
    endloop
  endfacet
  facet normal 0 0 1
    outer loop
      vertex -2.77242 2.95232 3
      vertex -2.77242 -2.95232 3
      vertex -2.58157 -3.12058 3
    endloop
  endfacet
  facet normal -0 0 1
    outer loop
      vertex -2.95232 2.77242 3
      vertex -2.77242 -2.95232 3
      vertex -2.77242 2.95232 3
    endloop
  endfacet
  facet normal 0 0 1
    outer loop
      vertex -2.95232 2.77242 3
      vertex -2.95232 -2.77242 3
      vertex -2.77242 -2.95232 3
    endloop
  endfacet
  facet normal -0 0 1
    outer loop
      vertex -3.12058 2.58157 3
      vertex -2.95232 -2.77242 3
      vertex -2.95232 2.77242 3
    endloop
  endfacet
  facet normal 0 0 1
    outer loop
      vertex -3.12058 2.58157 3
      vertex -3.12058 -2.58157 3
      vertex -2.95232 -2.77242 3
    endloop
  endfacet
  facet normal -0 0 1
    outer loop
      vertex -3.27652 2.38053 3
      vertex -3.12058 -2.58157 3
      vertex -3.12058 2.58157 3
    endloop
  endfacet
  facet normal 0 0 1
    outer loop
      vertex -3.27652 2.38053 3
      vertex -3.27652 -2.38053 3
      vertex -3.12058 -2.58157 3
    endloop
  endfacet
  facet normal -0 0 1
    outer loop
      vertex -3.41953 2.1701 3
      vertex -3.27652 -2.38053 3
      vertex -3.27652 2.38053 3
    endloop
  endfacet
  facet normal 0 0 1
    outer loop
      vertex -3.41953 2.1701 3
      vertex -3.41953 -2.1701 3
      vertex -3.27652 -2.38053 3
    endloop
  endfacet
  facet normal -0 0 1
    outer loop
      vertex -3.54904 1.9511 3
      vertex -3.41953 -2.1701 3
      vertex -3.41953 2.1701 3
    endloop
  endfacet
  facet normal 0 0 1
    outer loop
      vertex -3.54904 1.9511 3
      vertex -3.54904 -1.9511 3
      vertex -3.41953 -2.1701 3
    endloop
  endfacet
  facet normal -0 0 1
    outer loop
      vertex -3.66455 1.72441 3
      vertex -3.54904 -1.9511 3
      vertex -3.54904 1.9511 3
    endloop
  endfacet
  facet normal 0 0 1
    outer loop
      vertex -3.66455 1.72441 3
      vertex -3.66455 -1.72441 3
      vertex -3.54904 -1.9511 3
    endloop
  endfacet
  facet normal -0 0 1
    outer loop
      vertex -3.76559 1.4909 3
      vertex -3.66455 -1.72441 3
      vertex -3.66455 1.72441 3
    endloop
  endfacet
  facet normal 0 0 1
    outer loop
      vertex -3.76559 1.4909 3
      vertex -3.76559 -1.4909 3
      vertex -3.66455 -1.72441 3
    endloop
  endfacet
  facet normal -0 0 1
    outer loop
      vertex -3.85178 1.25152 3
      vertex -3.76559 -1.4909 3
      vertex -3.76559 1.4909 3
    endloop
  endfacet
  facet normal 0 0 1
    outer loop
      vertex -3.85178 1.25152 3
      vertex -3.85178 -1.25152 3
      vertex -3.76559 -1.4909 3
    endloop
  endfacet
  facet normal -0 0 1
    outer loop
      vertex -3.92276 1.00719 3
      vertex -3.85178 -1.25152 3
      vertex -3.85178 1.25152 3
    endloop
  endfacet
  facet normal 0 0 1
    outer loop
      vertex -3.92276 1.00719 3
      vertex -3.92276 -1.00719 3
      vertex -3.85178 -1.25152 3
    endloop
  endfacet
  facet normal -0 0 1
    outer loop
      vertex -3.97826 0.758894 3
      vertex -3.92276 -1.00719 3
      vertex -3.92276 1.00719 3
    endloop
  endfacet
  facet normal 0 0 1
    outer loop
      vertex -3.97826 0.758894 3
      vertex -3.97826 -0.758894 3
      vertex -3.92276 -1.00719 3
    endloop
  endfacet
  facet normal -0 0 1
    outer loop
      vertex -4.01806 0.507599 3
      vertex -3.97826 -0.758894 3
      vertex -3.97826 0.758894 3
    endloop
  endfacet
  facet normal 0 0 1
    outer loop
      vertex -4.01806 0.507599 3
      vertex -4.01806 -0.507599 3
      vertex -3.97826 -0.758894 3
    endloop
  endfacet
  facet normal -0 0 1
    outer loop
      vertex -4.04201 0.254301 3
      vertex -4.01806 -0.507599 3
      vertex -4.01806 0.507599 3
    endloop
  endfacet
  facet normal 0 0 1
    outer loop
      vertex -4.04201 0.254301 3
      vertex -4.04201 -0.254301 3
      vertex -4.01806 -0.507599 3
    endloop
  endfacet
  facet normal 0 -0 1
    outer loop
      vertex -4.04201 -0.254301 3
      vertex -4.04201 0.254301 3
      vertex -4.05 0 3
    endloop
  endfacet
  facet normal -0.454008 -0.890997 0
    outer loop
      vertex -1.9511 -3.54904 0
      vertex -1.72441 -3.66455 3
      vertex -1.9511 -3.54904 3
    endloop
  endfacet
  facet normal -0.454008 -0.890997 -0
    outer loop
      vertex -1.72441 -3.66455 3
      vertex -1.9511 -3.54904 0
      vertex -1.72441 -3.66455 0
    endloop
  endfacet
  facet normal -0.917767 0.397119 0
    outer loop
      vertex -3.76559 1.4909 0
      vertex -3.66455 1.72441 3
      vertex -3.66455 1.72441 0
    endloop
  endfacet
  facet normal -0.917767 0.397119 0
    outer loop
      vertex -3.66455 1.72441 3
      vertex -3.76559 1.4909 0
      vertex -3.76559 1.4909 3
    endloop
  endfacet
  facet normal -0.707107 0.707107 0
    outer loop
      vertex -2.95232 2.77242 0
      vertex -2.77242 2.95232 3
      vertex -2.77242 2.95232 0
    endloop
  endfacet
  facet normal -0.707107 0.707107 0
    outer loop
      vertex -2.77242 2.95232 3
      vertex -2.95232 2.77242 0
      vertex -2.95232 2.77242 3
    endloop
  endfacet
  facet normal -0.562089 -0.827077 0
    outer loop
      vertex -2.38053 -3.27652 0
      vertex -2.1701 -3.41953 3
      vertex -2.38053 -3.27652 3
    endloop
  endfacet
  facet normal -0.562089 -0.827077 -0
    outer loop
      vertex -2.1701 -3.41953 3
      vertex -2.38053 -3.27652 0
      vertex -2.1701 -3.41953 0
    endloop
  endfacet
  facet normal 0 1 -0
    outer loop
      vertex 1.475 -2.55477 0.5
      vertex -1.475 -2.55477 2.5
      vertex 1.475 -2.55477 2.5
    endloop
  endfacet
  facet normal 0 1 0
    outer loop
      vertex -1.475 -2.55477 2.5
      vertex 1.475 -2.55477 0.5
      vertex -1.475 -2.55477 0.5
    endloop
  endfacet
  facet normal -0.866025 0.500001 0
    outer loop
      vertex 1.475 -2.55477 0.5
      vertex 2.95 0 2.5
      vertex 2.95 0 0.5
    endloop
  endfacet
  facet normal -0.866025 0.500001 0
    outer loop
      vertex 2.95 0 2.5
      vertex 1.475 -2.55477 0.5
      vertex 1.475 -2.55477 2.5
    endloop
  endfacet
  facet normal 0 -1 0
    outer loop
      vertex -1.475 2.55477 0.5
      vertex 1.475 2.55477 2.5
      vertex -1.475 2.55477 2.5
    endloop
  endfacet
  facet normal 0 -1 -0
    outer loop
      vertex 1.475 2.55477 2.5
      vertex -1.475 2.55477 0.5
      vertex 1.475 2.55477 0.5
    endloop
  endfacet
  facet normal -0.866025 -0.500001 0
    outer loop
      vertex 2.95 0 0.5
      vertex 1.475 2.55477 2.5
      vertex 1.475 2.55477 0.5
    endloop
  endfacet
  facet normal -0.866025 -0.500001 0
    outer loop
      vertex 1.475 2.55477 2.5
      vertex 2.95 0 0.5
      vertex 2.95 0 2.5
    endloop
  endfacet
  facet normal 0.866025 -0.500001 0
    outer loop
      vertex -2.95 0 2.5
      vertex -1.475 2.55477 0.5
      vertex -1.475 2.55477 2.5
    endloop
  endfacet
  facet normal 0.866025 -0.500001 0
    outer loop
      vertex -1.475 2.55477 0.5
      vertex -2.95 0 2.5
      vertex -2.95 0 0.5
    endloop
  endfacet
  facet normal 0.866025 0.500001 0
    outer loop
      vertex -1.475 -2.55477 2.5
      vertex -2.95 0 0.5
      vertex -2.95 0 2.5
    endloop
  endfacet
  facet normal 0.866025 0.500001 0
    outer loop
      vertex -2.95 0 0.5
      vertex -1.475 -2.55477 2.5
      vertex -1.475 -2.55477 0.5
    endloop
  endfacet
  facet normal 0 0 -1
    outer loop
      vertex 1.475 -2.55477 2.5
      vertex 1.475 2.55477 2.5
      vertex 2.95 0 2.5
    endloop
  endfacet
  facet normal 0 0 -1
    outer loop
      vertex -1.475 -2.55477 2.5
      vertex 1.475 2.55477 2.5
      vertex 1.475 -2.55477 2.5
    endloop
  endfacet
  facet normal 0 0 -1
    outer loop
      vertex -1.475 -2.55477 2.5
      vertex -1.475 2.55477 2.5
      vertex 1.475 2.55477 2.5
    endloop
  endfacet
  facet normal 0 -0 -1
    outer loop
      vertex -1.475 2.55477 2.5
      vertex -1.475 -2.55477 2.5
      vertex -2.95 0 2.5
    endloop
  endfacet
  facet normal 0 0 1
    outer loop
      vertex 1.475 2.55477 0.5
      vertex 1.475 -2.55477 0.5
      vertex 2.95 0 0.5
    endloop
  endfacet
  facet normal -0 0 1
    outer loop
      vertex -1.475 2.55477 0.5
      vertex 1.475 -2.55477 0.5
      vertex 1.475 2.55477 0.5
    endloop
  endfacet
  facet normal 0 0 1
    outer loop
      vertex -1.475 2.55477 0.5
      vertex -1.475 -2.55477 0.5
      vertex 1.475 -2.55477 0.5
    endloop
  endfacet
  facet normal 0 -0 1
    outer loop
      vertex -1.475 -2.55477 0.5
      vertex -1.475 2.55477 0.5
      vertex -2.95 0 0.5
    endloop
  endfacet
endsolid OpenSCAD_Model
