solid OpenSCAD_Model
  facet normal -0.336879 -0.941548 0
    outer loop
      vertex -31.5307 6.30448 5
      vertex -31.1611 6.17224 7.5
      vertex -31.5307 6.30448 7.5
    endloop
  endfacet
  facet normal -0.336879 -0.941548 -0
    outer loop
      vertex -31.1611 6.17224 7.5
      vertex -31.5307 6.30448 5
      vertex -31.1611 6.17224 5
    endloop
  endfacet
  facet normal 0.989176 0.146733 0
    outer loop
      vertex -26.0193 10.3921 7.5
      vertex -26.0769 10.7804 5
      vertex -26.0769 10.7804 7.5
    endloop
  endfacet
  facet normal 0.989176 0.146733 0
    outer loop
      vertex -26.0769 10.7804 5
      vertex -26.0193 10.3921 7.5
      vertex -26.0193 10.3921 5
    endloop
  endfacet
  facet normal 0.998791 0.0491626 0
    outer loop
      vertex -26 10 7.5
      vertex -26.0193 10.3921 5
      vertex -26.0193 10.3921 7.5
    endloop
  endfacet
  facet normal 0.998791 0.0491626 0
    outer loop
      vertex -26.0193 10.3921 5
      vertex -26 10 7.5
      vertex -26 10 5
    endloop
  endfacet
  facet normal 0.970068 0.242835 0
    outer loop
      vertex -26.0769 10.7804 7.5
      vertex -26.1722 11.1611 5
      vertex -26.1722 11.1611 7.5
    endloop
  endfacet
  facet normal 0.970068 0.242835 0
    outer loop
      vertex -26.1722 11.1611 5
      vertex -26.0769 10.7804 7.5
      vertex -26.0769 10.7804 5
    endloop
  endfacet
  facet normal -0.989176 0.146733 0
    outer loop
      vertex -33.9807 10.3921 5
      vertex -33.9231 10.7804 7.5
      vertex -33.9231 10.7804 5
    endloop
  endfacet
  facet normal -0.989176 0.146733 0
    outer loop
      vertex -33.9231 10.7804 7.5
      vertex -33.9807 10.3921 5
      vertex -33.9807 10.3921 7.5
    endloop
  endfacet
  facet normal -0.243027 -0.970019 0
    outer loop
      vertex -31.1611 6.17224 5
      vertex -30.7804 6.07686 7.5
      vertex -31.1611 6.17224 7.5
    endloop
  endfacet
  facet normal -0.243027 -0.970019 -0
    outer loop
      vertex -30.7804 6.07686 7.5
      vertex -31.1611 6.17224 5
      vertex -30.7804 6.07686 5
    endloop
  endfacet
  facet normal 0.337014 0.9415 -0
    outer loop
      vertex -28.4693 13.6955 5
      vertex -28.8389 13.8278 7.5
      vertex -28.4693 13.6955 7.5
    endloop
  endfacet
  facet normal 0.337014 0.9415 0
    outer loop
      vertex -28.8389 13.8278 7.5
      vertex -28.4693 13.6955 5
      vertex -28.8389 13.8278 5
    endloop
  endfacet
  facet normal -0.514084 0.85774 0
    outer loop
      vertex -31.8856 13.5277 5
      vertex -32.2223 13.3259 7.5
      vertex -31.8856 13.5277 7.5
    endloop
  endfacet
  facet normal -0.514084 0.85774 0
    outer loop
      vertex -32.2223 13.3259 7.5
      vertex -31.8856 13.5277 5
      vertex -32.2223 13.3259 5
    endloop
  endfacet
  facet normal -0.904025 -0.42748 0
    outer loop
      vertex -33.5277 8.11441 5
      vertex -33.6955 8.46927 7.5
      vertex -33.6955 8.46927 5
    endloop
  endfacet
  facet normal -0.904025 -0.42748 0
    outer loop
      vertex -33.6955 8.46927 7.5
      vertex -33.5277 8.11441 5
      vertex -33.5277 8.11441 7.5
    endloop
  endfacet
  facet normal -0.242835 0.970068 0
    outer loop
      vertex -30.7804 13.9231 5
      vertex -31.1611 13.8278 7.5
      vertex -30.7804 13.9231 7.5
    endloop
  endfacet
  facet normal -0.242835 0.970068 0
    outer loop
      vertex -31.1611 13.8278 7.5
      vertex -30.7804 13.9231 5
      vertex -31.1611 13.8278 5
    endloop
  endfacet
  facet normal -0.857733 -0.514095 0
    outer loop
      vertex -33.3259 7.77772 5
      vertex -33.5277 8.11441 7.5
      vertex -33.5277 8.11441 5
    endloop
  endfacet
  facet normal -0.857733 -0.514095 0
    outer loop
      vertex -33.5277 8.11441 7.5
      vertex -33.3259 7.77772 5
      vertex -33.3259 7.77772 7.5
    endloop
  endfacet
  facet normal 0.243027 -0.970019 0
    outer loop
      vertex -29.2196 6.07686 5
      vertex -28.8389 6.17224 7.5
      vertex -29.2196 6.07686 7.5
    endloop
  endfacet
  facet normal 0.243027 -0.970019 0
    outer loop
      vertex -28.8389 6.17224 7.5
      vertex -29.2196 6.07686 5
      vertex -28.8389 6.17224 5
    endloop
  endfacet
  facet normal -0.595695 -0.80321 0
    outer loop
      vertex -32.5376 6.90796 5
      vertex -32.2223 6.67412 7.5
      vertex -32.5376 6.90796 7.5
    endloop
  endfacet
  facet normal -0.595695 -0.80321 -0
    outer loop
      vertex -32.2223 6.67412 7.5
      vertex -32.5376 6.90796 5
      vertex -32.2223 6.67412 5
    endloop
  endfacet
  facet normal 0.514102 -0.857729 0
    outer loop
      vertex -28.1144 6.47231 5
      vertex -27.7777 6.67412 7.5
      vertex -28.1144 6.47231 7.5
    endloop
  endfacet
  facet normal 0.514102 -0.857729 0
    outer loop
      vertex -27.7777 6.67412 7.5
      vertex -28.1144 6.47231 5
      vertex -27.7777 6.67412 5
    endloop
  endfacet
  facet normal 0.803128 -0.595806 0
    outer loop
      vertex -26.908 7.46243 7.5
      vertex -26.6741 7.77772 5
      vertex -26.6741 7.77772 7.5
    endloop
  endfacet
  facet normal 0.803128 -0.595806 0
    outer loop
      vertex -26.6741 7.77772 5
      vertex -26.908 7.46243 7.5
      vertex -26.908 7.46243 5
    endloop
  endfacet
  facet normal 0.146733 0.989176 -0
    outer loop
      vertex -29.2196 13.9231 5
      vertex -29.6079 13.9807 7.5
      vertex -29.2196 13.9231 7.5
    endloop
  endfacet
  facet normal 0.146733 0.989176 0
    outer loop
      vertex -29.6079 13.9807 7.5
      vertex -29.2196 13.9231 5
      vertex -29.6079 13.9807 5
    endloop
  endfacet
  facet normal -0.595794 0.803137 0
    outer loop
      vertex -32.2223 13.3259 5
      vertex -32.5376 13.092 7.5
      vertex -32.2223 13.3259 7.5
    endloop
  endfacet
  facet normal -0.595794 0.803137 0
    outer loop
      vertex -32.5376 13.092 7.5
      vertex -32.2223 13.3259 5
      vertex -32.5376 13.092 5
    endloop
  endfacet
  facet normal 0.427503 -0.904014 0
    outer loop
      vertex -28.4693 6.30448 5
      vertex -28.1144 6.47231 7.5
      vertex -28.4693 6.30448 7.5
    endloop
  endfacet
  facet normal 0.427503 -0.904014 0
    outer loop
      vertex -28.1144 6.47231 7.5
      vertex -28.4693 6.30448 5
      vertex -28.1144 6.47231 5
    endloop
  endfacet
  facet normal -0.803137 0.595794 0
    outer loop
      vertex -33.3259 12.2223 5
      vertex -33.092 12.5376 7.5
      vertex -33.092 12.5376 5
    endloop
  endfacet
  facet normal -0.803137 0.595794 0
    outer loop
      vertex -33.092 12.5376 7.5
      vertex -33.3259 12.2223 5
      vertex -33.3259 12.2223 7.5
    endloop
  endfacet
  facet normal 0.989176 -0.146737 0
    outer loop
      vertex -26.0769 9.21964 7.5
      vertex -26.0193 9.60793 5
      vertex -26.0193 9.60793 7.5
    endloop
  endfacet
  facet normal 0.989176 -0.146737 0
    outer loop
      vertex -26.0193 9.60793 5
      vertex -26.0769 9.21964 7.5
      vertex -26.0769 9.21964 5
    endloop
  endfacet
  facet normal -0.9415 0.337014 0
    outer loop
      vertex -33.8278 11.1611 5
      vertex -33.6955 11.5307 7.5
      vertex -33.6955 11.5307 5
    endloop
  endfacet
  facet normal -0.9415 0.337014 0
    outer loop
      vertex -33.6955 11.5307 7.5
      vertex -33.8278 11.1611 5
      vertex -33.8278 11.1611 7.5
    endloop
  endfacet
  facet normal 0.42744 0.904044 -0
    outer loop
      vertex -28.1144 13.5277 5
      vertex -28.4693 13.6955 7.5
      vertex -28.1144 13.5277 7.5
    endloop
  endfacet
  facet normal 0.42744 0.904044 0
    outer loop
      vertex -28.4693 13.6955 7.5
      vertex -28.1144 13.5277 5
      vertex -28.4693 13.6955 5
    endloop
  endfacet
  facet normal -0.941497 -0.337022 0
    outer loop
      vertex -33.6955 8.46927 5
      vertex -33.8278 8.83886 7.5
      vertex -33.8278 8.83886 5
    endloop
  endfacet
  facet normal -0.941497 -0.337022 0
    outer loop
      vertex -33.8278 8.83886 7.5
      vertex -33.6955 8.46927 5
      vertex -33.6955 8.46927 7.5
    endloop
  endfacet
  facet normal 0.97008 -0.242787 0
    outer loop
      vertex -26.1722 8.83886 7.5
      vertex -26.0769 9.21964 5
      vertex -26.0769 9.21964 7.5
    endloop
  endfacet
  facet normal 0.97008 -0.242787 0
    outer loop
      vertex -26.0769 9.21964 5
      vertex -26.1722 8.83886 7.5
      vertex -26.1722 8.83886 5
    endloop
  endfacet
  facet normal -0.0491626 0.998791 0
    outer loop
      vertex -30 14 5
      vertex -30.3921 13.9807 7.5
      vertex -30 14 7.5
    endloop
  endfacet
  facet normal -0.0491626 0.998791 0
    outer loop
      vertex -30.3921 13.9807 7.5
      vertex -30 14 5
      vertex -30.3921 13.9807 5
    endloop
  endfacet
  facet normal 0.671607 0.740908 -0
    outer loop
      vertex -27.1716 12.8284 5
      vertex -27.4624 13.092 7.5
      vertex -27.1716 12.8284 7.5
    endloop
  endfacet
  facet normal 0.671607 0.740908 0
    outer loop
      vertex -27.4624 13.092 7.5
      vertex -27.1716 12.8284 5
      vertex -27.4624 13.092 5
    endloop
  endfacet
  facet normal -0.42744 0.904044 0
    outer loop
      vertex -31.5307 13.6955 5
      vertex -31.8856 13.5277 7.5
      vertex -31.5307 13.6955 7.5
    endloop
  endfacet
  facet normal -0.42744 0.904044 0
    outer loop
      vertex -31.8856 13.5277 7.5
      vertex -31.5307 13.6955 5
      vertex -31.8856 13.5277 5
    endloop
  endfacet
  facet normal -0.671607 0.740908 0
    outer loop
      vertex -32.5376 13.092 5
      vertex -32.8284 12.8284 7.5
      vertex -32.5376 13.092 7.5
    endloop
  endfacet
  facet normal -0.671607 0.740908 0
    outer loop
      vertex -32.8284 12.8284 7.5
      vertex -32.5376 13.092 5
      vertex -32.8284 12.8284 5
    endloop
  endfacet
  facet normal 0.336879 -0.941548 0
    outer loop
      vertex -28.8389 6.17224 5
      vertex -28.4693 6.30448 7.5
      vertex -28.8389 6.17224 7.5
    endloop
  endfacet
  facet normal 0.336879 -0.941548 0
    outer loop
      vertex -28.4693 6.30448 7.5
      vertex -28.8389 6.17224 5
      vertex -28.4693 6.30448 5
    endloop
  endfacet
  facet normal -0.337014 0.9415 0
    outer loop
      vertex -31.1611 13.8278 5
      vertex -31.5307 13.6955 7.5
      vertex -31.1611 13.8278 7.5
    endloop
  endfacet
  facet normal -0.337014 0.9415 0
    outer loop
      vertex -31.5307 13.6955 7.5
      vertex -31.1611 13.8278 5
      vertex -31.5307 13.6955 5
    endloop
  endfacet
  facet normal 0.803137 0.595794 0
    outer loop
      vertex -26.6741 12.2223 7.5
      vertex -26.908 12.5376 5
      vertex -26.908 12.5376 7.5
    endloop
  endfacet
  facet normal 0.803137 0.595794 0
    outer loop
      vertex -26.908 12.5376 5
      vertex -26.6741 12.2223 7.5
      vertex -26.6741 12.2223 5
    endloop
  endfacet
  facet normal -0.85774 0.514084 0
    outer loop
      vertex -33.5277 11.8856 5
      vertex -33.3259 12.2223 7.5
      vertex -33.3259 12.2223 5
    endloop
  endfacet
  facet normal -0.85774 0.514084 0
    outer loop
      vertex -33.3259 12.2223 7.5
      vertex -33.5277 11.8856 5
      vertex -33.5277 11.8856 7.5
    endloop
  endfacet
  facet normal 0.998791 -0.0491664 0
    outer loop
      vertex -26.0193 9.60793 7.5
      vertex -26 10 5
      vertex -26 10 7.5
    endloop
  endfacet
  facet normal 0.998791 -0.0491664 0
    outer loop
      vertex -26 10 5
      vertex -26.0193 9.60793 7.5
      vertex -26.0193 9.60793 5
    endloop
  endfacet
  facet normal 0.904025 -0.42748 0
    outer loop
      vertex -26.4723 8.11441 7.5
      vertex -26.3045 8.46927 5
      vertex -26.3045 8.46927 7.5
    endloop
  endfacet
  facet normal 0.904025 -0.42748 0
    outer loop
      vertex -26.3045 8.46927 5
      vertex -26.4723 8.11441 7.5
      vertex -26.4723 8.11441 5
    endloop
  endfacet
  facet normal 0.85774 0.514084 0
    outer loop
      vertex -26.4723 11.8856 7.5
      vertex -26.6741 12.2223 5
      vertex -26.6741 12.2223 7.5
    endloop
  endfacet
  facet normal 0.85774 0.514084 0
    outer loop
      vertex -26.6741 12.2223 5
      vertex -26.4723 11.8856 7.5
      vertex -26.4723 11.8856 5
    endloop
  endfacet
  facet normal 0 0 1
    outer loop
      vertex -26.0193 10.3921 7.5
      vertex -26.0193 9.60793 7.5
      vertex -26 10 7.5
    endloop
  endfacet
  facet normal 0 0 1
    outer loop
      vertex -26.0769 10.7804 7.5
      vertex -26.0193 9.60793 7.5
      vertex -26.0193 10.3921 7.5
    endloop
  endfacet
  facet normal 0 0 1
    outer loop
      vertex -26.0769 10.7804 7.5
      vertex -26.0769 9.21964 7.5
      vertex -26.0193 9.60793 7.5
    endloop
  endfacet
  facet normal 0 0 1
    outer loop
      vertex -26.1722 11.1611 7.5
      vertex -26.0769 9.21964 7.5
      vertex -26.0769 10.7804 7.5
    endloop
  endfacet
  facet normal 0 0 1
    outer loop
      vertex -26.1722 11.1611 7.5
      vertex -26.1722 8.83886 7.5
      vertex -26.0769 9.21964 7.5
    endloop
  endfacet
  facet normal 0 0 1
    outer loop
      vertex -26.3045 11.5307 7.5
      vertex -26.1722 8.83886 7.5
      vertex -26.1722 11.1611 7.5
    endloop
  endfacet
  facet normal 0 0 1
    outer loop
      vertex -26.3045 11.5307 7.5
      vertex -26.3045 8.46927 7.5
      vertex -26.1722 8.83886 7.5
    endloop
  endfacet
  facet normal 0 0 1
    outer loop
      vertex -26.4723 11.8856 7.5
      vertex -26.3045 8.46927 7.5
      vertex -26.3045 11.5307 7.5
    endloop
  endfacet
  facet normal 0 0 1
    outer loop
      vertex -26.4723 11.8856 7.5
      vertex -26.4723 8.11441 7.5
      vertex -26.3045 8.46927 7.5
    endloop
  endfacet
  facet normal 0 0 1
    outer loop
      vertex -26.6741 12.2223 7.5
      vertex -26.4723 8.11441 7.5
      vertex -26.4723 11.8856 7.5
    endloop
  endfacet
  facet normal 0 0 1
    outer loop
      vertex -26.6741 12.2223 7.5
      vertex -26.6741 7.77772 7.5
      vertex -26.4723 8.11441 7.5
    endloop
  endfacet
  facet normal 0 0 1
    outer loop
      vertex -26.908 12.5376 7.5
      vertex -26.6741 7.77772 7.5
      vertex -26.6741 12.2223 7.5
    endloop
  endfacet
  facet normal 0 0 1
    outer loop
      vertex -26.908 12.5376 7.5
      vertex -26.908 7.46243 7.5
      vertex -26.6741 7.77772 7.5
    endloop
  endfacet
  facet normal 0 0 1
    outer loop
      vertex -27.1716 12.8284 7.5
      vertex -26.908 7.46243 7.5
      vertex -26.908 12.5376 7.5
    endloop
  endfacet
  facet normal 0 0 1
    outer loop
      vertex -27.1716 12.8284 7.5
      vertex -27.1716 7.17157 7.5
      vertex -26.908 7.46243 7.5
    endloop
  endfacet
  facet normal 0 0 1
    outer loop
      vertex -27.4624 13.092 7.5
      vertex -27.1716 7.17157 7.5
      vertex -27.1716 12.8284 7.5
    endloop
  endfacet
  facet normal 0 0 1
    outer loop
      vertex -27.4624 13.092 7.5
      vertex -27.4624 6.90796 7.5
      vertex -27.1716 7.17157 7.5
    endloop
  endfacet
  facet normal 0 0 1
    outer loop
      vertex -27.7777 13.3259 7.5
      vertex -27.4624 6.90796 7.5
      vertex -27.4624 13.092 7.5
    endloop
  endfacet
  facet normal 0 0 1
    outer loop
      vertex -27.7777 13.3259 7.5
      vertex -27.7777 6.67412 7.5
      vertex -27.4624 6.90796 7.5
    endloop
  endfacet
  facet normal 0 0 1
    outer loop
      vertex -28.1144 13.5277 7.5
      vertex -27.7777 6.67412 7.5
      vertex -27.7777 13.3259 7.5
    endloop
  endfacet
  facet normal 0 0 1
    outer loop
      vertex -28.1144 13.5277 7.5
      vertex -28.1144 6.47231 7.5
      vertex -27.7777 6.67412 7.5
    endloop
  endfacet
  facet normal 0 0 1
    outer loop
      vertex -28.4693 13.6955 7.5
      vertex -28.1144 6.47231 7.5
      vertex -28.1144 13.5277 7.5
    endloop
  endfacet
  facet normal 0 0 1
    outer loop
      vertex -28.4693 13.6955 7.5
      vertex -28.4693 6.30448 7.5
      vertex -28.1144 6.47231 7.5
    endloop
  endfacet
  facet normal 0 0 1
    outer loop
      vertex -28.8389 13.8278 7.5
      vertex -28.4693 6.30448 7.5
      vertex -28.4693 13.6955 7.5
    endloop
  endfacet
  facet normal 0 0 1
    outer loop
      vertex -28.8389 13.8278 7.5
      vertex -28.8389 6.17224 7.5
      vertex -28.4693 6.30448 7.5
    endloop
  endfacet
  facet normal 0 0 1
    outer loop
      vertex -29.2196 13.9231 7.5
      vertex -28.8389 6.17224 7.5
      vertex -28.8389 13.8278 7.5
    endloop
  endfacet
  facet normal 0 0 1
    outer loop
      vertex -29.2196 13.9231 7.5
      vertex -29.2196 6.07686 7.5
      vertex -28.8389 6.17224 7.5
    endloop
  endfacet
  facet normal 0 0 1
    outer loop
      vertex -29.6079 13.9807 7.5
      vertex -29.2196 6.07686 7.5
      vertex -29.2196 13.9231 7.5
    endloop
  endfacet
  facet normal 0 0 1
    outer loop
      vertex -29.6079 13.9807 7.5
      vertex -29.6079 6.01926 7.5
      vertex -29.2196 6.07686 7.5
    endloop
  endfacet
  facet normal 0 0 1
    outer loop
      vertex -30 14 7.5
      vertex -29.6079 6.01926 7.5
      vertex -29.6079 13.9807 7.5
    endloop
  endfacet
  facet normal 0 0 1
    outer loop
      vertex -30 14 7.5
      vertex -30 6 7.5
      vertex -29.6079 6.01926 7.5
    endloop
  endfacet
  facet normal -0 0 1
    outer loop
      vertex -30.3921 13.9807 7.5
      vertex -30 6 7.5
      vertex -30 14 7.5
    endloop
  endfacet
  facet normal 0 0 1
    outer loop
      vertex -30.3921 13.9807 7.5
      vertex -30.3921 6.01926 7.5
      vertex -30 6 7.5
    endloop
  endfacet
  facet normal -0 0 1
    outer loop
      vertex -30.7804 13.9231 7.5
      vertex -30.3921 6.01926 7.5
      vertex -30.3921 13.9807 7.5
    endloop
  endfacet
  facet normal 0 0 1
    outer loop
      vertex -30.7804 13.9231 7.5
      vertex -30.7804 6.07686 7.5
      vertex -30.3921 6.01926 7.5
    endloop
  endfacet
  facet normal -0 0 1
    outer loop
      vertex -31.1611 13.8278 7.5
      vertex -30.7804 6.07686 7.5
      vertex -30.7804 13.9231 7.5
    endloop
  endfacet
  facet normal 0 0 1
    outer loop
      vertex -31.1611 13.8278 7.5
      vertex -31.1611 6.17224 7.5
      vertex -30.7804 6.07686 7.5
    endloop
  endfacet
  facet normal -0 0 1
    outer loop
      vertex -31.5307 13.6955 7.5
      vertex -31.1611 6.17224 7.5
      vertex -31.1611 13.8278 7.5
    endloop
  endfacet
  facet normal 0 0 1
    outer loop
      vertex -31.5307 13.6955 7.5
      vertex -31.5307 6.30448 7.5
      vertex -31.1611 6.17224 7.5
    endloop
  endfacet
  facet normal -0 0 1
    outer loop
      vertex -31.8856 13.5277 7.5
      vertex -31.5307 6.30448 7.5
      vertex -31.5307 13.6955 7.5
    endloop
  endfacet
  facet normal 0 0 1
    outer loop
      vertex -31.8856 13.5277 7.5
      vertex -31.8856 6.47231 7.5
      vertex -31.5307 6.30448 7.5
    endloop
  endfacet
  facet normal -0 0 1
    outer loop
      vertex -32.2223 13.3259 7.5
      vertex -31.8856 6.47231 7.5
      vertex -31.8856 13.5277 7.5
    endloop
  endfacet
  facet normal 0 0 1
    outer loop
      vertex -32.2223 13.3259 7.5
      vertex -32.2223 6.67412 7.5
      vertex -31.8856 6.47231 7.5
    endloop
  endfacet
  facet normal -0 0 1
    outer loop
      vertex -32.5376 13.092 7.5
      vertex -32.2223 6.67412 7.5
      vertex -32.2223 13.3259 7.5
    endloop
  endfacet
  facet normal 0 0 1
    outer loop
      vertex -32.5376 13.092 7.5
      vertex -32.5376 6.90796 7.5
      vertex -32.2223 6.67412 7.5
    endloop
  endfacet
  facet normal -0 0 1
    outer loop
      vertex -32.8284 12.8284 7.5
      vertex -32.5376 6.90796 7.5
      vertex -32.5376 13.092 7.5
    endloop
  endfacet
  facet normal 0 0 1
    outer loop
      vertex -32.8284 12.8284 7.5
      vertex -32.8284 7.17157 7.5
      vertex -32.5376 6.90796 7.5
    endloop
  endfacet
  facet normal -0 0 1
    outer loop
      vertex -33.092 12.5376 7.5
      vertex -32.8284 7.17157 7.5
      vertex -32.8284 12.8284 7.5
    endloop
  endfacet
  facet normal 0 0 1
    outer loop
      vertex -33.092 12.5376 7.5
      vertex -33.092 7.46243 7.5
      vertex -32.8284 7.17157 7.5
    endloop
  endfacet
  facet normal -0 0 1
    outer loop
      vertex -33.3259 12.2223 7.5
      vertex -33.092 7.46243 7.5
      vertex -33.092 12.5376 7.5
    endloop
  endfacet
  facet normal 0 0 1
    outer loop
      vertex -33.3259 12.2223 7.5
      vertex -33.3259 7.77772 7.5
      vertex -33.092 7.46243 7.5
    endloop
  endfacet
  facet normal -0 0 1
    outer loop
      vertex -33.5277 11.8856 7.5
      vertex -33.3259 7.77772 7.5
      vertex -33.3259 12.2223 7.5
    endloop
  endfacet
  facet normal 0 0 1
    outer loop
      vertex -33.5277 11.8856 7.5
      vertex -33.5277 8.11441 7.5
      vertex -33.3259 7.77772 7.5
    endloop
  endfacet
  facet normal -0 0 1
    outer loop
      vertex -33.6955 11.5307 7.5
      vertex -33.5277 8.11441 7.5
      vertex -33.5277 11.8856 7.5
    endloop
  endfacet
  facet normal 0 0 1
    outer loop
      vertex -33.6955 11.5307 7.5
      vertex -33.6955 8.46927 7.5
      vertex -33.5277 8.11441 7.5
    endloop
  endfacet
  facet normal -0 0 1
    outer loop
      vertex -33.8278 11.1611 7.5
      vertex -33.6955 8.46927 7.5
      vertex -33.6955 11.5307 7.5
    endloop
  endfacet
  facet normal 0 0 1
    outer loop
      vertex -33.8278 11.1611 7.5
      vertex -33.8278 8.83886 7.5
      vertex -33.6955 8.46927 7.5
    endloop
  endfacet
  facet normal -0 0 1
    outer loop
      vertex -33.9231 10.7804 7.5
      vertex -33.8278 8.83886 7.5
      vertex -33.8278 11.1611 7.5
    endloop
  endfacet
  facet normal 0 0 1
    outer loop
      vertex -33.9231 10.7804 7.5
      vertex -33.9231 9.21964 7.5
      vertex -33.8278 8.83886 7.5
    endloop
  endfacet
  facet normal -0 0 1
    outer loop
      vertex -33.9807 10.3921 7.5
      vertex -33.9231 9.21964 7.5
      vertex -33.9231 10.7804 7.5
    endloop
  endfacet
  facet normal 0 0 1
    outer loop
      vertex -33.9807 10.3921 7.5
      vertex -33.9807 9.60793 7.5
      vertex -33.9231 9.21964 7.5
    endloop
  endfacet
  facet normal 0 -0 1
    outer loop
      vertex -33.9807 9.60793 7.5
      vertex -33.9807 10.3921 7.5
      vertex -34 10 7.5
    endloop
  endfacet
  facet normal -0.671621 -0.740895 0
    outer loop
      vertex -32.8284 7.17157 5
      vertex -32.5376 6.90796 7.5
      vertex -32.8284 7.17157 7.5
    endloop
  endfacet
  facet normal -0.671621 -0.740895 -0
    outer loop
      vertex -32.5376 6.90796 7.5
      vertex -32.8284 7.17157 5
      vertex -32.5376 6.90796 5
    endloop
  endfacet
  facet normal 0.595794 0.803137 -0
    outer loop
      vertex -27.4624 13.092 5
      vertex -27.7777 13.3259 7.5
      vertex -27.4624 13.092 7.5
    endloop
  endfacet
  facet normal 0.595794 0.803137 0
    outer loop
      vertex -27.7777 13.3259 7.5
      vertex -27.4624 13.092 5
      vertex -27.7777 13.3259 5
    endloop
  endfacet
  facet normal -0.514102 -0.857729 0
    outer loop
      vertex -32.2223 6.67412 5
      vertex -31.8856 6.47231 7.5
      vertex -32.2223 6.67412 7.5
    endloop
  endfacet
  facet normal -0.514102 -0.857729 -0
    outer loop
      vertex -31.8856 6.47231 7.5
      vertex -32.2223 6.67412 5
      vertex -31.8856 6.47231 5
    endloop
  endfacet
  facet normal 0.514084 0.85774 -0
    outer loop
      vertex -27.7777 13.3259 5
      vertex -28.1144 13.5277 7.5
      vertex -27.7777 13.3259 7.5
    endloop
  endfacet
  facet normal 0.514084 0.85774 0
    outer loop
      vertex -28.1144 13.5277 7.5
      vertex -27.7777 13.3259 5
      vertex -28.1144 13.5277 5
    endloop
  endfacet
  facet normal 0.146733 -0.989176 0
    outer loop
      vertex -29.6079 6.01926 5
      vertex -29.2196 6.07686 7.5
      vertex -29.6079 6.01926 7.5
    endloop
  endfacet
  facet normal 0.146733 -0.989176 0
    outer loop
      vertex -29.2196 6.07686 7.5
      vertex -29.6079 6.01926 5
      vertex -29.2196 6.07686 5
    endloop
  endfacet
  facet normal 0.9415 0.337014 0
    outer loop
      vertex -26.1722 11.1611 7.5
      vertex -26.3045 11.5307 5
      vertex -26.3045 11.5307 7.5
    endloop
  endfacet
  facet normal 0.9415 0.337014 0
    outer loop
      vertex -26.3045 11.5307 5
      vertex -26.1722 11.1611 7.5
      vertex -26.1722 11.1611 5
    endloop
  endfacet
  facet normal 0.857733 -0.514095 0
    outer loop
      vertex -26.6741 7.77772 7.5
      vertex -26.4723 8.11441 5
      vertex -26.4723 8.11441 7.5
    endloop
  endfacet
  facet normal 0.857733 -0.514095 0
    outer loop
      vertex -26.4723 8.11441 5
      vertex -26.6741 7.77772 7.5
      vertex -26.6741 7.77772 5
    endloop
  endfacet
  facet normal -0.998791 -0.0491664 0
    outer loop
      vertex -33.9807 9.60793 5
      vertex -34 10 7.5
      vertex -34 10 5
    endloop
  endfacet
  facet normal -0.998791 -0.0491664 0
    outer loop
      vertex -34 10 7.5
      vertex -33.9807 9.60793 5
      vertex -33.9807 9.60793 7.5
    endloop
  endfacet
  facet normal 0.941497 -0.337022 0
    outer loop
      vertex -26.3045 8.46927 7.5
      vertex -26.1722 8.83886 5
      vertex -26.1722 8.83886 7.5
    endloop
  endfacet
  facet normal 0.941497 -0.337022 0
    outer loop
      vertex -26.1722 8.83886 5
      vertex -26.3045 8.46927 7.5
      vertex -26.3045 8.46927 5
    endloop
  endfacet
  facet normal 0.740908 0.671607 0
    outer loop
      vertex -26.908 12.5376 7.5
      vertex -27.1716 12.8284 5
      vertex -27.1716 12.8284 7.5
    endloop
  endfacet
  facet normal 0.740908 0.671607 0
    outer loop
      vertex -27.1716 12.8284 5
      vertex -26.908 12.5376 7.5
      vertex -26.908 12.5376 5
    endloop
  endfacet
  facet normal 0.0491626 0.998791 -0
    outer loop
      vertex -29.6079 13.9807 5
      vertex -30 14 7.5
      vertex -29.6079 13.9807 7.5
    endloop
  endfacet
  facet normal 0.0491626 0.998791 0
    outer loop
      vertex -30 14 7.5
      vertex -29.6079 13.9807 5
      vertex -30 14 5
    endloop
  endfacet
  facet normal 0.904044 0.42744 0
    outer loop
      vertex -26.3045 11.5307 7.5
      vertex -26.4723 11.8856 5
      vertex -26.4723 11.8856 7.5
    endloop
  endfacet
  facet normal 0.904044 0.42744 0
    outer loop
      vertex -26.4723 11.8856 5
      vertex -26.3045 11.5307 7.5
      vertex -26.3045 11.5307 5
    endloop
  endfacet
  facet normal -0.146733 -0.989176 0
    outer loop
      vertex -30.7804 6.07686 5
      vertex -30.3921 6.01926 7.5
      vertex -30.7804 6.07686 7.5
    endloop
  endfacet
  facet normal -0.146733 -0.989176 -0
    outer loop
      vertex -30.3921 6.01926 7.5
      vertex -30.7804 6.07686 5
      vertex -30.3921 6.01926 5
    endloop
  endfacet
  facet normal 0.671621 -0.740895 0
    outer loop
      vertex -27.4624 6.90796 5
      vertex -27.1716 7.17157 7.5
      vertex -27.4624 6.90796 7.5
    endloop
  endfacet
  facet normal 0.671621 -0.740895 0
    outer loop
      vertex -27.1716 7.17157 7.5
      vertex -27.4624 6.90796 5
      vertex -27.1716 7.17157 5
    endloop
  endfacet
  facet normal -0.049061 -0.998796 0
    outer loop
      vertex -30.3921 6.01926 5
      vertex -30 6 7.5
      vertex -30.3921 6.01926 7.5
    endloop
  endfacet
  facet normal -0.049061 -0.998796 -0
    outer loop
      vertex -30 6 7.5
      vertex -30.3921 6.01926 5
      vertex -30 6 5
    endloop
  endfacet
  facet normal -0.740908 0.671607 0
    outer loop
      vertex -33.092 12.5376 5
      vertex -32.8284 12.8284 7.5
      vertex -32.8284 12.8284 5
    endloop
  endfacet
  facet normal -0.740908 0.671607 0
    outer loop
      vertex -32.8284 12.8284 7.5
      vertex -33.092 12.5376 5
      vertex -33.092 12.5376 7.5
    endloop
  endfacet
  facet normal -0.146733 0.989176 0
    outer loop
      vertex -30.3921 13.9807 5
      vertex -30.7804 13.9231 7.5
      vertex -30.3921 13.9807 7.5
    endloop
  endfacet
  facet normal -0.146733 0.989176 0
    outer loop
      vertex -30.7804 13.9231 7.5
      vertex -30.3921 13.9807 5
      vertex -30.7804 13.9231 5
    endloop
  endfacet
  facet normal -0.904044 0.42744 0
    outer loop
      vertex -33.6955 11.5307 5
      vertex -33.5277 11.8856 7.5
      vertex -33.5277 11.8856 5
    endloop
  endfacet
  facet normal -0.904044 0.42744 0
    outer loop
      vertex -33.5277 11.8856 7.5
      vertex -33.6955 11.5307 5
      vertex -33.6955 11.5307 7.5
    endloop
  endfacet
  facet normal -0.970068 0.242835 0
    outer loop
      vertex -33.9231 10.7804 5
      vertex -33.8278 11.1611 7.5
      vertex -33.8278 11.1611 5
    endloop
  endfacet
  facet normal -0.970068 0.242835 0
    outer loop
      vertex -33.8278 11.1611 7.5
      vertex -33.9231 10.7804 5
      vertex -33.9231 10.7804 7.5
    endloop
  endfacet
  facet normal 0.242835 0.970068 -0
    outer loop
      vertex -28.8389 13.8278 5
      vertex -29.2196 13.9231 7.5
      vertex -28.8389 13.8278 7.5
    endloop
  endfacet
  facet normal 0.242835 0.970068 0
    outer loop
      vertex -29.2196 13.9231 7.5
      vertex -28.8389 13.8278 5
      vertex -29.2196 13.9231 5
    endloop
  endfacet
  facet normal -0.97008 -0.242787 0
    outer loop
      vertex -33.8278 8.83886 5
      vertex -33.9231 9.21964 7.5
      vertex -33.9231 9.21964 5
    endloop
  endfacet
  facet normal -0.97008 -0.242787 0
    outer loop
      vertex -33.9231 9.21964 7.5
      vertex -33.8278 8.83886 5
      vertex -33.8278 8.83886 7.5
    endloop
  endfacet
  facet normal -0.427503 -0.904014 0
    outer loop
      vertex -31.8856 6.47231 5
      vertex -31.5307 6.30448 7.5
      vertex -31.8856 6.47231 7.5
    endloop
  endfacet
  facet normal -0.427503 -0.904014 -0
    outer loop
      vertex -31.5307 6.30448 7.5
      vertex -31.8856 6.47231 5
      vertex -31.5307 6.30448 5
    endloop
  endfacet
  facet normal -0.740977 -0.671531 0
    outer loop
      vertex -32.8284 7.17157 5
      vertex -33.092 7.46243 7.5
      vertex -33.092 7.46243 5
    endloop
  endfacet
  facet normal -0.740977 -0.671531 0
    outer loop
      vertex -33.092 7.46243 7.5
      vertex -32.8284 7.17157 5
      vertex -32.8284 7.17157 7.5
    endloop
  endfacet
  facet normal 0.049061 -0.998796 0
    outer loop
      vertex -30 6 5
      vertex -29.6079 6.01926 7.5
      vertex -30 6 7.5
    endloop
  endfacet
  facet normal 0.049061 -0.998796 0
    outer loop
      vertex -29.6079 6.01926 7.5
      vertex -30 6 5
      vertex -29.6079 6.01926 5
    endloop
  endfacet
  facet normal -0.989176 -0.146737 0
    outer loop
      vertex -33.9231 9.21964 5
      vertex -33.9807 9.60793 7.5
      vertex -33.9807 9.60793 5
    endloop
  endfacet
  facet normal -0.989176 -0.146737 0
    outer loop
      vertex -33.9807 9.60793 7.5
      vertex -33.9231 9.21964 5
      vertex -33.9231 9.21964 7.5
    endloop
  endfacet
  facet normal 0.595695 -0.80321 0
    outer loop
      vertex -27.7777 6.67412 5
      vertex -27.4624 6.90796 7.5
      vertex -27.7777 6.67412 7.5
    endloop
  endfacet
  facet normal 0.595695 -0.80321 0
    outer loop
      vertex -27.4624 6.90796 7.5
      vertex -27.7777 6.67412 5
      vertex -27.4624 6.90796 5
    endloop
  endfacet
  facet normal 0 0 -1
    outer loop
      vertex -26 -10 2.5
      vertex -26.0769 -9.21964 2.5
      vertex -26.0193 -9.60793 2.5
    endloop
  endfacet
  facet normal 0 0 -1
    outer loop
      vertex -26 -10 2.5
      vertex -26.1722 -8.83886 2.5
      vertex -26.0769 -9.21964 2.5
    endloop
  endfacet
  facet normal 0 0 -1
    outer loop
      vertex -26 -10 2.5
      vertex -26.3045 -8.46927 2.5
      vertex -26.1722 -8.83886 2.5
    endloop
  endfacet
  facet normal 0 0 -1
    outer loop
      vertex -26 -10 2.5
      vertex -26.4723 -8.11441 2.5
      vertex -26.3045 -8.46927 2.5
    endloop
  endfacet
  facet normal 0 0 -1
    outer loop
      vertex -26 -10 2.5
      vertex -26.6741 -7.77772 2.5
      vertex -26.4723 -8.11441 2.5
    endloop
  endfacet
  facet normal 0 0 -1
    outer loop
      vertex -26 -10 2.5
      vertex -26.908 -7.46243 2.5
      vertex -26.6741 -7.77772 2.5
    endloop
  endfacet
  facet normal 0 0 -1
    outer loop
      vertex -26 -10 2.5
      vertex -27.1716 -7.17157 2.5
      vertex -26.908 -7.46243 2.5
    endloop
  endfacet
  facet normal 0 0 -1
    outer loop
      vertex -26 -10 2.5
      vertex -27.4624 -6.90796 2.5
      vertex -27.1716 -7.17157 2.5
    endloop
  endfacet
  facet normal 0 0 -1
    outer loop
      vertex -26 -10 2.5
      vertex -27.7777 -6.67412 2.5
      vertex -27.4624 -6.90796 2.5
    endloop
  endfacet
  facet normal 0 0 -1
    outer loop
      vertex -26 -10 2.5
      vertex -28.1144 -6.47231 2.5
      vertex -27.7777 -6.67412 2.5
    endloop
  endfacet
  facet normal 0 0 -1
    outer loop
      vertex -26 -10 2.5
      vertex -28.4693 -6.30448 2.5
      vertex -28.1144 -6.47231 2.5
    endloop
  endfacet
  facet normal 0 0 -1
    outer loop
      vertex -26 -10 2.5
      vertex -28.8389 -6.17224 2.5
      vertex -28.4693 -6.30448 2.5
    endloop
  endfacet
  facet normal 0 0 -1
    outer loop
      vertex -26 -10 2.5
      vertex -29.2196 -6.07686 2.5
      vertex -28.8389 -6.17224 2.5
    endloop
  endfacet
  facet normal 0 0 -1
    outer loop
      vertex -26 -10 2.5
      vertex -29.6079 -6.01926 2.5
      vertex -29.2196 -6.07686 2.5
    endloop
  endfacet
  facet normal 0 0 -1
    outer loop
      vertex -26 -10 2.5
      vertex -30 -6 2.5
      vertex -29.6079 -6.01926 2.5
    endloop
  endfacet
  facet normal 0 0 -1
    outer loop
      vertex -26 -10 2.5
      vertex -30.3921 -6.01926 2.5
      vertex -30 -6 2.5
    endloop
  endfacet
  facet normal 0 0 -1
    outer loop
      vertex -26 -10 2.5
      vertex -30.7804 -6.07686 2.5
      vertex -30.3921 -6.01926 2.5
    endloop
  endfacet
  facet normal 0 0 -1
    outer loop
      vertex -26 -10 2.5
      vertex -31.1611 -6.17224 2.5
      vertex -30.7804 -6.07686 2.5
    endloop
  endfacet
  facet normal 0 0 -1
    outer loop
      vertex -26 -10 2.5
      vertex -31.5307 -6.30448 2.5
      vertex -31.1611 -6.17224 2.5
    endloop
  endfacet
  facet normal 0 0 -1
    outer loop
      vertex -26 -10 2.5
      vertex -31.8856 -6.47231 2.5
      vertex -31.5307 -6.30448 2.5
    endloop
  endfacet
  facet normal 0 0 -1
    outer loop
      vertex -26 -10 2.5
      vertex -32.2223 -6.67412 2.5
      vertex -31.8856 -6.47231 2.5
    endloop
  endfacet
  facet normal 0 0 -1
    outer loop
      vertex -26 -10 2.5
      vertex -32.5376 -6.90796 2.5
      vertex -32.2223 -6.67412 2.5
    endloop
  endfacet
  facet normal 0 0 -1
    outer loop
      vertex -26 -10 2.5
      vertex -32.8284 -7.17157 2.5
      vertex -32.5376 -6.90796 2.5
    endloop
  endfacet
  facet normal 0 0 -1
    outer loop
      vertex -26 -10 2.5
      vertex -33.092 -7.46243 2.5
      vertex -32.8284 -7.17157 2.5
    endloop
  endfacet
  facet normal 0 0 -1
    outer loop
      vertex -26 -10 2.5
      vertex -33.3259 -7.77772 2.5
      vertex -33.092 -7.46243 2.5
    endloop
  endfacet
  facet normal 0 0 -1
    outer loop
      vertex -26 -10 2.5
      vertex -33.5277 -8.11441 2.5
      vertex -33.3259 -7.77772 2.5
    endloop
  endfacet
  facet normal 0 0 -1
    outer loop
      vertex -26 -10 2.5
      vertex -33.6955 -8.46927 2.5
      vertex -33.5277 -8.11441 2.5
    endloop
  endfacet
  facet normal 0 0 -1
    outer loop
      vertex -26 -10 2.5
      vertex -33.8278 -8.83886 2.5
      vertex -33.6955 -8.46927 2.5
    endloop
  endfacet
  facet normal 0 0 -1
    outer loop
      vertex -26 -10 2.5
      vertex -33.9231 -9.21964 2.5
      vertex -33.8278 -8.83886 2.5
    endloop
  endfacet
  facet normal 0 0 -1
    outer loop
      vertex -26 -10 2.5
      vertex -33.9807 -9.60793 2.5
      vertex -33.9231 -9.21964 2.5
    endloop
  endfacet
  facet normal 0 -0 -1
    outer loop
      vertex -33.9807 -9.60793 2.5
      vertex -26 -10 2.5
      vertex -34 -10 2.5
    endloop
  endfacet
  facet normal 0 0 -1
    outer loop
      vertex -26.0769 -10.7804 2.5
      vertex -26 -10 2.5
      vertex -26.0193 -10.3921 2.5
    endloop
  endfacet
  facet normal 0 0 -1
    outer loop
      vertex -26.1722 -11.1611 2.5
      vertex -26 -10 2.5
      vertex -26.0769 -10.7804 2.5
    endloop
  endfacet
  facet normal 0 0 -1
    outer loop
      vertex -26.3045 -11.5307 2.5
      vertex -26 -10 2.5
      vertex -26.1722 -11.1611 2.5
    endloop
  endfacet
  facet normal 0 0 -1
    outer loop
      vertex -26.4723 -11.8856 2.5
      vertex -26 -10 2.5
      vertex -26.3045 -11.5307 2.5
    endloop
  endfacet
  facet normal 0 0 -1
    outer loop
      vertex -26.6741 -12.2223 2.5
      vertex -26 -10 2.5
      vertex -26.4723 -11.8856 2.5
    endloop
  endfacet
  facet normal 0 0 -1
    outer loop
      vertex -26.908 -12.5376 2.5
      vertex -26 -10 2.5
      vertex -26.6741 -12.2223 2.5
    endloop
  endfacet
  facet normal 0 0 -1
    outer loop
      vertex -27.1716 -12.8284 2.5
      vertex -26 -10 2.5
      vertex -26.908 -12.5376 2.5
    endloop
  endfacet
  facet normal 0 0 -1
    outer loop
      vertex -27.4624 -13.092 2.5
      vertex -26 -10 2.5
      vertex -27.1716 -12.8284 2.5
    endloop
  endfacet
  facet normal 0 0 -1
    outer loop
      vertex -27.7777 -13.3259 2.5
      vertex -26 -10 2.5
      vertex -27.4624 -13.092 2.5
    endloop
  endfacet
  facet normal 0 0 -1
    outer loop
      vertex -28.1144 -13.5277 2.5
      vertex -26 -10 2.5
      vertex -27.7777 -13.3259 2.5
    endloop
  endfacet
  facet normal 0 0 -1
    outer loop
      vertex -28.4693 -13.6955 2.5
      vertex -26 -10 2.5
      vertex -28.1144 -13.5277 2.5
    endloop
  endfacet
  facet normal 0 0 -1
    outer loop
      vertex -28.8389 -13.8278 2.5
      vertex -26 -10 2.5
      vertex -28.4693 -13.6955 2.5
    endloop
  endfacet
  facet normal 0 0 -1
    outer loop
      vertex -29.2196 -13.9231 2.5
      vertex -26 -10 2.5
      vertex -28.8389 -13.8278 2.5
    endloop
  endfacet
  facet normal 0 0 -1
    outer loop
      vertex -29.6079 -13.9807 2.5
      vertex -26 -10 2.5
      vertex -29.2196 -13.9231 2.5
    endloop
  endfacet
  facet normal 0 0 -1
    outer loop
      vertex -30 -14 2.5
      vertex -26 -10 2.5
      vertex -29.6079 -13.9807 2.5
    endloop
  endfacet
  facet normal 0 0 -1
    outer loop
      vertex -30.3921 -13.9807 2.5
      vertex -26 -10 2.5
      vertex -30 -14 2.5
    endloop
  endfacet
  facet normal 0 0 -1
    outer loop
      vertex -30.7804 -13.9231 2.5
      vertex -26 -10 2.5
      vertex -30.3921 -13.9807 2.5
    endloop
  endfacet
  facet normal 0 0 -1
    outer loop
      vertex -31.1611 -13.8278 2.5
      vertex -26 -10 2.5
      vertex -30.7804 -13.9231 2.5
    endloop
  endfacet
  facet normal 0 0 -1
    outer loop
      vertex -31.5307 -13.6955 2.5
      vertex -26 -10 2.5
      vertex -31.1611 -13.8278 2.5
    endloop
  endfacet
  facet normal 0 0 -1
    outer loop
      vertex -31.8856 -13.5277 2.5
      vertex -26 -10 2.5
      vertex -31.5307 -13.6955 2.5
    endloop
  endfacet
  facet normal 0 0 -1
    outer loop
      vertex -32.2223 -13.3259 2.5
      vertex -26 -10 2.5
      vertex -31.8856 -13.5277 2.5
    endloop
  endfacet
  facet normal 0 0 -1
    outer loop
      vertex -32.5376 -13.092 2.5
      vertex -26 -10 2.5
      vertex -32.2223 -13.3259 2.5
    endloop
  endfacet
  facet normal 0 0 -1
    outer loop
      vertex -32.8284 -12.8284 2.5
      vertex -26 -10 2.5
      vertex -32.5376 -13.092 2.5
    endloop
  endfacet
  facet normal 0 0 -1
    outer loop
      vertex -33.092 -12.5376 2.5
      vertex -26 -10 2.5
      vertex -32.8284 -12.8284 2.5
    endloop
  endfacet
  facet normal 0 0 -1
    outer loop
      vertex -33.3259 -12.2223 2.5
      vertex -26 -10 2.5
      vertex -33.092 -12.5376 2.5
    endloop
  endfacet
  facet normal 0 0 -1
    outer loop
      vertex -33.5277 -11.8856 2.5
      vertex -26 -10 2.5
      vertex -33.3259 -12.2223 2.5
    endloop
  endfacet
  facet normal 0 0 -1
    outer loop
      vertex -33.6955 -11.5307 2.5
      vertex -26 -10 2.5
      vertex -33.5277 -11.8856 2.5
    endloop
  endfacet
  facet normal 0 0 -1
    outer loop
      vertex -33.8278 -11.1611 2.5
      vertex -26 -10 2.5
      vertex -33.6955 -11.5307 2.5
    endloop
  endfacet
  facet normal 0 0 -1
    outer loop
      vertex -33.9231 -10.7804 2.5
      vertex -26 -10 2.5
      vertex -33.8278 -11.1611 2.5
    endloop
  endfacet
  facet normal 0 0 -1
    outer loop
      vertex -33.9807 -10.3921 2.5
      vertex -26 -10 2.5
      vertex -33.9231 -10.7804 2.5
    endloop
  endfacet
  facet normal -0 0 -1
    outer loop
      vertex -26 -10 2.5
      vertex -33.9807 -10.3921 2.5
      vertex -34 -10 2.5
    endloop
  endfacet
  facet normal -0.803128 -0.595806 0
    outer loop
      vertex -33.092 7.46243 5
      vertex -33.3259 7.77772 7.5
      vertex -33.3259 7.77772 5
    endloop
  endfacet
  facet normal -0.803128 -0.595806 0
    outer loop
      vertex -33.3259 7.77772 7.5
      vertex -33.092 7.46243 5
      vertex -33.092 7.46243 7.5
    endloop
  endfacet
  facet normal -0.998791 0.0491626 0
    outer loop
      vertex -34 10 5
      vertex -33.9807 10.3921 7.5
      vertex -33.9807 10.3921 5
    endloop
  endfacet
  facet normal -0.998791 0.0491626 0
    outer loop
      vertex -33.9807 10.3921 7.5
      vertex -34 10 5
      vertex -34 10 7.5
    endloop
  endfacet
  facet normal 0.740977 -0.671531 0
    outer loop
      vertex -27.1716 7.17157 7.5
      vertex -26.908 7.46243 5
      vertex -26.908 7.46243 7.5
    endloop
  endfacet
  facet normal 0.740977 -0.671531 0
    outer loop
      vertex -26.908 7.46243 5
      vertex -27.1716 7.17157 7.5
      vertex -27.1716 7.17157 5
    endloop
  endfacet
  facet normal -0.989176 0.146737 0
    outer loop
      vertex -33.9807 -9.60793 2.5
      vertex -33.9231 -9.21964 7.5
      vertex -33.9231 -9.21964 2.5
    endloop
  endfacet
  facet normal -0.989176 0.146737 0
    outer loop
      vertex -33.9231 -9.21964 7.5
      vertex -33.9807 -9.60793 2.5
      vertex -33.9807 -9.60793 7.5
    endloop
  endfacet
  facet normal 0.989176 0.146737 0
    outer loop
      vertex -26.0193 -9.60793 7.5
      vertex -26.0769 -9.21964 2.5
      vertex -26.0769 -9.21964 7.5
    endloop
  endfacet
  facet normal 0.989176 0.146737 0
    outer loop
      vertex -26.0769 -9.21964 2.5
      vertex -26.0193 -9.60793 7.5
      vertex -26.0193 -9.60793 2.5
    endloop
  endfacet
  facet normal 0.998791 0.0491664 0
    outer loop
      vertex -26 -10 7.5
      vertex -26.0193 -9.60793 2.5
      vertex -26.0193 -9.60793 7.5
    endloop
  endfacet
  facet normal 0.998791 0.0491664 0
    outer loop
      vertex -26.0193 -9.60793 2.5
      vertex -26 -10 7.5
      vertex -26 -10 2.5
    endloop
  endfacet
  facet normal 0.97008 0.242787 0
    outer loop
      vertex -26.0769 -9.21964 7.5
      vertex -26.1722 -8.83886 2.5
      vertex -26.1722 -8.83886 7.5
    endloop
  endfacet
  facet normal 0.97008 0.242787 0
    outer loop
      vertex -26.1722 -8.83886 2.5
      vertex -26.0769 -9.21964 7.5
      vertex -26.0769 -9.21964 2.5
    endloop
  endfacet
  facet normal 0.671621 0.740895 -0
    outer loop
      vertex -27.1716 -7.17157 2.5
      vertex -27.4624 -6.90796 7.5
      vertex -27.1716 -7.17157 7.5
    endloop
  endfacet
  facet normal 0.671621 0.740895 0
    outer loop
      vertex -27.4624 -6.90796 7.5
      vertex -27.1716 -7.17157 2.5
      vertex -27.4624 -6.90796 2.5
    endloop
  endfacet
  facet normal -0.146733 0.989176 0
    outer loop
      vertex -30.3921 -6.01926 2.5
      vertex -30.7804 -6.07686 7.5
      vertex -30.3921 -6.01926 7.5
    endloop
  endfacet
  facet normal -0.146733 0.989176 0
    outer loop
      vertex -30.7804 -6.07686 7.5
      vertex -30.3921 -6.01926 2.5
      vertex -30.7804 -6.07686 2.5
    endloop
  endfacet
  facet normal 0.803128 0.595806 0
    outer loop
      vertex -26.6741 -7.77772 7.5
      vertex -26.908 -7.46243 2.5
      vertex -26.908 -7.46243 7.5
    endloop
  endfacet
  facet normal 0.803128 0.595806 0
    outer loop
      vertex -26.908 -7.46243 2.5
      vertex -26.6741 -7.77772 7.5
      vertex -26.6741 -7.77772 2.5
    endloop
  endfacet
  facet normal -0.514084 -0.85774 0
    outer loop
      vertex -32.2223 -13.3259 2.5
      vertex -31.8856 -13.5277 7.5
      vertex -32.2223 -13.3259 7.5
    endloop
  endfacet
  facet normal -0.514084 -0.85774 -0
    outer loop
      vertex -31.8856 -13.5277 7.5
      vertex -32.2223 -13.3259 2.5
      vertex -31.8856 -13.5277 2.5
    endloop
  endfacet
  facet normal 0.595695 0.80321 -0
    outer loop
      vertex -27.4624 -6.90796 2.5
      vertex -27.7777 -6.67412 7.5
      vertex -27.4624 -6.90796 7.5
    endloop
  endfacet
  facet normal 0.595695 0.80321 0
    outer loop
      vertex -27.7777 -6.67412 7.5
      vertex -27.4624 -6.90796 2.5
      vertex -27.7777 -6.67412 2.5
    endloop
  endfacet
  facet normal 0.998791 -0.0491626 0
    outer loop
      vertex -26.0193 -10.3921 7.5
      vertex -26 -10 2.5
      vertex -26 -10 7.5
    endloop
  endfacet
  facet normal 0.998791 -0.0491626 0
    outer loop
      vertex -26 -10 2.5
      vertex -26.0193 -10.3921 7.5
      vertex -26.0193 -10.3921 2.5
    endloop
  endfacet
  facet normal -0.243027 0.970019 0
    outer loop
      vertex -30.7804 -6.07686 2.5
      vertex -31.1611 -6.17224 7.5
      vertex -30.7804 -6.07686 7.5
    endloop
  endfacet
  facet normal -0.243027 0.970019 0
    outer loop
      vertex -31.1611 -6.17224 7.5
      vertex -30.7804 -6.07686 2.5
      vertex -31.1611 -6.17224 2.5
    endloop
  endfacet
  facet normal 0.427503 0.904014 -0
    outer loop
      vertex -28.1144 -6.47231 2.5
      vertex -28.4693 -6.30448 7.5
      vertex -28.1144 -6.47231 7.5
    endloop
  endfacet
  facet normal 0.427503 0.904014 0
    outer loop
      vertex -28.4693 -6.30448 7.5
      vertex -28.1144 -6.47231 2.5
      vertex -28.4693 -6.30448 2.5
    endloop
  endfacet
  facet normal -0.803128 0.595806 0
    outer loop
      vertex -33.3259 -7.77772 2.5
      vertex -33.092 -7.46243 7.5
      vertex -33.092 -7.46243 2.5
    endloop
  endfacet
  facet normal -0.803128 0.595806 0
    outer loop
      vertex -33.092 -7.46243 7.5
      vertex -33.3259 -7.77772 2.5
      vertex -33.3259 -7.77772 7.5
    endloop
  endfacet
  facet normal -0.427503 0.904014 0
    outer loop
      vertex -31.5307 -6.30448 2.5
      vertex -31.8856 -6.47231 7.5
      vertex -31.5307 -6.30448 7.5
    endloop
  endfacet
  facet normal -0.427503 0.904014 0
    outer loop
      vertex -31.8856 -6.47231 7.5
      vertex -31.5307 -6.30448 2.5
      vertex -31.8856 -6.47231 2.5
    endloop
  endfacet
  facet normal 0.671607 -0.740908 0
    outer loop
      vertex -27.4624 -13.092 2.5
      vertex -27.1716 -12.8284 7.5
      vertex -27.4624 -13.092 7.5
    endloop
  endfacet
  facet normal 0.671607 -0.740908 0
    outer loop
      vertex -27.1716 -12.8284 7.5
      vertex -27.4624 -13.092 2.5
      vertex -27.1716 -12.8284 2.5
    endloop
  endfacet
  facet normal -0.671607 -0.740908 0
    outer loop
      vertex -32.8284 -12.8284 2.5
      vertex -32.5376 -13.092 7.5
      vertex -32.8284 -12.8284 7.5
    endloop
  endfacet
  facet normal -0.671607 -0.740908 -0
    outer loop
      vertex -32.5376 -13.092 7.5
      vertex -32.8284 -12.8284 2.5
      vertex -32.5376 -13.092 2.5
    endloop
  endfacet
  facet normal 0.42744 -0.904044 0
    outer loop
      vertex -28.4693 -13.6955 2.5
      vertex -28.1144 -13.5277 7.5
      vertex -28.4693 -13.6955 7.5
    endloop
  endfacet
  facet normal 0.42744 -0.904044 0
    outer loop
      vertex -28.1144 -13.5277 7.5
      vertex -28.4693 -13.6955 2.5
      vertex -28.1144 -13.5277 2.5
    endloop
  endfacet
  facet normal 0.337014 -0.9415 0
    outer loop
      vertex -28.8389 -13.8278 2.5
      vertex -28.4693 -13.6955 7.5
      vertex -28.8389 -13.8278 7.5
    endloop
  endfacet
  facet normal 0.337014 -0.9415 0
    outer loop
      vertex -28.4693 -13.6955 7.5
      vertex -28.8389 -13.8278 2.5
      vertex -28.4693 -13.6955 2.5
    endloop
  endfacet
  facet normal 0.049061 0.998796 -0
    outer loop
      vertex -29.6079 -6.01926 2.5
      vertex -30 -6 7.5
      vertex -29.6079 -6.01926 7.5
    endloop
  endfacet
  facet normal 0.049061 0.998796 0
    outer loop
      vertex -30 -6 7.5
      vertex -29.6079 -6.01926 2.5
      vertex -30 -6 2.5
    endloop
  endfacet
  facet normal -0.989176 -0.146733 0
    outer loop
      vertex -33.9231 -10.7804 2.5
      vertex -33.9807 -10.3921 7.5
      vertex -33.9807 -10.3921 2.5
    endloop
  endfacet
  facet normal -0.989176 -0.146733 0
    outer loop
      vertex -33.9807 -10.3921 7.5
      vertex -33.9231 -10.7804 2.5
      vertex -33.9231 -10.7804 7.5
    endloop
  endfacet
  facet normal -0.97008 0.242787 0
    outer loop
      vertex -33.9231 -9.21964 2.5
      vertex -33.8278 -8.83886 7.5
      vertex -33.8278 -8.83886 2.5
    endloop
  endfacet
  facet normal -0.97008 0.242787 0
    outer loop
      vertex -33.8278 -8.83886 7.5
      vertex -33.9231 -9.21964 2.5
      vertex -33.9231 -9.21964 7.5
    endloop
  endfacet
  facet normal -0.049061 0.998796 0
    outer loop
      vertex -30 -6 2.5
      vertex -30.3921 -6.01926 7.5
      vertex -30 -6 7.5
    endloop
  endfacet
  facet normal -0.049061 0.998796 0
    outer loop
      vertex -30.3921 -6.01926 7.5
      vertex -30 -6 2.5
      vertex -30.3921 -6.01926 2.5
    endloop
  endfacet
  facet normal 0.242835 -0.970068 0
    outer loop
      vertex -29.2196 -13.9231 2.5
      vertex -28.8389 -13.8278 7.5
      vertex -29.2196 -13.9231 7.5
    endloop
  endfacet
  facet normal 0.242835 -0.970068 0
    outer loop
      vertex -28.8389 -13.8278 7.5
      vertex -29.2196 -13.9231 2.5
      vertex -28.8389 -13.8278 2.5
    endloop
  endfacet
  facet normal 0.85774 -0.514084 0
    outer loop
      vertex -26.6741 -12.2223 7.5
      vertex -26.4723 -11.8856 2.5
      vertex -26.4723 -11.8856 7.5
    endloop
  endfacet
  facet normal 0.85774 -0.514084 0
    outer loop
      vertex -26.4723 -11.8856 2.5
      vertex -26.6741 -12.2223 7.5
      vertex -26.6741 -12.2223 2.5
    endloop
  endfacet
  facet normal -0.514102 0.857729 0
    outer loop
      vertex -31.8856 -6.47231 2.5
      vertex -32.2223 -6.67412 7.5
      vertex -31.8856 -6.47231 7.5
    endloop
  endfacet
  facet normal -0.514102 0.857729 0
    outer loop
      vertex -32.2223 -6.67412 7.5
      vertex -31.8856 -6.47231 2.5
      vertex -32.2223 -6.67412 2.5
    endloop
  endfacet
  facet normal -0.803137 -0.595794 0
    outer loop
      vertex -33.092 -12.5376 2.5
      vertex -33.3259 -12.2223 7.5
      vertex -33.3259 -12.2223 2.5
    endloop
  endfacet
  facet normal -0.803137 -0.595794 0
    outer loop
      vertex -33.3259 -12.2223 7.5
      vertex -33.092 -12.5376 2.5
      vertex -33.092 -12.5376 7.5
    endloop
  endfacet
  facet normal -0.146733 -0.989176 0
    outer loop
      vertex -30.7804 -13.9231 2.5
      vertex -30.3921 -13.9807 7.5
      vertex -30.7804 -13.9231 7.5
    endloop
  endfacet
  facet normal -0.146733 -0.989176 -0
    outer loop
      vertex -30.3921 -13.9807 7.5
      vertex -30.7804 -13.9231 2.5
      vertex -30.3921 -13.9807 2.5
    endloop
  endfacet
  facet normal 0.336879 0.941548 -0
    outer loop
      vertex -28.4693 -6.30448 2.5
      vertex -28.8389 -6.17224 7.5
      vertex -28.4693 -6.30448 7.5
    endloop
  endfacet
  facet normal 0.336879 0.941548 0
    outer loop
      vertex -28.8389 -6.17224 7.5
      vertex -28.4693 -6.30448 2.5
      vertex -28.8389 -6.17224 2.5
    endloop
  endfacet
  facet normal 0.595794 -0.803137 0
    outer loop
      vertex -27.7777 -13.3259 2.5
      vertex -27.4624 -13.092 7.5
      vertex -27.7777 -13.3259 7.5
    endloop
  endfacet
  facet normal 0.595794 -0.803137 0
    outer loop
      vertex -27.4624 -13.092 7.5
      vertex -27.7777 -13.3259 2.5
      vertex -27.4624 -13.092 2.5
    endloop
  endfacet
  facet normal 0.514084 -0.85774 0
    outer loop
      vertex -28.1144 -13.5277 2.5
      vertex -27.7777 -13.3259 7.5
      vertex -28.1144 -13.5277 7.5
    endloop
  endfacet
  facet normal 0.514084 -0.85774 0
    outer loop
      vertex -27.7777 -13.3259 7.5
      vertex -28.1144 -13.5277 2.5
      vertex -27.7777 -13.3259 2.5
    endloop
  endfacet
  facet normal 0.970068 -0.242835 0
    outer loop
      vertex -26.1722 -11.1611 7.5
      vertex -26.0769 -10.7804 2.5
      vertex -26.0769 -10.7804 7.5
    endloop
  endfacet
  facet normal 0.970068 -0.242835 0
    outer loop
      vertex -26.0769 -10.7804 2.5
      vertex -26.1722 -11.1611 7.5
      vertex -26.1722 -11.1611 2.5
    endloop
  endfacet
  facet normal -0.336879 0.941548 0
    outer loop
      vertex -31.1611 -6.17224 2.5
      vertex -31.5307 -6.30448 7.5
      vertex -31.1611 -6.17224 7.5
    endloop
  endfacet
  facet normal -0.336879 0.941548 0
    outer loop
      vertex -31.5307 -6.30448 7.5
      vertex -31.1611 -6.17224 2.5
      vertex -31.5307 -6.30448 2.5
    endloop
  endfacet
  facet normal 0.904025 0.42748 0
    outer loop
      vertex -26.3045 -8.46927 7.5
      vertex -26.4723 -8.11441 2.5
      vertex -26.4723 -8.11441 7.5
    endloop
  endfacet
  facet normal 0.904025 0.42748 0
    outer loop
      vertex -26.4723 -8.11441 2.5
      vertex -26.3045 -8.46927 7.5
      vertex -26.3045 -8.46927 2.5
    endloop
  endfacet
  facet normal -0.970068 -0.242835 0
    outer loop
      vertex -33.8278 -11.1611 2.5
      vertex -33.9231 -10.7804 7.5
      vertex -33.9231 -10.7804 2.5
    endloop
  endfacet
  facet normal -0.970068 -0.242835 0
    outer loop
      vertex -33.9231 -10.7804 7.5
      vertex -33.8278 -11.1611 2.5
      vertex -33.8278 -11.1611 7.5
    endloop
  endfacet
  facet normal -0.9415 -0.337014 0
    outer loop
      vertex -33.6955 -11.5307 2.5
      vertex -33.8278 -11.1611 7.5
      vertex -33.8278 -11.1611 2.5
    endloop
  endfacet
  facet normal -0.9415 -0.337014 0
    outer loop
      vertex -33.8278 -11.1611 7.5
      vertex -33.6955 -11.5307 2.5
      vertex -33.6955 -11.5307 7.5
    endloop
  endfacet
  facet normal 0.146733 0.989176 -0
    outer loop
      vertex -29.2196 -6.07686 2.5
      vertex -29.6079 -6.01926 7.5
      vertex -29.2196 -6.07686 7.5
    endloop
  endfacet
  facet normal 0.146733 0.989176 0
    outer loop
      vertex -29.6079 -6.01926 7.5
      vertex -29.2196 -6.07686 2.5
      vertex -29.6079 -6.01926 2.5
    endloop
  endfacet
  facet normal 0.803137 -0.595794 0
    outer loop
      vertex -26.908 -12.5376 7.5
      vertex -26.6741 -12.2223 2.5
      vertex -26.6741 -12.2223 7.5
    endloop
  endfacet
  facet normal 0.803137 -0.595794 0
    outer loop
      vertex -26.6741 -12.2223 2.5
      vertex -26.908 -12.5376 7.5
      vertex -26.908 -12.5376 2.5
    endloop
  endfacet
  facet normal 0.941497 0.337022 0
    outer loop
      vertex -26.1722 -8.83886 7.5
      vertex -26.3045 -8.46927 2.5
      vertex -26.3045 -8.46927 7.5
    endloop
  endfacet
  facet normal 0.941497 0.337022 0
    outer loop
      vertex -26.3045 -8.46927 2.5
      vertex -26.1722 -8.83886 7.5
      vertex -26.1722 -8.83886 2.5
    endloop
  endfacet
  facet normal -0.941497 0.337022 0
    outer loop
      vertex -33.8278 -8.83886 2.5
      vertex -33.6955 -8.46927 7.5
      vertex -33.6955 -8.46927 2.5
    endloop
  endfacet
  facet normal -0.941497 0.337022 0
    outer loop
      vertex -33.6955 -8.46927 7.5
      vertex -33.8278 -8.83886 2.5
      vertex -33.8278 -8.83886 7.5
    endloop
  endfacet
  facet normal 0.514102 0.857729 -0
    outer loop
      vertex -27.7777 -6.67412 2.5
      vertex -28.1144 -6.47231 7.5
      vertex -27.7777 -6.67412 7.5
    endloop
  endfacet
  facet normal 0.514102 0.857729 0
    outer loop
      vertex -28.1144 -6.47231 7.5
      vertex -27.7777 -6.67412 2.5
      vertex -28.1144 -6.47231 2.5
    endloop
  endfacet
  facet normal -0.242835 -0.970068 0
    outer loop
      vertex -31.1611 -13.8278 2.5
      vertex -30.7804 -13.9231 7.5
      vertex -31.1611 -13.8278 7.5
    endloop
  endfacet
  facet normal -0.242835 -0.970068 -0
    outer loop
      vertex -30.7804 -13.9231 7.5
      vertex -31.1611 -13.8278 2.5
      vertex -30.7804 -13.9231 2.5
    endloop
  endfacet
  facet normal -0.595695 0.80321 0
    outer loop
      vertex -32.2223 -6.67412 2.5
      vertex -32.5376 -6.90796 7.5
      vertex -32.2223 -6.67412 7.5
    endloop
  endfacet
  facet normal -0.595695 0.80321 0
    outer loop
      vertex -32.5376 -6.90796 7.5
      vertex -32.2223 -6.67412 2.5
      vertex -32.5376 -6.90796 2.5
    endloop
  endfacet
  facet normal 0.857733 0.514095 0
    outer loop
      vertex -26.4723 -8.11441 7.5
      vertex -26.6741 -7.77772 2.5
      vertex -26.6741 -7.77772 7.5
    endloop
  endfacet
  facet normal 0.857733 0.514095 0
    outer loop
      vertex -26.6741 -7.77772 2.5
      vertex -26.4723 -8.11441 7.5
      vertex -26.4723 -8.11441 2.5
    endloop
  endfacet
  facet normal -0.740908 -0.671607 0
    outer loop
      vertex -32.8284 -12.8284 2.5
      vertex -33.092 -12.5376 7.5
      vertex -33.092 -12.5376 2.5
    endloop
  endfacet
  facet normal -0.740908 -0.671607 0
    outer loop
      vertex -33.092 -12.5376 7.5
      vertex -32.8284 -12.8284 2.5
      vertex -32.8284 -12.8284 7.5
    endloop
  endfacet
  facet normal 0.989176 -0.146733 0
    outer loop
      vertex -26.0769 -10.7804 7.5
      vertex -26.0193 -10.3921 2.5
      vertex -26.0193 -10.3921 7.5
    endloop
  endfacet
  facet normal 0.989176 -0.146733 0
    outer loop
      vertex -26.0193 -10.3921 2.5
      vertex -26.0769 -10.7804 7.5
      vertex -26.0769 -10.7804 2.5
    endloop
  endfacet
  facet normal -0.671621 0.740895 0
    outer loop
      vertex -32.5376 -6.90796 2.5
      vertex -32.8284 -7.17157 7.5
      vertex -32.5376 -6.90796 7.5
    endloop
  endfacet
  facet normal -0.671621 0.740895 0
    outer loop
      vertex -32.8284 -7.17157 7.5
      vertex -32.5376 -6.90796 2.5
      vertex -32.8284 -7.17157 2.5
    endloop
  endfacet
  facet normal 0.740977 0.671531 0
    outer loop
      vertex -26.908 -7.46243 7.5
      vertex -27.1716 -7.17157 2.5
      vertex -27.1716 -7.17157 7.5
    endloop
  endfacet
  facet normal 0.740977 0.671531 0
    outer loop
      vertex -27.1716 -7.17157 2.5
      vertex -26.908 -7.46243 7.5
      vertex -26.908 -7.46243 2.5
    endloop
  endfacet
  facet normal -0.904025 0.42748 0
    outer loop
      vertex -33.6955 -8.46927 2.5
      vertex -33.5277 -8.11441 7.5
      vertex -33.5277 -8.11441 2.5
    endloop
  endfacet
  facet normal -0.904025 0.42748 0
    outer loop
      vertex -33.5277 -8.11441 7.5
      vertex -33.6955 -8.46927 2.5
      vertex -33.6955 -8.46927 7.5
    endloop
  endfacet
  facet normal -0.740977 0.671531 0
    outer loop
      vertex -33.092 -7.46243 2.5
      vertex -32.8284 -7.17157 7.5
      vertex -32.8284 -7.17157 2.5
    endloop
  endfacet
  facet normal -0.740977 0.671531 0
    outer loop
      vertex -32.8284 -7.17157 7.5
      vertex -33.092 -7.46243 2.5
      vertex -33.092 -7.46243 7.5
    endloop
  endfacet
  facet normal -0.337014 -0.9415 0
    outer loop
      vertex -31.5307 -13.6955 2.5
      vertex -31.1611 -13.8278 7.5
      vertex -31.5307 -13.6955 7.5
    endloop
  endfacet
  facet normal -0.337014 -0.9415 -0
    outer loop
      vertex -31.1611 -13.8278 7.5
      vertex -31.5307 -13.6955 2.5
      vertex -31.1611 -13.8278 2.5
    endloop
  endfacet
  facet normal -0.904044 -0.42744 0
    outer loop
      vertex -33.5277 -11.8856 2.5
      vertex -33.6955 -11.5307 7.5
      vertex -33.6955 -11.5307 2.5
    endloop
  endfacet
  facet normal -0.904044 -0.42744 0
    outer loop
      vertex -33.6955 -11.5307 7.5
      vertex -33.5277 -11.8856 2.5
      vertex -33.5277 -11.8856 7.5
    endloop
  endfacet
  facet normal 0.146733 -0.989176 0
    outer loop
      vertex -29.6079 -13.9807 2.5
      vertex -29.2196 -13.9231 7.5
      vertex -29.6079 -13.9807 7.5
    endloop
  endfacet
  facet normal 0.146733 -0.989176 0
    outer loop
      vertex -29.2196 -13.9231 7.5
      vertex -29.6079 -13.9807 2.5
      vertex -29.2196 -13.9231 2.5
    endloop
  endfacet
  facet normal -0.595794 -0.803137 0
    outer loop
      vertex -32.5376 -13.092 2.5
      vertex -32.2223 -13.3259 7.5
      vertex -32.5376 -13.092 7.5
    endloop
  endfacet
  facet normal -0.595794 -0.803137 -0
    outer loop
      vertex -32.2223 -13.3259 7.5
      vertex -32.5376 -13.092 2.5
      vertex -32.2223 -13.3259 2.5
    endloop
  endfacet
  facet normal -0.85774 -0.514084 0
    outer loop
      vertex -33.3259 -12.2223 2.5
      vertex -33.5277 -11.8856 7.5
      vertex -33.5277 -11.8856 2.5
    endloop
  endfacet
  facet normal -0.85774 -0.514084 0
    outer loop
      vertex -33.5277 -11.8856 7.5
      vertex -33.3259 -12.2223 2.5
      vertex -33.3259 -12.2223 7.5
    endloop
  endfacet
  facet normal 0.9415 -0.337014 0
    outer loop
      vertex -26.3045 -11.5307 7.5
      vertex -26.1722 -11.1611 2.5
      vertex -26.1722 -11.1611 7.5
    endloop
  endfacet
  facet normal 0.9415 -0.337014 0
    outer loop
      vertex -26.1722 -11.1611 2.5
      vertex -26.3045 -11.5307 7.5
      vertex -26.3045 -11.5307 2.5
    endloop
  endfacet
  facet normal 0.0491626 -0.998791 0
    outer loop
      vertex -30 -14 2.5
      vertex -29.6079 -13.9807 7.5
      vertex -30 -14 7.5
    endloop
  endfacet
  facet normal 0.0491626 -0.998791 0
    outer loop
      vertex -29.6079 -13.9807 7.5
      vertex -30 -14 2.5
      vertex -29.6079 -13.9807 2.5
    endloop
  endfacet
  facet normal 0.243027 0.970019 -0
    outer loop
      vertex -28.8389 -6.17224 2.5
      vertex -29.2196 -6.07686 7.5
      vertex -28.8389 -6.17224 7.5
    endloop
  endfacet
  facet normal 0.243027 0.970019 0
    outer loop
      vertex -29.2196 -6.07686 7.5
      vertex -28.8389 -6.17224 2.5
      vertex -29.2196 -6.07686 2.5
    endloop
  endfacet
  facet normal 0 0 1
    outer loop
      vertex -26.0193 -9.60793 7.5
      vertex -26.0193 -10.3921 7.5
      vertex -26 -10 7.5
    endloop
  endfacet
  facet normal 0 0 1
    outer loop
      vertex -26.0769 -9.21964 7.5
      vertex -26.0193 -10.3921 7.5
      vertex -26.0193 -9.60793 7.5
    endloop
  endfacet
  facet normal 0 0 1
    outer loop
      vertex -26.0769 -9.21964 7.5
      vertex -26.0769 -10.7804 7.5
      vertex -26.0193 -10.3921 7.5
    endloop
  endfacet
  facet normal 0 0 1
    outer loop
      vertex -26.1722 -8.83886 7.5
      vertex -26.0769 -10.7804 7.5
      vertex -26.0769 -9.21964 7.5
    endloop
  endfacet
  facet normal 0 0 1
    outer loop
      vertex -26.1722 -8.83886 7.5
      vertex -26.1722 -11.1611 7.5
      vertex -26.0769 -10.7804 7.5
    endloop
  endfacet
  facet normal 0 0 1
    outer loop
      vertex -26.3045 -8.46927 7.5
      vertex -26.1722 -11.1611 7.5
      vertex -26.1722 -8.83886 7.5
    endloop
  endfacet
  facet normal 0 0 1
    outer loop
      vertex -26.3045 -8.46927 7.5
      vertex -26.3045 -11.5307 7.5
      vertex -26.1722 -11.1611 7.5
    endloop
  endfacet
  facet normal 0 0 1
    outer loop
      vertex -26.4723 -8.11441 7.5
      vertex -26.3045 -11.5307 7.5
      vertex -26.3045 -8.46927 7.5
    endloop
  endfacet
  facet normal 0 0 1
    outer loop
      vertex -26.4723 -8.11441 7.5
      vertex -26.4723 -11.8856 7.5
      vertex -26.3045 -11.5307 7.5
    endloop
  endfacet
  facet normal 0 0 1
    outer loop
      vertex -26.6741 -7.77772 7.5
      vertex -26.4723 -11.8856 7.5
      vertex -26.4723 -8.11441 7.5
    endloop
  endfacet
  facet normal 0 0 1
    outer loop
      vertex -26.6741 -7.77772 7.5
      vertex -26.6741 -12.2223 7.5
      vertex -26.4723 -11.8856 7.5
    endloop
  endfacet
  facet normal 0 0 1
    outer loop
      vertex -26.908 -7.46243 7.5
      vertex -26.6741 -12.2223 7.5
      vertex -26.6741 -7.77772 7.5
    endloop
  endfacet
  facet normal 0 0 1
    outer loop
      vertex -26.908 -7.46243 7.5
      vertex -26.908 -12.5376 7.5
      vertex -26.6741 -12.2223 7.5
    endloop
  endfacet
  facet normal 0 0 1
    outer loop
      vertex -27.1716 -7.17157 7.5
      vertex -26.908 -12.5376 7.5
      vertex -26.908 -7.46243 7.5
    endloop
  endfacet
  facet normal 0 0 1
    outer loop
      vertex -27.1716 -7.17157 7.5
      vertex -27.1716 -12.8284 7.5
      vertex -26.908 -12.5376 7.5
    endloop
  endfacet
  facet normal 0 0 1
    outer loop
      vertex -27.4624 -6.90796 7.5
      vertex -27.1716 -12.8284 7.5
      vertex -27.1716 -7.17157 7.5
    endloop
  endfacet
  facet normal 0 0 1
    outer loop
      vertex -27.4624 -6.90796 7.5
      vertex -27.4624 -13.092 7.5
      vertex -27.1716 -12.8284 7.5
    endloop
  endfacet
  facet normal 0 0 1
    outer loop
      vertex -27.7777 -6.67412 7.5
      vertex -27.4624 -13.092 7.5
      vertex -27.4624 -6.90796 7.5
    endloop
  endfacet
  facet normal 0 0 1
    outer loop
      vertex -27.7777 -6.67412 7.5
      vertex -27.7777 -13.3259 7.5
      vertex -27.4624 -13.092 7.5
    endloop
  endfacet
  facet normal 0 0 1
    outer loop
      vertex -28.1144 -6.47231 7.5
      vertex -27.7777 -13.3259 7.5
      vertex -27.7777 -6.67412 7.5
    endloop
  endfacet
  facet normal 0 0 1
    outer loop
      vertex -28.1144 -6.47231 7.5
      vertex -28.1144 -13.5277 7.5
      vertex -27.7777 -13.3259 7.5
    endloop
  endfacet
  facet normal 0 0 1
    outer loop
      vertex -28.4693 -6.30448 7.5
      vertex -28.1144 -13.5277 7.5
      vertex -28.1144 -6.47231 7.5
    endloop
  endfacet
  facet normal 0 0 1
    outer loop
      vertex -28.4693 -6.30448 7.5
      vertex -28.4693 -13.6955 7.5
      vertex -28.1144 -13.5277 7.5
    endloop
  endfacet
  facet normal 0 0 1
    outer loop
      vertex -28.8389 -6.17224 7.5
      vertex -28.4693 -13.6955 7.5
      vertex -28.4693 -6.30448 7.5
    endloop
  endfacet
  facet normal 0 0 1
    outer loop
      vertex -28.8389 -6.17224 7.5
      vertex -28.8389 -13.8278 7.5
      vertex -28.4693 -13.6955 7.5
    endloop
  endfacet
  facet normal 0 0 1
    outer loop
      vertex -29.2196 -6.07686 7.5
      vertex -28.8389 -13.8278 7.5
      vertex -28.8389 -6.17224 7.5
    endloop
  endfacet
  facet normal 0 0 1
    outer loop
      vertex -29.2196 -6.07686 7.5
      vertex -29.2196 -13.9231 7.5
      vertex -28.8389 -13.8278 7.5
    endloop
  endfacet
  facet normal 0 0 1
    outer loop
      vertex -29.6079 -6.01926 7.5
      vertex -29.2196 -13.9231 7.5
      vertex -29.2196 -6.07686 7.5
    endloop
  endfacet
  facet normal 0 0 1
    outer loop
      vertex -29.6079 -6.01926 7.5
      vertex -29.6079 -13.9807 7.5
      vertex -29.2196 -13.9231 7.5
    endloop
  endfacet
  facet normal 0 0 1
    outer loop
      vertex -30 -6 7.5
      vertex -29.6079 -13.9807 7.5
      vertex -29.6079 -6.01926 7.5
    endloop
  endfacet
  facet normal 0 0 1
    outer loop
      vertex -30 -6 7.5
      vertex -30 -14 7.5
      vertex -29.6079 -13.9807 7.5
    endloop
  endfacet
  facet normal -0 0 1
    outer loop
      vertex -30.3921 -6.01926 7.5
      vertex -30 -14 7.5
      vertex -30 -6 7.5
    endloop
  endfacet
  facet normal 0 0 1
    outer loop
      vertex -30.3921 -6.01926 7.5
      vertex -30.3921 -13.9807 7.5
      vertex -30 -14 7.5
    endloop
  endfacet
  facet normal -0 0 1
    outer loop
      vertex -30.7804 -6.07686 7.5
      vertex -30.3921 -13.9807 7.5
      vertex -30.3921 -6.01926 7.5
    endloop
  endfacet
  facet normal 0 0 1
    outer loop
      vertex -30.7804 -6.07686 7.5
      vertex -30.7804 -13.9231 7.5
      vertex -30.3921 -13.9807 7.5
    endloop
  endfacet
  facet normal -0 0 1
    outer loop
      vertex -31.1611 -6.17224 7.5
      vertex -30.7804 -13.9231 7.5
      vertex -30.7804 -6.07686 7.5
    endloop
  endfacet
  facet normal 0 0 1
    outer loop
      vertex -31.1611 -6.17224 7.5
      vertex -31.1611 -13.8278 7.5
      vertex -30.7804 -13.9231 7.5
    endloop
  endfacet
  facet normal -0 0 1
    outer loop
      vertex -31.5307 -6.30448 7.5
      vertex -31.1611 -13.8278 7.5
      vertex -31.1611 -6.17224 7.5
    endloop
  endfacet
  facet normal 0 0 1
    outer loop
      vertex -31.5307 -6.30448 7.5
      vertex -31.5307 -13.6955 7.5
      vertex -31.1611 -13.8278 7.5
    endloop
  endfacet
  facet normal -0 0 1
    outer loop
      vertex -31.8856 -6.47231 7.5
      vertex -31.5307 -13.6955 7.5
      vertex -31.5307 -6.30448 7.5
    endloop
  endfacet
  facet normal 0 0 1
    outer loop
      vertex -31.8856 -6.47231 7.5
      vertex -31.8856 -13.5277 7.5
      vertex -31.5307 -13.6955 7.5
    endloop
  endfacet
  facet normal -0 0 1
    outer loop
      vertex -32.2223 -6.67412 7.5
      vertex -31.8856 -13.5277 7.5
      vertex -31.8856 -6.47231 7.5
    endloop
  endfacet
  facet normal 0 0 1
    outer loop
      vertex -32.2223 -6.67412 7.5
      vertex -32.2223 -13.3259 7.5
      vertex -31.8856 -13.5277 7.5
    endloop
  endfacet
  facet normal -0 0 1
    outer loop
      vertex -32.5376 -6.90796 7.5
      vertex -32.2223 -13.3259 7.5
      vertex -32.2223 -6.67412 7.5
    endloop
  endfacet
  facet normal 0 0 1
    outer loop
      vertex -32.5376 -6.90796 7.5
      vertex -32.5376 -13.092 7.5
      vertex -32.2223 -13.3259 7.5
    endloop
  endfacet
  facet normal -0 0 1
    outer loop
      vertex -32.8284 -7.17157 7.5
      vertex -32.5376 -13.092 7.5
      vertex -32.5376 -6.90796 7.5
    endloop
  endfacet
  facet normal 0 0 1
    outer loop
      vertex -32.8284 -7.17157 7.5
      vertex -32.8284 -12.8284 7.5
      vertex -32.5376 -13.092 7.5
    endloop
  endfacet
  facet normal -0 0 1
    outer loop
      vertex -33.092 -7.46243 7.5
      vertex -32.8284 -12.8284 7.5
      vertex -32.8284 -7.17157 7.5
    endloop
  endfacet
  facet normal 0 0 1
    outer loop
      vertex -33.092 -7.46243 7.5
      vertex -33.092 -12.5376 7.5
      vertex -32.8284 -12.8284 7.5
    endloop
  endfacet
  facet normal -0 0 1
    outer loop
      vertex -33.3259 -7.77772 7.5
      vertex -33.092 -12.5376 7.5
      vertex -33.092 -7.46243 7.5
    endloop
  endfacet
  facet normal 0 0 1
    outer loop
      vertex -33.3259 -7.77772 7.5
      vertex -33.3259 -12.2223 7.5
      vertex -33.092 -12.5376 7.5
    endloop
  endfacet
  facet normal -0 0 1
    outer loop
      vertex -33.5277 -8.11441 7.5
      vertex -33.3259 -12.2223 7.5
      vertex -33.3259 -7.77772 7.5
    endloop
  endfacet
  facet normal 0 0 1
    outer loop
      vertex -33.5277 -8.11441 7.5
      vertex -33.5277 -11.8856 7.5
      vertex -33.3259 -12.2223 7.5
    endloop
  endfacet
  facet normal -0 0 1
    outer loop
      vertex -33.6955 -8.46927 7.5
      vertex -33.5277 -11.8856 7.5
      vertex -33.5277 -8.11441 7.5
    endloop
  endfacet
  facet normal 0 0 1
    outer loop
      vertex -33.6955 -8.46927 7.5
      vertex -33.6955 -11.5307 7.5
      vertex -33.5277 -11.8856 7.5
    endloop
  endfacet
  facet normal -0 0 1
    outer loop
      vertex -33.8278 -8.83886 7.5
      vertex -33.6955 -11.5307 7.5
      vertex -33.6955 -8.46927 7.5
    endloop
  endfacet
  facet normal 0 0 1
    outer loop
      vertex -33.8278 -8.83886 7.5
      vertex -33.8278 -11.1611 7.5
      vertex -33.6955 -11.5307 7.5
    endloop
  endfacet
  facet normal -0 0 1
    outer loop
      vertex -33.9231 -9.21964 7.5
      vertex -33.8278 -11.1611 7.5
      vertex -33.8278 -8.83886 7.5
    endloop
  endfacet
  facet normal 0 0 1
    outer loop
      vertex -33.9231 -9.21964 7.5
      vertex -33.9231 -10.7804 7.5
      vertex -33.8278 -11.1611 7.5
    endloop
  endfacet
  facet normal -0 0 1
    outer loop
      vertex -33.9807 -9.60793 7.5
      vertex -33.9231 -10.7804 7.5
      vertex -33.9231 -9.21964 7.5
    endloop
  endfacet
  facet normal 0 0 1
    outer loop
      vertex -33.9807 -9.60793 7.5
      vertex -33.9807 -10.3921 7.5
      vertex -33.9231 -10.7804 7.5
    endloop
  endfacet
  facet normal 0 -0 1
    outer loop
      vertex -33.9807 -10.3921 7.5
      vertex -33.9807 -9.60793 7.5
      vertex -34 -10 7.5
    endloop
  endfacet
  facet normal 0.904044 -0.42744 0
    outer loop
      vertex -26.4723 -11.8856 7.5
      vertex -26.3045 -11.5307 2.5
      vertex -26.3045 -11.5307 7.5
    endloop
  endfacet
  facet normal 0.904044 -0.42744 0
    outer loop
      vertex -26.3045 -11.5307 2.5
      vertex -26.4723 -11.8856 7.5
      vertex -26.4723 -11.8856 2.5
    endloop
  endfacet
  facet normal -0.0491626 -0.998791 0
    outer loop
      vertex -30.3921 -13.9807 2.5
      vertex -30 -14 7.5
      vertex -30.3921 -13.9807 7.5
    endloop
  endfacet
  facet normal -0.0491626 -0.998791 -0
    outer loop
      vertex -30 -14 7.5
      vertex -30.3921 -13.9807 2.5
      vertex -30 -14 2.5
    endloop
  endfacet
  facet normal -0.42744 -0.904044 0
    outer loop
      vertex -31.8856 -13.5277 2.5
      vertex -31.5307 -13.6955 7.5
      vertex -31.8856 -13.5277 7.5
    endloop
  endfacet
  facet normal -0.42744 -0.904044 -0
    outer loop
      vertex -31.5307 -13.6955 7.5
      vertex -31.8856 -13.5277 2.5
      vertex -31.5307 -13.6955 2.5
    endloop
  endfacet
  facet normal -0.998791 0.0491664 0
    outer loop
      vertex -34 -10 2.5
      vertex -33.9807 -9.60793 7.5
      vertex -33.9807 -9.60793 2.5
    endloop
  endfacet
  facet normal -0.998791 0.0491664 0
    outer loop
      vertex -33.9807 -9.60793 7.5
      vertex -34 -10 2.5
      vertex -34 -10 7.5
    endloop
  endfacet
  facet normal -0.998791 -0.0491626 0
    outer loop
      vertex -33.9807 -10.3921 2.5
      vertex -34 -10 7.5
      vertex -34 -10 2.5
    endloop
  endfacet
  facet normal -0.998791 -0.0491626 0
    outer loop
      vertex -34 -10 7.5
      vertex -33.9807 -10.3921 2.5
      vertex -33.9807 -10.3921 7.5
    endloop
  endfacet
  facet normal 0.740908 -0.671607 0
    outer loop
      vertex -27.1716 -12.8284 7.5
      vertex -26.908 -12.5376 2.5
      vertex -26.908 -12.5376 7.5
    endloop
  endfacet
  facet normal 0.740908 -0.671607 0
    outer loop
      vertex -26.908 -12.5376 2.5
      vertex -27.1716 -12.8284 7.5
      vertex -27.1716 -12.8284 2.5
    endloop
  endfacet
  facet normal -0.857733 0.514095 0
    outer loop
      vertex -33.5277 -8.11441 2.5
      vertex -33.3259 -7.77772 7.5
      vertex -33.3259 -7.77772 2.5
    endloop
  endfacet
  facet normal -0.857733 0.514095 0
    outer loop
      vertex -33.3259 -7.77772 7.5
      vertex -33.5277 -8.11441 2.5
      vertex -33.5277 -8.11441 7.5
    endloop
  endfacet
  facet normal 0 0 -1
    outer loop
      vertex 1 0 0
      vertex 15 20 0
      vertex 15 0 0
    endloop
  endfacet
  facet normal 0 0 -1
    outer loop
      vertex -0.809006 0 0
      vertex 1 0 0
      vertex 0.309006 -0.95105 0
    endloop
  endfacet
  facet normal 0 0 -1
    outer loop
      vertex -0.809006 0 0
      vertex 0.309006 -0.95105 0
      vertex -0.809006 -0.587784 0
    endloop
  endfacet
  facet normal 0 0 -1
    outer loop
      vertex 1 0 0
      vertex -0.809006 0 0
      vertex 15 20 0
    endloop
  endfacet
  facet normal 0 0 -1
    outer loop
      vertex -65 20 0
      vertex -0.809006 0 0
      vertex -65 0 0
    endloop
  endfacet
  facet normal 0 0 -1
    outer loop
      vertex -0.809006 0 0
      vertex -65 20 0
      vertex 15 20 0
    endloop
  endfacet
  facet normal -1 0 0
    outer loop
      vertex -65 0 0
      vertex -65 20 5
      vertex -65 20 0
    endloop
  endfacet
  facet normal -1 -0 0
    outer loop
      vertex -65 20 5
      vertex -65 0 0
      vertex -65 0 5
    endloop
  endfacet
  facet normal -0 0 1
    outer loop
      vertex 0.309006 0.95105 5
      vertex 15 0 5
      vertex 15 20 5
    endloop
  endfacet
  facet normal 0 0 1
    outer loop
      vertex 15 0 5
      vertex 0.309006 0.95105 5
      vertex 1 0 5
    endloop
  endfacet
  facet normal 0 0 1
    outer loop
      vertex 15 20 5
      vertex -0.809006 0.587784 5
      vertex 0.309006 0.95105 5
    endloop
  endfacet
  facet normal -0 0 1
    outer loop
      vertex -26.0193 9.60793 5
      vertex -0.809006 0.587784 5
      vertex -26 10 5
    endloop
  endfacet
  facet normal -0 0 1
    outer loop
      vertex -26.4723 11.8856 5
      vertex -0.809006 0.587784 5
      vertex 15 20 5
    endloop
  endfacet
  facet normal 0 0 1
    outer loop
      vertex -0.809006 0.587784 5
      vertex -26.0193 10.3921 5
      vertex -26 10 5
    endloop
  endfacet
  facet normal 0 0 1
    outer loop
      vertex -0.809006 0.587784 5
      vertex -26.0769 10.7804 5
      vertex -26.0193 10.3921 5
    endloop
  endfacet
  facet normal 0 0 1
    outer loop
      vertex -0.809006 0.587784 5
      vertex -26.1722 11.1611 5
      vertex -26.0769 10.7804 5
    endloop
  endfacet
  facet normal 0 0 1
    outer loop
      vertex -0.809006 0.587784 5
      vertex -26.3045 11.5307 5
      vertex -26.1722 11.1611 5
    endloop
  endfacet
  facet normal 0 0 1
    outer loop
      vertex -0.809006 0.587784 5
      vertex -26.4723 11.8856 5
      vertex -26.3045 11.5307 5
    endloop
  endfacet
  facet normal 0 0 1
    outer loop
      vertex 15 20 5
      vertex -26.6741 12.2223 5
      vertex -26.4723 11.8856 5
    endloop
  endfacet
  facet normal 0 0 1
    outer loop
      vertex 15 20 5
      vertex -26.908 12.5376 5
      vertex -26.6741 12.2223 5
    endloop
  endfacet
  facet normal 0 0 1
    outer loop
      vertex 15 20 5
      vertex -27.1716 12.8284 5
      vertex -26.908 12.5376 5
    endloop
  endfacet
  facet normal 0 0 1
    outer loop
      vertex 15 20 5
      vertex -27.4624 13.092 5
      vertex -27.1716 12.8284 5
    endloop
  endfacet
  facet normal 0 0 1
    outer loop
      vertex 15 20 5
      vertex -27.7777 13.3259 5
      vertex -27.4624 13.092 5
    endloop
  endfacet
  facet normal 0 0 1
    outer loop
      vertex 15 20 5
      vertex -28.1144 13.5277 5
      vertex -27.7777 13.3259 5
    endloop
  endfacet
  facet normal 0 0 1
    outer loop
      vertex 15 20 5
      vertex -28.4693 13.6955 5
      vertex -28.1144 13.5277 5
    endloop
  endfacet
  facet normal 0 0 1
    outer loop
      vertex 15 20 5
      vertex -28.8389 13.8278 5
      vertex -28.4693 13.6955 5
    endloop
  endfacet
  facet normal 0 0 1
    outer loop
      vertex 15 20 5
      vertex -29.2196 13.9231 5
      vertex -28.8389 13.8278 5
    endloop
  endfacet
  facet normal 0 0 1
    outer loop
      vertex 15 20 5
      vertex -29.6079 13.9807 5
      vertex -29.2196 13.9231 5
    endloop
  endfacet
  facet normal 0 0 1
    outer loop
      vertex 15 20 5
      vertex -30 14 5
      vertex -29.6079 13.9807 5
    endloop
  endfacet
  facet normal -0 0 1
    outer loop
      vertex -65 20 5
      vertex -30 14 5
      vertex 15 20 5
    endloop
  endfacet
  facet normal 0 0 1
    outer loop
      vertex -33.9807 10.3921 5
      vertex -65 20 5
      vertex -34 10 5
    endloop
  endfacet
  facet normal 0 0 1
    outer loop
      vertex -33.9231 10.7804 5
      vertex -65 20 5
      vertex -33.9807 10.3921 5
    endloop
  endfacet
  facet normal 0 0 1
    outer loop
      vertex -33.8278 11.1611 5
      vertex -65 20 5
      vertex -33.9231 10.7804 5
    endloop
  endfacet
  facet normal 0 0 1
    outer loop
      vertex -33.6955 11.5307 5
      vertex -65 20 5
      vertex -33.8278 11.1611 5
    endloop
  endfacet
  facet normal 0 0 1
    outer loop
      vertex -33.5277 11.8856 5
      vertex -65 20 5
      vertex -33.6955 11.5307 5
    endloop
  endfacet
  facet normal 0 0 1
    outer loop
      vertex -33.3259 12.2223 5
      vertex -65 20 5
      vertex -33.5277 11.8856 5
    endloop
  endfacet
  facet normal 0 0 1
    outer loop
      vertex -33.092 12.5376 5
      vertex -65 20 5
      vertex -33.3259 12.2223 5
    endloop
  endfacet
  facet normal 0 0 1
    outer loop
      vertex -32.8284 12.8284 5
      vertex -65 20 5
      vertex -33.092 12.5376 5
    endloop
  endfacet
  facet normal 0 0 1
    outer loop
      vertex -32.5376 13.092 5
      vertex -65 20 5
      vertex -32.8284 12.8284 5
    endloop
  endfacet
  facet normal 0 0 1
    outer loop
      vertex -32.2223 13.3259 5
      vertex -65 20 5
      vertex -32.5376 13.092 5
    endloop
  endfacet
  facet normal 0 0 1
    outer loop
      vertex -31.8856 13.5277 5
      vertex -65 20 5
      vertex -32.2223 13.3259 5
    endloop
  endfacet
  facet normal 0 0 1
    outer loop
      vertex -31.5307 13.6955 5
      vertex -65 20 5
      vertex -31.8856 13.5277 5
    endloop
  endfacet
  facet normal 0 0 1
    outer loop
      vertex -31.1611 13.8278 5
      vertex -65 20 5
      vertex -31.5307 13.6955 5
    endloop
  endfacet
  facet normal 0 0 1
    outer loop
      vertex -30.7804 13.9231 5
      vertex -65 20 5
      vertex -31.1611 13.8278 5
    endloop
  endfacet
  facet normal 0 0 1
    outer loop
      vertex -30.3921 13.9807 5
      vertex -65 20 5
      vertex -30.7804 13.9231 5
    endloop
  endfacet
  facet normal 0 0 1
    outer loop
      vertex -30 14 5
      vertex -65 20 5
      vertex -30.3921 13.9807 5
    endloop
  endfacet
  facet normal -0 0 1
    outer loop
      vertex -26.0769 9.21964 5
      vertex -0.809006 0.587784 5
      vertex -26.0193 9.60793 5
    endloop
  endfacet
  facet normal -0 0 1
    outer loop
      vertex -26.1722 8.83886 5
      vertex -0.809006 0.587784 5
      vertex -26.0769 9.21964 5
    endloop
  endfacet
  facet normal -0 0 1
    outer loop
      vertex -26.3045 8.46927 5
      vertex -0.809006 0.587784 5
      vertex -26.1722 8.83886 5
    endloop
  endfacet
  facet normal -0 0 1
    outer loop
      vertex -26.4723 8.11441 5
      vertex -0.809006 0.587784 5
      vertex -26.3045 8.46927 5
    endloop
  endfacet
  facet normal -0 0 1
    outer loop
      vertex -26.6741 7.77772 5
      vertex -0.809006 0.587784 5
      vertex -26.4723 8.11441 5
    endloop
  endfacet
  facet normal 0 0 1
    outer loop
      vertex -0.809006 0.587784 5
      vertex -26.6741 7.77772 5
      vertex -0.809006 0 5
    endloop
  endfacet
  facet normal -0 0 1
    outer loop
      vertex -26.908 7.46243 5
      vertex -0.809006 0 5
      vertex -26.6741 7.77772 5
    endloop
  endfacet
  facet normal -0 0 1
    outer loop
      vertex -27.1716 7.17157 5
      vertex -0.809006 0 5
      vertex -26.908 7.46243 5
    endloop
  endfacet
  facet normal -0 0 1
    outer loop
      vertex -27.4624 6.90796 5
      vertex -0.809006 0 5
      vertex -27.1716 7.17157 5
    endloop
  endfacet
  facet normal -0 0 1
    outer loop
      vertex -27.7777 6.67412 5
      vertex -0.809006 0 5
      vertex -27.4624 6.90796 5
    endloop
  endfacet
  facet normal -0 0 1
    outer loop
      vertex -28.1144 6.47231 5
      vertex -0.809006 0 5
      vertex -27.7777 6.67412 5
    endloop
  endfacet
  facet normal -0 0 1
    outer loop
      vertex -28.4693 6.30448 5
      vertex -0.809006 0 5
      vertex -28.1144 6.47231 5
    endloop
  endfacet
  facet normal -0 0 1
    outer loop
      vertex -28.8389 6.17224 5
      vertex -0.809006 0 5
      vertex -28.4693 6.30448 5
    endloop
  endfacet
  facet normal -0 0 1
    outer loop
      vertex -29.2196 6.07686 5
      vertex -0.809006 0 5
      vertex -28.8389 6.17224 5
    endloop
  endfacet
  facet normal -0 0 1
    outer loop
      vertex -29.6079 6.01926 5
      vertex -0.809006 0 5
      vertex -29.2196 6.07686 5
    endloop
  endfacet
  facet normal -0 0 1
    outer loop
      vertex -30 6 5
      vertex -0.809006 0 5
      vertex -29.6079 6.01926 5
    endloop
  endfacet
  facet normal 0 0 1
    outer loop
      vertex -65 0 5
      vertex -30 6 5
      vertex -30.3921 6.01926 5
    endloop
  endfacet
  facet normal 0 0 1
    outer loop
      vertex -65 0 5
      vertex -30.3921 6.01926 5
      vertex -30.7804 6.07686 5
    endloop
  endfacet
  facet normal 0 0 1
    outer loop
      vertex -65 0 5
      vertex -34 10 5
      vertex -65 20 5
    endloop
  endfacet
  facet normal 0 0 1
    outer loop
      vertex -34 10 5
      vertex -65 0 5
      vertex -33.9807 9.60793 5
    endloop
  endfacet
  facet normal 0 0 1
    outer loop
      vertex -33.9807 9.60793 5
      vertex -65 0 5
      vertex -33.9231 9.21964 5
    endloop
  endfacet
  facet normal 0 0 1
    outer loop
      vertex -33.9231 9.21964 5
      vertex -65 0 5
      vertex -33.8278 8.83886 5
    endloop
  endfacet
  facet normal 0 0 1
    outer loop
      vertex -33.8278 8.83886 5
      vertex -65 0 5
      vertex -33.6955 8.46927 5
    endloop
  endfacet
  facet normal 0 0 1
    outer loop
      vertex -33.6955 8.46927 5
      vertex -65 0 5
      vertex -33.5277 8.11441 5
    endloop
  endfacet
  facet normal 0 0 1
    outer loop
      vertex -33.5277 8.11441 5
      vertex -65 0 5
      vertex -33.3259 7.77772 5
    endloop
  endfacet
  facet normal 0 0 1
    outer loop
      vertex -33.3259 7.77772 5
      vertex -65 0 5
      vertex -33.092 7.46243 5
    endloop
  endfacet
  facet normal 0 0 1
    outer loop
      vertex -33.092 7.46243 5
      vertex -65 0 5
      vertex -32.8284 7.17157 5
    endloop
  endfacet
  facet normal 0 0 1
    outer loop
      vertex -32.8284 7.17157 5
      vertex -65 0 5
      vertex -32.5376 6.90796 5
    endloop
  endfacet
  facet normal 0 0 1
    outer loop
      vertex -32.5376 6.90796 5
      vertex -65 0 5
      vertex -32.2223 6.67412 5
    endloop
  endfacet
  facet normal 0 0 1
    outer loop
      vertex -32.2223 6.67412 5
      vertex -65 0 5
      vertex -31.8856 6.47231 5
    endloop
  endfacet
  facet normal 0 0 1
    outer loop
      vertex -30 6 5
      vertex -65 0 5
      vertex -0.809006 0 5
    endloop
  endfacet
  facet normal 0 0 1
    outer loop
      vertex -31.1611 6.17224 5
      vertex -65 0 5
      vertex -30.7804 6.07686 5
    endloop
  endfacet
  facet normal 0 0 1
    outer loop
      vertex -31.5307 6.30448 5
      vertex -65 0 5
      vertex -31.1611 6.17224 5
    endloop
  endfacet
  facet normal 0 0 1
    outer loop
      vertex -31.8856 6.47231 5
      vertex -65 0 5
      vertex -31.5307 6.30448 5
    endloop
  endfacet
  facet normal 0 1 -0
    outer loop
      vertex 15 20 0
      vertex -65 20 5
      vertex 15 20 5
    endloop
  endfacet
  facet normal 0 1 0
    outer loop
      vertex -65 20 5
      vertex 15 20 0
      vertex -65 20 0
    endloop
  endfacet
  facet normal 0 -1 0
    outer loop
      vertex 1 0 0
      vertex 15 0 5
      vertex 1 0 5
    endloop
  endfacet
  facet normal 0 -1 -0
    outer loop
      vertex 15 0 5
      vertex 1 0 0
      vertex 15 0 0
    endloop
  endfacet
  facet normal 0 -1 0
    outer loop
      vertex -65 0 0
      vertex -0.809006 0 5
      vertex -65 0 5
    endloop
  endfacet
  facet normal 0 -1 -0
    outer loop
      vertex -0.809006 0 5
      vertex -65 0 0
      vertex -0.809006 0 0
    endloop
  endfacet
  facet normal 1 -0 0
    outer loop
      vertex 15 0 5
      vertex 15 20 0
      vertex 15 20 5
    endloop
  endfacet
  facet normal 1 0 0
    outer loop
      vertex 15 20 0
      vertex 15 0 5
      vertex 15 0 0
    endloop
  endfacet
  facet normal 0.809011 -0.587794 0
    outer loop
      vertex 0.309006 -0.95105 100
      vertex 1 0 5
      vertex 1 0 100
    endloop
  endfacet
  facet normal 0.809011 -0.587794 0
    outer loop
      vertex 0.309006 -0.95105 0
      vertex 1 0 5
      vertex 0.309006 -0.95105 100
    endloop
  endfacet
  facet normal 0.809011 -0.587794 0
    outer loop
      vertex 1 0 5
      vertex 0.309006 -0.95105 0
      vertex 1 0 0
    endloop
  endfacet
  facet normal 0 0 1
    outer loop
      vertex 0.309006 0.95105 100
      vertex 0.309006 -0.95105 100
      vertex 1 0 100
    endloop
  endfacet
  facet normal -0 0 1
    outer loop
      vertex -0.809006 0.587784 100
      vertex 0.309006 -0.95105 100
      vertex 0.309006 0.95105 100
    endloop
  endfacet
  facet normal 0 0 1
    outer loop
      vertex 0.309006 -0.95105 100
      vertex -0.809006 0.587784 100
      vertex -0.809006 -0.587784 100
    endloop
  endfacet
  facet normal -0.309018 0.951056 0
    outer loop
      vertex 0.309006 0.95105 5
      vertex -0.809006 0.587784 100
      vertex 0.309006 0.95105 100
    endloop
  endfacet
  facet normal -0.309018 0.951056 0
    outer loop
      vertex -0.809006 0.587784 100
      vertex 0.309006 0.95105 5
      vertex -0.809006 0.587784 5
    endloop
  endfacet
  facet normal -1 0 0
    outer loop
      vertex -0.809006 0 0
      vertex -0.809006 -0.587784 0
      vertex -0.809006 0 5
    endloop
  endfacet
  facet normal -1 0 0
    outer loop
      vertex -0.809006 0 5
      vertex -0.809006 0.587784 100
      vertex -0.809006 0.587784 5
    endloop
  endfacet
  facet normal -1 0 0
    outer loop
      vertex -0.809006 -0.587784 100
      vertex -0.809006 0 5
      vertex -0.809006 -0.587784 0
    endloop
  endfacet
  facet normal -1 0 0
    outer loop
      vertex -0.809006 0 5
      vertex -0.809006 -0.587784 100
      vertex -0.809006 0.587784 100
    endloop
  endfacet
  facet normal -0.309018 -0.951056 0
    outer loop
      vertex -0.809006 -0.587784 0
      vertex 0.309006 -0.95105 100
      vertex -0.809006 -0.587784 100
    endloop
  endfacet
  facet normal -0.309018 -0.951056 -0
    outer loop
      vertex 0.309006 -0.95105 100
      vertex -0.809006 -0.587784 0
      vertex 0.309006 -0.95105 0
    endloop
  endfacet
  facet normal 0.809011 0.587794 0
    outer loop
      vertex 1 0 100
      vertex 0.309006 0.95105 5
      vertex 0.309006 0.95105 100
    endloop
  endfacet
  facet normal 0.809011 0.587794 0
    outer loop
      vertex 0.309006 0.95105 5
      vertex 1 0 100
      vertex 1 0 5
    endloop
  endfacet
endsolid OpenSCAD_Model
