solid OpenSCAD_Model
  facet normal -0.671564 -0.740946 0
    outer loop
      vertex -5.65685 -5.65685 10
      vertex -5.07515 -6.18408 50
      vertex -5.65685 -5.65685 50
    endloop
  endfacet
  facet normal -0.671564 -0.740946 -0
    outer loop
      vertex -5.07515 -6.18408 50
      vertex -5.65685 -5.65685 10
      vertex -5.07515 -6.18408 10
    endloop
  endfacet
  facet normal -0.941547 0.336883 0
    outer loop
      vertex -7.65552 2.32228 10
      vertex -7.39104 3.06147 50
      vertex -7.39104 3.06147 10
    endloop
  endfacet
  facet normal -0.941547 0.336883 0
    outer loop
      vertex -7.39104 3.06147 50
      vertex -7.65552 2.32228 10
      vertex -7.65552 2.32228 50
    endloop
  endfacet
  facet normal 0.989176 0.146736 0
    outer loop
      vertex 7.96148 0.784137 50
      vertex 7.84628 1.56072 10
      vertex 7.84628 1.56072 50
    endloop
  endfacet
  facet normal 0.989176 0.146736 0
    outer loop
      vertex 7.84628 1.56072 10
      vertex 7.96148 0.784137 50
      vertex 7.96148 0.784137 10
    endloop
  endfacet
  facet normal 0.998796 0.0490649 0
    outer loop
      vertex 8 0 50
      vertex 7.96148 0.784137 10
      vertex 7.96148 0.784137 50
    endloop
  endfacet
  facet normal 0.998796 0.0490649 0
    outer loop
      vertex 7.96148 0.784137 10
      vertex 8 0 50
      vertex 8 0 10
    endloop
  endfacet
  facet normal -0.514099 -0.857731 0
    outer loop
      vertex -4.44456 -6.65176 10
      vertex -3.77117 -7.05537 50
      vertex -4.44456 -6.65176 50
    endloop
  endfacet
  facet normal -0.514099 -0.857731 -0
    outer loop
      vertex -3.77117 -7.05537 50
      vertex -4.44456 -6.65176 10
      vertex -3.77117 -7.05537 10
    endloop
  endfacet
  facet normal 0.671564 0.740946 -0
    outer loop
      vertex 5.65685 5.65685 10
      vertex 5.07515 6.18408 50
      vertex 5.65685 5.65685 50
    endloop
  endfacet
  facet normal 0.671564 0.740946 0
    outer loop
      vertex 5.07515 6.18408 50
      vertex 5.65685 5.65685 10
      vertex 5.07515 6.18408 10
    endloop
  endfacet
  facet normal -0.146736 -0.989176 0
    outer loop
      vertex -1.56072 -7.84628 10
      vertex -0.784137 -7.96148 50
      vertex -1.56072 -7.84628 50
    endloop
  endfacet
  facet normal -0.146736 -0.989176 -0
    outer loop
      vertex -0.784137 -7.96148 50
      vertex -1.56072 -7.84628 10
      vertex -0.784137 -7.96148 10
    endloop
  endfacet
  facet normal 0.740946 0.671564 0
    outer loop
      vertex 6.18408 5.07515 50
      vertex 5.65685 5.65685 10
      vertex 5.65685 5.65685 50
    endloop
  endfacet
  facet normal 0.740946 0.671564 0
    outer loop
      vertex 5.65685 5.65685 10
      vertex 6.18408 5.07515 50
      vertex 6.18408 5.07515 10
    endloop
  endfacet
  facet normal 0.427562 0.903986 -0
    outer loop
      vertex 3.77117 7.05537 10
      vertex 3.06147 7.39104 50
      vertex 3.77117 7.05537 50
    endloop
  endfacet
  facet normal 0.427562 0.903986 0
    outer loop
      vertex 3.06147 7.39104 50
      vertex 3.77117 7.05537 10
      vertex 3.06147 7.39104 10
    endloop
  endfacet
  facet normal 0.0490649 -0.998796 0
    outer loop
      vertex 0 -8 10
      vertex 0.784137 -7.96148 50
      vertex 0 -8 50
    endloop
  endfacet
  facet normal 0.0490649 -0.998796 0
    outer loop
      vertex 0.784137 -7.96148 50
      vertex 0 -8 10
      vertex 0.784137 -7.96148 10
    endloop
  endfacet
  facet normal -0.740946 0.671564 0
    outer loop
      vertex -6.18408 5.07515 10
      vertex -5.65685 5.65685 50
      vertex -5.65685 5.65685 10
    endloop
  endfacet
  facet normal -0.740946 0.671564 0
    outer loop
      vertex -5.65685 5.65685 50
      vertex -6.18408 5.07515 10
      vertex -6.18408 5.07515 50
    endloop
  endfacet
  facet normal 0.989176 -0.146736 0
    outer loop
      vertex 7.84628 -1.56072 50
      vertex 7.96148 -0.784137 10
      vertex 7.96148 -0.784137 50
    endloop
  endfacet
  facet normal 0.989176 -0.146736 0
    outer loop
      vertex 7.96148 -0.784137 10
      vertex 7.84628 -1.56072 50
      vertex 7.84628 -1.56072 10
    endloop
  endfacet
  facet normal 0.903986 0.427562 0
    outer loop
      vertex 7.39104 3.06147 50
      vertex 7.05537 3.77117 10
      vertex 7.05537 3.77117 50
    endloop
  endfacet
  facet normal 0.903986 0.427562 0
    outer loop
      vertex 7.05537 3.77117 10
      vertex 7.39104 3.06147 50
      vertex 7.39104 3.06147 10
    endloop
  endfacet
  facet normal -0.242979 0.970032 0
    outer loop
      vertex -1.56072 7.84628 10
      vertex -2.32228 7.65552 50
      vertex -1.56072 7.84628 50
    endloop
  endfacet
  facet normal -0.242979 0.970032 0
    outer loop
      vertex -2.32228 7.65552 50
      vertex -1.56072 7.84628 10
      vertex -2.32228 7.65552 10
    endloop
  endfacet
  facet normal -0.803206 0.595701 0
    outer loop
      vertex -6.65176 4.44456 10
      vertex -6.18408 5.07515 50
      vertex -6.18408 5.07515 10
    endloop
  endfacet
  facet normal -0.803206 0.595701 0
    outer loop
      vertex -6.18408 5.07515 50
      vertex -6.65176 4.44456 10
      vertex -6.65176 4.44456 50
    endloop
  endfacet
  facet normal 0.242979 0.970032 -0
    outer loop
      vertex 2.32228 7.65552 10
      vertex 1.56072 7.84628 50
      vertex 2.32228 7.65552 50
    endloop
  endfacet
  facet normal 0.242979 0.970032 0
    outer loop
      vertex 1.56072 7.84628 50
      vertex 2.32228 7.65552 10
      vertex 1.56072 7.84628 10
    endloop
  endfacet
  facet normal 0.336883 0.941547 -0
    outer loop
      vertex 3.06147 7.39104 10
      vertex 2.32228 7.65552 50
      vertex 3.06147 7.39104 50
    endloop
  endfacet
  facet normal 0.336883 0.941547 0
    outer loop
      vertex 2.32228 7.65552 50
      vertex 3.06147 7.39104 10
      vertex 2.32228 7.65552 10
    endloop
  endfacet
  facet normal 0.941547 0.336883 0
    outer loop
      vertex 7.65552 2.32228 50
      vertex 7.39104 3.06147 10
      vertex 7.39104 3.06147 50
    endloop
  endfacet
  facet normal 0.941547 0.336883 0
    outer loop
      vertex 7.39104 3.06147 10
      vertex 7.65552 2.32228 50
      vertex 7.65552 2.32228 10
    endloop
  endfacet
  facet normal 0.595701 0.803206 -0
    outer loop
      vertex 5.07515 6.18408 10
      vertex 4.44456 6.65176 50
      vertex 5.07515 6.18408 50
    endloop
  endfacet
  facet normal 0.595701 0.803206 0
    outer loop
      vertex 4.44456 6.65176 50
      vertex 5.07515 6.18408 10
      vertex 4.44456 6.65176 10
    endloop
  endfacet
  facet normal -0.857731 -0.514099 0
    outer loop
      vertex -6.65176 -4.44456 10
      vertex -7.05537 -3.77117 50
      vertex -7.05537 -3.77117 10
    endloop
  endfacet
  facet normal -0.857731 -0.514099 0
    outer loop
      vertex -7.05537 -3.77117 50
      vertex -6.65176 -4.44456 10
      vertex -6.65176 -4.44456 50
    endloop
  endfacet
  facet normal 0.514099 0.857731 -0
    outer loop
      vertex 4.44456 6.65176 10
      vertex 3.77117 7.05537 50
      vertex 4.44456 6.65176 50
    endloop
  endfacet
  facet normal 0.514099 0.857731 0
    outer loop
      vertex 3.77117 7.05537 50
      vertex 4.44456 6.65176 10
      vertex 3.77117 7.05537 10
    endloop
  endfacet
  facet normal 0.941547 -0.336883 0
    outer loop
      vertex 7.39104 -3.06147 50
      vertex 7.65552 -2.32228 10
      vertex 7.65552 -2.32228 50
    endloop
  endfacet
  facet normal 0.941547 -0.336883 0
    outer loop
      vertex 7.65552 -2.32228 10
      vertex 7.39104 -3.06147 50
      vertex 7.39104 -3.06147 10
    endloop
  endfacet
  facet normal -0.857731 0.514099 0
    outer loop
      vertex -7.05537 3.77117 10
      vertex -6.65176 4.44456 50
      vertex -6.65176 4.44456 10
    endloop
  endfacet
  facet normal -0.857731 0.514099 0
    outer loop
      vertex -6.65176 4.44456 50
      vertex -7.05537 3.77117 10
      vertex -7.05537 3.77117 50
    endloop
  endfacet
  facet normal -0.970032 -0.242979 0
    outer loop
      vertex -7.65552 -2.32228 10
      vertex -7.84628 -1.56072 50
      vertex -7.84628 -1.56072 10
    endloop
  endfacet
  facet normal -0.970032 -0.242979 0
    outer loop
      vertex -7.84628 -1.56072 50
      vertex -7.65552 -2.32228 10
      vertex -7.65552 -2.32228 50
    endloop
  endfacet
  facet normal 0.0490649 0.998796 -0
    outer loop
      vertex 0.784137 7.96148 10
      vertex 0 8 50
      vertex 0.784137 7.96148 50
    endloop
  endfacet
  facet normal 0.0490649 0.998796 0
    outer loop
      vertex 0 8 50
      vertex 0.784137 7.96148 10
      vertex 0 8 10
    endloop
  endfacet
  facet normal 0.857731 0.514099 0
    outer loop
      vertex 7.05537 3.77117 50
      vertex 6.65176 4.44456 10
      vertex 6.65176 4.44456 50
    endloop
  endfacet
  facet normal 0.857731 0.514099 0
    outer loop
      vertex 6.65176 4.44456 10
      vertex 7.05537 3.77117 50
      vertex 7.05537 3.77117 10
    endloop
  endfacet
  facet normal -0.941547 -0.336883 0
    outer loop
      vertex -7.39104 -3.06147 10
      vertex -7.65552 -2.32228 50
      vertex -7.65552 -2.32228 10
    endloop
  endfacet
  facet normal -0.941547 -0.336883 0
    outer loop
      vertex -7.65552 -2.32228 50
      vertex -7.39104 -3.06147 10
      vertex -7.39104 -3.06147 50
    endloop
  endfacet
  facet normal -0.671564 0.740946 0
    outer loop
      vertex -5.07515 6.18408 10
      vertex -5.65685 5.65685 50
      vertex -5.07515 6.18408 50
    endloop
  endfacet
  facet normal -0.671564 0.740946 0
    outer loop
      vertex -5.65685 5.65685 50
      vertex -5.07515 6.18408 10
      vertex -5.65685 5.65685 10
    endloop
  endfacet
  facet normal 0.970032 -0.242979 0
    outer loop
      vertex 7.65552 -2.32228 50
      vertex 7.84628 -1.56072 10
      vertex 7.84628 -1.56072 50
    endloop
  endfacet
  facet normal 0.970032 -0.242979 0
    outer loop
      vertex 7.84628 -1.56072 10
      vertex 7.65552 -2.32228 50
      vertex 7.65552 -2.32228 10
    endloop
  endfacet
  facet normal 0 0 -1
    outer loop
      vertex 0 -4.6188 0
      vertex 4 2.30939 0
      vertex 4 -2.30939 0
    endloop
  endfacet
  facet normal 0 0 -1
    outer loop
      vertex 0 -4.6188 0
      vertex 0 4.6188 0
      vertex 4 2.30939 0
    endloop
  endfacet
  facet normal 0 0 -1
    outer loop
      vertex -4 -2.30939 0
      vertex 0 4.6188 0
      vertex 0 -4.6188 0
    endloop
  endfacet
  facet normal 0 0 -1
    outer loop
      vertex 0 4.6188 0
      vertex -4 -2.30939 0
      vertex -4 2.30939 0
    endloop
  endfacet
  facet normal -0.514099 0.857731 0
    outer loop
      vertex -3.77117 7.05537 10
      vertex -4.44456 6.65176 50
      vertex -3.77117 7.05537 50
    endloop
  endfacet
  facet normal -0.514099 0.857731 0
    outer loop
      vertex -4.44456 6.65176 50
      vertex -3.77117 7.05537 10
      vertex -4.44456 6.65176 10
    endloop
  endfacet
  facet normal -0.998796 -0.0490649 0
    outer loop
      vertex -7.96148 -0.784137 10
      vertex -8 0 50
      vertex -8 0 10
    endloop
  endfacet
  facet normal -0.998796 -0.0490649 0
    outer loop
      vertex -8 0 50
      vertex -7.96148 -0.784137 10
      vertex -7.96148 -0.784137 50
    endloop
  endfacet
  facet normal -0.970032 0.242979 0
    outer loop
      vertex -7.84628 1.56072 10
      vertex -7.65552 2.32228 50
      vertex -7.65552 2.32228 10
    endloop
  endfacet
  facet normal -0.970032 0.242979 0
    outer loop
      vertex -7.65552 2.32228 50
      vertex -7.84628 1.56072 10
      vertex -7.84628 1.56072 50
    endloop
  endfacet
  facet normal 0.427562 -0.903986 0
    outer loop
      vertex 3.06147 -7.39104 10
      vertex 3.77117 -7.05537 50
      vertex 3.06147 -7.39104 50
    endloop
  endfacet
  facet normal 0.427562 -0.903986 0
    outer loop
      vertex 3.77117 -7.05537 50
      vertex 3.06147 -7.39104 10
      vertex 3.77117 -7.05537 10
    endloop
  endfacet
  facet normal -0.336883 -0.941547 0
    outer loop
      vertex -3.06147 -7.39104 10
      vertex -2.32228 -7.65552 50
      vertex -3.06147 -7.39104 50
    endloop
  endfacet
  facet normal -0.336883 -0.941547 -0
    outer loop
      vertex -2.32228 -7.65552 50
      vertex -3.06147 -7.39104 10
      vertex -2.32228 -7.65552 10
    endloop
  endfacet
  facet normal -0.336883 0.941547 0
    outer loop
      vertex -2.32228 7.65552 10
      vertex -3.06147 7.39104 50
      vertex -2.32228 7.65552 50
    endloop
  endfacet
  facet normal -0.336883 0.941547 0
    outer loop
      vertex -3.06147 7.39104 50
      vertex -2.32228 7.65552 10
      vertex -3.06147 7.39104 10
    endloop
  endfacet
  facet normal 0.514099 -0.857731 0
    outer loop
      vertex 3.77117 -7.05537 10
      vertex 4.44456 -6.65176 50
      vertex 3.77117 -7.05537 50
    endloop
  endfacet
  facet normal 0.514099 -0.857731 0
    outer loop
      vertex 4.44456 -6.65176 50
      vertex 3.77117 -7.05537 10
      vertex 4.44456 -6.65176 10
    endloop
  endfacet
  facet normal 0.146736 -0.989176 0
    outer loop
      vertex 0.784137 -7.96148 10
      vertex 1.56072 -7.84628 50
      vertex 0.784137 -7.96148 50
    endloop
  endfacet
  facet normal 0.146736 -0.989176 0
    outer loop
      vertex 1.56072 -7.84628 50
      vertex 0.784137 -7.96148 10
      vertex 1.56072 -7.84628 10
    endloop
  endfacet
  facet normal 0.740946 -0.671564 0
    outer loop
      vertex 5.65685 -5.65685 50
      vertex 6.18408 -5.07515 10
      vertex 6.18408 -5.07515 50
    endloop
  endfacet
  facet normal 0.740946 -0.671564 0
    outer loop
      vertex 6.18408 -5.07515 10
      vertex 5.65685 -5.65685 50
      vertex 5.65685 -5.65685 10
    endloop
  endfacet
  facet normal 0.803206 -0.595701 0
    outer loop
      vertex 6.18408 -5.07515 50
      vertex 6.65176 -4.44456 10
      vertex 6.65176 -4.44456 50
    endloop
  endfacet
  facet normal 0.803206 -0.595701 0
    outer loop
      vertex 6.65176 -4.44456 10
      vertex 6.18408 -5.07515 50
      vertex 6.18408 -5.07515 10
    endloop
  endfacet
  facet normal -0.0490649 0.998796 0
    outer loop
      vertex 0 8 10
      vertex -0.784137 7.96148 50
      vertex 0 8 50
    endloop
  endfacet
  facet normal -0.0490649 0.998796 0
    outer loop
      vertex -0.784137 7.96148 50
      vertex 0 8 10
      vertex -0.784137 7.96148 10
    endloop
  endfacet
  facet normal -0.427562 0.903986 0
    outer loop
      vertex -3.06147 7.39104 10
      vertex -3.77117 7.05537 50
      vertex -3.06147 7.39104 50
    endloop
  endfacet
  facet normal -0.427562 0.903986 0
    outer loop
      vertex -3.77117 7.05537 50
      vertex -3.06147 7.39104 10
      vertex -3.77117 7.05537 10
    endloop
  endfacet
  facet normal -0.595701 0.803206 0
    outer loop
      vertex -4.44456 6.65176 10
      vertex -5.07515 6.18408 50
      vertex -4.44456 6.65176 50
    endloop
  endfacet
  facet normal -0.595701 0.803206 0
    outer loop
      vertex -5.07515 6.18408 50
      vertex -4.44456 6.65176 10
      vertex -5.07515 6.18408 10
    endloop
  endfacet
  facet normal -0.989176 0.146736 0
    outer loop
      vertex -7.96148 0.784137 10
      vertex -7.84628 1.56072 50
      vertex -7.84628 1.56072 10
    endloop
  endfacet
  facet normal -0.989176 0.146736 0
    outer loop
      vertex -7.84628 1.56072 50
      vertex -7.96148 0.784137 10
      vertex -7.96148 0.784137 50
    endloop
  endfacet
  facet normal -0.242979 -0.970032 0
    outer loop
      vertex -2.32228 -7.65552 10
      vertex -1.56072 -7.84628 50
      vertex -2.32228 -7.65552 50
    endloop
  endfacet
  facet normal -0.242979 -0.970032 -0
    outer loop
      vertex -1.56072 -7.84628 50
      vertex -2.32228 -7.65552 10
      vertex -1.56072 -7.84628 10
    endloop
  endfacet
  facet normal 0.970032 0.242979 0
    outer loop
      vertex 7.84628 1.56072 50
      vertex 7.65552 2.32228 10
      vertex 7.65552 2.32228 50
    endloop
  endfacet
  facet normal 0.970032 0.242979 0
    outer loop
      vertex 7.65552 2.32228 10
      vertex 7.84628 1.56072 50
      vertex 7.84628 1.56072 10
    endloop
  endfacet
  facet normal 0.803206 0.595701 0
    outer loop
      vertex 6.65176 4.44456 50
      vertex 6.18408 5.07515 10
      vertex 6.18408 5.07515 50
    endloop
  endfacet
  facet normal 0.803206 0.595701 0
    outer loop
      vertex 6.18408 5.07515 10
      vertex 6.65176 4.44456 50
      vertex 6.65176 4.44456 10
    endloop
  endfacet
  facet normal -0.803206 -0.595701 0
    outer loop
      vertex -6.18408 -5.07515 10
      vertex -6.65176 -4.44456 50
      vertex -6.65176 -4.44456 10
    endloop
  endfacet
  facet normal -0.803206 -0.595701 0
    outer loop
      vertex -6.65176 -4.44456 50
      vertex -6.18408 -5.07515 10
      vertex -6.18408 -5.07515 50
    endloop
  endfacet
  facet normal -0.903986 -0.427562 0
    outer loop
      vertex -7.05537 -3.77117 10
      vertex -7.39104 -3.06147 50
      vertex -7.39104 -3.06147 10
    endloop
  endfacet
  facet normal -0.903986 -0.427562 0
    outer loop
      vertex -7.39104 -3.06147 50
      vertex -7.05537 -3.77117 10
      vertex -7.05537 -3.77117 50
    endloop
  endfacet
  facet normal 0.146736 0.989176 -0
    outer loop
      vertex 1.56072 7.84628 10
      vertex 0.784137 7.96148 50
      vertex 1.56072 7.84628 50
    endloop
  endfacet
  facet normal 0.146736 0.989176 0
    outer loop
      vertex 0.784137 7.96148 50
      vertex 1.56072 7.84628 10
      vertex 0.784137 7.96148 10
    endloop
  endfacet
  facet normal -0.427562 -0.903986 0
    outer loop
      vertex -3.77117 -7.05537 10
      vertex -3.06147 -7.39104 50
      vertex -3.77117 -7.05537 50
    endloop
  endfacet
  facet normal -0.427562 -0.903986 -0
    outer loop
      vertex -3.06147 -7.39104 50
      vertex -3.77117 -7.05537 10
      vertex -3.06147 -7.39104 10
    endloop
  endfacet
  facet normal 0.595701 -0.803206 0
    outer loop
      vertex 4.44456 -6.65176 10
      vertex 5.07515 -6.18408 50
      vertex 4.44456 -6.65176 50
    endloop
  endfacet
  facet normal 0.595701 -0.803206 0
    outer loop
      vertex 5.07515 -6.18408 50
      vertex 4.44456 -6.65176 10
      vertex 5.07515 -6.18408 10
    endloop
  endfacet
  facet normal 0.998796 -0.0490649 0
    outer loop
      vertex 7.96148 -0.784137 50
      vertex 8 0 10
      vertex 8 0 50
    endloop
  endfacet
  facet normal 0.998796 -0.0490649 0
    outer loop
      vertex 8 0 10
      vertex 7.96148 -0.784137 50
      vertex 7.96148 -0.784137 10
    endloop
  endfacet
  facet normal -0.146736 0.989176 0
    outer loop
      vertex -0.784137 7.96148 10
      vertex -1.56072 7.84628 50
      vertex -0.784137 7.96148 50
    endloop
  endfacet
  facet normal -0.146736 0.989176 0
    outer loop
      vertex -1.56072 7.84628 50
      vertex -0.784137 7.96148 10
      vertex -1.56072 7.84628 10
    endloop
  endfacet
  facet normal -0.989176 -0.146736 0
    outer loop
      vertex -7.84628 -1.56072 10
      vertex -7.96148 -0.784137 50
      vertex -7.96148 -0.784137 10
    endloop
  endfacet
  facet normal -0.989176 -0.146736 0
    outer loop
      vertex -7.96148 -0.784137 50
      vertex -7.84628 -1.56072 10
      vertex -7.84628 -1.56072 50
    endloop
  endfacet
  facet normal 0.336883 -0.941547 0
    outer loop
      vertex 2.32228 -7.65552 10
      vertex 3.06147 -7.39104 50
      vertex 2.32228 -7.65552 50
    endloop
  endfacet
  facet normal 0.336883 -0.941547 0
    outer loop
      vertex 3.06147 -7.39104 50
      vertex 2.32228 -7.65552 10
      vertex 3.06147 -7.39104 10
    endloop
  endfacet
  facet normal 0.242979 -0.970032 0
    outer loop
      vertex 1.56072 -7.84628 10
      vertex 2.32228 -7.65552 50
      vertex 1.56072 -7.84628 50
    endloop
  endfacet
  facet normal 0.242979 -0.970032 0
    outer loop
      vertex 2.32228 -7.65552 50
      vertex 1.56072 -7.84628 10
      vertex 2.32228 -7.65552 10
    endloop
  endfacet
  facet normal -0.740946 -0.671564 0
    outer loop
      vertex -5.65685 -5.65685 10
      vertex -6.18408 -5.07515 50
      vertex -6.18408 -5.07515 10
    endloop
  endfacet
  facet normal -0.740946 -0.671564 0
    outer loop
      vertex -6.18408 -5.07515 50
      vertex -5.65685 -5.65685 10
      vertex -5.65685 -5.65685 50
    endloop
  endfacet
  facet normal -0.903986 0.427562 0
    outer loop
      vertex -7.39104 3.06147 10
      vertex -7.05537 3.77117 50
      vertex -7.05537 3.77117 10
    endloop
  endfacet
  facet normal -0.903986 0.427562 0
    outer loop
      vertex -7.05537 3.77117 50
      vertex -7.39104 3.06147 10
      vertex -7.39104 3.06147 50
    endloop
  endfacet
  facet normal -0.595701 -0.803206 0
    outer loop
      vertex -5.07515 -6.18408 10
      vertex -4.44456 -6.65176 50
      vertex -5.07515 -6.18408 50
    endloop
  endfacet
  facet normal -0.595701 -0.803206 -0
    outer loop
      vertex -4.44456 -6.65176 50
      vertex -5.07515 -6.18408 10
      vertex -4.44456 -6.65176 10
    endloop
  endfacet
  facet normal 0.903986 -0.427562 0
    outer loop
      vertex 7.05537 -3.77117 50
      vertex 7.39104 -3.06147 10
      vertex 7.39104 -3.06147 50
    endloop
  endfacet
  facet normal 0.903986 -0.427562 0
    outer loop
      vertex 7.39104 -3.06147 10
      vertex 7.05537 -3.77117 50
      vertex 7.05537 -3.77117 10
    endloop
  endfacet
  facet normal 0.857731 -0.514099 0
    outer loop
      vertex 6.65176 -4.44456 50
      vertex 7.05537 -3.77117 10
      vertex 7.05537 -3.77117 50
    endloop
  endfacet
  facet normal 0.857731 -0.514099 0
    outer loop
      vertex 7.05537 -3.77117 10
      vertex 6.65176 -4.44456 50
      vertex 6.65176 -4.44456 10
    endloop
  endfacet
  facet normal -0.0490649 -0.998796 0
    outer loop
      vertex -0.784137 -7.96148 10
      vertex 0 -8 50
      vertex -0.784137 -7.96148 50
    endloop
  endfacet
  facet normal -0.0490649 -0.998796 -0
    outer loop
      vertex 0 -8 50
      vertex -0.784137 -7.96148 10
      vertex 0 -8 10
    endloop
  endfacet
  facet normal 0 0 1
    outer loop
      vertex 7.96148 0.784137 50
      vertex 7.96148 -0.784137 50
      vertex 8 0 50
    endloop
  endfacet
  facet normal 0 0 1
    outer loop
      vertex 7.84628 1.56072 50
      vertex 7.96148 -0.784137 50
      vertex 7.96148 0.784137 50
    endloop
  endfacet
  facet normal 0 0 1
    outer loop
      vertex 7.84628 1.56072 50
      vertex 7.84628 -1.56072 50
      vertex 7.96148 -0.784137 50
    endloop
  endfacet
  facet normal 0 0 1
    outer loop
      vertex 7.65552 2.32228 50
      vertex 7.84628 -1.56072 50
      vertex 7.84628 1.56072 50
    endloop
  endfacet
  facet normal 0 0 1
    outer loop
      vertex 7.65552 2.32228 50
      vertex 7.65552 -2.32228 50
      vertex 7.84628 -1.56072 50
    endloop
  endfacet
  facet normal 0 0 1
    outer loop
      vertex 7.39104 3.06147 50
      vertex 7.65552 -2.32228 50
      vertex 7.65552 2.32228 50
    endloop
  endfacet
  facet normal 0 0 1
    outer loop
      vertex 7.39104 3.06147 50
      vertex 7.39104 -3.06147 50
      vertex 7.65552 -2.32228 50
    endloop
  endfacet
  facet normal 0 0 1
    outer loop
      vertex 7.05537 3.77117 50
      vertex 7.39104 -3.06147 50
      vertex 7.39104 3.06147 50
    endloop
  endfacet
  facet normal 0 0 1
    outer loop
      vertex 7.05537 3.77117 50
      vertex 7.05537 -3.77117 50
      vertex 7.39104 -3.06147 50
    endloop
  endfacet
  facet normal 0 0 1
    outer loop
      vertex 6.65176 4.44456 50
      vertex 7.05537 -3.77117 50
      vertex 7.05537 3.77117 50
    endloop
  endfacet
  facet normal 0 0 1
    outer loop
      vertex 6.65176 4.44456 50
      vertex 6.65176 -4.44456 50
      vertex 7.05537 -3.77117 50
    endloop
  endfacet
  facet normal 0 0 1
    outer loop
      vertex 6.18408 5.07515 50
      vertex 6.65176 -4.44456 50
      vertex 6.65176 4.44456 50
    endloop
  endfacet
  facet normal 0 0 1
    outer loop
      vertex 6.18408 5.07515 50
      vertex 6.18408 -5.07515 50
      vertex 6.65176 -4.44456 50
    endloop
  endfacet
  facet normal 0 0 1
    outer loop
      vertex 5.65685 5.65685 50
      vertex 6.18408 -5.07515 50
      vertex 6.18408 5.07515 50
    endloop
  endfacet
  facet normal 0 0 1
    outer loop
      vertex 5.65685 5.65685 50
      vertex 5.65685 -5.65685 50
      vertex 6.18408 -5.07515 50
    endloop
  endfacet
  facet normal 0 0 1
    outer loop
      vertex 5.07515 6.18408 50
      vertex 5.65685 -5.65685 50
      vertex 5.65685 5.65685 50
    endloop
  endfacet
  facet normal 0 0 1
    outer loop
      vertex 5.07515 6.18408 50
      vertex 5.07515 -6.18408 50
      vertex 5.65685 -5.65685 50
    endloop
  endfacet
  facet normal 0 0 1
    outer loop
      vertex 4.44456 6.65176 50
      vertex 5.07515 -6.18408 50
      vertex 5.07515 6.18408 50
    endloop
  endfacet
  facet normal 0 0 1
    outer loop
      vertex 4.44456 6.65176 50
      vertex 4.44456 -6.65176 50
      vertex 5.07515 -6.18408 50
    endloop
  endfacet
  facet normal 0 0 1
    outer loop
      vertex 3.77117 7.05537 50
      vertex 4.44456 -6.65176 50
      vertex 4.44456 6.65176 50
    endloop
  endfacet
  facet normal 0 0 1
    outer loop
      vertex 3.77117 7.05537 50
      vertex 3.77117 -7.05537 50
      vertex 4.44456 -6.65176 50
    endloop
  endfacet
  facet normal 0 0 1
    outer loop
      vertex 3.06147 7.39104 50
      vertex 3.77117 -7.05537 50
      vertex 3.77117 7.05537 50
    endloop
  endfacet
  facet normal 0 0 1
    outer loop
      vertex 3.06147 7.39104 50
      vertex 3.06147 -7.39104 50
      vertex 3.77117 -7.05537 50
    endloop
  endfacet
  facet normal 0 0 1
    outer loop
      vertex 2.32228 7.65552 50
      vertex 3.06147 -7.39104 50
      vertex 3.06147 7.39104 50
    endloop
  endfacet
  facet normal 0 0 1
    outer loop
      vertex 2.32228 7.65552 50
      vertex 2.32228 -7.65552 50
      vertex 3.06147 -7.39104 50
    endloop
  endfacet
  facet normal 0 0 1
    outer loop
      vertex 1.56072 7.84628 50
      vertex 2.32228 -7.65552 50
      vertex 2.32228 7.65552 50
    endloop
  endfacet
  facet normal 0 0 1
    outer loop
      vertex 1.56072 7.84628 50
      vertex 1.56072 -7.84628 50
      vertex 2.32228 -7.65552 50
    endloop
  endfacet
  facet normal 0 0 1
    outer loop
      vertex 0.784137 7.96148 50
      vertex 1.56072 -7.84628 50
      vertex 1.56072 7.84628 50
    endloop
  endfacet
  facet normal 0 0 1
    outer loop
      vertex 0.784137 7.96148 50
      vertex 0.784137 -7.96148 50
      vertex 1.56072 -7.84628 50
    endloop
  endfacet
  facet normal 0 0 1
    outer loop
      vertex 0 8 50
      vertex 0.784137 -7.96148 50
      vertex 0.784137 7.96148 50
    endloop
  endfacet
  facet normal 0 0 1
    outer loop
      vertex 0 8 50
      vertex 0 -8 50
      vertex 0.784137 -7.96148 50
    endloop
  endfacet
  facet normal -0 0 1
    outer loop
      vertex -0.784137 7.96148 50
      vertex 0 -8 50
      vertex 0 8 50
    endloop
  endfacet
  facet normal 0 0 1
    outer loop
      vertex -0.784137 7.96148 50
      vertex -0.784137 -7.96148 50
      vertex 0 -8 50
    endloop
  endfacet
  facet normal -0 0 1
    outer loop
      vertex -1.56072 7.84628 50
      vertex -0.784137 -7.96148 50
      vertex -0.784137 7.96148 50
    endloop
  endfacet
  facet normal 0 0 1
    outer loop
      vertex -1.56072 7.84628 50
      vertex -1.56072 -7.84628 50
      vertex -0.784137 -7.96148 50
    endloop
  endfacet
  facet normal -0 0 1
    outer loop
      vertex -2.32228 7.65552 50
      vertex -1.56072 -7.84628 50
      vertex -1.56072 7.84628 50
    endloop
  endfacet
  facet normal 0 0 1
    outer loop
      vertex -2.32228 7.65552 50
      vertex -2.32228 -7.65552 50
      vertex -1.56072 -7.84628 50
    endloop
  endfacet
  facet normal -0 0 1
    outer loop
      vertex -3.06147 7.39104 50
      vertex -2.32228 -7.65552 50
      vertex -2.32228 7.65552 50
    endloop
  endfacet
  facet normal 0 0 1
    outer loop
      vertex -3.06147 7.39104 50
      vertex -3.06147 -7.39104 50
      vertex -2.32228 -7.65552 50
    endloop
  endfacet
  facet normal -0 0 1
    outer loop
      vertex -3.77117 7.05537 50
      vertex -3.06147 -7.39104 50
      vertex -3.06147 7.39104 50
    endloop
  endfacet
  facet normal 0 0 1
    outer loop
      vertex -3.77117 7.05537 50
      vertex -3.77117 -7.05537 50
      vertex -3.06147 -7.39104 50
    endloop
  endfacet
  facet normal -0 0 1
    outer loop
      vertex -4.44456 6.65176 50
      vertex -3.77117 -7.05537 50
      vertex -3.77117 7.05537 50
    endloop
  endfacet
  facet normal 0 0 1
    outer loop
      vertex -4.44456 6.65176 50
      vertex -4.44456 -6.65176 50
      vertex -3.77117 -7.05537 50
    endloop
  endfacet
  facet normal -0 0 1
    outer loop
      vertex -5.07515 6.18408 50
      vertex -4.44456 -6.65176 50
      vertex -4.44456 6.65176 50
    endloop
  endfacet
  facet normal 0 0 1
    outer loop
      vertex -5.07515 6.18408 50
      vertex -5.07515 -6.18408 50
      vertex -4.44456 -6.65176 50
    endloop
  endfacet
  facet normal -0 0 1
    outer loop
      vertex -5.65685 5.65685 50
      vertex -5.07515 -6.18408 50
      vertex -5.07515 6.18408 50
    endloop
  endfacet
  facet normal 0 0 1
    outer loop
      vertex -5.65685 5.65685 50
      vertex -5.65685 -5.65685 50
      vertex -5.07515 -6.18408 50
    endloop
  endfacet
  facet normal -0 0 1
    outer loop
      vertex -6.18408 5.07515 50
      vertex -5.65685 -5.65685 50
      vertex -5.65685 5.65685 50
    endloop
  endfacet
  facet normal 0 0 1
    outer loop
      vertex -6.18408 5.07515 50
      vertex -6.18408 -5.07515 50
      vertex -5.65685 -5.65685 50
    endloop
  endfacet
  facet normal -0 0 1
    outer loop
      vertex -6.65176 4.44456 50
      vertex -6.18408 -5.07515 50
      vertex -6.18408 5.07515 50
    endloop
  endfacet
  facet normal 0 0 1
    outer loop
      vertex -6.65176 4.44456 50
      vertex -6.65176 -4.44456 50
      vertex -6.18408 -5.07515 50
    endloop
  endfacet
  facet normal -0 0 1
    outer loop
      vertex -7.05537 3.77117 50
      vertex -6.65176 -4.44456 50
      vertex -6.65176 4.44456 50
    endloop
  endfacet
  facet normal 0 0 1
    outer loop
      vertex -7.05537 3.77117 50
      vertex -7.05537 -3.77117 50
      vertex -6.65176 -4.44456 50
    endloop
  endfacet
  facet normal -0 0 1
    outer loop
      vertex -7.39104 3.06147 50
      vertex -7.05537 -3.77117 50
      vertex -7.05537 3.77117 50
    endloop
  endfacet
  facet normal 0 0 1
    outer loop
      vertex -7.39104 3.06147 50
      vertex -7.39104 -3.06147 50
      vertex -7.05537 -3.77117 50
    endloop
  endfacet
  facet normal -0 0 1
    outer loop
      vertex -7.65552 2.32228 50
      vertex -7.39104 -3.06147 50
      vertex -7.39104 3.06147 50
    endloop
  endfacet
  facet normal 0 0 1
    outer loop
      vertex -7.65552 2.32228 50
      vertex -7.65552 -2.32228 50
      vertex -7.39104 -3.06147 50
    endloop
  endfacet
  facet normal -0 0 1
    outer loop
      vertex -7.84628 1.56072 50
      vertex -7.65552 -2.32228 50
      vertex -7.65552 2.32228 50
    endloop
  endfacet
  facet normal 0 0 1
    outer loop
      vertex -7.84628 1.56072 50
      vertex -7.84628 -1.56072 50
      vertex -7.65552 -2.32228 50
    endloop
  endfacet
  facet normal -0 0 1
    outer loop
      vertex -7.96148 0.784137 50
      vertex -7.84628 -1.56072 50
      vertex -7.84628 1.56072 50
    endloop
  endfacet
  facet normal 0 0 1
    outer loop
      vertex -7.96148 0.784137 50
      vertex -7.96148 -0.784137 50
      vertex -7.84628 -1.56072 50
    endloop
  endfacet
  facet normal 0 -0 1
    outer loop
      vertex -7.96148 -0.784137 50
      vertex -7.96148 0.784137 50
      vertex -8 0 50
    endloop
  endfacet
  facet normal -0.998796 0.0490649 0
    outer loop
      vertex -8 0 10
      vertex -7.96148 0.784137 50
      vertex -7.96148 0.784137 10
    endloop
  endfacet
  facet normal -0.998796 0.0490649 0
    outer loop
      vertex -7.96148 0.784137 50
      vertex -8 0 10
      vertex -8 0 50
    endloop
  endfacet
  facet normal 0.671564 -0.740946 0
    outer loop
      vertex 5.07515 -6.18408 10
      vertex 5.65685 -5.65685 50
      vertex 5.07515 -6.18408 50
    endloop
  endfacet
  facet normal 0.671564 -0.740946 0
    outer loop
      vertex 5.65685 -5.65685 50
      vertex 5.07515 -6.18408 10
      vertex 5.65685 -5.65685 10
    endloop
  endfacet
  facet normal 0.427563 0.903986 -0
    outer loop
      vertex -1.53073 -3.69552 40
      vertex -1.88559 -3.52768 41.25
      vertex -1.53073 -3.69552 41.25
    endloop
  endfacet
  facet normal 0.427563 0.903986 0
    outer loop
      vertex -1.88559 -3.52768 41.25
      vertex -1.53073 -3.69552 40
      vertex -1.88559 -3.52768 40
    endloop
  endfacet
  facet normal -0.989176 -0.146736 0
    outer loop
      vertex 3.98074 0.392068 40
      vertex 3.92314 0.780361 41.25
      vertex 3.92314 0.780361 40
    endloop
  endfacet
  facet normal -0.989176 -0.146736 0
    outer loop
      vertex 3.92314 0.780361 41.25
      vertex 3.98074 0.392068 40
      vertex 3.98074 0.392068 41.25
    endloop
  endfacet
  facet normal -0.998796 -0.049065 0
    outer loop
      vertex 4 0 40
      vertex 3.98074 0.392068 41.25
      vertex 3.98074 0.392068 40
    endloop
  endfacet
  facet normal -0.998796 -0.049065 0
    outer loop
      vertex 3.98074 0.392068 41.25
      vertex 4 0 40
      vertex 4 0 41.25
    endloop
  endfacet
  facet normal -0.970031 -0.24298 0
    outer loop
      vertex 3.92314 0.780361 40
      vertex 3.82776 1.16114 41.25
      vertex 3.82776 1.16114 40
    endloop
  endfacet
  facet normal -0.970031 -0.24298 0
    outer loop
      vertex 3.82776 1.16114 41.25
      vertex 3.92314 0.780361 40
      vertex 3.92314 0.780361 41.25
    endloop
  endfacet
  facet normal -0.427563 0.903986 0
    outer loop
      vertex 1.88559 -3.52768 40
      vertex 1.53073 -3.69552 41.25
      vertex 1.88559 -3.52768 41.25
    endloop
  endfacet
  facet normal -0.427563 0.903986 0
    outer loop
      vertex 1.53073 -3.69552 41.25
      vertex 1.88559 -3.52768 40
      vertex 1.53073 -3.69552 40
    endloop
  endfacet
  facet normal 0.671545 -0.740964 0
    outer loop
      vertex -2.82843 2.82843 40
      vertex -2.53757 3.09204 41.25
      vertex -2.82843 2.82843 41.25
    endloop
  endfacet
  facet normal 0.671545 -0.740964 0
    outer loop
      vertex -2.53757 3.09204 41.25
      vertex -2.82843 2.82843 40
      vertex -2.53757 3.09204 40
    endloop
  endfacet
  facet normal 0.970031 0.24298 0
    outer loop
      vertex -3.82776 -1.16114 41.25
      vertex -3.92314 -0.780361 40
      vertex -3.92314 -0.780361 41.25
    endloop
  endfacet
  facet normal 0.970031 0.24298 0
    outer loop
      vertex -3.92314 -0.780361 40
      vertex -3.82776 -1.16114 41.25
      vertex -3.82776 -1.16114 40
    endloop
  endfacet
  facet normal -0.427563 -0.903986 0
    outer loop
      vertex 1.53073 3.69552 40
      vertex 1.88559 3.52768 41.25
      vertex 1.53073 3.69552 41.25
    endloop
  endfacet
  facet normal -0.427563 -0.903986 -0
    outer loop
      vertex 1.88559 3.52768 41.25
      vertex 1.53073 3.69552 40
      vertex 1.88559 3.52768 40
    endloop
  endfacet
  facet normal 0.989176 -0.146736 0
    outer loop
      vertex -3.98074 0.392068 41.25
      vertex -3.92314 0.780361 40
      vertex -3.92314 0.780361 41.25
    endloop
  endfacet
  facet normal 0.989176 -0.146736 0
    outer loop
      vertex -3.92314 0.780361 40
      vertex -3.98074 0.392068 41.25
      vertex -3.98074 0.392068 40
    endloop
  endfacet
  facet normal 0.146736 0.989176 -0
    outer loop
      vertex -0.392068 -3.98074 40
      vertex -0.780361 -3.92314 41.25
      vertex -0.392068 -3.98074 41.25
    endloop
  endfacet
  facet normal 0.146736 0.989176 0
    outer loop
      vertex -0.780361 -3.92314 41.25
      vertex -0.392068 -3.98074 40
      vertex -0.780361 -3.92314 40
    endloop
  endfacet
  facet normal -0.24298 -0.970031 0
    outer loop
      vertex 0.780361 3.92314 40
      vertex 1.16114 3.82776 41.25
      vertex 0.780361 3.92314 41.25
    endloop
  endfacet
  facet normal -0.24298 -0.970031 -0
    outer loop
      vertex 1.16114 3.82776 41.25
      vertex 0.780361 3.92314 40
      vertex 1.16114 3.82776 40
    endloop
  endfacet
  facet normal 0.740964 -0.671545 0
    outer loop
      vertex -3.09204 2.53757 41.25
      vertex -2.82843 2.82843 40
      vertex -2.82843 2.82843 41.25
    endloop
  endfacet
  facet normal 0.740964 -0.671545 0
    outer loop
      vertex -2.82843 2.82843 40
      vertex -3.09204 2.53757 41.25
      vertex -3.09204 2.53757 40
    endloop
  endfacet
  facet normal -0.514095 0.857733 0
    outer loop
      vertex 2.22228 -3.32588 40
      vertex 1.88559 -3.52768 41.25
      vertex 2.22228 -3.32588 41.25
    endloop
  endfacet
  facet normal -0.514095 0.857733 0
    outer loop
      vertex 1.88559 -3.52768 41.25
      vertex 2.22228 -3.32588 40
      vertex 1.88559 -3.52768 40
    endloop
  endfacet
  facet normal 0.24298 0.970031 -0
    outer loop
      vertex -0.780361 -3.92314 40
      vertex -1.16114 -3.82776 41.25
      vertex -0.780361 -3.92314 41.25
    endloop
  endfacet
  facet normal 0.24298 0.970031 0
    outer loop
      vertex -1.16114 -3.82776 41.25
      vertex -0.780361 -3.92314 40
      vertex -1.16114 -3.82776 40
    endloop
  endfacet
  facet normal 0.336887 0.941545 -0
    outer loop
      vertex -1.16114 -3.82776 40
      vertex -1.53073 -3.69552 41.25
      vertex -1.16114 -3.82776 41.25
    endloop
  endfacet
  facet normal 0.336887 0.941545 0
    outer loop
      vertex -1.53073 -3.69552 41.25
      vertex -1.16114 -3.82776 40
      vertex -1.53073 -3.69552 40
    endloop
  endfacet
  facet normal 0.336887 -0.941545 0
    outer loop
      vertex -1.53073 3.69552 40
      vertex -1.16114 3.82776 41.25
      vertex -1.53073 3.69552 41.25
    endloop
  endfacet
  facet normal 0.336887 -0.941545 0
    outer loop
      vertex -1.16114 3.82776 41.25
      vertex -1.53073 3.69552 40
      vertex -1.16114 3.82776 40
    endloop
  endfacet
  facet normal -0.049065 0.998796 0
    outer loop
      vertex 0.392068 -3.98074 40
      vertex 0 -4 41.25
      vertex 0.392068 -3.98074 41.25
    endloop
  endfacet
  facet normal -0.049065 0.998796 0
    outer loop
      vertex 0 -4 41.25
      vertex 0.392068 -3.98074 40
      vertex 0 -4 40
    endloop
  endfacet
  facet normal -0.146736 0.989176 0
    outer loop
      vertex 0.780361 -3.92314 40
      vertex 0.392068 -3.98074 41.25
      vertex 0.780361 -3.92314 41.25
    endloop
  endfacet
  facet normal -0.146736 0.989176 0
    outer loop
      vertex 0.392068 -3.98074 41.25
      vertex 0.780361 -3.92314 40
      vertex 0.392068 -3.98074 40
    endloop
  endfacet
  facet normal 0.049065 -0.998796 0
    outer loop
      vertex -0.392068 3.98074 40
      vertex 0 4 41.25
      vertex -0.392068 3.98074 41.25
    endloop
  endfacet
  facet normal 0.049065 -0.998796 0
    outer loop
      vertex 0 4 41.25
      vertex -0.392068 3.98074 40
      vertex 0 4 40
    endloop
  endfacet
  facet normal 0.595708 0.803201 -0
    outer loop
      vertex -2.22228 -3.32588 40
      vertex -2.53757 -3.09204 41.25
      vertex -2.22228 -3.32588 41.25
    endloop
  endfacet
  facet normal 0.595708 0.803201 0
    outer loop
      vertex -2.53757 -3.09204 41.25
      vertex -2.22228 -3.32588 40
      vertex -2.53757 -3.09204 40
    endloop
  endfacet
  facet normal 0.903986 0.427563 0
    outer loop
      vertex -3.52768 -1.88559 41.25
      vertex -3.69552 -1.53073 40
      vertex -3.69552 -1.53073 41.25
    endloop
  endfacet
  facet normal 0.903986 0.427563 0
    outer loop
      vertex -3.69552 -1.53073 40
      vertex -3.52768 -1.88559 41.25
      vertex -3.52768 -1.88559 40
    endloop
  endfacet
  facet normal 0.146736 -0.989176 0
    outer loop
      vertex -0.780361 3.92314 40
      vertex -0.392068 3.98074 41.25
      vertex -0.780361 3.92314 41.25
    endloop
  endfacet
  facet normal 0.146736 -0.989176 0
    outer loop
      vertex -0.392068 3.98074 41.25
      vertex -0.780361 3.92314 40
      vertex -0.392068 3.98074 40
    endloop
  endfacet
  facet normal -0.049065 -0.998796 0
    outer loop
      vertex 0 4 40
      vertex 0.392068 3.98074 41.25
      vertex 0 4 41.25
    endloop
  endfacet
  facet normal -0.049065 -0.998796 -0
    outer loop
      vertex 0.392068 3.98074 41.25
      vertex 0 4 40
      vertex 0.392068 3.98074 40
    endloop
  endfacet
  facet normal -0.514095 -0.857733 0
    outer loop
      vertex 1.88559 3.52768 40
      vertex 2.22228 3.32588 41.25
      vertex 1.88559 3.52768 41.25
    endloop
  endfacet
  facet normal -0.514095 -0.857733 -0
    outer loop
      vertex 2.22228 3.32588 41.25
      vertex 1.88559 3.52768 40
      vertex 2.22228 3.32588 40
    endloop
  endfacet
  facet normal 0.998796 0.049065 0
    outer loop
      vertex -3.98074 -0.392068 41.25
      vertex -4 0 40
      vertex -4 0 41.25
    endloop
  endfacet
  facet normal 0.998796 0.049065 0
    outer loop
      vertex -4 0 40
      vertex -3.98074 -0.392068 41.25
      vertex -3.98074 -0.392068 40
    endloop
  endfacet
  facet normal -0.970031 0.24298 0
    outer loop
      vertex 3.82776 -1.16114 40
      vertex 3.92314 -0.780361 41.25
      vertex 3.92314 -0.780361 40
    endloop
  endfacet
  facet normal -0.970031 0.24298 0
    outer loop
      vertex 3.92314 -0.780361 41.25
      vertex 3.82776 -1.16114 40
      vertex 3.82776 -1.16114 41.25
    endloop
  endfacet
  facet normal -0.740964 -0.671545 0
    outer loop
      vertex 3.09204 2.53757 40
      vertex 2.82843 2.82843 41.25
      vertex 2.82843 2.82843 40
    endloop
  endfacet
  facet normal -0.740964 -0.671545 0
    outer loop
      vertex 2.82843 2.82843 41.25
      vertex 3.09204 2.53757 40
      vertex 3.09204 2.53757 41.25
    endloop
  endfacet
  facet normal -0.595708 -0.803201 0
    outer loop
      vertex 2.22228 3.32588 40
      vertex 2.53757 3.09204 41.25
      vertex 2.22228 3.32588 41.25
    endloop
  endfacet
  facet normal -0.595708 -0.803201 -0
    outer loop
      vertex 2.53757 3.09204 41.25
      vertex 2.22228 3.32588 40
      vertex 2.53757 3.09204 40
    endloop
  endfacet
  facet normal 0.595708 -0.803201 0
    outer loop
      vertex -2.53757 3.09204 40
      vertex -2.22228 3.32588 41.25
      vertex -2.53757 3.09204 41.25
    endloop
  endfacet
  facet normal 0.595708 -0.803201 0
    outer loop
      vertex -2.22228 3.32588 41.25
      vertex -2.53757 3.09204 40
      vertex -2.22228 3.32588 40
    endloop
  endfacet
  facet normal -0.803201 -0.595708 0
    outer loop
      vertex 3.32588 2.22228 40
      vertex 3.09204 2.53757 41.25
      vertex 3.09204 2.53757 40
    endloop
  endfacet
  facet normal -0.803201 -0.595708 0
    outer loop
      vertex 3.09204 2.53757 41.25
      vertex 3.32588 2.22228 40
      vertex 3.32588 2.22228 41.25
    endloop
  endfacet
  facet normal -0.989176 0.146736 0
    outer loop
      vertex 3.92314 -0.780361 40
      vertex 3.98074 -0.392068 41.25
      vertex 3.98074 -0.392068 40
    endloop
  endfacet
  facet normal -0.989176 0.146736 0
    outer loop
      vertex 3.98074 -0.392068 41.25
      vertex 3.92314 -0.780361 40
      vertex 3.92314 -0.780361 41.25
    endloop
  endfacet
  facet normal 0.941545 -0.336887 0
    outer loop
      vertex -3.82776 1.16114 41.25
      vertex -3.69552 1.53073 40
      vertex -3.69552 1.53073 41.25
    endloop
  endfacet
  facet normal 0.941545 -0.336887 0
    outer loop
      vertex -3.69552 1.53073 40
      vertex -3.82776 1.16114 41.25
      vertex -3.82776 1.16114 40
    endloop
  endfacet
  facet normal -0.903986 0.427563 0
    outer loop
      vertex 3.52768 -1.88559 40
      vertex 3.69552 -1.53073 41.25
      vertex 3.69552 -1.53073 40
    endloop
  endfacet
  facet normal -0.903986 0.427563 0
    outer loop
      vertex 3.69552 -1.53073 41.25
      vertex 3.52768 -1.88559 40
      vertex 3.52768 -1.88559 41.25
    endloop
  endfacet
  facet normal -0.336887 -0.941545 0
    outer loop
      vertex 1.16114 3.82776 40
      vertex 1.53073 3.69552 41.25
      vertex 1.16114 3.82776 41.25
    endloop
  endfacet
  facet normal -0.336887 -0.941545 -0
    outer loop
      vertex 1.53073 3.69552 41.25
      vertex 1.16114 3.82776 40
      vertex 1.53073 3.69552 40
    endloop
  endfacet
  facet normal -0.998796 0.049065 0
    outer loop
      vertex 3.98074 -0.392068 40
      vertex 4 0 41.25
      vertex 4 0 40
    endloop
  endfacet
  facet normal -0.998796 0.049065 0
    outer loop
      vertex 4 0 41.25
      vertex 3.98074 -0.392068 40
      vertex 3.98074 -0.392068 41.25
    endloop
  endfacet
  facet normal 0 0 1
    outer loop
      vertex 3.98074 0.392068 40
      vertex 3.98074 -0.392068 40
      vertex 4 0 40
    endloop
  endfacet
  facet normal 0 0 1
    outer loop
      vertex 3.92314 0.780361 40
      vertex 3.98074 -0.392068 40
      vertex 3.98074 0.392068 40
    endloop
  endfacet
  facet normal 0 0 1
    outer loop
      vertex 3.92314 0.780361 40
      vertex 3.92314 -0.780361 40
      vertex 3.98074 -0.392068 40
    endloop
  endfacet
  facet normal 0 0 1
    outer loop
      vertex 3.82776 1.16114 40
      vertex 3.92314 -0.780361 40
      vertex 3.92314 0.780361 40
    endloop
  endfacet
  facet normal 0 0 1
    outer loop
      vertex 3.82776 1.16114 40
      vertex 3.82776 -1.16114 40
      vertex 3.92314 -0.780361 40
    endloop
  endfacet
  facet normal 0 0 1
    outer loop
      vertex 3.69552 1.53073 40
      vertex 3.82776 -1.16114 40
      vertex 3.82776 1.16114 40
    endloop
  endfacet
  facet normal 0 0 1
    outer loop
      vertex 3.69552 1.53073 40
      vertex 3.69552 -1.53073 40
      vertex 3.82776 -1.16114 40
    endloop
  endfacet
  facet normal 0 0 1
    outer loop
      vertex 3.52768 1.88559 40
      vertex 3.69552 -1.53073 40
      vertex 3.69552 1.53073 40
    endloop
  endfacet
  facet normal 0 0 1
    outer loop
      vertex 3.52768 1.88559 40
      vertex 3.52768 -1.88559 40
      vertex 3.69552 -1.53073 40
    endloop
  endfacet
  facet normal 0 0 1
    outer loop
      vertex 3.32588 2.22228 40
      vertex 3.52768 -1.88559 40
      vertex 3.52768 1.88559 40
    endloop
  endfacet
  facet normal 0 0 1
    outer loop
      vertex 3.32588 2.22228 40
      vertex 3.32588 -2.22228 40
      vertex 3.52768 -1.88559 40
    endloop
  endfacet
  facet normal 0 0 1
    outer loop
      vertex 3.09204 2.53757 40
      vertex 3.32588 -2.22228 40
      vertex 3.32588 2.22228 40
    endloop
  endfacet
  facet normal 0 0 1
    outer loop
      vertex 3.09204 2.53757 40
      vertex 3.09204 -2.53757 40
      vertex 3.32588 -2.22228 40
    endloop
  endfacet
  facet normal 0 0 1
    outer loop
      vertex 2.82843 2.82843 40
      vertex 3.09204 -2.53757 40
      vertex 3.09204 2.53757 40
    endloop
  endfacet
  facet normal 0 0 1
    outer loop
      vertex 2.82843 2.82843 40
      vertex 2.82843 -2.82843 40
      vertex 3.09204 -2.53757 40
    endloop
  endfacet
  facet normal 0 0 1
    outer loop
      vertex 2.53757 3.09204 40
      vertex 2.82843 -2.82843 40
      vertex 2.82843 2.82843 40
    endloop
  endfacet
  facet normal 0 0 1
    outer loop
      vertex 2.53757 3.09204 40
      vertex 2.53757 -3.09204 40
      vertex 2.82843 -2.82843 40
    endloop
  endfacet
  facet normal 0 0 1
    outer loop
      vertex 2.22228 3.32588 40
      vertex 2.53757 -3.09204 40
      vertex 2.53757 3.09204 40
    endloop
  endfacet
  facet normal 0 0 1
    outer loop
      vertex 2.22228 3.32588 40
      vertex 2.22228 -3.32588 40
      vertex 2.53757 -3.09204 40
    endloop
  endfacet
  facet normal 0 0 1
    outer loop
      vertex 1.88559 3.52768 40
      vertex 2.22228 -3.32588 40
      vertex 2.22228 3.32588 40
    endloop
  endfacet
  facet normal 0 0 1
    outer loop
      vertex 1.88559 3.52768 40
      vertex 1.88559 -3.52768 40
      vertex 2.22228 -3.32588 40
    endloop
  endfacet
  facet normal 0 0 1
    outer loop
      vertex 1.53073 3.69552 40
      vertex 1.88559 -3.52768 40
      vertex 1.88559 3.52768 40
    endloop
  endfacet
  facet normal 0 0 1
    outer loop
      vertex 1.53073 3.69552 40
      vertex 1.53073 -3.69552 40
      vertex 1.88559 -3.52768 40
    endloop
  endfacet
  facet normal 0 0 1
    outer loop
      vertex 1.16114 3.82776 40
      vertex 1.53073 -3.69552 40
      vertex 1.53073 3.69552 40
    endloop
  endfacet
  facet normal 0 0 1
    outer loop
      vertex 1.16114 3.82776 40
      vertex 1.16114 -3.82776 40
      vertex 1.53073 -3.69552 40
    endloop
  endfacet
  facet normal 0 0 1
    outer loop
      vertex 0.780361 3.92314 40
      vertex 1.16114 -3.82776 40
      vertex 1.16114 3.82776 40
    endloop
  endfacet
  facet normal 0 0 1
    outer loop
      vertex 0.780361 3.92314 40
      vertex 0.780361 -3.92314 40
      vertex 1.16114 -3.82776 40
    endloop
  endfacet
  facet normal 0 0 1
    outer loop
      vertex 0.392068 3.98074 40
      vertex 0.780361 -3.92314 40
      vertex 0.780361 3.92314 40
    endloop
  endfacet
  facet normal 0 0 1
    outer loop
      vertex 0.392068 3.98074 40
      vertex 0.392068 -3.98074 40
      vertex 0.780361 -3.92314 40
    endloop
  endfacet
  facet normal 0 0 1
    outer loop
      vertex 0 4 40
      vertex 0.392068 -3.98074 40
      vertex 0.392068 3.98074 40
    endloop
  endfacet
  facet normal 0 0 1
    outer loop
      vertex 0 4 40
      vertex 0 -4 40
      vertex 0.392068 -3.98074 40
    endloop
  endfacet
  facet normal -0 0 1
    outer loop
      vertex -0.392068 3.98074 40
      vertex 0 -4 40
      vertex 0 4 40
    endloop
  endfacet
  facet normal 0 0 1
    outer loop
      vertex -0.392068 3.98074 40
      vertex -0.392068 -3.98074 40
      vertex 0 -4 40
    endloop
  endfacet
  facet normal -0 0 1
    outer loop
      vertex -0.780361 3.92314 40
      vertex -0.392068 -3.98074 40
      vertex -0.392068 3.98074 40
    endloop
  endfacet
  facet normal 0 0 1
    outer loop
      vertex -0.780361 3.92314 40
      vertex -0.780361 -3.92314 40
      vertex -0.392068 -3.98074 40
    endloop
  endfacet
  facet normal -0 0 1
    outer loop
      vertex -1.16114 3.82776 40
      vertex -0.780361 -3.92314 40
      vertex -0.780361 3.92314 40
    endloop
  endfacet
  facet normal 0 0 1
    outer loop
      vertex -1.16114 3.82776 40
      vertex -1.16114 -3.82776 40
      vertex -0.780361 -3.92314 40
    endloop
  endfacet
  facet normal -0 0 1
    outer loop
      vertex -1.53073 3.69552 40
      vertex -1.16114 -3.82776 40
      vertex -1.16114 3.82776 40
    endloop
  endfacet
  facet normal 0 0 1
    outer loop
      vertex -1.53073 3.69552 40
      vertex -1.53073 -3.69552 40
      vertex -1.16114 -3.82776 40
    endloop
  endfacet
  facet normal -0 0 1
    outer loop
      vertex -1.88559 3.52768 40
      vertex -1.53073 -3.69552 40
      vertex -1.53073 3.69552 40
    endloop
  endfacet
  facet normal 0 0 1
    outer loop
      vertex -1.88559 3.52768 40
      vertex -1.88559 -3.52768 40
      vertex -1.53073 -3.69552 40
    endloop
  endfacet
  facet normal -0 0 1
    outer loop
      vertex -2.22228 3.32588 40
      vertex -1.88559 -3.52768 40
      vertex -1.88559 3.52768 40
    endloop
  endfacet
  facet normal 0 0 1
    outer loop
      vertex -2.22228 3.32588 40
      vertex -2.22228 -3.32588 40
      vertex -1.88559 -3.52768 40
    endloop
  endfacet
  facet normal -0 0 1
    outer loop
      vertex -2.53757 3.09204 40
      vertex -2.22228 -3.32588 40
      vertex -2.22228 3.32588 40
    endloop
  endfacet
  facet normal 0 0 1
    outer loop
      vertex -2.53757 3.09204 40
      vertex -2.53757 -3.09204 40
      vertex -2.22228 -3.32588 40
    endloop
  endfacet
  facet normal -0 0 1
    outer loop
      vertex -2.82843 2.82843 40
      vertex -2.53757 -3.09204 40
      vertex -2.53757 3.09204 40
    endloop
  endfacet
  facet normal 0 0 1
    outer loop
      vertex -2.82843 2.82843 40
      vertex -2.82843 -2.82843 40
      vertex -2.53757 -3.09204 40
    endloop
  endfacet
  facet normal -0 0 1
    outer loop
      vertex -3.09204 2.53757 40
      vertex -2.82843 -2.82843 40
      vertex -2.82843 2.82843 40
    endloop
  endfacet
  facet normal 0 0 1
    outer loop
      vertex -3.09204 2.53757 40
      vertex -3.09204 -2.53757 40
      vertex -2.82843 -2.82843 40
    endloop
  endfacet
  facet normal -0 0 1
    outer loop
      vertex -3.32588 2.22228 40
      vertex -3.09204 -2.53757 40
      vertex -3.09204 2.53757 40
    endloop
  endfacet
  facet normal 0 0 1
    outer loop
      vertex -3.32588 2.22228 40
      vertex -3.32588 -2.22228 40
      vertex -3.09204 -2.53757 40
    endloop
  endfacet
  facet normal -0 0 1
    outer loop
      vertex -3.52768 1.88559 40
      vertex -3.32588 -2.22228 40
      vertex -3.32588 2.22228 40
    endloop
  endfacet
  facet normal 0 0 1
    outer loop
      vertex -3.52768 1.88559 40
      vertex -3.52768 -1.88559 40
      vertex -3.32588 -2.22228 40
    endloop
  endfacet
  facet normal -0 0 1
    outer loop
      vertex -3.69552 1.53073 40
      vertex -3.52768 -1.88559 40
      vertex -3.52768 1.88559 40
    endloop
  endfacet
  facet normal 0 0 1
    outer loop
      vertex -3.69552 1.53073 40
      vertex -3.69552 -1.53073 40
      vertex -3.52768 -1.88559 40
    endloop
  endfacet
  facet normal -0 0 1
    outer loop
      vertex -3.82776 1.16114 40
      vertex -3.69552 -1.53073 40
      vertex -3.69552 1.53073 40
    endloop
  endfacet
  facet normal 0 0 1
    outer loop
      vertex -3.82776 1.16114 40
      vertex -3.82776 -1.16114 40
      vertex -3.69552 -1.53073 40
    endloop
  endfacet
  facet normal -0 0 1
    outer loop
      vertex -3.92314 0.780361 40
      vertex -3.82776 -1.16114 40
      vertex -3.82776 1.16114 40
    endloop
  endfacet
  facet normal 0 0 1
    outer loop
      vertex -3.92314 0.780361 40
      vertex -3.92314 -0.780361 40
      vertex -3.82776 -1.16114 40
    endloop
  endfacet
  facet normal -0 0 1
    outer loop
      vertex -3.98074 0.392068 40
      vertex -3.92314 -0.780361 40
      vertex -3.92314 0.780361 40
    endloop
  endfacet
  facet normal 0 0 1
    outer loop
      vertex -3.98074 0.392068 40
      vertex -3.98074 -0.392068 40
      vertex -3.92314 -0.780361 40
    endloop
  endfacet
  facet normal 0 -0 1
    outer loop
      vertex -3.98074 -0.392068 40
      vertex -3.98074 0.392068 40
      vertex -4 0 40
    endloop
  endfacet
  facet normal -0.336887 0.941545 0
    outer loop
      vertex 1.53073 -3.69552 40
      vertex 1.16114 -3.82776 41.25
      vertex 1.53073 -3.69552 41.25
    endloop
  endfacet
  facet normal -0.336887 0.941545 0
    outer loop
      vertex 1.16114 -3.82776 41.25
      vertex 1.53073 -3.69552 40
      vertex 1.16114 -3.82776 40
    endloop
  endfacet
  facet normal -0.941545 -0.336887 0
    outer loop
      vertex 3.82776 1.16114 40
      vertex 3.69552 1.53073 41.25
      vertex 3.69552 1.53073 40
    endloop
  endfacet
  facet normal -0.941545 -0.336887 0
    outer loop
      vertex 3.69552 1.53073 41.25
      vertex 3.82776 1.16114 40
      vertex 3.82776 1.16114 41.25
    endloop
  endfacet
  facet normal -0.803201 0.595708 0
    outer loop
      vertex 3.09204 -2.53757 40
      vertex 3.32588 -2.22228 41.25
      vertex 3.32588 -2.22228 40
    endloop
  endfacet
  facet normal -0.803201 0.595708 0
    outer loop
      vertex 3.32588 -2.22228 41.25
      vertex 3.09204 -2.53757 40
      vertex 3.09204 -2.53757 41.25
    endloop
  endfacet
  facet normal -0.857733 0.514095 0
    outer loop
      vertex 3.32588 -2.22228 40
      vertex 3.52768 -1.88559 41.25
      vertex 3.52768 -1.88559 40
    endloop
  endfacet
  facet normal -0.857733 0.514095 0
    outer loop
      vertex 3.52768 -1.88559 41.25
      vertex 3.32588 -2.22228 40
      vertex 3.32588 -2.22228 41.25
    endloop
  endfacet
  facet normal -0.941545 0.336887 0
    outer loop
      vertex 3.69552 -1.53073 40
      vertex 3.82776 -1.16114 41.25
      vertex 3.82776 -1.16114 40
    endloop
  endfacet
  facet normal -0.941545 0.336887 0
    outer loop
      vertex 3.82776 -1.16114 41.25
      vertex 3.69552 -1.53073 40
      vertex 3.69552 -1.53073 41.25
    endloop
  endfacet
  facet normal 0.903986 -0.427563 0
    outer loop
      vertex -3.69552 1.53073 41.25
      vertex -3.52768 1.88559 40
      vertex -3.52768 1.88559 41.25
    endloop
  endfacet
  facet normal 0.903986 -0.427563 0
    outer loop
      vertex -3.52768 1.88559 40
      vertex -3.69552 1.53073 41.25
      vertex -3.69552 1.53073 40
    endloop
  endfacet
  facet normal 0.24298 -0.970031 0
    outer loop
      vertex -1.16114 3.82776 40
      vertex -0.780361 3.92314 41.25
      vertex -1.16114 3.82776 41.25
    endloop
  endfacet
  facet normal 0.24298 -0.970031 0
    outer loop
      vertex -0.780361 3.92314 41.25
      vertex -1.16114 3.82776 40
      vertex -0.780361 3.92314 40
    endloop
  endfacet
  facet normal -0.903986 -0.427563 0
    outer loop
      vertex 3.69552 1.53073 40
      vertex 3.52768 1.88559 41.25
      vertex 3.52768 1.88559 40
    endloop
  endfacet
  facet normal -0.903986 -0.427563 0
    outer loop
      vertex 3.52768 1.88559 41.25
      vertex 3.69552 1.53073 40
      vertex 3.69552 1.53073 41.25
    endloop
  endfacet
  facet normal -0.146736 -0.989176 0
    outer loop
      vertex 0.392068 3.98074 40
      vertex 0.780361 3.92314 41.25
      vertex 0.392068 3.98074 41.25
    endloop
  endfacet
  facet normal -0.146736 -0.989176 -0
    outer loop
      vertex 0.780361 3.92314 41.25
      vertex 0.392068 3.98074 40
      vertex 0.780361 3.92314 40
    endloop
  endfacet
  facet normal 0.857733 0.514095 0
    outer loop
      vertex -3.32588 -2.22228 41.25
      vertex -3.52768 -1.88559 40
      vertex -3.52768 -1.88559 41.25
    endloop
  endfacet
  facet normal 0.857733 0.514095 0
    outer loop
      vertex -3.52768 -1.88559 40
      vertex -3.32588 -2.22228 41.25
      vertex -3.32588 -2.22228 40
    endloop
  endfacet
  facet normal -0.857733 -0.514095 0
    outer loop
      vertex 3.52768 1.88559 40
      vertex 3.32588 2.22228 41.25
      vertex 3.32588 2.22228 40
    endloop
  endfacet
  facet normal -0.857733 -0.514095 0
    outer loop
      vertex 3.32588 2.22228 41.25
      vertex 3.52768 1.88559 40
      vertex 3.52768 1.88559 41.25
    endloop
  endfacet
  facet normal 0.740964 0.671545 0
    outer loop
      vertex -2.82843 -2.82843 41.25
      vertex -3.09204 -2.53757 40
      vertex -3.09204 -2.53757 41.25
    endloop
  endfacet
  facet normal 0.740964 0.671545 0
    outer loop
      vertex -3.09204 -2.53757 40
      vertex -2.82843 -2.82843 41.25
      vertex -2.82843 -2.82843 40
    endloop
  endfacet
  facet normal -0.24298 0.970031 0
    outer loop
      vertex 1.16114 -3.82776 40
      vertex 0.780361 -3.92314 41.25
      vertex 1.16114 -3.82776 41.25
    endloop
  endfacet
  facet normal -0.24298 0.970031 0
    outer loop
      vertex 0.780361 -3.92314 41.25
      vertex 1.16114 -3.82776 40
      vertex 0.780361 -3.92314 40
    endloop
  endfacet
  facet normal 0.514095 -0.857733 0
    outer loop
      vertex -2.22228 3.32588 40
      vertex -1.88559 3.52768 41.25
      vertex -2.22228 3.32588 41.25
    endloop
  endfacet
  facet normal 0.514095 -0.857733 0
    outer loop
      vertex -1.88559 3.52768 41.25
      vertex -2.22228 3.32588 40
      vertex -1.88559 3.52768 40
    endloop
  endfacet
  facet normal 0.427563 -0.903986 0
    outer loop
      vertex -1.88559 3.52768 40
      vertex -1.53073 3.69552 41.25
      vertex -1.88559 3.52768 41.25
    endloop
  endfacet
  facet normal 0.427563 -0.903986 0
    outer loop
      vertex -1.53073 3.69552 41.25
      vertex -1.88559 3.52768 40
      vertex -1.53073 3.69552 40
    endloop
  endfacet
  facet normal 0.941545 0.336887 0
    outer loop
      vertex -3.69552 -1.53073 41.25
      vertex -3.82776 -1.16114 40
      vertex -3.82776 -1.16114 41.25
    endloop
  endfacet
  facet normal 0.941545 0.336887 0
    outer loop
      vertex -3.82776 -1.16114 40
      vertex -3.69552 -1.53073 41.25
      vertex -3.69552 -1.53073 40
    endloop
  endfacet
  facet normal 0.514095 0.857733 -0
    outer loop
      vertex -1.88559 -3.52768 40
      vertex -2.22228 -3.32588 41.25
      vertex -1.88559 -3.52768 41.25
    endloop
  endfacet
  facet normal 0.514095 0.857733 0
    outer loop
      vertex -2.22228 -3.32588 41.25
      vertex -1.88559 -3.52768 40
      vertex -2.22228 -3.32588 40
    endloop
  endfacet
  facet normal -0.671545 -0.740964 0
    outer loop
      vertex 2.53757 3.09204 40
      vertex 2.82843 2.82843 41.25
      vertex 2.53757 3.09204 41.25
    endloop
  endfacet
  facet normal -0.671545 -0.740964 -0
    outer loop
      vertex 2.82843 2.82843 41.25
      vertex 2.53757 3.09204 40
      vertex 2.82843 2.82843 40
    endloop
  endfacet
  facet normal 0.970031 -0.24298 0
    outer loop
      vertex -3.92314 0.780361 41.25
      vertex -3.82776 1.16114 40
      vertex -3.82776 1.16114 41.25
    endloop
  endfacet
  facet normal 0.970031 -0.24298 0
    outer loop
      vertex -3.82776 1.16114 40
      vertex -3.92314 0.780361 41.25
      vertex -3.92314 0.780361 40
    endloop
  endfacet
  facet normal 0.803201 0.595708 0
    outer loop
      vertex -3.09204 -2.53757 41.25
      vertex -3.32588 -2.22228 40
      vertex -3.32588 -2.22228 41.25
    endloop
  endfacet
  facet normal 0.803201 0.595708 0
    outer loop
      vertex -3.32588 -2.22228 40
      vertex -3.09204 -2.53757 41.25
      vertex -3.09204 -2.53757 40
    endloop
  endfacet
  facet normal 0.989176 0.146736 0
    outer loop
      vertex -3.92314 -0.780361 41.25
      vertex -3.98074 -0.392068 40
      vertex -3.98074 -0.392068 41.25
    endloop
  endfacet
  facet normal 0.989176 0.146736 0
    outer loop
      vertex -3.98074 -0.392068 40
      vertex -3.92314 -0.780361 41.25
      vertex -3.92314 -0.780361 40
    endloop
  endfacet
  facet normal -0.595708 0.803201 0
    outer loop
      vertex 2.53757 -3.09204 40
      vertex 2.22228 -3.32588 41.25
      vertex 2.53757 -3.09204 41.25
    endloop
  endfacet
  facet normal -0.595708 0.803201 0
    outer loop
      vertex 2.22228 -3.32588 41.25
      vertex 2.53757 -3.09204 40
      vertex 2.22228 -3.32588 40
    endloop
  endfacet
  facet normal 0.671545 0.740964 -0
    outer loop
      vertex -2.53757 -3.09204 40
      vertex -2.82843 -2.82843 41.25
      vertex -2.53757 -3.09204 41.25
    endloop
  endfacet
  facet normal 0.671545 0.740964 0
    outer loop
      vertex -2.82843 -2.82843 41.25
      vertex -2.53757 -3.09204 40
      vertex -2.82843 -2.82843 40
    endloop
  endfacet
  facet normal 0.803201 -0.595708 0
    outer loop
      vertex -3.32588 2.22228 41.25
      vertex -3.09204 2.53757 40
      vertex -3.09204 2.53757 41.25
    endloop
  endfacet
  facet normal 0.803201 -0.595708 0
    outer loop
      vertex -3.09204 2.53757 40
      vertex -3.32588 2.22228 41.25
      vertex -3.32588 2.22228 40
    endloop
  endfacet
  facet normal 0.857733 -0.514095 0
    outer loop
      vertex -3.52768 1.88559 41.25
      vertex -3.32588 2.22228 40
      vertex -3.32588 2.22228 41.25
    endloop
  endfacet
  facet normal 0.857733 -0.514095 0
    outer loop
      vertex -3.32588 2.22228 40
      vertex -3.52768 1.88559 41.25
      vertex -3.52768 1.88559 40
    endloop
  endfacet
  facet normal 0 0 -1
    outer loop
      vertex 3.98074 -0.392068 41.25
      vertex 3.98074 0.392068 41.25
      vertex 4 0 41.25
    endloop
  endfacet
  facet normal 0 0 -1
    outer loop
      vertex 3.92314 -0.780361 41.25
      vertex 3.98074 0.392068 41.25
      vertex 3.98074 -0.392068 41.25
    endloop
  endfacet
  facet normal 0 0 -1
    outer loop
      vertex 3.92314 -0.780361 41.25
      vertex 3.92314 0.780361 41.25
      vertex 3.98074 0.392068 41.25
    endloop
  endfacet
  facet normal 0 0 -1
    outer loop
      vertex 3.82776 -1.16114 41.25
      vertex 3.92314 0.780361 41.25
      vertex 3.92314 -0.780361 41.25
    endloop
  endfacet
  facet normal 0 0 -1
    outer loop
      vertex 3.82776 -1.16114 41.25
      vertex 3.82776 1.16114 41.25
      vertex 3.92314 0.780361 41.25
    endloop
  endfacet
  facet normal 0 0 -1
    outer loop
      vertex 3.69552 -1.53073 41.25
      vertex 3.82776 1.16114 41.25
      vertex 3.82776 -1.16114 41.25
    endloop
  endfacet
  facet normal 0 0 -1
    outer loop
      vertex 3.69552 -1.53073 41.25
      vertex 3.69552 1.53073 41.25
      vertex 3.82776 1.16114 41.25
    endloop
  endfacet
  facet normal 0 0 -1
    outer loop
      vertex 3.52768 -1.88559 41.25
      vertex 3.69552 1.53073 41.25
      vertex 3.69552 -1.53073 41.25
    endloop
  endfacet
  facet normal 0 0 -1
    outer loop
      vertex 3.52768 -1.88559 41.25
      vertex 3.52768 1.88559 41.25
      vertex 3.69552 1.53073 41.25
    endloop
  endfacet
  facet normal 0 0 -1
    outer loop
      vertex 3.32588 -2.22228 41.25
      vertex 3.52768 1.88559 41.25
      vertex 3.52768 -1.88559 41.25
    endloop
  endfacet
  facet normal 0 0 -1
    outer loop
      vertex 3.32588 -2.22228 41.25
      vertex 3.32588 2.22228 41.25
      vertex 3.52768 1.88559 41.25
    endloop
  endfacet
  facet normal 0 0 -1
    outer loop
      vertex 3.09204 -2.53757 41.25
      vertex 3.32588 2.22228 41.25
      vertex 3.32588 -2.22228 41.25
    endloop
  endfacet
  facet normal 0 0 -1
    outer loop
      vertex 3.09204 -2.53757 41.25
      vertex 3.09204 2.53757 41.25
      vertex 3.32588 2.22228 41.25
    endloop
  endfacet
  facet normal 0 0 -1
    outer loop
      vertex 2.82843 -2.82843 41.25
      vertex 3.09204 2.53757 41.25
      vertex 3.09204 -2.53757 41.25
    endloop
  endfacet
  facet normal 0 0 -1
    outer loop
      vertex 2.82843 -2.82843 41.25
      vertex 2.82843 2.82843 41.25
      vertex 3.09204 2.53757 41.25
    endloop
  endfacet
  facet normal 0 0 -1
    outer loop
      vertex 2.53757 -3.09204 41.25
      vertex 2.82843 2.82843 41.25
      vertex 2.82843 -2.82843 41.25
    endloop
  endfacet
  facet normal 0 0 -1
    outer loop
      vertex 2.53757 -3.09204 41.25
      vertex 2.53757 3.09204 41.25
      vertex 2.82843 2.82843 41.25
    endloop
  endfacet
  facet normal 0 0 -1
    outer loop
      vertex 2.22228 -3.32588 41.25
      vertex 2.53757 3.09204 41.25
      vertex 2.53757 -3.09204 41.25
    endloop
  endfacet
  facet normal 0 0 -1
    outer loop
      vertex 2.22228 -3.32588 41.25
      vertex 2.22228 3.32588 41.25
      vertex 2.53757 3.09204 41.25
    endloop
  endfacet
  facet normal 0 0 -1
    outer loop
      vertex 1.88559 -3.52768 41.25
      vertex 2.22228 3.32588 41.25
      vertex 2.22228 -3.32588 41.25
    endloop
  endfacet
  facet normal 0 0 -1
    outer loop
      vertex 1.88559 -3.52768 41.25
      vertex 1.88559 3.52768 41.25
      vertex 2.22228 3.32588 41.25
    endloop
  endfacet
  facet normal 0 0 -1
    outer loop
      vertex 1.53073 -3.69552 41.25
      vertex 1.88559 3.52768 41.25
      vertex 1.88559 -3.52768 41.25
    endloop
  endfacet
  facet normal 0 0 -1
    outer loop
      vertex 1.53073 -3.69552 41.25
      vertex 1.53073 3.69552 41.25
      vertex 1.88559 3.52768 41.25
    endloop
  endfacet
  facet normal 0 0 -1
    outer loop
      vertex 1.16114 -3.82776 41.25
      vertex 1.53073 3.69552 41.25
      vertex 1.53073 -3.69552 41.25
    endloop
  endfacet
  facet normal 0 0 -1
    outer loop
      vertex 1.16114 -3.82776 41.25
      vertex 1.16114 3.82776 41.25
      vertex 1.53073 3.69552 41.25
    endloop
  endfacet
  facet normal 0 0 -1
    outer loop
      vertex 0.780361 -3.92314 41.25
      vertex 1.16114 3.82776 41.25
      vertex 1.16114 -3.82776 41.25
    endloop
  endfacet
  facet normal 0 0 -1
    outer loop
      vertex 0.780361 -3.92314 41.25
      vertex 0.780361 3.92314 41.25
      vertex 1.16114 3.82776 41.25
    endloop
  endfacet
  facet normal 0 0 -1
    outer loop
      vertex 0.392068 -3.98074 41.25
      vertex 0.780361 3.92314 41.25
      vertex 0.780361 -3.92314 41.25
    endloop
  endfacet
  facet normal 0 0 -1
    outer loop
      vertex 0.392068 -3.98074 41.25
      vertex 0.392068 3.98074 41.25
      vertex 0.780361 3.92314 41.25
    endloop
  endfacet
  facet normal 0 0 -1
    outer loop
      vertex 0 -4 41.25
      vertex 0.392068 3.98074 41.25
      vertex 0.392068 -3.98074 41.25
    endloop
  endfacet
  facet normal 0 0 -1
    outer loop
      vertex 0 -4 41.25
      vertex 0 4 41.25
      vertex 0.392068 3.98074 41.25
    endloop
  endfacet
  facet normal 0 0 -1
    outer loop
      vertex -0.392068 -3.98074 41.25
      vertex 0 4 41.25
      vertex 0 -4 41.25
    endloop
  endfacet
  facet normal 0 0 -1
    outer loop
      vertex -0.392068 -3.98074 41.25
      vertex -0.392068 3.98074 41.25
      vertex 0 4 41.25
    endloop
  endfacet
  facet normal 0 0 -1
    outer loop
      vertex -0.780361 -3.92314 41.25
      vertex -0.392068 3.98074 41.25
      vertex -0.392068 -3.98074 41.25
    endloop
  endfacet
  facet normal 0 0 -1
    outer loop
      vertex -0.780361 -3.92314 41.25
      vertex -0.780361 3.92314 41.25
      vertex -0.392068 3.98074 41.25
    endloop
  endfacet
  facet normal 0 0 -1
    outer loop
      vertex -1.16114 -3.82776 41.25
      vertex -0.780361 3.92314 41.25
      vertex -0.780361 -3.92314 41.25
    endloop
  endfacet
  facet normal 0 0 -1
    outer loop
      vertex -1.16114 -3.82776 41.25
      vertex -1.16114 3.82776 41.25
      vertex -0.780361 3.92314 41.25
    endloop
  endfacet
  facet normal 0 0 -1
    outer loop
      vertex -1.53073 -3.69552 41.25
      vertex -1.16114 3.82776 41.25
      vertex -1.16114 -3.82776 41.25
    endloop
  endfacet
  facet normal 0 0 -1
    outer loop
      vertex -1.53073 -3.69552 41.25
      vertex -1.53073 3.69552 41.25
      vertex -1.16114 3.82776 41.25
    endloop
  endfacet
  facet normal 0 0 -1
    outer loop
      vertex -1.88559 -3.52768 41.25
      vertex -1.53073 3.69552 41.25
      vertex -1.53073 -3.69552 41.25
    endloop
  endfacet
  facet normal 0 0 -1
    outer loop
      vertex -1.88559 -3.52768 41.25
      vertex -1.88559 3.52768 41.25
      vertex -1.53073 3.69552 41.25
    endloop
  endfacet
  facet normal 0 0 -1
    outer loop
      vertex -2.22228 -3.32588 41.25
      vertex -1.88559 3.52768 41.25
      vertex -1.88559 -3.52768 41.25
    endloop
  endfacet
  facet normal 0 0 -1
    outer loop
      vertex -2.22228 -3.32588 41.25
      vertex -2.22228 3.32588 41.25
      vertex -1.88559 3.52768 41.25
    endloop
  endfacet
  facet normal 0 0 -1
    outer loop
      vertex -2.53757 -3.09204 41.25
      vertex -2.22228 3.32588 41.25
      vertex -2.22228 -3.32588 41.25
    endloop
  endfacet
  facet normal 0 0 -1
    outer loop
      vertex -2.53757 -3.09204 41.25
      vertex -2.53757 3.09204 41.25
      vertex -2.22228 3.32588 41.25
    endloop
  endfacet
  facet normal 0 0 -1
    outer loop
      vertex -2.82843 -2.82843 41.25
      vertex -2.53757 3.09204 41.25
      vertex -2.53757 -3.09204 41.25
    endloop
  endfacet
  facet normal 0 0 -1
    outer loop
      vertex -2.82843 -2.82843 41.25
      vertex -2.82843 2.82843 41.25
      vertex -2.53757 3.09204 41.25
    endloop
  endfacet
  facet normal 0 0 -1
    outer loop
      vertex -3.09204 -2.53757 41.25
      vertex -2.82843 2.82843 41.25
      vertex -2.82843 -2.82843 41.25
    endloop
  endfacet
  facet normal 0 0 -1
    outer loop
      vertex -3.09204 -2.53757 41.25
      vertex -3.09204 2.53757 41.25
      vertex -2.82843 2.82843 41.25
    endloop
  endfacet
  facet normal 0 0 -1
    outer loop
      vertex -3.32588 -2.22228 41.25
      vertex -3.09204 2.53757 41.25
      vertex -3.09204 -2.53757 41.25
    endloop
  endfacet
  facet normal 0 0 -1
    outer loop
      vertex -3.32588 -2.22228 41.25
      vertex -3.32588 2.22228 41.25
      vertex -3.09204 2.53757 41.25
    endloop
  endfacet
  facet normal 0 0 -1
    outer loop
      vertex -3.52768 -1.88559 41.25
      vertex -3.32588 2.22228 41.25
      vertex -3.32588 -2.22228 41.25
    endloop
  endfacet
  facet normal 0 0 -1
    outer loop
      vertex -3.52768 -1.88559 41.25
      vertex -3.52768 1.88559 41.25
      vertex -3.32588 2.22228 41.25
    endloop
  endfacet
  facet normal 0 0 -1
    outer loop
      vertex -3.69552 -1.53073 41.25
      vertex -3.52768 1.88559 41.25
      vertex -3.52768 -1.88559 41.25
    endloop
  endfacet
  facet normal 0 0 -1
    outer loop
      vertex -3.69552 -1.53073 41.25
      vertex -3.69552 1.53073 41.25
      vertex -3.52768 1.88559 41.25
    endloop
  endfacet
  facet normal 0 0 -1
    outer loop
      vertex -3.82776 -1.16114 41.25
      vertex -3.69552 1.53073 41.25
      vertex -3.69552 -1.53073 41.25
    endloop
  endfacet
  facet normal 0 0 -1
    outer loop
      vertex -3.82776 -1.16114 41.25
      vertex -3.82776 1.16114 41.25
      vertex -3.69552 1.53073 41.25
    endloop
  endfacet
  facet normal 0 0 -1
    outer loop
      vertex -3.92314 -0.780361 41.25
      vertex -3.82776 1.16114 41.25
      vertex -3.82776 -1.16114 41.25
    endloop
  endfacet
  facet normal 0 0 -1
    outer loop
      vertex -3.92314 -0.780361 41.25
      vertex -3.92314 0.780361 41.25
      vertex -3.82776 1.16114 41.25
    endloop
  endfacet
  facet normal 0 0 -1
    outer loop
      vertex -3.98074 -0.392068 41.25
      vertex -3.92314 0.780361 41.25
      vertex -3.92314 -0.780361 41.25
    endloop
  endfacet
  facet normal 0 0 -1
    outer loop
      vertex -3.98074 -0.392068 41.25
      vertex -3.98074 0.392068 41.25
      vertex -3.92314 0.780361 41.25
    endloop
  endfacet
  facet normal 0 -0 -1
    outer loop
      vertex -3.98074 0.392068 41.25
      vertex -3.98074 -0.392068 41.25
      vertex -4 0 41.25
    endloop
  endfacet
  facet normal 0.049065 0.998796 -0
    outer loop
      vertex 0 -4 40
      vertex -0.392068 -3.98074 41.25
      vertex 0 -4 41.25
    endloop
  endfacet
  facet normal 0.049065 0.998796 0
    outer loop
      vertex -0.392068 -3.98074 41.25
      vertex 0 -4 40
      vertex -0.392068 -3.98074 40
    endloop
  endfacet
  facet normal 0.998796 -0.049065 0
    outer loop
      vertex -4 0 41.25
      vertex -3.98074 0.392068 40
      vertex -3.98074 0.392068 41.25
    endloop
  endfacet
  facet normal 0.998796 -0.049065 0
    outer loop
      vertex -3.98074 0.392068 40
      vertex -4 0 41.25
      vertex -4 0 40
    endloop
  endfacet
  facet normal -0.740964 0.671545 0
    outer loop
      vertex 2.82843 -2.82843 40
      vertex 3.09204 -2.53757 41.25
      vertex 3.09204 -2.53757 40
    endloop
  endfacet
  facet normal -0.740964 0.671545 0
    outer loop
      vertex 3.09204 -2.53757 41.25
      vertex 2.82843 -2.82843 40
      vertex 2.82843 -2.82843 41.25
    endloop
  endfacet
  facet normal -0.671545 0.740964 0
    outer loop
      vertex 2.82843 -2.82843 40
      vertex 2.53757 -3.09204 41.25
      vertex 2.82843 -2.82843 41.25
    endloop
  endfacet
  facet normal -0.671545 0.740964 0
    outer loop
      vertex 2.53757 -3.09204 41.25
      vertex 2.82843 -2.82843 40
      vertex 2.53757 -3.09204 40
    endloop
  endfacet
  facet normal 0 0 -1
    outer loop
      vertex 4 -2.30939 10
      vertex 8 0 10
      vertex 7.96148 -0.784137 10
    endloop
  endfacet
  facet normal 0 0 -1
    outer loop
      vertex 4 -2.30939 10
      vertex 7.96148 -0.784137 10
      vertex 7.84628 -1.56072 10
    endloop
  endfacet
  facet normal 0 0 -1
    outer loop
      vertex 4 2.30939 10
      vertex 8 0 10
      vertex 4 -2.30939 10
    endloop
  endfacet
  facet normal 0 0 -1
    outer loop
      vertex 4 -2.30939 10
      vertex 7.84628 -1.56072 10
      vertex 7.65552 -2.32228 10
    endloop
  endfacet
  facet normal 0 0 -1
    outer loop
      vertex 8 0 10
      vertex 4 2.30939 10
      vertex 7.96148 0.784137 10
    endloop
  endfacet
  facet normal 0 0 -1
    outer loop
      vertex 4 -2.30939 10
      vertex 7.65552 -2.32228 10
      vertex 7.39104 -3.06147 10
    endloop
  endfacet
  facet normal 0 0 -1
    outer loop
      vertex 7.96148 0.784137 10
      vertex 4 2.30939 10
      vertex 7.84628 1.56072 10
    endloop
  endfacet
  facet normal 0 0 -1
    outer loop
      vertex 4 -2.30939 10
      vertex 7.39104 -3.06147 10
      vertex 7.05537 -3.77117 10
    endloop
  endfacet
  facet normal 0 0 -1
    outer loop
      vertex 7.84628 1.56072 10
      vertex 4 2.30939 10
      vertex 7.65552 2.32228 10
    endloop
  endfacet
  facet normal 0 0 -1
    outer loop
      vertex 4 -2.30939 10
      vertex 7.05537 -3.77117 10
      vertex 6.65176 -4.44456 10
    endloop
  endfacet
  facet normal -0 0 -1
    outer loop
      vertex 7.65552 2.32228 10
      vertex 4 2.30939 10
      vertex 7.39104 3.06147 10
    endloop
  endfacet
  facet normal 0 0 -1
    outer loop
      vertex 4 -2.30939 10
      vertex 6.65176 -4.44456 10
      vertex 6.18408 -5.07515 10
    endloop
  endfacet
  facet normal -0 0 -1
    outer loop
      vertex 7.39104 3.06147 10
      vertex 4 2.30939 10
      vertex 7.05537 3.77117 10
    endloop
  endfacet
  facet normal 0 0 -1
    outer loop
      vertex 4 -2.30939 10
      vertex 6.18408 -5.07515 10
      vertex 5.65685 -5.65685 10
    endloop
  endfacet
  facet normal -0 0 -1
    outer loop
      vertex 7.05537 3.77117 10
      vertex 4 2.30939 10
      vertex 6.65176 4.44456 10
    endloop
  endfacet
  facet normal 0 0 -1
    outer loop
      vertex 4 -2.30939 10
      vertex 5.65685 -5.65685 10
      vertex 5.07515 -6.18408 10
    endloop
  endfacet
  facet normal -0 0 -1
    outer loop
      vertex 6.65176 4.44456 10
      vertex 4 2.30939 10
      vertex 6.18408 5.07515 10
    endloop
  endfacet
  facet normal 0 0 -1
    outer loop
      vertex 4 -2.30939 10
      vertex 5.07515 -6.18408 10
      vertex 4.44456 -6.65176 10
    endloop
  endfacet
  facet normal -0 0 -1
    outer loop
      vertex 6.18408 5.07515 10
      vertex 4 2.30939 10
      vertex 5.65685 5.65685 10
    endloop
  endfacet
  facet normal -0 0 -1
    outer loop
      vertex 5.65685 5.65685 10
      vertex 4 2.30939 10
      vertex 5.07515 6.18408 10
    endloop
  endfacet
  facet normal 0 0 -1
    outer loop
      vertex 3.77117 -7.05537 10
      vertex 4 -2.30939 10
      vertex 4.44456 -6.65176 10
    endloop
  endfacet
  facet normal 0 0 -1
    outer loop
      vertex 0 -4.6188 10
      vertex 3.77117 -7.05537 10
      vertex 3.06147 -7.39104 10
    endloop
  endfacet
  facet normal 0 0 -1
    outer loop
      vertex 0 -4.6188 10
      vertex 3.06147 -7.39104 10
      vertex 2.32228 -7.65552 10
    endloop
  endfacet
  facet normal 0 0 -1
    outer loop
      vertex 0 -4.6188 10
      vertex 2.32228 -7.65552 10
      vertex 1.56072 -7.84628 10
    endloop
  endfacet
  facet normal 0 0 -1
    outer loop
      vertex 0 -4.6188 10
      vertex 1.56072 -7.84628 10
      vertex 0.784137 -7.96148 10
    endloop
  endfacet
  facet normal 0 0 -1
    outer loop
      vertex 0 -4.6188 10
      vertex 0.784137 -7.96148 10
      vertex 0 -8 10
    endloop
  endfacet
  facet normal 0 0 -1
    outer loop
      vertex 3.77117 -7.05537 10
      vertex 0 -4.6188 10
      vertex 4 -2.30939 10
    endloop
  endfacet
  facet normal 0 0 -1
    outer loop
      vertex -0.784137 -7.96148 10
      vertex 0 -4.6188 10
      vertex 0 -8 10
    endloop
  endfacet
  facet normal 0 0 -1
    outer loop
      vertex -1.56072 -7.84628 10
      vertex 0 -4.6188 10
      vertex -0.784137 -7.96148 10
    endloop
  endfacet
  facet normal 0 0 -1
    outer loop
      vertex -2.32228 -7.65552 10
      vertex 0 -4.6188 10
      vertex -1.56072 -7.84628 10
    endloop
  endfacet
  facet normal 0 0 -1
    outer loop
      vertex -3.06147 -7.39104 10
      vertex 0 -4.6188 10
      vertex -2.32228 -7.65552 10
    endloop
  endfacet
  facet normal 0 0 -1
    outer loop
      vertex -3.77117 -7.05537 10
      vertex 0 -4.6188 10
      vertex -3.06147 -7.39104 10
    endloop
  endfacet
  facet normal 0 0 -1
    outer loop
      vertex -3.77117 -7.05537 10
      vertex -4 -2.30939 10
      vertex 0 -4.6188 10
    endloop
  endfacet
  facet normal 0 0 -1
    outer loop
      vertex -5.07515 -6.18408 10
      vertex -4 -2.30939 10
      vertex -4.44456 -6.65176 10
    endloop
  endfacet
  facet normal 0 0 -1
    outer loop
      vertex -4.44456 -6.65176 10
      vertex -4 -2.30939 10
      vertex -3.77117 -7.05537 10
    endloop
  endfacet
  facet normal -0 0 -1
    outer loop
      vertex 5.07515 6.18408 10
      vertex 4 2.30939 10
      vertex 4.44456 6.65176 10
    endloop
  endfacet
  facet normal 0 0 -1
    outer loop
      vertex 4 2.30939 10
      vertex 3.77117 7.05537 10
      vertex 4.44456 6.65176 10
    endloop
  endfacet
  facet normal 0 0 -1
    outer loop
      vertex 0 4.6188 10
      vertex 3.77117 7.05537 10
      vertex 4 2.30939 10
    endloop
  endfacet
  facet normal -0 0 -1
    outer loop
      vertex 3.77117 7.05537 10
      vertex 0 4.6188 10
      vertex 3.06147 7.39104 10
    endloop
  endfacet
  facet normal -0 0 -1
    outer loop
      vertex 3.06147 7.39104 10
      vertex 0 4.6188 10
      vertex 2.32228 7.65552 10
    endloop
  endfacet
  facet normal -0 0 -1
    outer loop
      vertex 2.32228 7.65552 10
      vertex 0 4.6188 10
      vertex 1.56072 7.84628 10
    endloop
  endfacet
  facet normal -0 0 -1
    outer loop
      vertex 1.56072 7.84628 10
      vertex 0 4.6188 10
      vertex 0.784137 7.96148 10
    endloop
  endfacet
  facet normal 0 0 -1
    outer loop
      vertex 0 4.6188 10
      vertex 0 8 10
      vertex 0.784137 7.96148 10
    endloop
  endfacet
  facet normal 0 0 -1
    outer loop
      vertex 0 4.6188 10
      vertex -0.784137 7.96148 10
      vertex 0 8 10
    endloop
  endfacet
  facet normal 0 0 -1
    outer loop
      vertex 0 4.6188 10
      vertex -1.56072 7.84628 10
      vertex -0.784137 7.96148 10
    endloop
  endfacet
  facet normal 0 0 -1
    outer loop
      vertex 0 4.6188 10
      vertex -2.32228 7.65552 10
      vertex -1.56072 7.84628 10
    endloop
  endfacet
  facet normal 0 0 -1
    outer loop
      vertex 0 4.6188 10
      vertex -3.06147 7.39104 10
      vertex -2.32228 7.65552 10
    endloop
  endfacet
  facet normal 0 0 -1
    outer loop
      vertex 0 4.6188 10
      vertex -3.77117 7.05537 10
      vertex -3.06147 7.39104 10
    endloop
  endfacet
  facet normal 0 0 -1
    outer loop
      vertex -4 2.30939 10
      vertex -3.77117 7.05537 10
      vertex 0 4.6188 10
    endloop
  endfacet
  facet normal 0 0 -1
    outer loop
      vertex -5.65685 -5.65685 10
      vertex -4 -2.30939 10
      vertex -5.07515 -6.18408 10
    endloop
  endfacet
  facet normal 0 0 -1
    outer loop
      vertex -4 2.30939 10
      vertex -4.44456 6.65176 10
      vertex -3.77117 7.05537 10
    endloop
  endfacet
  facet normal 0 0 -1
    outer loop
      vertex -6.18408 -5.07515 10
      vertex -4 -2.30939 10
      vertex -5.65685 -5.65685 10
    endloop
  endfacet
  facet normal 0 0 -1
    outer loop
      vertex -4 2.30939 10
      vertex -5.07515 6.18408 10
      vertex -4.44456 6.65176 10
    endloop
  endfacet
  facet normal 0 0 -1
    outer loop
      vertex -6.65176 -4.44456 10
      vertex -4 -2.30939 10
      vertex -6.18408 -5.07515 10
    endloop
  endfacet
  facet normal 0 0 -1
    outer loop
      vertex -4 2.30939 10
      vertex -5.65685 5.65685 10
      vertex -5.07515 6.18408 10
    endloop
  endfacet
  facet normal 0 0 -1
    outer loop
      vertex -7.05537 -3.77117 10
      vertex -4 -2.30939 10
      vertex -6.65176 -4.44456 10
    endloop
  endfacet
  facet normal 0 0 -1
    outer loop
      vertex -4 2.30939 10
      vertex -6.18408 5.07515 10
      vertex -5.65685 5.65685 10
    endloop
  endfacet
  facet normal 0 0 -1
    outer loop
      vertex -7.39104 -3.06147 10
      vertex -4 -2.30939 10
      vertex -7.05537 -3.77117 10
    endloop
  endfacet
  facet normal 0 0 -1
    outer loop
      vertex -4 2.30939 10
      vertex -6.65176 4.44456 10
      vertex -6.18408 5.07515 10
    endloop
  endfacet
  facet normal 0 0 -1
    outer loop
      vertex -7.65552 -2.32228 10
      vertex -4 -2.30939 10
      vertex -7.39104 -3.06147 10
    endloop
  endfacet
  facet normal 0 0 -1
    outer loop
      vertex -4 2.30939 10
      vertex -7.05537 3.77117 10
      vertex -6.65176 4.44456 10
    endloop
  endfacet
  facet normal 0 0 -1
    outer loop
      vertex -7.84628 -1.56072 10
      vertex -4 -2.30939 10
      vertex -7.65552 -2.32228 10
    endloop
  endfacet
  facet normal 0 0 -1
    outer loop
      vertex -4 2.30939 10
      vertex -7.39104 3.06147 10
      vertex -7.05537 3.77117 10
    endloop
  endfacet
  facet normal 0 0 -1
    outer loop
      vertex -7.96148 -0.784137 10
      vertex -4 -2.30939 10
      vertex -7.84628 -1.56072 10
    endloop
  endfacet
  facet normal 0 0 -1
    outer loop
      vertex -4 2.30939 10
      vertex -7.65552 2.32228 10
      vertex -7.39104 3.06147 10
    endloop
  endfacet
  facet normal 0 0 -1
    outer loop
      vertex -8 0 10
      vertex -4 -2.30939 10
      vertex -7.96148 -0.784137 10
    endloop
  endfacet
  facet normal -0 0 -1
    outer loop
      vertex -4 2.30939 10
      vertex -7.84628 1.56072 10
      vertex -7.65552 2.32228 10
    endloop
  endfacet
  facet normal 0 0 -1
    outer loop
      vertex -4 -2.30939 10
      vertex -8 0 10
      vertex -4 2.30939 10
    endloop
  endfacet
  facet normal 0 0 -1
    outer loop
      vertex -4 2.30939 10
      vertex -7.96148 0.784137 10
      vertex -7.84628 1.56072 10
    endloop
  endfacet
  facet normal 0 0 -1
    outer loop
      vertex -4 2.30939 10
      vertex -8 0 10
      vertex -7.96148 0.784137 10
    endloop
  endfacet
  facet normal -1 0 0
    outer loop
      vertex -4 -2.30939 0
      vertex -4 2.30939 10
      vertex -4 2.30939 0
    endloop
  endfacet
  facet normal -1 -0 0
    outer loop
      vertex -4 2.30939 10
      vertex -4 -2.30939 0
      vertex -4 -2.30939 10
    endloop
  endfacet
  facet normal -0.500001 0.866025 0
    outer loop
      vertex 0 4.6188 0
      vertex -4 2.30939 10
      vertex 0 4.6188 10
    endloop
  endfacet
  facet normal -0.500001 0.866025 0
    outer loop
      vertex -4 2.30939 10
      vertex 0 4.6188 0
      vertex -4 2.30939 0
    endloop
  endfacet
  facet normal 0.500001 0.866025 -0
    outer loop
      vertex 4 2.30939 0
      vertex 0 4.6188 10
      vertex 4 2.30939 10
    endloop
  endfacet
  facet normal 0.500001 0.866025 0
    outer loop
      vertex 0 4.6188 10
      vertex 4 2.30939 0
      vertex 0 4.6188 0
    endloop
  endfacet
  facet normal 1 -0 0
    outer loop
      vertex 4 -2.30939 10
      vertex 4 2.30939 0
      vertex 4 2.30939 10
    endloop
  endfacet
  facet normal 1 0 0
    outer loop
      vertex 4 2.30939 0
      vertex 4 -2.30939 10
      vertex 4 -2.30939 0
    endloop
  endfacet
  facet normal 0.500001 -0.866025 0
    outer loop
      vertex 0 -4.6188 0
      vertex 4 -2.30939 10
      vertex 0 -4.6188 10
    endloop
  endfacet
  facet normal 0.500001 -0.866025 0
    outer loop
      vertex 4 -2.30939 10
      vertex 0 -4.6188 0
      vertex 4 -2.30939 0
    endloop
  endfacet
  facet normal -0.500001 -0.866025 0
    outer loop
      vertex -4 -2.30939 0
      vertex 0 -4.6188 10
      vertex -4 -2.30939 10
    endloop
  endfacet
  facet normal -0.500001 -0.866025 -0
    outer loop
      vertex 0 -4.6188 10
      vertex -4 -2.30939 0
      vertex 0 -4.6188 0
    endloop
  endfacet
endsolid OpenSCAD_Model
